<?xml version="1.0" standalone="no"?>
<!DOCTYPE svg PUBLIC "-//W3C//DTD SVG 20010904//EN"
 "http://www.w3.org/TR/2001/REC-SVG-20010904/DTD/svg10.dtd">
<svg version="1.0" xmlns="http://www.w3.org/2000/svg"
 width="2048.000000pt" height="2048.000000pt" viewBox="0 0 2048.000000 2048.000000"
 preserveAspectRatio="xMidYMid meet">

<g transform="translate(0.000000,2048.000000) scale(0.100000,-0.100000)"
fill="#000000" stroke="none">
<path d="M8572 12352 c-100 -36 -162 -120 -169 -232 -7 -105 44 -191 142 -236
166 -78 357 46 359 231 2 175 -167 295 -332 237z"/>
<path d="M16455 12326 c-56 -26 -74 -45 -166 -166 -106 -140 -338 -440 -403
-520 -126 -154 -197 -251 -216 -292 -18 -39 -20 -68 -20 -340 l0 -298 105 0
c58 0 106 3 106 8 1 4 2 95 3 202 1 125 -2 198 -9 203 -6 4 -1 9 11 13 13 3
25 18 31 37 8 29 13 33 58 39 72 9 458 9 473 0 25 -16 32 -80 32 -290 l0 -213
113 3 112 3 3 753 c3 731 2 753 -17 797 -37 83 -120 107 -216 61z m-74 -343
c8 -9 16 -51 19 -103 4 -51 11 -95 19 -104 9 -11 30 -16 70 -16 31 0 62 -5 69
-12 15 -15 17 -613 3 -623 -18 -10 -26 20 -31 115 l-5 95 -355 0 -355 0 -3
-107 c-3 -107 -3 -108 -27 -108 l-25 0 0 108 1 107 35 40 c19 22 96 117 171
210 168 209 266 328 312 378 38 41 79 49 102 20z"/>
<path d="M8910 12283 c79 -128 53 -299 -61 -397 -68 -58 -104 -71 -194 -71
-64 1 -92 6 -140 27 -33 14 -88 32 -123 38 -59 12 -65 12 -83 -7 -11 -11 -40
-68 -64 -127 -25 -59 -56 -121 -70 -138 -27 -31 -28 -43 -19 -124 l7 -52 69
-4 c89 -5 108 -24 108 -104 0 -76 -20 -94 -104 -94 -59 0 -65 -2 -68 -22 -3
-22 -9 -23 -113 -30 -60 -4 -155 -11 -210 -15 l-100 -8 -3 -84 -3 -83 27 21
c23 18 40 21 128 21 55 0 106 4 112 8 6 4 11 27 13 52 1 25 7 50 12 55 6 6
263 11 718 13 687 3 709 3 704 21 -3 11 4 28 16 40 l21 21 943 0 c762 0 947
-3 961 -13 10 -7 19 -29 21 -48 l2 -34 69 -6 c38 -3 70 -5 71 -5 0 1 3 57 5
126 l3 125 -1420 2 c-1321 3 -1421 4 -1432 20 -8 10 -13 50 -13 106 l0 88 -47
-6 c-27 -4 -65 -13 -86 -21 -20 -8 -56 -14 -78 -14 -33 0 -47 6 -75 34 -28 28
-34 41 -34 78 0 50 18 82 60 103 85 44 180 -14 180 -110 l0 -25 265 0 266 0
-23 31 c-19 25 -24 46 -26 117 -3 96 11 134 65 169 26 17 86 18 1118 21 1023
2 1092 1 1125 -15 56 -29 75 -73 75 -178 0 -100 -15 -142 -62 -172 -26 -17
-103 -18 -1355 -16 l-1328 1 0 -84 0 -84 1424 0 c1272 0 1425 -2 1436 -15 12
-15 12 -143 -2 -705 -1 -19 0 -99 0 -177 l2 -143 150 0 c112 0 152 3 155 13 2
6 6 222 10 480 l6 467 -119 0 c-106 0 -120 2 -124 18 -2 9 -6 143 -7 297 -3
299 -5 313 -56 373 -52 62 -122 83 -315 97 -263 18 -757 56 -835 65 -49 5
-157 14 -240 20 -82 6 -193 15 -245 20 -52 5 -160 14 -240 20 -80 6 -217 17
-305 25 -347 32 -494 45 -523 45 l-31 0 29 -47z"/>
<path d="M8464 11735 c-49 -20 -58 -64 -23 -109 40 -51 139 -20 139 44 0 57
-58 90 -116 65z"/>
<path d="M12030 11448 c-31 -16 -46 -31 -51 -51 -4 -16 -9 -259 -11 -540 -2
-413 0 -517 10 -535 8 -13 35 -33 60 -45 46 -20 57 -20 452 -13 223 4 581 11
795 16 215 5 698 16 1075 25 1151 26 1190 29 1219 83 7 14 11 168 11 472 0
492 0 495 -57 519 -15 6 -43 15 -62 21 -19 5 -511 18 -1095 29 -584 12 -1279
25 -1546 31 -717 15 -747 15 -800 -12z m568 -301 c2 -172 2 -177 -18 -177 -19
0 -20 6 -20 173 0 96 3 177 7 181 22 22 28 -11 31 -177z m467 3 c0 -153 -2
-175 -16 -178 -24 -4 -29 26 -29 185 0 153 4 176 29 171 14 -3 16 -25 16 -178z
m443 3 c-3 -150 -5 -178 -18 -178 -13 0 -15 26 -18 165 -1 90 0 170 2 177 3 7
12 13 21 13 13 0 15 -22 13 -177z m460 2 c1 -93 0 -175 -2 -182 -3 -7 -12 -10
-21 -7 -13 5 -15 33 -15 178 0 95 3 176 7 180 22 22 28 -11 31 -169z m947 -10
c0 -162 -7 -197 -34 -181 -16 10 -15 338 1 354 26 26 33 -9 33 -173z m435 5
c0 -146 -3 -180 -14 -180 -19 0 -26 46 -26 174 0 133 8 186 26 186 11 0 14
-34 14 -180z m-905 148 c2 -13 1 -93 -3 -178 -6 -128 -10 -155 -22 -155 -13 0
-15 26 -18 165 -1 90 0 170 2 177 9 21 35 15 41 -9z m-1847 -716 c2 -187 2
-192 -18 -192 -19 0 -20 6 -20 196 0 181 1 195 18 192 15 -3 17 -22 20 -196z
m470 14 c3 -184 -4 -220 -34 -195 -11 9 -14 47 -14 164 0 177 5 217 29 213 14
-3 16 -27 19 -182z m442 -6 c0 -183 -1 -190 -20 -190 -19 0 -20 7 -20 190 0
183 1 190 20 190 19 0 20 -7 20 -190z m1842 18 c4 -199 1 -238 -17 -238 -23 0
-26 30 -19 221 5 142 10 189 20 189 9 0 13 -42 16 -172z m-1382 -38 c0 -193
-1 -200 -20 -200 -19 0 -20 7 -20 200 0 193 1 200 20 200 19 0 20 -7 20 -200z
m476 154 c10 -67 0 -332 -13 -345 -28 -28 -33 5 -33 197 0 185 1 194 19 194
16 0 21 -10 27 -46z m469 -29 c8 -84 3 -311 -8 -321 -3 -4 -13 -4 -22 -1 -13
5 -15 34 -15 195 0 104 3 192 7 195 21 22 32 2 38 -68z"/>
<path d="M7943 11433 c-9 -3 -13 -35 -13 -109 l0 -104 94 0 c66 0 95 4 98 13
2 6 2 53 0 104 -3 84 -5 91 -25 97 -26 7 -137 7 -154 -1z"/>
<path d="M8187 11383 c-15 -4 -17 -13 -15 -56 l3 -52 60 0 60 0 3 45 c3 33 -1
47 -14 57 -17 13 -61 15 -97 6z"/>
<path d="M9496 11184 c-8 -20 -8 -198 0 -218 5 -13 24 -16 99 -16 110 0 125
-10 125 -83 l0 -47 58 4 57 4 5 54 c3 30 13 66 23 82 38 57 29 56 728 56 571
0 645 -2 675 -16 47 -23 76 -67 82 -125 l5 -49 41 0 c22 0 60 -7 84 -15 24 -9
48 -13 53 -10 5 4 9 71 9 151 l0 144 -74 0 c-81 0 -86 3 -96 60 l-5 35 -932 3
c-842 2 -931 1 -937 -14z"/>
<path d="M2624 11166 c-82 -26 -174 -112 -205 -192 -33 -88 -30 -148 51 -1004
61 -638 70 -742 100 -1085 17 -192 35 -368 41 -390 15 -55 82 -118 145 -135
76 -22 139 -15 214 22 166 83 1560 1038 1690 1158 59 54 59 54 479 324 l274
176 166 1 c91 1 285 3 431 5 215 3 275 1 317 -11 72 -21 124 -73 153 -152 l23
-63 103 0 103 0 3 148 c3 166 7 176 100 319 64 98 129 161 214 205 90 47 156
60 279 56 95 -3 100 -4 103 -25 3 -23 6 -23 138 -23 l134 0 0 330 0 330 -32 0
c-241 4 -238 4 -238 -27 0 -16 -4 -33 -8 -39 -7 -12 -217 -18 -594 -15 l-197
1 -3 48 -3 47 -1970 2 c-1591 1 -1978 -1 -2011 -11z m1750 -1062 c19 -18 21
-65 4 -82 -18 -18 -1357 -17 -1380 1 -26 19 -27 57 -2 81 14 14 90 16 689 16
599 0 675 -2 689 -16z"/>
<path d="M8060 11086 c0 -22 6 -36 16 -40 9 -3 77 -6 152 -6 75 0 288 -5 472
-11 368 -11 383 -14 420 -74 28 -46 27 -121 -3 -166 -43 -65 -51 -66 -487 -84
-217 -9 -406 -19 -420 -21 -25 -6 -25 -6 -5 -21 11 -8 43 -27 70 -41 l50 -27
410 -3 c483 -4 1095 7 1095 19 0 5 -21 9 -47 9 -44 1 -51 4 -87 46 l-39 46 12
90 c6 49 9 93 6 99 -4 5 -45 9 -93 9 -48 0 -92 4 -98 8 -24 15 -34 54 -34 126
l0 76 -695 0 -695 0 0 -34z"/>
<path d="M16992 10948 l3 -173 427 -3 427 -2 28 24 c26 23 28 30 33 123 7 126
3 147 -27 178 l-26 25 -434 0 -433 0 2 -172z"/>
<path d="M15930 10940 l0 -160 238 2 237 3 3 158 3 157 -241 0 -240 0 0 -160z"/>
<path d="M16734 11087 c-2 -7 -3 -78 -2 -157 l3 -145 102 -3 c93 -2 102 -1
108 16 3 11 3 78 0 148 -2 71 -5 135 -5 142 0 18 -199 17 -206 -1z"/>
<path d="M8085 10973 c33 -68 25 -203 -13 -247 -16 -18 -16 -18 3 -13 24 7
300 23 630 37 312 13 332 16 367 50 39 40 40 110 2 145 -15 14 -41 27 -58 29
-38 6 -689 26 -838 26 l-106 0 13 -27z"/>
<path d="M7778 10962 c-3 -10 -2 -49 2 -87 l7 -70 2 88 c1 85 -2 105 -11 69z"/>
<path d="M9928 10963 c-39 -25 -52 -57 -49 -120 l1 -23 268 0 267 0 0 67 c0
56 3 68 18 71 15 3 17 -5 17 -67 l0 -71 155 0 c119 0 155 3 154 13 -1 6 -1 38
0 70 1 43 5 57 16 57 12 0 15 -15 15 -76 l0 -77 61 7 c34 3 151 6 260 6 l199
0 0 33 c0 43 -29 99 -60 114 -18 9 -94 13 -267 13 l-243 0 0 -50 c0 -61 -6
-63 -150 -58 -112 3 -120 8 -120 71 l0 37 -257 0 c-223 0 -262 -3 -285 -17z"/>
<path d="M10517 10973 c-4 -3 -7 -17 -7 -30 0 -22 2 -23 95 -23 l95 0 0 30 0
30 -88 0 c-49 0 -92 -3 -95 -7z"/>
<path d="M7830 10855 l0 -115 74 0 c114 0 136 7 153 49 18 43 13 119 -11 155
-16 25 -20 26 -116 26 l-100 0 0 -115z"/>
<path d="M11352 10728 l3 -63 43 -3 42 -3 0 65 0 66 -45 0 -46 0 3 -62z"/>
<path d="M7759 10773 c-15 -3 -18 -32 -24 -226 -4 -122 -5 -244 -3 -272 l3
-50 76 -6 c97 -8 180 -50 265 -134 61 -60 134 -187 134 -233 0 -54 -16 -52
361 -52 229 0 356 -4 372 -11 54 -25 57 -43 57 -353 0 -183 4 -286 10 -287 6
-1 17 -1 25 -1 8 0 62 0 120 1 l105 1 0 50 c0 28 -4 50 -9 50 -5 0 -34 23 -65
51 -67 62 -96 128 -96 225 0 99 47 190 126 244 l42 29 278 3 279 3 0 370 0
370 -710 3 -709 2 41 -39 c47 -46 60 -86 43 -136 -31 -95 -171 -104 -217 -14
-20 38 -15 83 13 124 26 39 22 54 -15 55 -33 0 -162 73 -203 114 l-44 45 -110
3 -109 3 -3 38 c-2 20 -6 36 -10 36 -4 -1 -14 -3 -23 -6z m1047 -489 c101 -48
97 -198 -7 -252 -73 -38 -142 -15 -181 61 -62 122 64 250 188 191z m976 -100
c24 -53 -54 -100 -96 -58 -19 18 -20 28 -5 55 22 42 83 44 101 3z m-448 -130
c23 -22 20 -71 -3 -84 -47 -25 -91 -3 -91 46 0 45 62 70 94 38z m-159 -804
c25 -27 10 -71 -27 -84 -52 -18 -89 44 -51 86 21 24 55 23 78 -2z"/>
<path d="M8703 10250 c-24 -10 -63 -65 -63 -88 0 -31 33 -81 61 -92 54 -23
109 6 130 67 26 78 -49 144 -128 113z"/>
<path d="M9715 10169 c-10 -15 1 -23 20 -15 9 3 13 10 10 16 -8 13 -22 13 -30
-1z"/>
<path d="M9285 10020 c-11 -17 5 -32 21 -19 7 6 11 15 8 20 -7 12 -21 11 -29
-1z"/>
<path d="M9120 9215 c0 -8 7 -15 15 -15 8 0 15 7 15 15 0 8 -7 15 -15 15 -8 0
-15 -7 -15 -15z"/>
<path d="M9750 10720 l0 -60 45 0 45 0 0 60 0 60 -45 0 -45 0 0 -60z"/>
<path d="M9880 10740 l0 -40 73 0 c39 0 143 3 230 7 l157 6 0 34 0 33 -230 0
-230 0 0 -40z"/>
<path d="M10378 10745 l-4 -35 233 0 233 0 0 35 0 35 -229 0 -229 0 -4 -35z"/>
<path d="M10875 10749 c-4 -17 -4 -33 -1 -36 4 -5 168 -7 364 -4 l72 1 0 35 0
35 -214 0 -214 0 -7 -31z"/>
<path d="M11480 10760 c0 -5 14 -10 30 -10 17 0 30 5 30 10 0 6 -13 10 -30 10
-16 0 -30 -4 -30 -10z"/>
<path d="M11482 10708 c7 -20 58 -23 58 -4 0 11 -10 16 -31 16 -20 0 -29 -4
-27 -12z"/>
<path d="M8080 10694 c0 -19 114 -94 125 -82 2 2 -26 22 -61 46 -35 23 -64 39
-64 36z"/>
<path d="M9880 10559 l0 -111 34 -34 34 -34 434 -2 c858 -3 876 -1 914 58 19
28 30 143 20 198 l-7 36 -714 0 -715 0 0 -111z"/>
<path d="M16618 10663 c-154 -4 -151 -2 -142 -128 l7 -85 102 0 c97 0 104 2
126 25 17 17 35 25 60 25 48 0 59 15 59 78 0 72 -12 93 -53 90 -18 -1 -89 -4
-159 -5z"/>
<path d="M11480 10641 c-8 -15 -23 -21 -63 -23 l-52 -3 -5 -97 c-4 -85 -8
-100 -30 -123 -14 -15 -34 -32 -45 -38 -14 -9 -162 -13 -495 -17 l-475 -5 -5
-385 c-5 -401 -7 -417 -50 -440 -10 -5 -41 -10 -69 -10 -38 0 -56 6 -78 24
-27 23 -28 30 -33 128 l-5 103 -93 3 -94 3 36 -44 c111 -135 100 -304 -28
-427 -42 -41 -46 -49 -46 -92 0 -46 1 -48 28 -48 26 0 27 3 27 41 0 59 37 89
108 88 63 -1 1262 203 1325 226 9 3 12 76 12 320 l0 315 33 42 c17 24 59 76
92 117 l60 74 6 81 c3 45 3 109 1 144 -4 57 -7 62 -28 62 -13 0 -28 -9 -34
-19z"/>
<path d="M15654 10646 c-3 -8 -4 -31 -2 -52 l3 -39 70 0 70 0 3 53 3 52 -71 0
c-51 0 -72 -4 -76 -14z"/>
<path d="M8320 10460 c-43 -43 -14 -110 47 -110 37 0 63 27 63 67 0 57 -69 84
-110 43z"/>
<path d="M9860 10096 l0 -296 130 0 130 0 0 -110 c0 -97 2 -112 20 -130 25
-25 71 -26 101 -1 l24 19 0 379 0 378 -170 5 c-157 5 -172 7 -202 28 l-33 23
0 -295z"/>
<path d="M5419 9997 c-61 -33 -607 -393 -636 -419 -22 -22 -33 -43 -38 -75 -9
-58 5 -585 15 -581 5 2 73 64 152 138 79 74 200 187 268 250 69 63 162 150
207 192 140 131 101 122 573 128 445 5 443 5 481 67 17 28 21 46 17 102 -4 84
-36 137 -105 178 l-48 28 -430 3 c-346 2 -435 0 -456 -11z"/>
<path d="M8227 9753 c-2 -5 -12 -44 -22 -87 -13 -62 -45 -134 -145 -330 -70
-138 -231 -456 -358 -707 -128 -251 -232 -459 -232 -462 0 -15 39 -31 540
-219 118 -45 243 -92 278 -105 87 -32 126 -30 163 6 40 40 39 84 -2 141 -49
67 -51 87 -19 166 48 120 210 448 233 472 12 13 46 35 75 48 44 19 52 27 52
50 0 15 -9 42 -21 61 -34 54 -29 92 27 201 46 91 52 98 101 122 l52 25 3 285
c3 252 2 288 -13 310 l-16 25 -346 3 c-190 1 -348 -1 -350 -5z"/>
<path d="M9299 9718 c-6 -24 -9 -82 -7 -133 5 -102 31 -170 94 -244 45 -52 67
-42 32 15 -43 70 -53 106 -53 194 0 72 4 94 28 144 15 32 27 60 27 62 0 2 -25
4 -55 4 l-54 0 -12 -42z"/>
<path d="M5744 9587 c-2 -7 -3 -74 -2 -148 l3 -134 66 -3 c36 -2 78 2 92 7
l27 11 0 129 c0 119 -2 131 -19 141 -29 15 -160 13 -167 -3z"/>
<path d="M11060 9409 c-553 -103 -999 -179 -1047 -179 -33 0 -55 -5 -63 -15
-28 -34 20 -69 75 -54 16 5 89 17 160 29 134 21 242 39 645 110 129 23 303 52
385 66 177 28 195 35 195 69 0 23 -3 25 -42 24 -24 -1 -162 -23 -308 -50z"/>
<path d="M10905 9270 c-176 -32 -363 -65 -415 -74 -52 -9 -142 -25 -200 -35
-58 -11 -138 -25 -178 -31 -49 -8 -75 -17 -79 -27 -9 -24 53 -419 103 -653 53
-247 181 -691 203 -704 8 -6 1231 342 1244 354 4 4 -10 56 -31 117 -102 285
-191 638 -232 923 -30 200 -26 190 -63 189 -18 -1 -176 -27 -352 -59z"/>
<path d="M9300 9190 l0 -40 255 0 255 0 0 40 0 40 -255 0 -255 0 0 -40z"/>
</g>
</svg>
