<svg xmlns="http://www.w3.org/2000/svg" width="640" height="480" viewBox="0 0 640 480" version="1.1"><path d="M 0 16 L 0 32 247 32 L 494 32 494 16 L 494 0 247 0 L 0 0 0 16 M 534 16 L 534 32 587 32 L 640 32 640 16 L 640 0 587 0 L 534 0 534 16 M 0 271.500 L 0 480 247 480 L 494 480 494 271.500 L 494 63 247 63 L 0 63 0 271.500 M 534 271.500 L 534 480 587 480 L 640 480 640 271.500 L 640 63 587 63 L 534 63 534 271.500 M 225.500 144.155 C 222.233 145.942, 221 148.154, 221 152.231 C 221 155.782, 220.137 156.965, 209.875 167.497 C 203.756 173.776, 198.125 179.805, 197.361 180.895 C 196.317 182.385, 195.966 186.948, 195.945 199.312 L 195.917 215.749 186.986 219.898 C 182.075 222.180, 176.018 224.920, 173.528 225.988 L 169 227.929 169 205.073 L 169 182.217 171.482 181.594 C 174.357 180.872, 180.565 175.681, 182.195 172.636 C 185.840 165.824, 184.919 158.255, 179.724 152.338 C 172.733 144.377, 161.178 143.701, 153.661 150.814 C 152.099 152.291, 150.187 154.715, 149.411 156.200 C 147.580 159.705, 147.601 168.328, 149.449 171.901 C 151.160 175.210, 157.005 180.549, 159.934 181.479 C 161.947 182.118, 162 182.756, 162 206.367 L 162 230.600 148.750 236.706 L 135.500 242.811 135.212 232.671 C 134.935 222.883, 135.011 222.468, 137.397 220.730 C 138.756 219.739, 140.361 217.435, 140.964 215.609 C 143.066 209.241, 138.616 203.800, 131.307 203.800 C 128.354 203.800, 126.960 204.481, 124.675 207.037 C 122.278 209.721, 121.880 210.874, 122.352 213.781 C 122.665 215.709, 123.839 218.264, 124.960 219.458 C 126.790 221.405, 127 222.924, 127 234.184 L 127 246.739 120.873 249.396 C 114.916 251.979, 114.762 252.142, 115.285 255.276 C 116.119 260.278, 119.776 268, 121.309 268 C 122.069 268, 129.847 264.728, 138.595 260.729 L 154.500 253.457 157.500 247.555 C 162.116 238.472, 168.847 235.841, 176.923 239.961 L 180.767 241.922 188.634 238.139 C 192.960 236.058, 201.450 232.226, 207.500 229.623 C 233.631 218.381, 245.468 212.427, 246.616 209.945 C 250.526 201.499, 251.692 199.593, 253.789 198.219 C 256.742 196.284, 263.836 196.346, 267.693 198.341 C 270.542 199.814, 271.021 199.694, 281.572 194.848 C 287.582 192.087, 294.525 189.007, 297 188.003 C 299.475 187, 305.775 184.163, 311 181.699 C 316.225 179.235, 324.938 175.152, 330.362 172.625 C 341.480 167.447, 341.332 167.787, 336.686 158.072 C 334.649 153.811, 334.228 153.493, 330.500 153.391 C 328.291 153.331, 324.346 152.124, 321.689 150.696 C 318.261 148.853, 316.248 148.336, 314.689 148.897 C 312.105 149.826, 309.301 154.972, 308.479 160.291 C 308.008 163.346, 307.273 164.351, 304.697 165.463 C 302.939 166.221, 291.248 171.603, 278.717 177.421 C 266.187 183.240, 255.632 188, 255.262 188 C 254.892 188, 251.116 189.629, 246.872 191.621 C 240.784 194.478, 239.018 195.797, 238.500 197.871 C 237.331 202.556, 232.929 207.119, 226.764 210.034 C 217.975 214.191, 213.925 214.626, 208.498 211.999 L 204 209.822 204 197.805 C 204 183.893, 202.984 185.861, 218.323 170.083 C 225.249 162.959, 228.180 160.612, 230.360 160.440 C 234.013 160.153, 237.764 156.440, 238.593 152.290 C 239.132 149.591, 238.750 148.596, 236.194 146.040 C 232.976 142.823, 229.164 142.150, 225.500 144.155 M 227.332 150.578 C 226.999 151.445, 227.463 152.892, 228.363 153.792 C 229.879 155.307, 230.121 155.307, 231.637 153.792 C 233.681 151.747, 232.743 149, 230 149 C 228.865 149, 227.665 149.710, 227.332 150.578 M 160.117 155.631 C 158.836 156.528, 157.155 158.778, 156.381 160.631 C 153.722 166.994, 158.763 174, 166 174 C 170.473 174, 173.809 171.700, 175.619 167.369 C 178.278 161.006, 173.237 154, 166 154 C 164.045 154, 161.397 154.734, 160.117 155.631 M 336.500 181.705 C 333.750 183.141, 327.450 185.994, 322.500 188.044 C 317.550 190.094, 306.075 195.256, 297 199.515 C 287.925 203.773, 278.925 207.801, 277 208.465 C 274.583 209.299, 272.976 210.764, 271.806 213.200 C 270.875 215.140, 268.672 217.940, 266.910 219.422 C 264.115 221.774, 262.933 222.091, 257.604 221.916 C 251.301 221.708, 248.752 222.615, 226.205 233.079 C 222.743 234.685, 219.732 236, 219.513 236 C 219.295 236, 214.028 238.388, 207.808 241.307 C 201.589 244.226, 193.433 247.906, 189.683 249.485 C 180.251 253.459, 178.995 255.915, 182.084 264.358 C 186.935 277.619, 190.022 282, 194.517 282 C 195.423 282, 199.266 280.639, 203.056 278.975 C 209.563 276.120, 210.140 276.032, 213.409 277.398 C 215.314 278.193, 221.203 281.781, 226.496 285.370 C 233.189 289.908, 237.444 292.094, 240.469 292.548 C 245.325 293.276, 247.156 292.585, 280.500 277.437 C 296.109 270.346, 298.539 268.937, 298.797 266.828 C 298.961 265.491, 296.598 257.973, 293.547 250.122 C 287.696 235.065, 287.092 231.656, 289.464 227.069 C 292.447 221.301, 293.762 220.581, 333.500 202.951 C 341.200 199.534, 348.063 196.293, 348.750 195.747 C 350.644 194.244, 350.261 190.647, 347.555 184.529 C 344.724 178.127, 343.802 177.891, 336.500 181.705 M 254.073 205.635 C 252.933 207.084, 252 208.823, 252 209.500 C 252 210.177, 252.933 211.916, 254.073 213.365 C 258.045 218.415, 267 215.738, 267 209.500 C 267 203.262, 258.045 200.585, 254.073 205.635 M 129.516 210.365 C 128.276 211.271, 127.965 212.313, 128.463 213.884 C 129.435 216.945, 134.357 216.505, 134.811 213.318 C 135.227 210.394, 131.964 208.575, 129.516 210.365 M 317.455 226.455 C 314.316 229.594, 314.195 234.706, 317.170 238.489 C 319.008 240.825, 319.324 242.458, 319.235 249.167 C 319.108 258.833, 321.746 255.536, 285.823 290.919 L 259 317.338 259 356.169 L 259 395 261.418 395 C 267.300 395, 267 397.014, 267 357.576 L 267 321.366 297.570 290.812 L 328.140 260.258 327.876 250.868 C 327.623 241.842, 327.717 241.374, 330.306 238.785 C 336.141 232.950, 332.323 224, 324 224 C 320.990 224, 319.261 224.648, 317.455 226.455 M 321.363 231.497 C 321.017 232.398, 321.196 233.596, 321.761 234.161 C 323.391 235.791, 326.500 234.692, 326.500 232.486 C 326.500 229.943, 322.272 229.128, 321.363 231.497 M 256.005 243.844 C 249.591 246.743, 245.386 249.233, 245.191 250.247 C 244.690 252.847, 252.693 260.828, 257.137 262.159 C 261.798 263.556, 263.264 265.111, 262.827 268.195 C 262.546 270.174, 261.838 270.543, 257.819 270.802 C 249.429 271.343, 237.809 263.294, 236.334 255.918 C 234.945 248.976, 230.780 255.483, 230.618 264.848 C 230.519 270.540, 230.899 272.225, 232.954 275.227 C 238.698 283.614, 244.309 283.983, 260.160 277.016 C 278.328 269.032, 282.082 266.837, 284.144 262.992 C 288.198 255.433, 285.673 246.392, 278.078 241.274 C 272.914 237.794, 268.169 238.346, 256.005 243.844 M 156 264.666 C 152.975 266.096, 145.100 269.647, 138.500 272.558 C 131.900 275.469, 126.081 278.514, 125.569 279.324 C 124.366 281.227, 127.372 286, 129.773 285.999 C 130.723 285.999, 133.867 285.099, 136.761 283.999 C 145.485 280.684, 153.890 281.795, 158.405 286.862 C 160.853 289.610, 161.820 289.557, 168.434 286.313 C 176.636 282.290, 177.173 280.096, 172.348 270.307 C 168.706 262.918, 168.313 262.488, 165 262.283 C 162.914 262.154, 159.278 263.116, 156 264.666 M 200.225 289.004 C 198.424 290.102, 196.539 292.083, 196.036 293.405 C 195.006 296.116, 195.040 371.907, 196.072 372.545 C 196.438 372.770, 201.707 370.631, 207.781 367.791 L 218.826 362.627 219.395 351.563 C 219.708 345.478, 220.239 329.920, 220.575 316.989 C 221.147 294.966, 221.069 293.375, 219.343 291.859 C 213.588 286.805, 205.751 285.635, 200.225 289.004 M 331.246 289.975 C 325.047 292.788, 322.212 296.352, 320.824 303.074 L 319.624 308.882 308.062 313.586 C 301.703 316.173, 293.462 319.805, 289.750 321.658 L 283 325.025 283 357.013 C 283 378.680, 283.339 389, 284.050 389 C 284.627 389, 286.420 388.317, 288.034 387.482 L 290.969 385.965 291.234 357.737 L 291.500 329.510 306.891 322.695 L 322.281 315.880 325.391 318.828 C 332.052 325.144, 339.028 326.559, 346.500 323.110 C 353.748 319.765, 357 314.544, 357 306.251 C 357 298.946, 353.847 293.601, 347.743 290.559 C 341.638 287.517, 337.021 287.353, 331.246 289.975 M 171.750 296.668 L 164 300.333 164 309.075 C 164 318.359, 162.019 335.720, 158.989 353 L 157.147 363.500 163.052 369.023 C 166.299 372.061, 171.396 375.866, 174.378 377.479 C 179.093 380.030, 180.139 380.258, 182.400 379.228 L 185 378.043 185 336.721 C 185 294.159, 184.895 292.998, 181.050 293.001 C 180.197 293.002, 176.012 294.652, 171.750 296.668 M 332.111 298.560 C 321.592 307.411, 334.063 322.086, 345.650 314.493 C 349.165 312.191, 350.398 308.318, 349.053 303.804 C 346.771 296.143, 338.153 293.476, 332.111 298.560 M 236.111 315.366 C 235.297 316.347, 235.051 328.007, 235.238 356.616 L 235.500 396.500 239.250 396.810 L 243 397.121 243 357.142 C 243 335.154, 242.727 316.452, 242.393 315.582 C 241.648 313.640, 237.657 313.503, 236.111 315.366 M 306.913 337.282 C 302.326 340.804, 301.918 346.072, 305.923 350.077 C 311.104 355.258, 319.199 352.694, 320.590 345.432 C 321.470 340.833, 317.127 335.989, 312.161 336.032 C 310.147 336.049, 307.786 336.612, 306.913 337.282 M 309.754 343.250 C 309.010 345.275, 310.032 347, 311.976 347 C 313.921 347, 314.976 345.275, 314.269 343.250 C 314.030 342.563, 313.019 342, 312.024 342 C 311.028 342, 310.007 342.563, 309.754 343.250 M 214.750 380.574 C 212.233 381.938, 212 382.559, 212 387.918 C 212 393.755, 212.010 393.774, 215.250 394.268 C 217.037 394.540, 218.579 394.700, 218.675 394.623 C 219.381 394.059, 219.136 379.554, 218.416 379.348 C 217.912 379.203, 216.262 379.755, 214.750 380.574" stroke="none" fill="#04acf3" fill-rule="evenodd"/><path d="M 494 16 L 494 32 247 32 L 0 32 0 47.500 L 0 63 247 63 L 494 63 494 271.500 L 494 480 514 480 L 534 480 534 271.509 L 534 63.018 587.250 62.759 L 640.500 62.500 640.774 47 L 641.049 31.500 587.524 31.767 L 534 32.034 534 16.017 L 534 0 514 0 L 494 0 494 16 M 0.405 47.500 C 0.406 56.300, 0.559 59.766, 0.745 55.203 C 0.930 50.639, 0.929 43.439, 0.742 39.203 C 0.555 34.966, 0.404 38.700, 0.405 47.500 M 225.500 144.155 C 222.233 145.942, 221 148.154, 221 152.231 C 221 155.782, 220.137 156.965, 209.875 167.497 C 203.756 173.776, 198.125 179.805, 197.361 180.895 C 196.317 182.385, 195.966 186.948, 195.945 199.312 L 195.917 215.749 186.986 219.898 C 182.075 222.180, 176.018 224.920, 173.528 225.988 L 169 227.929 169 205.073 L 169 182.217 171.482 181.594 C 174.357 180.872, 180.565 175.681, 182.195 172.636 C 185.840 165.824, 184.919 158.255, 179.724 152.338 C 172.733 144.377, 161.178 143.701, 153.661 150.814 C 152.099 152.291, 150.187 154.715, 149.411 156.200 C 147.580 159.705, 147.601 168.328, 149.449 171.901 C 151.160 175.210, 157.005 180.549, 159.934 181.479 C 161.947 182.118, 162 182.756, 162 206.367 L 162 230.600 148.750 236.706 L 135.500 242.811 135.212 232.671 C 134.935 222.883, 135.011 222.468, 137.397 220.730 C 138.756 219.739, 140.361 217.435, 140.964 215.609 C 143.066 209.241, 138.616 203.800, 131.307 203.800 C 128.354 203.800, 126.960 204.481, 124.675 207.037 C 122.278 209.721, 121.880 210.874, 122.352 213.781 C 122.665 215.709, 123.839 218.264, 124.960 219.458 C 126.790 221.405, 127 222.924, 127 234.184 L 127 246.739 120.873 249.396 C 114.916 251.979, 114.762 252.142, 115.285 255.276 C 116.119 260.278, 119.776 268, 121.309 268 C 122.069 268, 129.847 264.728, 138.595 260.729 L 154.500 253.457 157.500 247.555 C 162.116 238.472, 168.847 235.841, 176.923 239.961 L 180.767 241.922 188.634 238.139 C 192.960 236.058, 201.450 232.226, 207.500 229.623 C 233.631 218.381, 245.468 212.427, 246.616 209.945 C 250.526 201.499, 251.692 199.593, 253.789 198.219 C 256.742 196.284, 263.836 196.346, 267.693 198.341 C 270.542 199.814, 271.021 199.694, 281.572 194.848 C 287.582 192.087, 294.525 189.007, 297 188.003 C 299.475 187, 305.775 184.163, 311 181.699 C 316.225 179.235, 324.938 175.152, 330.362 172.625 C 341.480 167.447, 341.332 167.787, 336.686 158.072 C 334.649 153.811, 334.228 153.493, 330.500 153.391 C 328.291 153.331, 324.346 152.124, 321.689 150.696 C 318.261 148.853, 316.248 148.336, 314.689 148.897 C 312.105 149.826, 309.301 154.972, 308.479 160.291 C 308.008 163.346, 307.273 164.351, 304.697 165.463 C 302.939 166.221, 291.248 171.603, 278.717 177.421 C 266.187 183.240, 255.632 188, 255.262 188 C 254.892 188, 251.116 189.629, 246.872 191.621 C 240.784 194.478, 239.018 195.797, 238.500 197.871 C 237.331 202.556, 232.929 207.119, 226.764 210.034 C 217.975 214.191, 213.925 214.626, 208.498 211.999 L 204 209.822 204 197.805 C 204 183.893, 202.984 185.861, 218.323 170.083 C 225.249 162.959, 228.180 160.612, 230.360 160.440 C 234.013 160.153, 237.764 156.440, 238.593 152.290 C 239.132 149.591, 238.750 148.596, 236.194 146.040 C 232.976 142.823, 229.164 142.150, 225.500 144.155 M 227.332 150.578 C 226.999 151.445, 227.463 152.892, 228.363 153.792 C 229.879 155.307, 230.121 155.307, 231.637 153.792 C 233.681 151.747, 232.743 149, 230 149 C 228.865 149, 227.665 149.710, 227.332 150.578 M 160.117 155.631 C 158.836 156.528, 157.155 158.778, 156.381 160.631 C 153.722 166.994, 158.763 174, 166 174 C 170.473 174, 173.809 171.700, 175.619 167.369 C 178.278 161.006, 173.237 154, 166 154 C 164.045 154, 161.397 154.734, 160.117 155.631 M 336.500 181.705 C 333.750 183.141, 327.450 185.994, 322.500 188.044 C 317.550 190.094, 306.075 195.256, 297 199.515 C 287.925 203.773, 278.925 207.801, 277 208.465 C 274.583 209.299, 272.976 210.764, 271.806 213.200 C 270.875 215.140, 268.672 217.940, 266.910 219.422 C 264.115 221.774, 262.933 222.091, 257.604 221.916 C 251.301 221.708, 248.752 222.615, 226.205 233.079 C 222.743 234.685, 219.732 236, 219.513 236 C 219.295 236, 214.028 238.388, 207.808 241.307 C 201.589 244.226, 193.433 247.906, 189.683 249.485 C 180.251 253.459, 178.995 255.915, 182.084 264.358 C 186.935 277.619, 190.022 282, 194.517 282 C 195.423 282, 199.266 280.639, 203.056 278.975 C 209.563 276.120, 210.140 276.032, 213.409 277.398 C 215.314 278.193, 221.203 281.781, 226.496 285.370 C 233.189 289.908, 237.444 292.094, 240.469 292.548 C 245.325 293.276, 247.156 292.585, 280.500 277.437 C 296.109 270.346, 298.539 268.937, 298.797 266.828 C 298.961 265.491, 296.598 257.973, 293.547 250.122 C 287.696 235.065, 287.092 231.656, 289.464 227.069 C 292.447 221.301, 293.762 220.581, 333.500 202.951 C 341.200 199.534, 348.063 196.293, 348.750 195.747 C 350.644 194.244, 350.261 190.647, 347.555 184.529 C 344.724 178.127, 343.802 177.891, 336.500 181.705 M 254.073 205.635 C 252.933 207.084, 252 208.823, 252 209.500 C 252 210.177, 252.933 211.916, 254.073 213.365 C 258.045 218.415, 267 215.738, 267 209.500 C 267 203.262, 258.045 200.585, 254.073 205.635 M 129.516 210.365 C 128.276 211.271, 127.965 212.313, 128.463 213.884 C 129.435 216.945, 134.357 216.505, 134.811 213.318 C 135.227 210.394, 131.964 208.575, 129.516 210.365 M 317.455 226.455 C 314.316 229.594, 314.195 234.706, 317.170 238.489 C 319.008 240.825, 319.324 242.458, 319.235 249.167 C 319.108 258.833, 321.746 255.536, 285.823 290.919 L 259 317.338 259 356.169 L 259 395 261.418 395 C 267.300 395, 267 397.014, 267 357.576 L 267 321.366 297.570 290.812 L 328.140 260.258 327.876 250.868 C 327.623 241.842, 327.717 241.374, 330.306 238.785 C 336.141 232.950, 332.323 224, 324 224 C 320.990 224, 319.261 224.648, 317.455 226.455 M 321.363 231.497 C 321.017 232.398, 321.196 233.596, 321.761 234.161 C 323.391 235.791, 326.500 234.692, 326.500 232.486 C 326.500 229.943, 322.272 229.128, 321.363 231.497 M 256.005 243.844 C 249.591 246.743, 245.386 249.233, 245.191 250.247 C 244.690 252.847, 252.693 260.828, 257.137 262.159 C 261.798 263.556, 263.264 265.111, 262.827 268.195 C 262.546 270.174, 261.838 270.543, 257.819 270.802 C 249.429 271.343, 237.809 263.294, 236.334 255.918 C 234.945 248.976, 230.780 255.483, 230.618 264.848 C 230.519 270.540, 230.899 272.225, 232.954 275.227 C 238.698 283.614, 244.309 283.983, 260.160 277.016 C 278.328 269.032, 282.082 266.837, 284.144 262.992 C 288.198 255.433, 285.673 246.392, 278.078 241.274 C 272.914 237.794, 268.169 238.346, 256.005 243.844 M 156 264.666 C 152.975 266.096, 145.100 269.647, 138.500 272.558 C 131.900 275.469, 126.081 278.514, 125.569 279.324 C 124.366 281.227, 127.372 286, 129.773 285.999 C 130.723 285.999, 133.867 285.099, 136.761 283.999 C 145.485 280.684, 153.890 281.795, 158.405 286.862 C 160.853 289.610, 161.820 289.557, 168.434 286.313 C 176.636 282.290, 177.173 280.096, 172.348 270.307 C 168.706 262.918, 168.313 262.488, 165 262.283 C 162.914 262.154, 159.278 263.116, 156 264.666 M 200.225 289.004 C 198.424 290.102, 196.539 292.083, 196.036 293.405 C 195.006 296.116, 195.040 371.907, 196.072 372.545 C 196.438 372.770, 201.707 370.631, 207.781 367.791 L 218.826 362.627 219.395 351.563 C 219.708 345.478, 220.239 329.920, 220.575 316.989 C 221.147 294.966, 221.069 293.375, 219.343 291.859 C 213.588 286.805, 205.751 285.635, 200.225 289.004 M 331.246 289.975 C 325.047 292.788, 322.212 296.352, 320.824 303.074 L 319.624 308.882 308.062 313.586 C 301.703 316.173, 293.462 319.805, 289.750 321.658 L 283 325.025 283 357.013 C 283 378.680, 283.339 389, 284.050 389 C 284.627 389, 286.420 388.317, 288.034 387.482 L 290.969 385.965 291.234 357.737 L 291.500 329.510 306.891 322.695 L 322.281 315.880 325.391 318.828 C 332.052 325.144, 339.028 326.559, 346.500 323.110 C 353.748 319.765, 357 314.544, 357 306.251 C 357 298.946, 353.847 293.601, 347.743 290.559 C 341.638 287.517, 337.021 287.353, 331.246 289.975 M 171.750 296.668 L 164 300.333 164 309.075 C 164 318.359, 162.019 335.720, 158.989 353 L 157.147 363.500 163.052 369.023 C 166.299 372.061, 171.396 375.866, 174.378 377.479 C 179.093 380.030, 180.139 380.258, 182.400 379.228 L 185 378.043 185 336.721 C 185 294.159, 184.895 292.998, 181.050 293.001 C 180.197 293.002, 176.012 294.652, 171.750 296.668 M 332.111 298.560 C 321.592 307.411, 334.063 322.086, 345.650 314.493 C 349.165 312.191, 350.398 308.318, 349.053 303.804 C 346.771 296.143, 338.153 293.476, 332.111 298.560 M 236.111 315.366 C 235.297 316.347, 235.051 328.007, 235.238 356.616 L 235.500 396.500 239.250 396.810 L 243 397.121 243 357.142 C 243 335.154, 242.727 316.452, 242.393 315.582 C 241.648 313.640, 237.657 313.503, 236.111 315.366 M 306.913 337.282 C 302.326 340.804, 301.918 346.072, 305.923 350.077 C 311.104 355.258, 319.199 352.694, 320.590 345.432 C 321.470 340.833, 317.127 335.989, 312.161 336.032 C 310.147 336.049, 307.786 336.612, 306.913 337.282 M 309.754 343.250 C 309.010 345.275, 310.032 347, 311.976 347 C 313.921 347, 314.976 345.275, 314.269 343.250 C 314.030 342.563, 313.019 342, 312.024 342 C 311.028 342, 310.007 342.563, 309.754 343.250 M 214.750 380.574 C 212.233 381.938, 212 382.559, 212 387.918 C 212 393.755, 212.010 393.774, 215.250 394.268 C 217.037 394.540, 218.579 394.700, 218.675 394.623 C 219.381 394.059, 219.136 379.554, 218.416 379.348 C 217.912 379.203, 216.262 379.755, 214.750 380.574" stroke="none" fill="#f7db6c" fill-rule="evenodd"/></svg>