<?xml version="1.0" encoding="UTF-8"?>
<svg version="1.1" xmlns="http://www.w3.org/2000/svg" width="204" height="135">
<path d="M0 0 C10.89 0 21.78 0 33 0 C33 0.99 33 1.98 33 3 C34.65 3 36.3 3 38 3 C38.495 4.485 38.495 4.485 39 6 C39.99 6 40.98 6 42 6 C42 6.66 42 7.32 42 8 C42.99 8 43.98 8 45 8 C46.67578125 9.17578125 46.67578125 9.17578125 48 11 C48.29296875 13.48046875 48.29296875 13.48046875 48.1875 16.1875 C48.14689453 17.53908203 48.14689453 17.53908203 48.10546875 18.91796875 C48.07066406 19.60503906 48.03585938 20.29210937 48 21 C49.485 21.495 49.485 21.495 51 22 C51 22.66 51 23.32 51 24 C52.98 24.33 54.96 24.66 57 25 C57 25.99 57 26.98 57 28 C57.99 28 58.98 28 60 28 C60 28.66 60 29.32 60 30 C60.99 30 61.98 30 63 30 C64.29449495 33.88348484 64.13203312 36.90697336 64 41 C63.67 41.33 63.34 41.66 63 42 C64.98 42.66 66.96 43.32 69 44 C69 44.99 69 45.98 69 47 C69.99 47 70.98 47 72 47 C72 47.99 72 48.98 72 50 C73.32 50 74.64 50 76 50 C76 53.63 76 57.26 76 61 C75.01 61 74.02 61 73 61 C73 61.66 73 62.32 73 63 C74.98 63 76.96 63 79 63 C79.33 64.65 79.66 66.3 80 68 C80.66 68 81.32 68 82 68 C83.28571429 75.42857143 83.28571429 75.42857143 82 79 C81.34 79 80.68 79 80 79 C80 79.66 80 80.32 80 81 C81.65 81 83.3 81 85 81 C85 81.66 85 82.32 85 83 C85.99 83 86.98 83 88 83 C88 83.99 88 84.98 88 86 C88.99 86 89.98 86 91 86 C91 86.99 91 87.98 91 89 C91.66 89 92.32 89 93 89 C93 89.66 93 90.32 93 91 C93.99 91 94.98 91 96 91 C96 93.97 96 96.94 96 100 C95.01 100.495 95.01 100.495 94 101 C93.67 101.99 93.34 102.98 93 104 C84.33890569 105.1725486 75.66196363 105.33406208 66.9375 105.5625 C65.38866234 105.60577992 63.83983406 105.64939692 62.29101562 105.69335938 C58.52744068 105.79946066 54.76376805 105.90099536 51 106 C51 106.66 51 107.32 51 108 C41.1 108 31.2 108 21 108 C21 107.34 21 106.68 21 106 C19.02043559 106.14033111 17.04134859 106.2874123 15.0625 106.4375 C13.40927734 106.55931641 13.40927734 106.55931641 11.72265625 106.68359375 C9.08890097 106.70418084 9.08890097 106.70418084 8 108 C5.85441173 108.08775605 3.70595579 108.10695219 1.55859375 108.09765625 C0.25341797 108.09443359 -1.05175781 108.09121094 -2.39648438 108.08789062 C-3.7851569 108.07953401 -5.17382877 108.07106905 -6.5625 108.0625 C-7.95507656 108.05748666 -9.34765481 108.05292347 -10.74023438 108.04882812 C-14.1601987 108.03699434 -17.58007844 108.0205088 -21 108 C-21 107.01 -21 106.02 -21 105 C-22.21171875 105.01160156 -23.4234375 105.02320312 -24.671875 105.03515625 C-36.81601291 105.11334788 -48.87814789 104.72215289 -61 104 C-61 103.01 -61 102.02 -61 101 C-61.66 101 -62.32 101 -63 101 C-63 97.7 -63 94.4 -63 91 C-62.01 91 -61.02 91 -60 91 C-60 90.01 -60 89.02 -60 88 C-59.01 88 -58.02 88 -57 88 C-57 87.01 -57 86.02 -57 85 C-56.01 85 -55.02 85 -54 85 C-54 84.01 -54 83.02 -54 82 C-50.535 81.505 -50.535 81.505 -47 81 C-47.99 80.34 -48.98 79.68 -50 79 C-50.29296875 76.3984375 -50.29296875 76.3984375 -50.1875 73.375 C-50.16042969 72.37210937 -50.13335937 71.36921875 -50.10546875 70.3359375 C-50.07066406 69.56507812 -50.03585938 68.79421875 -50 68 C-48.515 67.505 -48.515 67.505 -47 67 C-47 66.34 -47 65.68 -47 65 C-46.34 65 -45.68 65 -45 65 C-45 64.34 -45 63.68 -45 63 C-43.68 62.34 -42.36 61.68 -41 61 C-41.33 60.01 -41.66 59.02 -42 58 C-42.66 58 -43.32 58 -44 58 C-44 56.02 -44 54.04 -44 52 C-43.34 52 -42.68 52 -42 52 C-42 51.01 -42 50.02 -42 49 C-41.01 49 -40.02 49 -39 49 C-39 48.01 -39 47.02 -39 46 C-37.68 46 -36.36 46 -35 46 C-34.67 45.01 -34.34 44.02 -34 43 C-33.34 43 -32.68 43 -32 43 C-31.67 42.01 -31.34 41.02 -31 40 C-29.02 39.505 -29.02 39.505 -27 39 C-27 35.7 -27 32.4 -27 29 C-26.01 29 -25.02 29 -24 29 C-24 27.68 -24 26.36 -24 25 C-18.95455739 21.6363716 -15.11482637 20 -9 20 C-9.66 16.7 -10.32 13.4 -11 10 C-10.34 10 -9.68 10 -9 10 C-9 9.34 -9 8.68 -9 8 C-8.01 8 -7.02 8 -6 8 C-6 7.01 -6 6.02 -6 5 C-5.34 5 -4.68 5 -4 5 C-4 4.34 -4 3.68 -4 3 C-2.68 3 -1.36 3 0 3 C0 2.01 0 1.02 0 0 Z M-10 11 C-9 13 -9 13 -9 13 Z " fill="#0B050A" transform="translate(79,16)"/>
<path d="M0 0 C10.89 0 21.78 0 33 0 C33 0.99 33 1.98 33 3 C34.65 3 36.3 3 38 3 C38.495 4.485 38.495 4.485 39 6 C39.99 6 40.98 6 42 6 C42 6.66 42 7.32 42 8 C42.99 8 43.98 8 45 8 C46.67578125 9.17578125 46.67578125 9.17578125 48 11 C48.29296875 13.48046875 48.29296875 13.48046875 48.1875 16.1875 C48.14689453 17.53908203 48.14689453 17.53908203 48.10546875 18.91796875 C48.07066406 19.60503906 48.03585938 20.29210937 48 21 C48.99 21.33 49.98 21.66 51 22 C51 22.66 51 23.32 51 24 C52.98 24.33 54.96 24.66 57 25 C57 25.99 57 26.98 57 28 C57.99 28 58.98 28 60 28 C60 28.66 60 29.32 60 30 C60.99 30 61.98 30 63 30 C64.29449495 33.88348484 64.13203312 36.90697336 64 41 C63.67 41.33 63.34 41.66 63 42 C64.98 42.66 66.96 43.32 69 44 C69 44.99 69 45.98 69 47 C69.99 47 70.98 47 72 47 C72 47.99 72 48.98 72 50 C73.32 50 74.64 50 76 50 C76 53.63 76 57.26 76 61 C75.01 61 74.02 61 73 61 C73 61.66 73 62.32 73 63 C74.98 63 76.96 63 79 63 C79.33 64.65 79.66 66.3 80 68 C80.66 68 81.32 68 82 68 C83.28571429 75.42857143 83.28571429 75.42857143 82 79 C81.34 79 80.68 79 80 79 C79.67 79.66 79.34 80.32 79 81 C79 79.35 79 77.7 79 76 C78.01 76 77.02 76 76 76 C76 76.66 76 77.32 76 78 C75.01 78 74.02 78 73 78 C73 78.66 73 79.32 73 80 C72.34 80 71.68 80 71 80 C71 78.68 71 77.36 71 76 C69.68 76 68.36 76 67 76 C67 75.01 67 74.02 67 73 C65.68 73 64.36 73 63 73 C63 74.32 63 75.64 63 77 C60.29120665 78.35439668 57.99066732 78.06501451 55 78 C55 78.66 55 79.32 55 80 C52.36 80 49.72 80 47 80 C47.33 79.34 47.66 78.68 48 78 C45.69 77.67 43.38 77.34 41 77 C41 74.69 41 72.38 41 70 C41.99 70 42.98 70 44 70 C44 69.01 44 68.02 44 67 C48.62 67 53.24 67 58 67 C58 67.99 58 68.98 58 70 C59.65 70 61.3 70 63 70 C63 69.01 63 68.02 63 67 C63.99 66.67 64.98 66.34 66 66 C66.33 65.34 66.66 64.68 67 64 C67.99 64 68.98 64 70 64 C70.495 63.01 70.495 63.01 71 62 C70.01 62.495 70.01 62.495 69 63 C67.62451844 63.08308638 66.24514204 63.10736016 64.8671875 63.09765625 C64.06152344 63.09443359 63.25585938 63.09121094 62.42578125 63.08789062 C61.16314453 63.07532227 61.16314453 63.07532227 59.875 63.0625 C59.02550781 63.05798828 58.17601562 63.05347656 57.30078125 63.04882812 C55.20049091 63.03702874 53.1002367 63.01909306 51 63 C51 61.35 51 59.7 51 58 C50.01 58 49.02 58 48 58 C48 56.35 48 54.7 48 53 C47.01 53 46.02 53 45 53 C45 55.31 45 57.62 45 60 C43.68 60 42.36 60 41 60 C41 60.99 41 61.98 41 63 C40.01 63 39.02 63 38 63 C38 63.99 38 64.98 38 66 C32.21408489 66.10477512 26.70690634 65.99250545 21 65 C21 64.01 21 63.02 21 62 C19.02 61.67 17.04 61.34 15 61 C15 60.01 15 59.02 15 58 C14.01 58 13.02 58 12 58 C12 54.37 12 50.74 12 47 C12.99 47 13.98 47 15 47 C15 46.34 15 45.68 15 45 C17.64 45 20.28 45 23 45 C23 45.66 23 46.32 23 47 C26.96 47 30.92 47 35 47 C35 47.66 35 48.32 35 49 C37.97 49.495 37.97 49.495 41 50 C41 50.66 41 51.32 41 52 C41.99 52 42.98 52 44 52 C44 51.01 44 50.02 44 49 C43.34 49 42.68 49 42 49 C41.67 47.35 41.34 45.7 41 44 C46.94 43.67 52.88 43.34 59 43 C57.84331499 41.61578935 57.84331499 41.61578935 54.67358398 41.88647461 C53.19774444 41.88663371 51.72189931 41.89232686 50.24609375 41.90234375 C49.47064713 41.9037587 48.6952005 41.90517365 47.89625549 41.90663147 C45.40996506 41.91224655 42.9237634 41.92480154 40.4375 41.9375 C38.75586067 41.94251306 37.07421994 41.9470763 35.39257812 41.95117188 C31.26168434 41.96222087 27.13085724 41.97949555 23 42 C23 41.01 23 40.02 23 39 C20.36 39.33 17.72 39.66 15 40 C15 37.36 15 34.72 15 32 C14.01 32 13.02 32 12 32 C12 31.34 12 30.68 12 30 C10.35 30 8.7 30 7 30 C7 29.01 7 28.02 7 27 C4.69 26.34 2.38 25.68 0 25 C0 24.01 0 23.02 0 22 C-1.98 22 -3.96 22 -6 22 C-6 20.68 -6 19.36 -6 18 C-6.66 18 -7.32 18 -8 18 C-8 15.03 -8 12.06 -8 9 C-7.34 9 -6.68 9 -6 9 C-6 7.68 -6 6.36 -6 5 C-5.34 5 -4.68 5 -4 5 C-4 4.34 -4 3.68 -4 3 C-2.68 3 -1.36 3 0 3 C0 2.01 0 1.02 0 0 Z " fill="#0F080C" transform="translate(79,16)"/>
<path d="M0 0 C1.32 0.33 2.64 0.66 4 1 C3.34 1 2.68 1 2 1 C2 1.66 2 2.32 2 3 C1.34 3 0.68 3 0 3 C0 3.66 0 4.32 0 5 C1.32 5 2.64 5 4 5 C4 4.01 4 3.02 4 2 C8.95 2 13.9 2 19 2 C19 2.66 19 3.32 19 4 C20.65 4 22.3 4 24 4 C24 6.31 24 8.62 24 11 C24.99 11 25.98 11 27 11 C27.495 12.98 27.495 12.98 28 15 C28.33 13.02 28.66 11.04 29 9 C30.65 9 32.3 9 34 9 C34 8.01 34 7.02 34 6 C35.32 6 36.64 6 38 6 C38 5.34 38 4.68 38 4 C39.32 4 40.64 4 42 4 C42 3.34 42 2.68 42 2 C48.93 2 55.86 2 63 2 C63 2.99 63 3.98 63 5 C63.99 5 64.98 5 66 5 C66 5.66 66 6.32 66 7 C67.918125 6.938125 67.918125 6.938125 69.875 6.875 C72.0546875 6.8046875 72.0546875 6.8046875 74 7 C76 9 76 9 76 12 C76.66 12 77.32 12 78 12 C78.36642872 16.51928754 78.36642872 16.51928754 76.74479675 18.64668274 C74.60814654 20.30393342 73.57385911 20.36529716 70.89575195 20.34057617 C69.6648156 20.34023628 69.6648156 20.34023628 68.40901184 20.33988953 C67.52767075 20.32440567 66.64632965 20.30892181 65.73828125 20.29296875 C64.37959175 20.28660149 64.37959175 20.28660149 62.99345398 20.28010559 C60.09950067 20.26330848 57.20624294 20.2256545 54.3125 20.1875 C52.35092151 20.17245449 50.38933211 20.15876585 48.42773438 20.14648438 C43.61822144 20.11340157 38.80922867 20.06161222 34 20 C34 20.99 34 21.98 34 23 C38.62 23.66 43.24 24.32 48 25 C48 25.99 48 26.98 48 28 C49.98 28 51.96 28 54 28 C54 28.99 54 29.98 54 31 C52.68 31 51.36 31 50 31 C50 31.66 50 32.32 50 33 C52.31 33 54.62 33 57 33 C57 34.32 57 35.64 57 37 C55.35 37 53.7 37 52 37 C52 38.32 52 39.64 52 41 C44.41 41 36.82 41 29 41 C29 41.99 29 42.98 29 44 C27.35 44 25.7 44 24 44 C24 43.34 24 42.68 24 42 C22.78828125 42.01160156 21.5765625 42.02320313 20.328125 42.03515625 C8.18398709 42.11334788 -3.87814789 41.72215289 -16 41 C-16 40.01 -16 39.02 -16 38 C-16.66 38 -17.32 38 -18 38 C-18 34.7 -18 31.4 -18 28 C-17.01 28 -16.02 28 -15 28 C-15 27.01 -15 26.02 -15 25 C-14.01 25 -13.02 25 -12 25 C-12 24.01 -12 23.02 -12 22 C-11.01 22 -10.02 22 -9 22 C-9 21.01 -9 20.02 -9 19 C-5.535 18.505 -5.535 18.505 -2 18 C-2.99 17.34 -3.98 16.68 -5 16 C-5.29296875 13.3984375 -5.29296875 13.3984375 -5.1875 10.375 C-5.16042969 9.37210938 -5.13335937 8.36921875 -5.10546875 7.3359375 C-5.07066406 6.56507812 -5.03585938 5.79421875 -5 5 C-4.01 4.67 -3.02 4.34 -2 4 C-2 3.34 -2 2.68 -2 2 C-1.34 2 -0.68 2 0 2 C0 1.34 0 0.68 0 0 Z " fill="#07030D" transform="translate(34,79)"/>
<path d="M0 0 C1.32 0 2.64 0 4 0 C4 2.31 4 4.62 4 7 C7.96 7 11.92 7 16 7 C16 7.33 16 7.66 16 8 C14.35 8.33 12.7 8.66 11 9 C13.31 9.33 15.62 9.66 18 10 C18 9.34 18 8.68 18 8 C20.64 7.67 23.28 7.34 26 7 C26 5.68 26 4.36 26 3 C27.32 3 28.64 3 30 3 C30 3.99 30 4.98 30 6 C31.32 6 32.64 6 34 6 C34 7.32 34 8.64 34 10 C34.66 10 35.32 10 36 10 C36 9.34 36 8.68 36 8 C36.99 8 37.98 8 39 8 C39 7.34 39 6.68 39 6 C39.99 6 40.98 6 42 6 C42 7.65 42 9.3 42 11 C43.98 11 45.96 11 48 11 C48 11.66 48 12.32 48 13 C48.99 13 49.98 13 51 13 C51 13.99 51 14.98 51 16 C51.99 16 52.98 16 54 16 C54 16.99 54 17.98 54 19 C54.66 19 55.32 19 56 19 C56 19.66 56 20.32 56 21 C56.99 21 57.98 21 59 21 C59 23.97 59 26.94 59 30 C58.34 30.33 57.68 30.66 57 31 C56.67 31.99 56.34 32.98 56 34 C47.33890569 35.1725486 38.66196363 35.33406208 29.9375 35.5625 C28.38866234 35.60577992 26.83983406 35.64939692 25.29101562 35.69335938 C21.52744068 35.79946066 17.76376805 35.90099536 14 36 C14 36.66 14 37.32 14 38 C4.1 38 -5.8 38 -16 38 C-16 37.34 -16 36.68 -16 36 C-17.97956441 36.14033111 -19.95865141 36.2874123 -21.9375 36.4375 C-23.03964844 36.51871094 -24.14179687 36.59992188 -25.27734375 36.68359375 C-27.91109903 36.70418084 -27.91109903 36.70418084 -29 38 C-31.14558827 38.08775605 -33.29404421 38.10695219 -35.44140625 38.09765625 C-36.74658203 38.09443359 -38.05175781 38.09121094 -39.39648438 38.08789062 C-40.7851569 38.07953401 -42.17382877 38.07106905 -43.5625 38.0625 C-44.95507656 38.05748666 -46.34765481 38.05292347 -47.74023438 38.04882812 C-51.1601987 38.03699434 -54.58007844 38.0205088 -58 38 C-58 37.67 -58 37.34 -58 37 C-56.35 37 -54.7 37 -53 37 C-53 36.01 -53 35.02 -53 34 C-44.42857143 32.71428571 -44.42857143 32.71428571 -41 34 C-40.67 33.34 -40.34 32.68 -40 32 C-40 32.66 -40 33.32 -40 34 C-36.7 34 -33.4 34 -30 34 C-30 32.68 -30 31.36 -30 30 C-28.35 30 -26.7 30 -25 30 C-25 28.68 -25 27.36 -25 26 C-27.31 26 -29.62 26 -32 26 C-32 25.34 -32 24.68 -32 24 C-30.68 24 -29.36 24 -28 24 C-28 23.01 -28 22.02 -28 21 C-29.98 21 -31.96 21 -34 21 C-34 20.01 -34 19.02 -34 18 C-35.258125 18.020625 -36.51625 18.04125 -37.8125 18.0625 C-43.24514947 18.07115072 -48.60104876 17.56512387 -54 17 C-54 16.67 -54 16.34 -54 16 C-52.02 16 -50.04 16 -48 16 C-48 15.01 -48 14.02 -48 13 C-34.47 13 -20.94 13 -7 13 C-6.67 12.01 -6.34 11.02 -6 10 C-5.34 10 -4.68 10 -4 10 C-3.814375 8.7934375 -3.814375 8.7934375 -3.625 7.5625 C-3.41875 6.716875 -3.2125 5.87125 -3 5 C-2.34 4.67 -1.68 4.34 -1 4 C-0.34786708 1.97536745 -0.34786708 1.97536745 0 0 Z " fill="#221F23" transform="translate(116,86)"/>
<path d="M0 0 C2.64 0 5.28 0 8 0 C8 0.66 8 1.32 8 2 C11.96 2 15.92 2 20 2 C20 2.66 20 3.32 20 4 C22.97 4.495 22.97 4.495 26 5 C26 5.66 26 6.32 26 7 C26.99 7 27.98 7 29 7 C29 5.35 29 3.7 29 2 C33.29 2 37.58 2 42 2 C42 1.34 42 0.68 42 0 C44.31 0 46.62 0 49 0 C49 0.66 49 1.32 49 2 C50.32 2.33 51.64 2.66 53 3 C53 3.99 53 4.98 53 6 C53.99 6 54.98 6 56 6 C56 7.32 56 8.64 56 10 C51.38 10 46.76 10 42 10 C42 10.66 42 11.32 42 12 C40.02 12 38.04 12 36 12 C36.33 10.68 36.66 9.36 37 8 C34.69 8 32.38 8 30 8 C30 10.31 30 12.62 30 15 C28.68 15 27.36 15 26 15 C26 15.99 26 16.98 26 18 C25.01 18 24.02 18 23 18 C23 18.99 23 19.98 23 21 C17.21408489 21.10477512 11.70690634 20.99250545 6 20 C6 19.01 6 18.02 6 17 C4.02 16.67 2.04 16.34 0 16 C0 15.01 0 14.02 0 13 C-0.99 13 -1.98 13 -3 13 C-3 9.37 -3 5.74 -3 2 C-2.01 2 -1.02 2 0 2 C0 1.34 0 0.68 0 0 Z " fill="#684D45" transform="translate(94,61)"/>
<path d="M0 0 C10.89 0 21.78 0 33 0 C33 0.99 33 1.98 33 3 C34.65 3 36.3 3 38 3 C38 3.33 38 3.66 38 4 C36.35 4 34.7 4 33 4 C33 4.99 33 5.98 33 7 C34.65 7 36.3 7 38 7 C38 8.32 38 9.64 38 11 C39.32 11 40.64 11 42 11 C42 11.66 42 12.32 42 13 C42.99 13 43.98 13 45 13 C45 14.32 45 15.64 45 17 C44.01 17 43.02 17 42 17 C42 17.66 42 18.32 42 19 C41.01 19 40.02 19 39 19 C39 17.35 39 15.7 39 14 C38.01 14 37.02 14 36 14 C36 14.99 36 15.98 36 17 C34.35 17 32.7 17 31 17 C31 17.66 31 18.32 31 19 C26.05 19 21.1 19 16 19 C16 20.98 16 22.96 16 25 C15.34 25 14.68 25 14 25 C14 24.01 14 23.02 14 22 C13.01 22 12.02 22 11 22 C11 20.68 11 19.36 11 18 C10.01 18 9.02 18 8 18 C8 16.68 8 15.36 8 14 C6.68 14 5.36 14 4 14 C4 13.01 4 12.02 4 11 C1.03 10.505 1.03 10.505 -2 10 C-2 8.68 -2 7.36 -2 6 C-0.68 6 0.64 6 2 6 C2 5.01 2 4.02 2 3 C11.9 3 21.8 3 32 3 C32 2.34 32 1.68 32 1 C21.77 1 11.54 1 1 1 C1 1.99 1 2.98 1 4 C-0.32 4 -1.64 4 -3 4 C-3 4.66 -3 5.32 -3 6 C-3.99 5.67 -4.98 5.34 -6 5 C-5.34 5 -4.68 5 -4 5 C-4 4.34 -4 3.68 -4 3 C-2.68 3 -1.36 3 0 3 C0 2.01 0 1.02 0 0 Z " fill="#FDED9D" transform="translate(79,16)"/>
<path d="M0 0 C0.99 0.33 1.98 0.66 3 1 C2.34 1 1.68 1 1 1 C1 3.97 1 6.94 1 10 C1.66 10 2.32 10 3 10 C3 11.32 3 12.64 3 14 C4.98 14 6.96 14 9 14 C9 14.99 9 15.98 9 17 C9.78375 17.144375 10.5675 17.28875 11.375 17.4375 C14 18 14 18 16 19 C16 19.99 16 20.98 16 22 C17.65 22 19.3 22 21 22 C21 22.66 21 23.32 21 24 C21.99 24 22.98 24 24 24 C24 26.31 24 28.62 24 31 C23.01 31 22.02 31 21 31 C21 31.99 21 32.98 21 34 C18.36 34 15.72 34 13 34 C13 33.01 13 32.02 13 31 C5.08 31 -2.84 31 -11 31 C-11 30.67 -11 30.34 -11 30 C-8.36 30 -5.72 30 -3 30 C-3 29.34 -3 28.68 -3 28 C-6.96 28 -10.92 28 -15 28 C-15 26.02 -15 24.04 -15 22 C-15.66 22 -16.32 22 -17 22 C-17 24.64 -17 27.28 -17 30 C-16.34 30.33 -15.68 30.66 -15 31 C-15.99 31 -16.98 31 -18 31 C-18 27.7 -18 24.4 -18 21 C-17.01 21 -16.02 21 -15 21 C-15 19.68 -15 18.36 -15 17 C-9.95455739 13.6363716 -6.11482637 12 0 12 C-0.66 8.7 -1.32 5.4 -2 2 C-1.34 2 -0.68 2 0 2 C0 1.34 0 0.68 0 0 Z M-1 3 C0 5 0 5 0 5 Z " fill="#52493F" transform="translate(70,24)"/>
<path d="M0 0 C8.25 0 16.5 0 25 0 C25 0.66 25 1.32 25 2 C27.31 2 29.62 2 32 2 C32 2.99 32 3.98 32 5 C32.66 5 33.32 5 34 5 C34 6.98 34 8.96 34 11 C32.02 11 30.04 11 28 11 C27.67 12.32 27.34 13.64 27 15 C17.1 15.33 7.2 15.66 -3 16 C-3 14.68 -3 13.36 -3 12 C-4.65 12 -6.3 12 -8 12 C-8 9.69 -8 7.38 -8 5 C-6.68 5 -5.36 5 -4 5 C-4 4.01 -4 3.02 -4 2 C-2.68 2 -1.36 2 0 2 C0 1.34 0 0.68 0 0 Z " fill="#644549" transform="translate(103,104)"/>
<path d="M0 0 C10.23 0 20.46 0 31 0 C31 0.99 31 1.98 31 3 C32.32 3.33 33.64 3.66 35 4 C34.01 4.66 33.02 5.32 32 6 C31.27617533 8.05925139 31.27617533 8.05925139 31 10 C29.68 10 28.36 10 27 10 C27 12.31 27 14.62 27 17 C28.65 17 30.3 17 32 17 C32 18.32 32 19.64 32 21 C33.25683594 20.83628906 34.51367188 20.67257813 35.80859375 20.50390625 C41.23638634 19.90081818 46.60720338 19.88814798 52.0625 19.9375 C53.02349609 19.94201172 53.98449219 19.94652344 54.97460938 19.95117188 C57.31647422 19.96282294 59.65820181 19.97917975 62 20 C61.67 21.32 61.34 22.64 61 24 C51.76 24 42.52 24 33 24 C33 23.34 33 22.68 33 22 C28.05 22 23.1 22 18 22 C18 22.66 18 23.32 18 24 C10.41 24 2.82 24 -5 24 C-5 23.01 -5 22.02 -5 21 C3.57142857 19.71428571 3.57142857 19.71428571 7 21 C7.33 20.34 7.66 19.68 8 19 C8 19.66 8 20.32 8 21 C11.3 21 14.6 21 18 21 C18 19.68 18 18.36 18 17 C19.65 17 21.3 17 23 17 C23 15.68 23 14.36 23 13 C20.69 13 18.38 13 16 13 C16 12.34 16 11.68 16 11 C17.32 11 18.64 11 20 11 C20 10.01 20 9.02 20 8 C18.02 8 16.04 8 14 8 C14 7.01 14 6.02 14 5 C12.741875 5.020625 11.48375 5.04125 10.1875 5.0625 C4.75485053 5.07115072 -0.60104876 4.56512387 -6 4 C-6 3.67 -6 3.34 -6 3 C-4.02 3 -2.04 3 0 3 C0 2.01 0 1.02 0 0 Z " fill="#040107" transform="translate(68,99)"/>
<path d="M0 0 C2.31 0 4.62 0 7 0 C7 0.33 7 0.66 7 1 C5.35 1.33 3.7 1.66 2 2 C9.92 2.33 17.84 2.66 26 3 C26 3.66 26 4.32 26 5 C26.99 5 27.98 5 29 5 C29 5.99 29 6.98 29 8 C30.65 8 32.3 8 34 8 C34 9.32 34 10.64 34 12 C33.34 12 32.68 12 32 12 C32 12.66 32 13.32 32 14 C31.01 14 30.02 14 29 14 C29 13.34 29 12.68 29 12 C28.34 12 27.68 12 27 12 C27 13.65 27 15.3 27 17 C25.68 17.33 24.36 17.66 23 18 C23 15.69 23 13.38 23 11 C22.34 11 21.68 11 21 11 C20.9175 11.78375 20.835 12.5675 20.75 13.375 C20 16 20 16 18.27734375 17.15234375 C11.52846285 19.66436288 2.98223541 17.915703 -4 17 C-4 16.01 -4 15.02 -4 14 C-4.99 14 -5.98 14 -7 14 C-6.67 12.35 -6.34 10.7 -6 9 C-5.34 9 -4.68 9 -4 9 C-4 8.34 -4 7.68 -4 7 C-4.99 7 -5.98 7 -7 7 C-7 7.99 -7 8.98 -7 10 C-7.99 10 -8.98 10 -10 10 C-10.33 10.66 -10.66 11.32 -11 12 C-11 11.01 -11 10.02 -11 9 C-10.01 9 -9.02 9 -8 9 C-8 8.01 -8 7.02 -8 6 C-6.68 6 -5.36 6 -4 6 C-3.67 5.01 -3.34 4.02 -3 3 C-2.34 3 -1.68 3 -1 3 C-0.67 2.01 -0.34 1.02 0 0 Z " fill="#DFC97B" transform="translate(48,56)"/>
<path d="M0 0 C6.76594019 -0.11381955 13.28837062 0.11978631 20 1 C20 1.99 20 2.98 20 4 C21.98 4 23.96 4 26 4 C26 4.99 26 5.98 26 7 C24.68 7 23.36 7 22 7 C22 7.66 22 8.32 22 9 C24.31 9 26.62 9 29 9 C29 10.32 29 11.64 29 13 C27.35 13 25.7 13 24 13 C24 14.32 24 15.64 24 17 C21.03 17 18.06 17 15 17 C15 16.01 15 15.02 15 14 C7.41 14 -0.18 14 -8 14 C-8 10.7 -8 7.4 -8 4 C-7.236875 3.855625 -6.47375 3.71125 -5.6875 3.5625 C-2.91827092 3.0367406 -2.91827092 3.0367406 0 2 C0 1.34 0 0.68 0 0 Z " fill="#664F43" transform="translate(62,103)"/>
<path d="M0 0 C1.32 0 2.64 0 4 0 C4 3.63 4 7.26 4 11 C3.01 11 2.02 11 1 11 C1 11.66 1 12.32 1 13 C2.98 13 4.96 13 7 13 C7.495 15.475 7.495 15.475 8 18 C8.66 18 9.32 18 10 18 C11.28571429 25.42857143 11.28571429 25.42857143 10 29 C9.34 29 8.68 29 8 29 C7.67 29.66 7.34 30.32 7 31 C7 29.35 7 27.7 7 26 C6.01 26 5.02 26 4 26 C4 26.66 4 27.32 4 28 C3.01 28 2.02 28 1 28 C1 28.66 1 29.32 1 30 C0.34 30 -0.32 30 -1 30 C-1 28.68 -1 27.36 -1 26 C-2.32 26 -3.64 26 -5 26 C-5 25.01 -5 24.02 -5 23 C-6.32 23 -7.64 23 -9 23 C-9 24.32 -9 25.64 -9 27 C-11.70879335 28.35439668 -14.00933268 28.06501451 -17 28 C-17 28.66 -17 29.32 -17 30 C-19.64 30 -22.28 30 -25 30 C-24.67 29.34 -24.34 28.68 -24 28 C-26.31 27.67 -28.62 27.34 -31 27 C-31 24.69 -31 22.38 -31 20 C-30.01 20 -29.02 20 -28 20 C-28 19.01 -28 18.02 -28 17 C-23.38 17 -18.76 17 -14 17 C-14 17.99 -14 18.98 -14 20 C-12.35 20 -10.7 20 -9 20 C-9 19.01 -9 18.02 -9 17 C-5.52674819 15.8422494 -2.63932552 15.93133348 1 16 C1 16.99 1 17.98 1 19 C2.98 19 4.96 19 7 19 C7 18.01 7 17.02 7 16 C6.01 16 5.02 16 4 16 C4 15.34 4 14.68 4 14 C2.68 14 1.36 14 0 14 C0 12.68 0 11.36 0 10 C0.99 10 1.98 10 3 10 C3 7.03 3 4.06 3 1 C2.01 0.67 1.02 0.34 0 0 Z " fill="#5A3F40" transform="translate(151,66)"/>
<path d="M0 0 C6.93 0 13.86 0 21 0 C21 0.99 21 1.98 21 3 C21.99 3 22.98 3 24 3 C24 3.66 24 4.32 24 5 C24.99 5 25.98 5 27 5 C27 5.66 27 6.32 27 7 C27.99 7 28.98 7 30 7 C30 7.99 30 8.98 30 10 C29.01 10 28.02 10 27 10 C27 10.99 27 11.98 27 13 C24.69 13 22.38 13 20 13 C20 12.01 20 11.02 20 10 C19.01 10 18.02 10 17 10 C17 10.99 17 11.98 17 13 C9.08 13 1.16 13 -7 13 C-7 12.34 -7 11.68 -7 11 C-5.68 11 -4.36 11 -3 11 C-3 10.34 -3 9.68 -3 9 C-4.98 9 -6.96 9 -9 9 C-8.67 7.35 -8.34 5.7 -8 4 C-6.68 4 -5.36 4 -4 4 C-4 3.34 -4 2.68 -4 2 C-2.68 2 -1.36 2 0 2 C0 1.34 0 0.68 0 0 Z " fill="#CA9B65" transform="translate(76,81)"/>
<path d="M0 0 C0.66 0 1.32 0 2 0 C2 0.66 2 1.32 2 2 C3.32 2 4.64 2 6 2 C6 1.34 6 0.68 6 0 C6.99 0 7.98 0 9 0 C9 0.99 9 1.98 9 3 C9.66 3 10.32 3 11 3 C11 5.31 11 7.62 11 10 C10.34 10 9.68 10 9 10 C8.67 11.98 8.34 13.96 8 16 C4.7 16.33 1.4 16.66 -2 17 C-2 17.66 -2 18.32 -2 19 C-2.99 19 -3.98 19 -5 19 C-5 18.34 -5 17.68 -5 17 C-5.99 17.33 -6.98 17.66 -8 18 C-15.03883851 18.39820384 -22.01481161 17.84852614 -29 17 C-29 16.34 -29 15.68 -29 15 C-29.99 15.33 -30.98 15.66 -32 16 C-32 15.34 -32 14.68 -32 14 C-33.32 14 -34.64 14 -36 14 C-36 15.32 -36 16.64 -36 18 C-36.99 17.67 -37.98 17.34 -39 17 C-39.6875 14.9375 -39.6875 14.9375 -40 13 C-40.66 13 -41.32 13 -42 13 C-42 11.02 -42 9.04 -42 7 C-41.01 7 -40.02 7 -39 7 C-39 6.34 -39 5.68 -39 5 C-38.01 5 -37.02 5 -36 5 C-36 4.01 -36 3.02 -36 2 C-35.01 2 -34.02 2 -33 2 C-33 2.66 -33 3.32 -33 4 C-33.66 4 -34.32 4 -35 4 C-35.33 5.65 -35.66 7.3 -36 9 C-35.01 9 -34.02 9 -33 9 C-33 9.99 -33 10.98 -33 12 C-29.75001888 12.02909763 -26.50007143 12.04683161 -23.25 12.0625 C-22.32960938 12.07087891 -21.40921875 12.07925781 -20.4609375 12.08789062 C-19.57148437 12.09111328 -18.68203125 12.09433594 -17.765625 12.09765625 C-16.54020996 12.10551147 -16.54020996 12.10551147 -15.29003906 12.11352539 C-13.06031865 12.00299021 -11.13866245 11.62055567 -9 11 C-8.67 9.35 -8.34 7.7 -8 6 C-7.34 6 -6.68 6 -6 6 C-6 8.31 -6 10.62 -6 13 C-5.01 12.67 -4.02 12.34 -3 12 C-2.67 10.35 -2.34 8.7 -2 7 C-1.34 7 -0.68 7 0 7 C0 7.66 0 8.32 0 9 C0.99 9 1.98 9 3 9 C3 8.34 3 7.68 3 7 C3.66 7 4.32 7 5 7 C5 5.68 5 4.36 5 3 C3.35 3 1.7 3 0 3 C0 2.01 0 1.02 0 0 Z " fill="#4B4243" transform="translate(77,61)"/>
<path d="M0 0 C0.33 0.66 0.66 1.32 1 2 C1.99 2 2.98 2 4 2 C4 2.99 4 3.98 4 5 C4.99 5 5.98 5 7 5 C7 5.99 7 6.98 7 8 C7.66 8.33 8.32 8.66 9 9 C8.01 9 7.02 9 6 9 C6 10.32 6 11.64 6 13 C6.99 13 7.98 13 9 13 C9 13.99 9 14.98 9 16 C8.01 16 7.02 16 6 16 C6 16.66 6 17.32 6 18 C5.01 18 4.02 18 3 18 C3 17.34 3 16.68 3 16 C2.01 16 1.02 16 0 16 C0 16.66 0 17.32 0 18 C-2.64 18 -5.28 18 -8 18 C-8 17.01 -8 16.02 -8 15 C-8.433125 15.495 -8.86625 15.99 -9.3125 16.5 C-11 18 -11 18 -14 18 C-14 18.66 -14 19.32 -14 20 C-14.66 20 -15.32 20 -16 20 C-16 19.34 -16 18.68 -16 18 C-16.66 18 -17.32 18 -18 18 C-17.67 16.35 -17.34 14.7 -17 13 C-18.65 13 -20.3 13 -22 13 C-22 11.68 -22 10.36 -22 9 C-21.01 9 -20.02 9 -19 9 C-19 7.68 -19 6.36 -19 5 C-15.7 5 -12.4 5 -9 5 C-9 4.34 -9 3.68 -9 3 C-6.03 3 -3.06 3 0 3 C0 2.01 0 1.02 0 0 Z " fill="#5F4349" transform="translate(163,97)"/>
<path d="M0 0 C0.66 0.33 1.32 0.66 2 1 C2 4.3 2 7.6 2 11 C2.99 11.33 3.98 11.66 5 12 C5 12.66 5 13.32 5 14 C7.97 14.495 7.97 14.495 11 15 C11 15.99 11 16.98 11 18 C11.99 18 12.98 18 14 18 C14 18.66 14 19.32 14 20 C14.99 20 15.98 20 17 20 C16.505 21.485 16.505 21.485 16 23 C16 22.34 16 21.68 16 21 C14.35 20.67 12.7 20.34 11 20 C11 20.99 11 21.98 11 23 C11.99 23 12.98 23 14 23 C14.495 25.97 14.495 25.97 15 29 C12.69 29 10.38 29 8 29 C8 28.34 8 27.68 8 27 C7.01 27.33 6.02 27.66 5 28 C3.60560336 28.06665376 2.20830125 28.08538199 0.8125 28.0625 C-1.0746875 28.0315625 -1.0746875 28.0315625 -3 28 C-3 27.34 -3 26.68 -3 26 C-3.99 26.33 -4.98 26.66 -6 27 C-7.39439664 27.06665376 -8.79169875 27.08538199 -10.1875 27.0625 C-12.0746875 27.0315625 -12.0746875 27.0315625 -14 27 C-14 26.01 -14 25.02 -14 24 C-14.66 24 -15.32 24 -16 24 C-16 24.66 -16 25.32 -16 26 C-17.65 26 -19.3 26 -21 26 C-20.67 25.34 -20.34 24.68 -20 24 C-19.34 24 -18.68 24 -18 24 C-18 23.34 -18 22.68 -18 22 C-17.01 22 -16.02 22 -15 22 C-15 21.01 -15 20.02 -15 19 C-13.35 19 -11.7 19 -10 19 C-10 19.66 -10 20.32 -10 21 C-9.34 21 -8.68 21 -8 21 C-8 19.68 -8 18.36 -8 17 C-5.89590361 16.97298592 -3.79170822 16.95359777 -1.6875 16.9375 C-0.51574219 16.92589844 0.65601563 16.91429688 1.86328125 16.90234375 C5 17 5 17 8 18 C8 17.01 8 16.02 8 15 C6.68 15 5.36 15 4 15 C4 14.34 4 13.68 4 13 C2.02 13 0.04 13 -2 13 C-2 12.01 -2 11.02 -2 10 C-1.01 10 -0.02 10 1 10 C0.505 5.05 0.505 5.05 0 0 Z " fill="#925F44" transform="translate(125,26)"/>
<path d="M0 0 C2.375 -0.125 2.375 -0.125 5 0 C7 2 7 2 7 5 C7.66 5 8.32 5 9 5 C9.36642872 9.51928754 9.36642872 9.51928754 7.74479675 11.64668274 C5.60814654 13.30393342 4.57385911 13.36529716 1.89575195 13.34057617 C0.6648156 13.34023628 0.6648156 13.34023628 -0.59098816 13.33988953 C-1.9129998 13.31666374 -1.9129998 13.31666374 -3.26171875 13.29296875 C-4.62040825 13.28660149 -4.62040825 13.28660149 -6.00654602 13.28010559 C-8.90049933 13.26330848 -11.79375706 13.2256545 -14.6875 13.1875 C-16.64907849 13.17245449 -18.61066789 13.15876585 -20.57226562 13.14648438 C-25.38177856 13.11340157 -30.19077133 13.06161222 -35 13 C-35 11.68 -35 10.36 -35 9 C-36.65 9 -38.3 9 -40 9 C-40 6.69 -40 4.38 -40 2 C-38.68 2 -37.36 2 -36 2 C-36 2.66 -36 3.32 -36 4 C-34.02 4 -32.04 4 -30 4 C-30 4.66 -30 5.32 -30 6 C-31.32 6 -32.64 6 -34 6 C-34 6.66 -34 7.32 -34 8 C-26.08 8 -18.16 8 -10 8 C-10 7.01 -10 6.02 -10 5 C-9.01 5 -8.02 5 -7 5 C-7 5.99 -7 6.98 -7 8 C-4.69 8 -2.38 8 0 8 C0 7.01 0 6.02 0 5 C0.99 5 1.98 5 3 5 C3 4.01 3 3.02 3 2 C2.01 2 1.02 2 0 2 C0 1.34 0 0.68 0 0 Z " fill="#553842" transform="translate(103,86)"/>
<path d="M0 0 C0.99 0.33 1.98 0.66 3 1 C2.34 1 1.68 1 1 1 C1 1.99 1 2.98 1 4 C1.99 4 2.98 4 4 4 C4 3.01 4 2.02 4 1 C7.28519475 -0.09506492 9.73663415 -0.09960608 13.1875 -0.0625 C14.81751953 -0.04896484 14.81751953 -0.04896484 16.48046875 -0.03515625 C17.31191406 -0.02355469 18.14335938 -0.01195313 19 0 C19 0.66 19 1.32 19 2 C20.98 2 22.96 2 25 2 C25 2.66 25 3.32 25 4 C25.99 4 26.98 4 28 4 C28 5.98 28 7.96 28 10 C19.57142857 11.28571429 19.57142857 11.28571429 15 10 C15 10.66 15 11.32 15 12 C13.68 12 12.36 12 11 12 C11 11.34 11 10.68 11 10 C9.68 10 8.36 10 7 10 C7 10.66 7 11.32 7 12 C4.03 12 1.06 12 -2 12 C-2 10.35 -2 8.7 -2 7 C-3.32 6.67 -4.64 6.34 -6 6 C-5.01 6 -4.02 6 -3 6 C-3 5.01 -3 4.02 -3 3 C-2.01 3 -1.02 3 0 3 C0 2.01 0 1.02 0 0 Z " fill="#725550" transform="translate(22,101)"/>
<path d="M0 0 C10.89 0 21.78 0 33 0 C33 0.99 33 1.98 33 3 C34.65 3 36.3 3 38 3 C38 3.33 38 3.66 38 4 C36.35 4 34.7 4 33 4 C33 4.99 33 5.98 33 7 C34.65 7 36.3 7 38 7 C38 8.32 38 9.64 38 11 C39.32 11 40.64 11 42 11 C42 11.66 42 12.32 42 13 C42.99 13 43.98 13 45 13 C45 14.32 45 15.64 45 17 C44.01 17 43.02 17 42 17 C42 17.66 42 18.32 42 19 C41.01 19 40.02 19 39 19 C39 17.35 39 15.7 39 14 C38.01 14 37.02 14 36 14 C36 14.99 36 15.98 36 17 C34.35 17 32.7 17 31 17 C31 17.66 31 18.32 31 19 C26.05 19 21.1 19 16 19 C16 17.35 16 15.7 16 14 C17.98 14 19.96 14 22 14 C22 14.99 22 15.98 22 17 C22.99 17 23.98 17 25 17 C25 16.01 25 15.02 25 14 C25.99 14 26.98 14 28 14 C28 13.01 28 12.02 28 11 C29.65 11 31.3 11 33 11 C33 10.34 33 9.68 33 9 C30.525 8.505 30.525 8.505 28 8 C28 7.01 28 6.02 28 5 C19.75 4.67 11.5 4.34 3 4 C2.67 4.66 2.34 5.32 2 6 C2 5.01 2 4.02 2 3 C11.9 3 21.8 3 32 3 C32 2.34 32 1.68 32 1 C21.77 1 11.54 1 1 1 C1 1.99 1 2.98 1 4 C-0.32 4 -1.64 4 -3 4 C-3 4.66 -3 5.32 -3 6 C-3.99 5.67 -4.98 5.34 -6 5 C-5.34 5 -4.68 5 -4 5 C-4 4.34 -4 3.68 -4 3 C-2.68 3 -1.36 3 0 3 C0 2.01 0 1.02 0 0 Z " fill="#F2CE8A" transform="translate(79,16)"/>
<path d="M0 0 C1.32 0.33 2.64 0.66 4 1 C3.34 1 2.68 1 2 1 C2 1.66 2 2.32 2 3 C1.34 3 0.68 3 0 3 C0 3.66 0 4.32 0 5 C1.32 5 2.64 5 4 5 C4 4.34 4 3.68 4 3 C7.96 3 11.92 3 16 3 C16 3.66 16 4.32 16 5 C16.99 5 17.98 5 19 5 C19 6.32 19 7.64 19 9 C19.66 9 20.32 9 21 9 C21 9.99 21 10.98 21 12 C20.34 12 19.68 12 19 12 C19 12.66 19 13.32 19 14 C17.02 14 15.04 14 13 14 C13 13.34 13 12.68 13 12 C9.04 12 5.08 12 1 12 C0.67 12.66 0.34 13.32 0 14 C-0.66 13.67 -1.32 13.34 -2 13 C-1.67 14.98 -1.34 16.96 -1 19 C-2.32 19 -3.64 19 -5 19 C-5 19.66 -5 20.32 -5 21 C-6.32 21 -7.64 21 -9 21 C-9 20.34 -9 19.68 -9 19 C-5.535 18.505 -5.535 18.505 -2 18 C-2.99 17.34 -3.98 16.68 -5 16 C-5.29296875 13.3984375 -5.29296875 13.3984375 -5.1875 10.375 C-5.16042969 9.37210938 -5.13335938 8.36921875 -5.10546875 7.3359375 C-5.07066406 6.56507812 -5.03585938 5.79421875 -5 5 C-4.01 4.67 -3.02 4.34 -2 4 C-2 3.34 -2 2.68 -2 2 C-1.34 2 -0.68 2 0 2 C0 1.34 0 0.68 0 0 Z " fill="#6E6E70" transform="translate(34,79)"/>
<path d="M0 0 C2.97 0 5.94 0 9 0 C9 0.99 9 1.98 9 3 C9.99 3 10.98 3 12 3 C12 6.3 12 9.6 12 13 C7.38 13 2.76 13 -2 13 C-2 12.01 -2 11.02 -2 10 C-4.97 10 -7.94 10 -11 10 C-11 9.34 -11 8.68 -11 8 C-10.01 8 -9.02 8 -8 8 C-8 7.01 -8 6.02 -8 5 C-7.01 5 -6.02 5 -5 5 C-5 4.34 -5 3.68 -5 3 C-3.35 3 -1.7 3 0 3 C0 2.01 0 1.02 0 0 Z " fill="#F9D681" transform="translate(67,39)"/>
<path d="M0 0 C0.99 0 1.98 0 3 0 C3 1.65 3 3.3 3 5 C3.99 5 4.98 5 6 5 C6 6.65 6 8.3 6 10 C15.9 9.505 15.9 9.505 26 9 C25.67 9.99 25.34 10.98 25 12 C24.01 11.67 23.02 11.34 22 11 C21.67 11.99 21.34 12.98 21 14 C20.01 14 19.02 14 18 14 C18 14.99 18 15.98 18 17 C16.35 17 14.7 17 13 17 C13 16.01 13 15.02 13 14 C8.38 14 3.76 14 -1 14 C-1 14.99 -1 15.98 -1 17 C-1.99 17 -2.98 17 -4 17 C-4 16.01 -4 15.02 -4 14 C-4.99 13.67 -5.98 13.34 -7 13 C-7 12.01 -7 11.02 -7 10 C-6.01 10 -5.02 10 -4 10 C-4 9.01 -4 8.02 -4 7 C-2.68 7 -1.36 7 0 7 C0 4.69 0 2.38 0 0 Z " fill="#0F0B14" transform="translate(124,69)"/>
<path d="M0 0 C2.31 0 4.62 0 7 0 C7 0.33 7 0.66 7 1 C5.35 1.33 3.7 1.66 2 2 C9.92 2.33 17.84 2.66 26 3 C26 3.66 26 4.32 26 5 C18.08 4.67 10.16 4.34 2 4 C2 4.99 2 5.98 2 7 C0.35 7 -1.3 7 -3 7 C-3 7.99 -3 8.98 -3 10 C-2.34 10 -1.68 10 -1 10 C-1 10.99 -1 11.98 -1 13 C5.93 13 12.86 13 20 13 C20 13.99 20 14.98 20 16 C13.05734085 20.09438873 3.65178225 18.00351243 -4 17 C-4 16.01 -4 15.02 -4 14 C-4.99 14 -5.98 14 -7 14 C-6.67 12.35 -6.34 10.7 -6 9 C-5.34 9 -4.68 9 -4 9 C-4 8.34 -4 7.68 -4 7 C-4.99 7 -5.98 7 -7 7 C-7 7.99 -7 8.98 -7 10 C-7.99 10 -8.98 10 -10 10 C-10.33 10.66 -10.66 11.32 -11 12 C-11 11.01 -11 10.02 -11 9 C-10.01 9 -9.02 9 -8 9 C-8 8.01 -8 7.02 -8 6 C-6.68 6 -5.36 6 -4 6 C-3.67 5.01 -3.34 4.02 -3 3 C-2.34 3 -1.68 3 -1 3 C-0.67 2.01 -0.34 1.02 0 0 Z " fill="#B98D5F" transform="translate(48,56)"/>
<path d="M0 0 C2.31 0 4.62 0 7 0 C7 0.66 7 1.32 7 2 C8.32 2.33 9.64 2.66 11 3 C11 3.99 11 4.98 11 6 C11.99 6 12.98 6 14 6 C14 7.32 14 8.64 14 10 C9.38 10 4.76 10 0 10 C0 10.66 0 11.32 0 12 C-1.98 12 -3.96 12 -6 12 C-5.67 10.68 -5.34 9.36 -5 8 C-6.65 8 -8.3 8 -10 8 C-10 7.01 -10 6.02 -10 5 C-10.99 5 -11.98 5 -13 5 C-13 4.01 -13 3.02 -13 2 C-8.71 2 -4.42 2 0 2 C0 1.34 0 0.68 0 0 Z " fill="#CCA579" transform="translate(136,61)"/>
<path d="M0 0 C1.98 0 3.96 0 6 0 C6 0.66 6 1.32 6 2 C6.99 2 7.98 2 9 2 C9 2.66 9 3.32 9 4 C9.99 4 10.98 4 12 4 C14.60018816 7.90028225 14.15085514 11.47434569 14 16 C9.38 16 4.76 16 0 16 C0 16.66 0 17.32 0 18 C-4.95 18.495 -4.95 18.495 -10 19 C-10 19.99 -10 20.98 -10 22 C-12.97 22.33 -15.94 22.66 -19 23 C-19 22.34 -19 21.68 -19 21 C-18.34 21 -17.68 21 -17 21 C-17 19.02 -17 17.04 -17 15 C-12.05 15 -7.1 15 -2 15 C-2 14.34 -2 13.68 -2 13 C-0.35 13 1.3 13 3 13 C3 12.01 3 11.02 3 10 C3.99 10 4.98 10 6 10 C6 11.65 6 13.3 6 15 C6.99 15 7.98 15 9 15 C9 14.34 9 13.68 9 13 C9.99 13 10.98 13 12 13 C12 11.68 12 10.36 12 9 C11.01 9 10.02 9 9 9 C9 8.34 9 7.68 9 7 C7.68 7 6.36 7 5 7 C5 5.68 5 4.36 5 3 C3.35 3 1.7 3 0 3 C0 2.01 0 1.02 0 0 Z " fill="#563A3A" transform="translate(112,20)"/>
<path d="M0 0 C4.95 0 9.9 0 15 0 C15 0.66 15 1.32 15 2 C16.65 2 18.3 2 20 2 C20 4.31 20 6.62 20 9 C20.99 9 21.98 9 23 9 C23 10.65 23 12.3 23 14 C22.01 14 21.02 14 20 14 C20 14.99 20 15.98 20 17 C15.38 17 10.76 17 6 17 C6 16.34 6 15.68 6 15 C3.36 15 0.72 15 -2 15 C-2.33 13.35 -2.66 11.7 -3 10 C0.96 10 4.92 10 9 10 C9 10.66 9 11.32 9 12 C10.98 12 12.96 12 15 12 C15 11.34 15 10.68 15 10 C15.66 10 16.32 10 17 10 C17 9.01 17 8.02 17 7 C16.34 7 15.68 7 15 7 C15 5.68 15 4.36 15 3 C14.01 3 13.02 3 12 3 C12 2.34 12 1.68 12 1 C8.04 1 4.08 1 0 1 C0 0.67 0 0.34 0 0 Z " fill="#473241" transform="translate(38,81)"/>
<path d="M0 0 C4.62 0 9.24 0 14 0 C14 0.99 14 1.98 14 3 C14.99 3 15.98 3 17 3 C17 3.99 17 4.98 17 6 C16.01 6 15.02 6 14 6 C14 6.66 14 7.32 14 8 C14.99 8.33 15.98 8.66 17 9 C17 9.66 17 10.32 17 11 C15.02 11 13.04 11 11 11 C11 11.66 11 12.32 11 13 C8.36 13 5.72 13 3 13 C3.33 12.34 3.66 11.68 4 11 C1.69 10.67 -0.62 10.34 -3 10 C-3 7.69 -3 5.38 -3 3 C-2.01 3 -1.02 3 0 3 C0 2.01 0 1.02 0 0 Z " fill="#DAA477" transform="translate(123,83)"/>
<path d="M0 0 C6.93 0 13.86 0 21 0 C21 1.65 21 3.3 21 5 C22.32 5 23.64 5 25 5 C25 5.99 25 6.98 25 8 C23.68 8 22.36 8 21 8 C21 8.66 21 9.32 21 10 C20.01 10 19.02 10 18 10 C18 9.34 18 8.68 18 8 C17.01 8 16.02 8 15 8 C15 8.66 15 9.32 15 10 C12.36 10 9.72 10 7 10 C7 9.01 7 8.02 7 7 C4.36 7 1.72 7 -1 7 C-1 6.34 -1 5.68 -1 5 C-1.66 5 -2.32 5 -3 5 C-3 4.01 -3 3.02 -3 2 C-0.69 2.66 1.62 3.32 4 4 C4 3.34 4 2.68 4 2 C2.68 2 1.36 2 0 2 C0 1.34 0 0.68 0 0 Z " fill="#D0A168" transform="translate(95,66)"/>
<path d="M0 0 C10.23 0 20.46 0 31 0 C31 0.66 31 1.32 31 2 C21.1 2 11.2 2 1 2 C1 2.99 1 3.98 1 5 C-0.32 5 -1.64 5 -3 5 C-3 6.32 -3 7.64 -3 9 C-0.03 9.495 -0.03 9.495 3 10 C3 10.99 3 11.98 3 13 C4.32 13 5.64 13 7 13 C7 14.32 7 15.64 7 17 C7.99 17 8.98 17 10 17 C10 18.32 10 19.64 10 21 C10.99 21 11.98 21 13 21 C13 21.99 13 22.98 13 24 C11.35 24 9.7 24 8 24 C7.67 23.34 7.34 22.68 7 22 C4.97536745 21.34786708 4.97536745 21.34786708 3 21 C3 19.68 3 18.36 3 17 C2.01 17 1.02 17 0 17 C0 16.34 0 15.68 0 15 C-0.99 15 -1.98 15 -3 15 C-3 14.34 -3 13.68 -3 13 C-3.66 13 -4.32 13 -5 13 C-5.33 14.32 -5.66 15.64 -6 17 C-6 14.36 -6 11.72 -6 9 C-5.34 9 -4.68 9 -4 9 C-4 7.02 -4 5.04 -4 3 C-2.68 3 -1.36 3 0 3 C0 2.01 0 1.02 0 0 Z " fill="#4B3020" transform="translate(80,17)"/>
<path d="M0 0 C1.32 0 2.64 0 4 0 C4.66 1.65 5.32 3.3 6 5 C8.31 5 10.62 5 13 5 C13 4.34 13 3.68 13 3 C14.32 3 15.64 3 17 3 C17 3.66 17 4.32 17 5 C18.32 5 19.64 5 21 5 C21 4.34 21 3.68 21 3 C27.625 2.75 27.625 2.75 31 5 C30.01 5 29.02 5 28 5 C28 6.65 28 8.3 28 10 C26.68 10 25.36 10 24 10 C24 9.34 24 8.68 24 8 C17.4 8 10.8 8 4 8 C4 8.66 4 9.32 4 10 C16.54 10.66 29.08 11.32 42 12 C42 12.33 42 12.66 42 13 C28.62706162 13.12803877 15.34987408 12.79531165 2 12 C2 11.01 2 10.02 2 9 C1.34 9 0.68 9 0 9 C0 6.03 0 3.06 0 0 Z " fill="#4F4D4F" transform="translate(16,108)"/>
<path d="M0 0 C6.6 0 13.2 0 20 0 C20 0.66 20 1.32 20 2 C20.66 2 21.32 2 22 2 C22 3.32 22 4.64 22 6 C20.02 6 18.04 6 16 6 C16 7.32 16 8.64 16 10 C12.04 10 8.08 10 4 10 C4 8.68 4 7.36 4 6 C2.35 6 0.7 6 -1 6 C-0.67 4.02 -0.34 2.04 0 0 Z " fill="#D5A35B" transform="translate(108,104)"/>
<path d="M0 0 C4.29 0 8.58 0 13 0 C13 0.33 13 0.66 13 1 C9.04 1 5.08 1 1 1 C1 2.32 1 3.64 1 5 C0.34 5 -0.32 5 -1 5 C-1 4.34 -1 3.68 -1 3 C-2.65 3 -4.3 3 -6 3 C-6 3.99 -6 4.98 -6 6 C-6.99 6 -7.98 6 -9 6 C-9 6.66 -9 7.32 -9 8 C-9.99 8.495 -9.99 8.495 -11 9 C-9.68 9.33 -8.36 9.66 -7 10 C-7 9.34 -7 8.68 -7 8 C-6.34 8 -5.68 8 -5 8 C-5 8.99 -5 9.98 -5 11 C-2.36 11 0.28 11 3 11 C3 12.65 3 14.3 3 16 C-2.61 16 -8.22 16 -14 16 C-14 15.01 -14 14.02 -14 13 C-15.32 12.67 -16.64 12.34 -18 12 C-18 11.34 -18 10.68 -18 10 C-16.68 10 -15.36 10 -14 10 C-14 9.34 -14 8.68 -14 8 C-14.66 8 -15.32 8 -16 8 C-16 7.34 -16 6.68 -16 6 C-15.34 6 -14.68 6 -14 6 C-14 5.34 -14 4.68 -14 4 C-12.68 4 -11.36 4 -10 4 C-10 3.34 -10 2.68 -10 2 C-6.7 2 -3.4 2 0 2 C0 1.34 0 0.68 0 0 Z " fill="#5F4342" transform="translate(116,42)"/>
<path d="M0 0 C1.65 0 3.3 0 5 0 C5 0.66 5 1.32 5 2 C5.99 2 6.98 2 8 2 C8 4.31 8 6.62 8 9 C7.01 9 6.02 9 5 9 C5 9.99 5 10.98 5 12 C2.36 12 -0.28 12 -3 12 C-3 11.01 -3 10.02 -3 9 C-10.92 9 -18.84 9 -27 9 C-27 8.67 -27 8.34 -27 8 C-24.36 8 -21.72 8 -19 8 C-19 7.34 -19 6.68 -19 6 C-17.92878906 5.95101562 -16.85757813 5.90203125 -15.75390625 5.8515625 C-14.35674361 5.77654706 -12.9596095 5.7009987 -11.5625 5.625 C-10.85544922 5.5940625 -10.14839844 5.563125 -9.41992188 5.53125 C-7.60760812 5.42719371 -5.80182012 5.22080108 -4 5 C-3.67 4.34 -3.34 3.68 -3 3 C-2.34 3 -1.68 3 -1 3 C-0.67 2.01 -0.34 1.02 0 0 Z " fill="#6D5249" transform="translate(86,46)"/>
<path d="M0 0 C0.66 0.33 1.32 0.66 2 1 C2 4.3 2 7.6 2 11 C2.99 11.33 3.98 11.66 5 12 C5 12.66 5 13.32 5 14 C7.97 14.495 7.97 14.495 11 15 C11 15.99 11 16.98 11 18 C11.99 18 12.98 18 14 18 C14 18.66 14 19.32 14 20 C14.99 20 15.98 20 17 20 C16.67 20.99 16.34 21.98 16 23 C16 22.34 16 21.68 16 21 C14.35 20.67 12.7 20.34 11 20 C11 21.32 11 22.64 11 24 C11.66 24 12.32 24 13 24 C13 24.66 13 25.32 13 26 C10.03 26 7.06 26 4 26 C4 25.34 4 24.68 4 24 C2.35 24 0.7 24 -1 24 C-1 23.01 -1 22.02 -1 21 C-2.65 21 -4.3 21 -6 21 C-6 19.68 -6 18.36 -6 17 C-4.22925083 16.97294271 -2.45838289 16.95357805 -0.6875 16.9375 C0.29863281 16.92589844 1.28476563 16.91429688 2.30078125 16.90234375 C5 17 5 17 8 18 C8 17.01 8 16.02 8 15 C6.68 15 5.36 15 4 15 C4 14.34 4 13.68 4 13 C2.02 13 0.04 13 -2 13 C-2 12.01 -2 11.02 -2 10 C-1.01 10 -0.02 10 1 10 C0.67 6.7 0.34 3.4 0 0 Z " fill="#D6BB9B" transform="translate(125,26)"/>
<path d="M0 0 C0.33 0.66 0.66 1.32 1 2 C1.99 2 2.98 2 4 2 C4 2.99 4 3.98 4 5 C4.99 5 5.98 5 7 5 C7 5.99 7 6.98 7 8 C7.66 8.33 8.32 8.66 9 9 C8.01 9 7.02 9 6 9 C6 10.32 6 11.64 6 13 C3.69 13 1.38 13 -1 13 C-1 12.34 -1 11.68 -1 11 C-3.31 11 -5.62 11 -8 11 C-8 11.66 -8 12.32 -8 13 C-8.99 13 -9.98 13 -11 13 C-11 10.69 -11 8.38 -11 6 C-10.34 6 -9.68 6 -9 6 C-9 5.01 -9 4.02 -9 3 C-6.03 3 -3.06 3 0 3 C0 2.01 0 1.02 0 0 Z " fill="#88756A" transform="translate(163,97)"/>
<path d="M0 0 C0.99 0.33 1.98 0.66 3 1 C2.34 1 1.68 1 1 1 C1 1.99 1 2.98 1 4 C1.99 4 2.98 4 4 4 C4 3.01 4 2.02 4 1 C7.47325181 -0.1577506 10.36067448 -0.06866652 14 0 C14 1.65 14 3.3 14 5 C14.99 5 15.98 5 17 5 C17 5.66 17 6.32 17 7 C15.02 7 13.04 7 11 7 C11 7.66 11 8.32 11 9 C10.14535156 9.04898438 9.29070313 9.09796875 8.41015625 9.1484375 C7.30542969 9.22320312 6.20070313 9.29796875 5.0625 9.375 C3.96035156 9.44460937 2.85820312 9.51421875 1.72265625 9.5859375 C0.37494141 9.79089844 0.37494141 9.79089844 -1 10 C-1.33 10.66 -1.66 11.32 -2 12 C-2 10.35 -2 8.7 -2 7 C-3.32 6.67 -4.64 6.34 -6 6 C-5.01 6 -4.02 6 -3 6 C-3 5.01 -3 4.02 -3 3 C-2.01 3 -1.02 3 0 3 C0 2.01 0 1.02 0 0 Z " fill="#806B63" transform="translate(22,101)"/>
<path d="M0 0 C1.32 0 2.64 0 4 0 C4 2.31 4 4.62 4 7 C7.96 7 11.92 7 16 7 C16 7.33 16 7.66 16 8 C14.35 8.33 12.7 8.66 11 9 C13.31 9.33 15.62 9.66 18 10 C18 9.34 18 8.68 18 8 C19.98 8 21.96 8 24 8 C24 9.65 24 11.3 24 13 C18.06 13 12.12 13 6 13 C6 12.34 6 11.68 6 11 C4.824375 11.0928125 4.824375 11.0928125 3.625 11.1875 C2.325625 11.0946875 2.325625 11.0946875 1 11 C-1.78637633 6.8204355 -0.79562512 4.85331323 0 0 Z " fill="#281827" transform="translate(116,86)"/>
<path d="M0 0 C1.32 0 2.64 0 4 0 C3.67 1.98 3.34 3.96 3 6 C4.65 6 6.3 6 8 6 C8 7.32 8 8.64 8 10 C11.96 10 15.92 10 20 10 C20 8.68 20 7.36 20 6 C20.99 6 21.98 6 23 6 C23 7.65 23 9.3 23 11 C15.41 11 7.82 11 0 11 C0 11.99 0 12.98 0 14 C0.66 14.33 1.32 14.66 2 15 C0.35 15 -1.3 15 -3 15 C-3.33 11.04 -3.66 7.08 -4 3 C-2.68 3 -1.36 3 0 3 C0 2.01 0 1.02 0 0 Z " fill="#573940" transform="translate(104,104)"/>
<path d="M0 0 C0 0.99 0 1.98 0 3 C1.65 3 3.3 3 5 3 C5 3.99 5 4.98 5 6 C4.34 6 3.68 6 3 6 C3 6.66 3 7.32 3 8 C2.34 8 1.68 8 1 8 C1 7.01 1 6.02 1 5 C-3.95 5 -8.9 5 -14 5 C-14.99 2.69 -15.98 0.38 -17 -2 C-10.6852211 -4.02072925 -5.6752486 -3.32209674 0 0 Z " fill="#B07F5F" transform="translate(76,107)"/>
<path d="M0 0 C2.375 -0.125 2.375 -0.125 5 0 C7 2 7 2 7 5 C7.66 5 8.32 5 9 5 C9.3610729 9.45323246 9.3610729 9.45323246 7.90625 11.65625 C5.06783697 13.65709853 2.73427756 13.28913696 -0.6875 13.1875 C-2.45673828 13.14689453 -2.45673828 13.14689453 -4.26171875 13.10546875 C-5.16535156 13.07066406 -6.06898437 13.03585938 -7 13 C-7 11.35 -7 9.7 -7 8 C-4.69 8 -2.38 8 0 8 C0 7.01 0 6.02 0 5 C0.99 5 1.98 5 3 5 C3 4.01 3 3.02 3 2 C2.01 2 1.02 2 0 2 C0 1.34 0 0.68 0 0 Z " fill="#4C3440" transform="translate(103,86)"/>
<path d="M0 0 C2.875 -0.1875 2.875 -0.1875 6 0 C8 3 8 3 8 7 C6.35 7 4.7 7 3 7 C3 7.66 3 8.32 3 9 C12.57 9 22.14 9 32 9 C32 10.32 32 11.64 32 13 C29.03 13 26.06 13 23 13 C23 12.01 23 11.02 23 10 C15.41 10 7.82 10 0 10 C0 6.7 0 3.4 0 0 Z " fill="#46303F" transform="translate(54,107)"/>
<path d="M0 0 C0.33 0.66 0.66 1.32 1 2 C1.99 2 2.98 2 4 2 C4 2.99 4 3.98 4 5 C4.66 5.33 5.32 5.66 6 6 C6 7.32 6 8.64 6 10 C6.78375 9.938125 7.5675 9.87625 8.375 9.8125 C9.24125 9.874375 10.1075 9.93625 11 10 C13.67927341 14.01891012 13.15601248 16.24161923 13 21 C12.34 21 11.68 21 11 21 C11 20.01 11 19.02 11 18 C10.01 18 9.02 18 8 18 C8 16.68 8 15.36 8 14 C7.01 14 6.02 14 5 14 C5 12.68 5 11.36 5 10 C3.68 10 2.36 10 1 10 C1 9.01 1 8.02 1 7 C-1.97 6.505 -1.97 6.505 -5 6 C-5 4.68 -5 3.36 -5 2 C-3.35 2 -1.7 2 0 2 C0 1.34 0 0.68 0 0 Z " fill="#E6BA76" transform="translate(82,20)"/>
<path d="M0 0 C0.66 0 1.32 0 2 0 C2 0.66 2 1.32 2 2 C3.32 2 4.64 2 6 2 C6 1.34 6 0.68 6 0 C6.99 0 7.98 0 9 0 C9 0.99 9 1.98 9 3 C9.66 3 10.32 3 11 3 C11 5.31 11 7.62 11 10 C10.34 10 9.68 10 9 10 C9 10.99 9 11.98 9 13 C5.04 13 1.08 13 -3 13 C-2.67 11.02 -2.34 9.04 -2 7 C-1.34 7 -0.68 7 0 7 C0 7.66 0 8.32 0 9 C0.99 9 1.98 9 3 9 C3 8.34 3 7.68 3 7 C3.66 7 4.32 7 5 7 C5 5.68 5 4.36 5 3 C3.35 3 1.7 3 0 3 C0 2.01 0 1.02 0 0 Z " fill="#876248" transform="translate(77,61)"/>
<path d="M0 0 C3.96 0 7.92 0 12 0 C12 0.66 12 1.32 12 2 C12.99 2 13.98 2 15 2 C15 3.32 15 4.64 15 6 C15.66 6 16.32 6 17 6 C17 6.66 17 7.32 17 8 C15.35 8 13.7 8 12 8 C12 7.34 12 6.68 12 6 C7.05 6 2.1 6 -3 6 C-3 4.68 -3 3.36 -3 2 C-2.01 2 -1.02 2 0 2 C0 1.34 0 0.68 0 0 Z " fill="#C39D6D" transform="translate(38,82)"/>
<path d="M0 0 C1.32 0 2.64 0 4 0 C4 0.66 4 1.32 4 2 C4.99 2 5.98 2 7 2 C7 1.34 7 0.68 7 0 C7.99 0 8.98 0 10 0 C10 0.99 10 1.98 10 3 C9.34 3 8.68 3 8 3 C8 5.31 8 7.62 8 10 C5.36 10.33 2.72 10.66 0 11 C0 11.66 0 12.32 0 13 C-1.98 13 -3.96 13 -6 13 C-6 12.34 -6 11.68 -6 11 C-6.99 11 -7.98 11 -9 11 C-9 11.66 -9 12.32 -9 13 C-9.66 13 -10.32 13 -11 13 C-11 12.01 -11 11.02 -11 10 C-9.35 10 -7.7 10 -6 10 C-6 9.34 -6 8.68 -6 8 C-5.01 8 -4.02 8 -3 8 C-3 8.66 -3 9.32 -3 10 C-2.01 10 -1.02 10 0 10 C0 9.34 0 8.68 0 8 C1.32 8 2.64 8 4 8 C4 7.01 4 6.02 4 5 C2.68 5 1.36 5 0 5 C0 3.35 0 1.7 0 0 Z " fill="#7F5C48" transform="translate(116,66)"/>
<path d="M0 0 C2.31 0.33 4.62 0.66 7 1 C7 1.66 7 2.32 7 3 C7.67546875 2.98839844 8.3509375 2.97679688 9.046875 2.96484375 C9.93890625 2.95582031 10.8309375 2.94679688 11.75 2.9375 C13.07257812 2.92009766 13.07257812 2.92009766 14.421875 2.90234375 C16.7818838 2.99173802 18.74498524 3.33087179 21 4 C21 4.99 21 5.98 21 7 C13.08 6.67 5.16 6.34 -3 6 C-3 6.99 -3 7.98 -3 9 C-4.32 9 -5.64 9 -7 9 C-7 8.34 -7 7.68 -7 7 C-6.34 7 -5.68 7 -5 7 C-5 6.34 -5 5.68 -5 5 C-3.35 4.67 -1.7 4.34 0 4 C0 2.68 0 1.36 0 0 Z " fill="#070205" transform="translate(41,75)"/>
<path d="M0 0 C2.97 0 5.94 0 9 0 C9 0.99 9 1.98 9 3 C8.01 3 7.02 3 6 3 C6 4.65 6 6.3 6 8 C1.38 8 -3.24 8 -8 8 C-8 7.34 -8 6.68 -8 6 C-7.34 6 -6.68 6 -6 6 C-6 4.68 -6 3.36 -6 2 C-4.02 2 -2.04 2 0 2 C0 1.34 0 0.68 0 0 Z " fill="#E8BD70" transform="translate(85,82)"/>
<path d="M0 0 C0.66 0 1.32 0 2 0 C2 0.99 2 1.98 2 3 C2.99 3 3.98 3 5 3 C5 2.34 5 1.68 5 1 C8.63 1 12.26 1 16 1 C16.33 1.66 16.66 2.32 17 3 C14.03 3 11.06 3 8 3 C8 3.99 8 4.98 8 6 C10.31 6 12.62 6 15 6 C15 6.66 15 7.32 15 8 C8.4 8 1.8 8 -5 8 C-5 7.01 -5 6.02 -5 5 C-3.68 5 -2.36 5 -1 5 C-0.67 3.35 -0.34 1.7 0 0 Z " fill="#F9CB74" transform="translate(53,61)"/>
<path d="M0 0 C2.97 0.495 2.97 0.495 6 1 C6 3.64 6 6.28 6 9 C-2.25 9 -10.5 9 -19 9 C-19 8.34 -19 7.68 -19 7 C-17.35 7 -15.7 7 -14 7 C-14 6.34 -14 5.68 -14 5 C-9.05 5 -4.1 5 1 5 C1 5.99 1 6.98 1 8 C1.66 8 2.32 8 3 8 C3 7.34 3 6.68 3 6 C3.66 6 4.32 6 5 6 C5 5.01 5 4.02 5 3 C3.35 3 1.7 3 0 3 C0 2.01 0 1.02 0 0 Z " fill="#815A4F" transform="translate(76,107)"/>
<path d="M0 0 C2.66666667 0 5.33333333 0 8 0 C8 0.66 8 1.32 8 2 C8.99 2 9.98 2 11 2 C11 2.99 11 3.98 11 5 C11.66 5 12.32 5 13 5 C13 4.34 13 3.68 13 3 C13.99 3 14.98 3 16 3 C16 3.66 16 4.32 16 5 C17.98 5 19.96 5 22 5 C22 4.34 22 3.68 22 3 C23.32 3 24.64 3 26 3 C26 3.66 26 4.32 26 5 C25.01 5 24.02 5 23 5 C23 5.99 23 6.98 23 8 C17.21408489 8.10477512 11.70690634 7.99250545 6 7 C6 6.01 6 5.02 6 4 C3.03 3.505 3.03 3.505 0 3 C0 2.01 0 1.02 0 0 Z " fill="#4D3B3E" transform="translate(94,74)"/>
<path d="M0 0 C1.32 0 2.64 0 4 0 C4 0.99 4 1.98 4 3 C5.65 3.33 7.3 3.66 9 4 C9 3.34 9 2.68 9 2 C13.62 2 18.24 2 23 2 C23 1.34 23 0.68 23 0 C23.66 0 24.32 0 25 0 C25 1.32 25 2.64 25 4 C24.34 4 23.68 4 23 4 C23 4.99 23 5.98 23 7 C22.01 7 21.02 7 20 7 C20 6.34 20 5.68 20 5 C16.7 5 13.4 5 10 5 C10 5.66 10 6.32 10 7 C7.69 7 5.38 7 3 7 C3 6.34 3 5.68 3 5 C2.01 5 1.02 5 0 5 C0 3.35 0 1.7 0 0 Z " fill="#906A4F" transform="translate(127,69)"/>
<path d="M0 0 C10.89 0 21.78 0 33 0 C33 0.99 33 1.98 33 3 C34.65 3 36.3 3 38 3 C38 3.33 38 3.66 38 4 C36.35 4 34.7 4 33 4 C33 4.99 33 5.98 33 7 C32.34 7 31.68 7 31 7 C31 6.01 31 5.02 31 4 C21.76 4 12.52 4 3 4 C2.67 4.66 2.34 5.32 2 6 C2 5.01 2 4.02 2 3 C11.9 3 21.8 3 32 3 C32 2.34 32 1.68 32 1 C21.77 1 11.54 1 1 1 C1 1.99 1 2.98 1 4 C-0.32 4 -1.64 4 -3 4 C-3 4.66 -3 5.32 -3 6 C-3.99 5.67 -4.98 5.34 -6 5 C-5.34 5 -4.68 5 -4 5 C-4 4.34 -4 3.68 -4 3 C-2.68 3 -1.36 3 0 3 C0 2.01 0 1.02 0 0 Z " fill="#8C7E70" transform="translate(79,16)"/>
<path d="M0 0 C3 1 6 2 9 3 C9 3.99 9 4.98 9 6 C9.99 6.33 10.98 6.66 12 7 C6.25 7.125 6.25 7.125 4 6 C4 5.34 4 4.68 4 4 C1.69 4 -0.62 4 -3 4 C-3 4.66 -3 5.32 -3 6 C-7.29 6 -11.58 6 -16 6 C-16 6.66 -16 7.32 -16 8 C-16.66 8 -17.32 8 -18 8 C-18.33 6.35 -18.66 4.7 -19 3 C-12.73 3 -6.46 3 0 3 C0 2.01 0 1.02 0 0 Z " fill="#41342D" transform="translate(139,57)"/>
<path d="M0 0 C4.62 0 9.24 0 14 0 C14 1.65 14 3.3 14 5 C15.32 5 16.64 5 18 5 C18 5.66 18 6.32 18 7 C16.35 7 14.7 7 13 7 C13 6.34 13 5.68 13 5 C12.33613281 5.09539062 11.67226562 5.19078125 10.98828125 5.2890625 C2.21792619 6.39015817 2.21792619 6.39015817 -2 4 C-2 3.34 -2 2.68 -2 2 C-1.34 2 -0.68 2 0 2 C0 1.34 0 0.68 0 0 Z " fill="#F0C676" transform="translate(102,66)"/>
<path d="M0 0 C3 1 3 1 4 3 C5.89533342 3.46523063 5.89533342 3.46523063 8.0625 3.625 C9.361875 3.74875 10.66125 3.8725 12 4 C12 6 12 6 10.98046875 7.58203125 C7.99802165 9.71739278 4.85806334 9.57163192 1.3125 9.6875 C0.61060547 9.72166016 -0.09128906 9.75582031 -0.81445312 9.79101562 C-2.54241387 9.87329947 -4.27118072 9.9383324 -6 10 C-6 10.99 -6 11.98 -6 13 C-6.99 13 -7.98 13 -9 13 C-9 12.01 -9 11.02 -9 10 C-8.34 10 -7.68 10 -7 10 C-7 9.34 -7 8.68 -7 8 C-5.68 8 -4.36 8 -3 8 C-3 7.34 -3 6.68 -3 6 C-1.68 6 -0.36 6 1 6 C0.67 4.02 0.34 2.04 0 0 Z " fill="#0F0715" transform="translate(32,92)"/>
<path d="M0 0 C0.99 0 1.98 0 3 0 C3 0.99 3 1.98 3 3 C5.31 3 7.62 3 10 3 C10 3.99 10 4.98 10 6 C14.455 5.505 14.455 5.505 19 5 C19.33 5.99 19.66 6.98 20 8 C18.02 8 16.04 8 14 8 C14 8.66 14 9.32 14 10 C11.36 10 8.72 10 6 10 C6.33 9.34 6.66 8.68 7 8 C4.69 7.67 2.38 7.34 0 7 C0 4.69 0 2.38 0 0 Z " fill="#9B725D" transform="translate(120,86)"/>
<path d="M0 0 C2.31 0 4.62 0 7 0 C7 0.33 7 0.66 7 1 C5.35 1.33 3.7 1.66 2 2 C9.92 2.33 17.84 2.66 26 3 C26 3.66 26 4.32 26 5 C18.08 4.67 10.16 4.34 2 4 C2 4.99 2 5.98 2 7 C0.35 7 -1.3 7 -3 7 C-3 7.99 -3 8.98 -3 10 C-3.66 10 -4.32 10 -5 10 C-5 10.66 -5 11.32 -5 12 C-5.66 11.67 -6.32 11.34 -7 11 C-6.67 10.34 -6.34 9.68 -6 9 C-5.34 9 -4.68 9 -4 9 C-4 8.34 -4 7.68 -4 7 C-4.99 7 -5.98 7 -7 7 C-7 7.99 -7 8.98 -7 10 C-7.99 10 -8.98 10 -10 10 C-10.33 10.66 -10.66 11.32 -11 12 C-11 11.01 -11 10.02 -11 9 C-10.01 9 -9.02 9 -8 9 C-8 8.01 -8 7.02 -8 6 C-6.68 6 -5.36 6 -4 6 C-3.67 5.01 -3.34 4.02 -3 3 C-2.34 3 -1.68 3 -1 3 C-0.67 2.01 -0.34 1.02 0 0 Z " fill="#887E6C" transform="translate(48,56)"/>
<path d="M0 0 C0.66 0 1.32 0 2 0 C2 1.32 2 2.64 2 4 C3.65 4 5.3 4 7 4 C6.67 4.99 6.34 5.98 6 7 C6 6.34 6 5.68 6 5 C4.68 5 3.36 5 2 5 C2 5.66 2 6.32 2 7 C1.34 7 0.68 7 0 7 C0 7.66 0 8.32 0 9 C-1.98 9 -3.96 9 -6 9 C-6 8.34 -6 7.68 -6 7 C-6.66 7 -7.32 7 -8 7 C-8 7.66 -8 8.32 -8 9 C-9.65 9 -11.3 9 -13 9 C-12.67 8.34 -12.34 7.68 -12 7 C-11.34 7 -10.68 7 -10 7 C-10 6.34 -10 5.68 -10 5 C-9.01 5 -8.02 5 -7 5 C-7 4.01 -7 3.02 -7 2 C-5.35 2 -3.7 2 -2 2 C-2 2.66 -2 3.32 -2 4 C-1.34 4 -0.68 4 0 4 C0 2.68 0 1.36 0 0 Z " fill="#AE7C5B" transform="translate(117,43)"/>
<path d="M0 0 C3.3 0 6.6 0 10 0 C10 0.33 10 0.66 10 1 C7.36 1 4.72 1 2 1 C2 1.99 2 2.98 2 4 C2.99 4 3.98 4 5 4 C5 5.65 5 7.3 5 9 C6.32 9.66 7.64 10.32 9 11 C8.67 11.66 8.34 12.32 8 13 C7.01 13 6.02 13 5 13 C5 13.66 5 14.32 5 15 C4.34 15 3.68 15 3 15 C3 14.34 3 13.68 3 13 C2.34 13 1.68 13 1 13 C1.33 11.35 1.66 9.7 2 8 C0.35 8 -1.3 8 -3 8 C-3 6.68 -3 5.36 -3 4 C-2.01 4 -1.02 4 0 4 C0 2.68 0 1.36 0 0 Z " fill="#3C2D3A" transform="translate(144,102)"/>
<path d="M0 0 C0.99 0 1.98 0 3 0 C3 0.99 3 1.98 3 3 C4.65 3 6.3 3 8 3 C8 4.32 8 5.64 8 7 C7.34 7 6.68 7 6 7 C6 7.66 6 8.32 6 9 C5.01 9 4.02 9 3 9 C3 8.34 3 7.68 3 7 C2.34 7 1.68 7 1 7 C1 8.65 1 10.3 1 12 C-0.32 12.33 -1.64 12.66 -3 13 C-3.08131463 11.56344146 -3.13933559 10.1255517 -3.1875 8.6875 C-3.22230469 7.88699219 -3.25710937 7.08648437 -3.29296875 6.26171875 C-2.93612983 3.50692232 -2.0671197 2.76329108 0 1 C0 0.67 0 0.34 0 0 Z " fill="#CDA16E" transform="translate(74,61)"/>
<path d="M0 0 C3.3 0 6.6 0 10 0 C10 0.66 10 1.32 10 2 C10.99 2 11.98 2 13 2 C13 2.99 13 3.98 13 5 C12.01 5 11.02 5 10 5 C10 5.99 10 6.98 10 8 C7.69 8 5.38 8 3 8 C3 7.01 3 6.02 3 5 C2.01 4.67 1.02 4.34 0 4 C0 2.68 0 1.36 0 0 Z " fill="#B3845C" transform="translate(93,86)"/>
<path d="M0 0 C6.93 0 13.86 0 21 0 C21 0.99 21 1.98 21 3 C21.99 3 22.98 3 24 3 C24 3.66 24 4.32 24 5 C21.69 5 19.38 5 17 5 C17 6.32 17 7.64 17 9 C18.32 9.33 19.64 9.66 21 10 C19.68 10 18.36 10 17 10 C17 10.99 17 11.98 17 13 C15.02 13 13.04 13 11 13 C11.33 12.01 11.66 11.02 12 10 C12.99 10 13.98 10 15 10 C15 8.02 15 6.04 15 4 C15.99 4 16.98 4 18 4 C18 3.01 18 2.02 18 1 C12.06 1.33 6.12 1.66 0 2 C0 1.34 0 0.68 0 0 Z " fill="#B8905D" transform="translate(76,81)"/>
<path d="M0 0 C3.3 0 6.6 0 10 0 C10 0.66 10 1.32 10 2 C10.99 2.33 11.98 2.66 13 3 C12.01 3 11.02 3 10 3 C10 3.66 10 4.32 10 5 C4.39 5 -1.22 5 -7 5 C-7 4.01 -7 3.02 -7 2 C-4.69 2 -2.38 2 0 2 C0 1.34 0 0.68 0 0 Z " fill="#403436" transform="translate(137,74)"/>
<path d="M0 0 C0.33 1.32 0.66 2.64 1 4 C5.95 4 10.9 4 16 4 C16 4.66 16 5.32 16 6 C17.65 6 19.3 6 21 6 C20.01 6.495 20.01 6.495 19 7 C19 7.66 19 8.32 19 9 C17.02 9 15.04 9 13 9 C13 8.34 13 7.68 13 7 C8.38 7 3.76 7 -1 7 C-0.67 4.69 -0.34 2.38 0 0 Z " fill="#93664B" transform="translate(34,84)"/>
<path d="M0 0 C0.66 0 1.32 0 2 0 C2 2.31 2 4.62 2 7 C2.99 7 3.98 7 5 7 C4.67 7.66 4.34 8.32 4 9 C2.67696283 9.3721042 1.34262065 9.70630173 0 10 C-0.33 10.33 -0.66 10.66 -1 11 C-3.33297433 11.04092937 -5.66705225 11.04241723 -8 11 C-8 10.01 -8 9.02 -8 8 C-10.64 8 -13.28 8 -16 8 C-16 7.67 -16 7.34 -16 7 C-15.25234375 6.93941406 -14.5046875 6.87882812 -13.734375 6.81640625 C-12.74953125 6.73261719 -11.7646875 6.64882812 -10.75 6.5625 C-9.77546875 6.48128906 -8.8009375 6.40007812 -7.796875 6.31640625 C-5.43538247 6.04925416 -3.28098935 5.64628032 -1 5 C-0.67 3.35 -0.34 1.7 0 0 Z " fill="#503B35" transform="translate(69,67)"/>
<path d="M0 0 C0 1.65 0 3.3 0 5 C-3.63 5 -7.26 5 -11 5 C-11 5.66 -11 6.32 -11 7 C-11.99 7 -12.98 7 -14 7 C-13.67 5.35 -13.34 3.7 -13 2 C-12.34 2 -11.68 2 -11 2 C-11 1.34 -11 0.68 -11 0 C-7.18243176 -1.37432457 -3.92744671 -0.67975039 0 0 Z " fill="#C69162" transform="translate(166,103)"/>
<path d="M0 0 C3.96 0 7.92 0 12 0 C12 0.66 12 1.32 12 2 C12.99 2 13.98 2 15 2 C15 2.99 15 3.98 15 5 C13.35 5 11.7 5 10 5 C9.67 5.66 9.34 6.32 9 7 C9 6.34 9 5.68 9 5 C6.36 5 3.72 5 1 5 C0.67 3.35 0.34 1.7 0 0 Z " fill="#271526" transform="translate(35,91)"/>
<path d="M0 0 C2.31 0 4.62 0 7 0 C7 0.66 7 1.32 7 2 C7.66 2 8.32 2 9 2 C9 2.99 9 3.98 9 5 C7.02 5 5.04 5 3 5 C3 5.99 3 6.98 3 8 C-0.96 7.67 -4.92 7.34 -9 7 C-8.67 6.34 -8.34 5.68 -8 5 C-5.69 5 -3.38 5 -1 5 C-0.67 3.35 -0.34 1.7 0 0 Z " fill="#EACC8D" transform="translate(136,61)"/>
<path d="M0 0 C1.98 0 3.96 0 6 0 C6 0.66 6 1.32 6 2 C5.01 2 4.02 2 3 2 C3 2.99 3 3.98 3 5 C2.01 5 1.02 5 0 5 C0 5.66 0 6.32 0 7 C2.97 7 5.94 7 9 7 C9 7.99 9 8.98 9 10 C5.7 10 2.4 10 -1 10 C-1 8.02 -1 6.04 -1 4 C-1.66 4 -2.32 4 -3 4 C-3 6.64 -3 9.28 -3 12 C-2.34 12.33 -1.68 12.66 -1 13 C-1.99 13 -2.98 13 -4 13 C-4 9.7 -4 6.4 -4 3 C-2.68 3 -1.36 3 0 3 C0 2.01 0 1.02 0 0 Z " fill="#707168" transform="translate(56,42)"/>
<path d="M0 0 C2.66666667 0.66666667 5.33333333 1.33333333 8 2 C8 2.99 8 3.98 8 5 C10.64 5 13.28 5 16 5 C16 5.99 16 6.98 16 8 C12.7 8 9.4 8 6 8 C6 7.01 6 6.02 6 5 C3.03 5 0.06 5 -3 5 C-3 4.34 -3 3.68 -3 3 C-2.01 3 -1.02 3 0 3 C0 2.01 0 1.02 0 0 Z " fill="#AA8460" transform="translate(59,44)"/>
<path d="M0 0 C1.32 0 2.64 0 4 0 C4 2.31 4 4.62 4 7 C7.96 7 11.92 7 16 7 C16 7.33 16 7.66 16 8 C11.07262981 9.97094808 7.21979128 10.1799928 2 10 C2 9.34 2 8.68 2 8 C1.01 8 0.02 8 -1 8 C-0.67 5.36 -0.34 2.72 0 0 Z " fill="#64403F" transform="translate(116,86)"/>
<path d="M0 0 C1.32 0 2.64 0 4 0 C4 0.66 4 1.32 4 2 C5.98 2 7.96 2 10 2 C10 2.66 10 3.32 10 4 C8.68 4 7.36 4 6 4 C6 4.66 6 5.32 6 6 C11.94 6 17.88 6 24 6 C24 6.33 24 6.66 24 7 C16.08 7 8.16 7 0 7 C0 4.69 0 2.38 0 0 Z " fill="#7B584B" transform="translate(63,88)"/>
<path d="M0 0 C0 3 0 3 -1.1875 4.625 C-3.41406801 6.31412056 -5.25851328 6.62952882 -8 7 C-8.33 8.32 -8.66 9.64 -9 11 C-11.475 10.01 -11.475 10.01 -14 9 C-14 8.34 -14 7.68 -14 7 C-13.01 7 -12.02 7 -11 7 C-11 6.01 -11 5.02 -11 4 C-10.34 4 -9.68 4 -9 4 C-9 3.01 -9 2.02 -9 1 C-5.8035914 -0.06546953 -3.34252724 -0.07427838 0 0 Z " fill="#8E6C58" transform="translate(151,82)"/>
<path d="M0 0 C0.99 0 1.98 0 3 0 C3 0.66 3 1.32 3 2 C4.98 2 6.96 2 9 2 C9 2.66 9 3.32 9 4 C9.99 4 10.98 4 12 4 C12 5.98 12 7.96 12 10 C11.01 9.67 10.02 9.34 9 9 C9.66 9 10.32 9 11 9 C11 8.34 11 7.68 11 7 C6.545 7.495 6.545 7.495 2 8 C2 6.68 2 5.36 2 4 C1.01 4 0.02 4 -1 4 C-0.67 2.68 -0.34 1.36 0 0 Z " fill="#46313A" transform="translate(38,101)"/>
<path d="M0 0 C1.65 0 3.3 0 5 0 C5 1.32 5 2.64 5 4 C8.96 4 12.92 4 17 4 C17 2.68 17 1.36 17 0 C17.99 0 18.98 0 20 0 C20 1.65 20 3.3 20 5 C12.41 5 4.82 5 -3 5 C-3 4.01 -3 3.02 -3 2 C-2.01 2 -1.02 2 0 2 C0 1.34 0 0.68 0 0 Z " fill="#94684D" transform="translate(107,110)"/>
<path d="M0 0 C0.33 0.99 0.66 1.98 1 3 C-0.32 3 -1.64 3 -3 3 C-2.835 3.680625 -2.67 4.36125 -2.5 5.0625 C-1.92910941 8.4164822 -1.93340977 11.60389805 -2 15 C0.64 15 3.28 15 6 15 C6 15.33 6 15.66 6 16 C3.03 16 0.06 16 -3 16 C-3 14.68 -3 13.36 -3 12 C-4.65 12 -6.3 12 -8 12 C-8 9.69 -8 7.38 -8 5 C-6.68 5 -5.36 5 -4 5 C-4 4.01 -4 3.02 -4 2 C-2.68 2 -1.36 2 0 2 C0 1.34 0 0.68 0 0 Z " fill="#3F2D38" transform="translate(103,104)"/>
<path d="M0 0 C0.66 0 1.32 0 2 0 C2 0.99 2 1.98 2 3 C2.99 3 3.98 3 5 3 C5 4.32 5 5.64 5 7 C3.04196493 7.05389087 1.08351091 7.09274217 -0.875 7.125 C-1.96554688 7.14820312 -3.05609375 7.17140625 -4.1796875 7.1953125 C-7 7 -7 7 -9 5 C-8.01 5 -7.02 5 -6 5 C-6 4.01 -6 3.02 -6 2 C-4.02 2 -2.04 2 0 2 C0 1.34 0 0.68 0 0 Z " fill="#CAA46E" transform="translate(145,64)"/>
<path d="M0 0 C2.31 0.33 4.62 0.66 7 1 C7 3.31 7 5.62 7 8 C6.01 7.67 5.02 7.34 4 7 C3.67 7.99 3.34 8.98 3 10 C2.01 10 1.02 10 0 10 C0 6.7 0 3.4 0 0 Z " fill="#B18C5F" transform="translate(79,42)"/>
<path d="M0 0 C2.97 0 5.94 0 9 0 C9 0.99 9 1.98 9 3 C8.01 3 7.02 3 6 3 C6 3.99 6 4.98 6 6 C5.34 6 4.68 6 4 6 C4 6.66 4 7.32 4 8 C2.02 8 0.04 8 -2 8 C-2 7.34 -2 6.68 -2 6 C-1.34 6 -0.68 6 0 6 C0 4.02 0 2.04 0 0 Z " fill="#A47153" transform="translate(95,35)"/>
<path d="M0 0 C0.66 0 1.32 0 2 0 C2 1.98 2 3.96 2 6 C5.96 6 9.92 6 14 6 C14 6.66 14 7.32 14 8 C10.96474514 10.02350324 9.80573798 10.32124018 6.3125 10.625 C5.50425781 10.69976562 4.69601563 10.77453125 3.86328125 10.8515625 C2.94095703 10.92503906 2.94095703 10.92503906 2 11 C2 10.01 2 9.02 2 8 C1.34 8 0.68 8 0 8 C0 5.36 0 2.72 0 0 Z " fill="#12090D" transform="translate(53,46)"/>
<path d="M0 0 C7.41017023 -0.11459026 14.64206267 0.08839714 22 1 C22 1.66 22 2.32 22 3 C15.07 3 8.14 3 1 3 C0.67 2.01 0.34 1.02 0 0 Z " fill="#3E2C37" transform="translate(108,116)"/>
<path d="M0 0 C0.33 0.99 0.66 1.98 1 3 C1.99 3 2.98 3 4 3 C4 4.32 4 5.64 4 7 C3.01 7 2.02 7 1 7 C1 7.99 1 8.98 1 10 C-0.98 10 -2.96 10 -5 10 C-5 9.01 -5 8.02 -5 7 C-5.99 6.67 -6.98 6.34 -8 6 C-5.36095629 4.58622659 -2.92879371 3.62759865 0 3 C0 2.01 0 1.02 0 0 Z " fill="#916958" transform="translate(151,82)"/>
<path d="M0 0 C4.95 0 9.9 0 15 0 C15 0.66 15 1.32 15 2 C16.65 2 18.3 2 20 2 C20 4.31 20 6.62 20 9 C19.01 9.33 18.02 9.66 17 10 C17 9.01 17 8.02 17 7 C16.34 7 15.68 7 15 7 C15 5.68 15 4.36 15 3 C14.01 3 13.02 3 12 3 C12 2.34 12 1.68 12 1 C8.04 1 4.08 1 0 1 C0 0.67 0 0.34 0 0 Z " fill="#5C443A" transform="translate(38,81)"/>
<path d="M0 0 C5.28 0 10.56 0 16 0 C16 0.99 16 1.98 16 3 C18.64 3 21.28 3 24 3 C24 3.33 24 3.66 24 4 C16.92278069 4.12109311 10.02804699 3.85373239 3 3 C3 2.34 3 1.68 3 1 C2.01 1.33 1.02 1.66 0 2 C0 1.34 0 0.68 0 0 Z " fill="#271D22" transform="translate(45,75)"/>
<path d="M0 0 C1.65 0 3.3 0 5 0 C5 0.66 5 1.32 5 2 C5.99 2 6.98 2 8 2 C8 4.31 8 6.62 8 9 C7.01 9 6.02 9 5 9 C5 9.99 5 10.98 5 12 C4.01 12 3.02 12 2 12 C2 11.01 2 10.02 2 9 C1.34 9 0.68 9 0 9 C0 8.01 0 7.02 0 6 C1.65 6 3.3 6 5 6 C5 5.01 5 4.02 5 3 C4.01 2.67 3.02 2.34 2 2 C1.34 1.34 0.68 0.68 0 0 Z " fill="#412F36" transform="translate(86,46)"/>
<path d="M0 0 C6.625 -0.25 6.625 -0.25 10 2 C9.01 2 8.02 2 7 2 C7 3.65 7 5.3 7 7 C5.68 7 4.36 7 3 7 C3 6.34 3 5.68 3 5 C1.824375 5.0928125 1.824375 5.0928125 0.625 5.1875 C-0.24125 5.125625 -1.1075 5.06375 -2 5 C-2.66 4.01 -3.32 3.02 -4 2 C-2.68 2 -1.36 2 0 2 C0 1.34 0 0.68 0 0 Z " fill="#342639" transform="translate(37,111)"/>
<path d="M0 0 C2.62506802 -0.02690844 5.24986173 -0.04679404 7.875 -0.0625 C8.62136719 -0.07087891 9.36773437 -0.07925781 10.13671875 -0.08789062 C15.7734375 -0.11328125 15.7734375 -0.11328125 18 1 C18 1.66 18 2.32 18 3 C11.73 3 5.46 3 -1 3 C-0.67 2.01 -0.34 1.02 0 0 Z " fill="#020104" transform="translate(20,116)"/>
<path d="M0 0 C1.15242188 0.00902344 2.30484375 0.01804688 3.4921875 0.02734375 C4.36101562 0.03894531 5.22984375 0.05054688 6.125 0.0625 C6.125 0.7225 6.125 1.3825 6.125 2.0625 C6.785 2.3925 7.445 2.7225 8.125 3.0625 C1.195 3.0625 -5.735 3.0625 -12.875 3.0625 C-12.875 2.4025 -12.875 1.7425 -12.875 1.0625 C-8.52167264 0.22226812 -4.43057481 -0.04520995 0 0 Z " fill="#8D6A52" transform="translate(107.875,62.9375)"/>
<path d="M0 0 C1.98 0 3.96 0 6 0 C6 0.99 6 1.98 6 3 C7.32 3 8.64 3 10 3 C10 2.34 10 1.68 10 1 C10.66 1 11.32 1 12 1 C12 1.66 12 2.32 12 3 C12.99 3 13.98 3 15 3 C15 3.66 15 4.32 15 5 C10.05 5 5.1 5 0 5 C0 3.35 0 1.7 0 0 Z " fill="#E7B56D" transform="translate(95,30)"/>
<path d="M0 0 C1.175625 0.144375 2.35125 0.28875 3.5625 0.4375 C4.28953125 0.52644531 5.0165625 0.61539063 5.765625 0.70703125 C7.78704145 0.97207711 9.80063603 1.29518623 11.8125 1.625 C15.01597251 2.23073535 15.01597251 2.23073535 18 1 C18 1.99 18 2.98 18 4 C10.74 4 3.48 4 -4 4 C-3.01 3.67 -2.02 3.34 -1 3 C-0.67 2.01 -0.34 1.02 0 0 Z " fill="#020104" transform="translate(153,115)"/>
<path d="M0 0 C0.66 0 1.32 0 2 0 C2 0.66 2 1.32 2 2 C3.32 2 4.64 2 6 2 C6 1.34 6 0.68 6 0 C6.99 0 7.98 0 9 0 C9 0.99 9 1.98 9 3 C9.66 3 10.32 3 11 3 C11 5.31 11 7.62 11 10 C9.35 9.67 7.7 9.34 6 9 C6 7.02 6 5.04 6 3 C4.02 3 2.04 3 0 3 C0 2.01 0 1.02 0 0 Z " fill="#52403F" transform="translate(77,61)"/>
<path d="M0 0 C4.29 0 8.58 0 13 0 C13 0.33 13 0.66 13 1 C9.04 1 5.08 1 1 1 C1 2.32 1 3.64 1 5 C0.34 5 -0.32 5 -1 5 C-1 4.34 -1 3.68 -1 3 C-3.64 3 -6.28 3 -9 3 C-9.0825 3.598125 -9.165 4.19625 -9.25 4.8125 C-10.20455872 7.5966296 -11.57132271 8.43311142 -14 10 C-14 9.34 -14 8.68 -14 8 C-14.66 8 -15.32 8 -16 8 C-16 7.34 -16 6.68 -16 6 C-15.34 6 -14.68 6 -14 6 C-14 5.34 -14 4.68 -14 4 C-12.68 4 -11.36 4 -10 4 C-10 3.34 -10 2.68 -10 2 C-6.7 2 -3.4 2 0 2 C0 1.34 0 0.68 0 0 Z " fill="#574037" transform="translate(116,42)"/>
<path d="M0 0 C1.98 0 3.96 0 6 0 C6 0.66 6 1.32 6 2 C6.99 2 7.98 2 9 2 C9 2.66 9 3.32 9 4 C9.99 4 10.98 4 12 4 C12.33 5.32 12.66 6.64 13 8 C11.68 8.33 10.36 8.66 9 9 C9 8.34 9 7.68 9 7 C7.68 7 6.36 7 5 7 C5 5.68 5 4.36 5 3 C3.35 3 1.7 3 0 3 C0 2.01 0 1.02 0 0 Z " fill="#5F4E42" transform="translate(112,20)"/>
<path d="M0 0 C0 1.65 0 3.3 0 5 C0.99 5 1.98 5 3 5 C3 5.66 3 6.32 3 7 C-0.3 7 -3.6 7 -7 7 C-7 5.35 -7 3.7 -7 2 C-4 0 -4 0 0 0 Z " fill="#E0B878" transform="translate(36,101)"/>
<path d="M0 0 C1.32 0 2.64 0 4 0 C4 0.99 4 1.98 4 3 C5.32 3 6.64 3 8 3 C8 4.32 8 5.64 8 7 C8.66 7.33 9.32 7.66 10 8 C4.97745369 8.2954439 2.10457614 7.98514628 -2 5 C-1.34 4.67 -0.68 4.34 0 4 C0 2.68 0 1.36 0 0 Z " fill="#3A252C" transform="translate(142,89)"/>
<path d="M0 0 C4.62 0 9.24 0 14 0 C14 0.99 14 1.98 14 3 C6.74 3 -0.52 3 -8 3 C-8 2.67 -8 2.34 -8 2 C-5.36 2 -2.72 2 0 2 C0 1.34 0 0.68 0 0 Z " fill="#553A3A" transform="translate(67,52)"/>
<path d="M0 0 C0.99 0 1.98 0 3 0 C3 2.64 3 5.28 3 8 C-6.24 8 -15.48 8 -25 8 C-25 7.67 -25 7.34 -25 7 C-16.75 7 -8.5 7 0 7 C0 4.69 0 2.38 0 0 Z " fill="#3A262A" transform="translate(93,91)"/>
<path d="M0 0 C2.31 0 4.62 0 7 0 C7 0.66 7 1.32 7 2 C6.34 2 5.68 2 5 2 C5 2.66 5 3.32 5 4 C5.66 4 6.32 4 7 4 C7 4.99 7 5.98 7 7 C4.36 7 1.72 7 -1 7 C-1 6.34 -1 5.68 -1 5 C-1.66 5 -2.32 5 -3 5 C-3 4.01 -3 3.02 -3 2 C-0.69 2.66 1.62 3.32 4 4 C4 3.34 4 2.68 4 2 C2.68 2 1.36 2 0 2 C0 1.34 0 0.68 0 0 Z " fill="#B38871" transform="translate(95,66)"/>
<path d="M0 0 C2.66666667 0 5.33333333 0 8 0 C8 0.66 8 1.32 8 2 C8.99 2 9.98 2 11 2 C11 3.65 11 5.3 11 7 C9.35 7 7.7 7 6 7 C6 6.01 6 5.02 6 4 C3.03 3.505 3.03 3.505 0 3 C0 2.01 0 1.02 0 0 Z " fill="#372229" transform="translate(94,74)"/>
<path d="M0 0 C0.66 0 1.32 0 2 0 C2 1.32 2 2.64 2 4 C1.34 4 0.68 4 0 4 C0 4.99 0 5.98 0 7 C-0.99 7 -1.98 7 -3 7 C-3 6.34 -3 5.68 -3 5 C-5.64 5 -8.28 5 -11 5 C-11 4.01 -11 3.02 -11 2 C-7.37 2 -3.74 2 0 2 C0 1.34 0 0.68 0 0 Z " fill="#74573D" transform="translate(150,69)"/>
<path d="M0 0 C1.32 0 2.64 0 4 0 C4 0.66 4 1.32 4 2 C4.99 2 5.98 2 7 2 C7 1.34 7 0.68 7 0 C7.99 0 8.98 0 10 0 C10 0.99 10 1.98 10 3 C9.34 3 8.68 3 8 3 C8 5.31 8 7.62 8 10 C7.34 9.01 6.68 8.02 6 7 C5.34 7 4.68 7 4 7 C4 6.34 4 5.68 4 5 C2.68 5 1.36 5 0 5 C0 3.35 0 1.7 0 0 Z " fill="#4E382C" transform="translate(116,66)"/>
<path d="M0 0 C1.63001953 0.15275391 1.63001953 0.15275391 3.29296875 0.30859375 C4.54013672 0.43427734 4.54013672 0.43427734 5.8125 0.5625 C4.8225 0.8925 3.8325 1.2225 2.8125 1.5625 C2.8125 2.5525 2.8125 3.5425 2.8125 4.5625 C-0.1575 4.5625 -3.1275 4.5625 -6.1875 4.5625 C-6.1875 3.5725 -6.1875 2.5825 -6.1875 1.5625 C-7.1775 1.2325 -8.1675 0.9025 -9.1875 0.5625 C-5.76060364 -0.57979879 -3.57647782 -0.34611076 0 0 Z " fill="#392A39" transform="translate(108.1875,53.4375)"/>
<path d="M0 0 C3.3 0 6.6 0 10 0 C9.67 1.65 9.34 3.3 9 5 C7.68 5.33 6.36 5.66 5 6 C5 5.34 5 4.68 5 4 C3.35 4 1.7 4 0 4 C0 2.68 0 1.36 0 0 Z " fill="#F8D08C" transform="translate(119,43)"/>
<path d="M0 0 C1.39412109 -0.03867188 1.39412109 -0.03867188 2.81640625 -0.078125 C5.4375 0.25 5.4375 0.25 9.4375 3.25 C2.8375 3.25 -3.7625 3.25 -10.5625 3.25 C-10.5625 2.59 -10.5625 1.93 -10.5625 1.25 C-7.00499375 0.44939968 -3.64578923 0.06084766 0 0 Z " fill="#342521" transform="translate(117.5625,100.75)"/>
<path d="M0 0 C0.99 0 1.98 0 3 0 C3 1.65 3 3.3 3 5 C4.65 5 6.3 5 8 5 C8 5.99 8 6.98 8 8 C5.36 8 2.72 8 0 8 C-0.33 7.01 -0.66 6.02 -1 5 C-1.66 4.67 -2.32 4.34 -3 4 C-3 3.34 -3 2.68 -3 2 C-2.01 2 -1.02 2 0 2 C0 1.34 0 0.68 0 0 Z " fill="#0A050B" transform="translate(155,92)"/>
<path d="M0 0 C1.4370809 -0.05422947 2.87475462 -0.09289723 4.3125 -0.125 C5.11300781 -0.14820312 5.91351563 -0.17140625 6.73828125 -0.1953125 C9 0 9 0 12 2 C12 2.66 12 3.32 12 4 C8.75173326 6.16551116 7.76905843 6.55156953 4 6 C1.6875 4.125 1.6875 4.125 0 2 C0 1.34 0 0.68 0 0 Z " fill="#DAA669" transform="translate(64,105)"/>
<path d="M0 0 C2.29109597 -0.08075665 4.58299267 -0.13907731 6.875 -0.1875 C8.78925781 -0.23970703 8.78925781 -0.23970703 10.7421875 -0.29296875 C11.81726563 -0.19628906 12.89234375 -0.09960938 14 0 C14.66 0.99 15.32 1.98 16 3 C10.72 3 5.44 3 0 3 C0 2.01 0 1.02 0 0 Z " fill="#050106" transform="translate(123,57)"/>
<path d="M0 0 C0.66 0 1.32 0 2 0 C2 0.99 2 1.98 2 3 C2.99 3 3.98 3 5 3 C5 2.34 5 1.68 5 1 C8.63 1 12.26 1 16 1 C16.33 1.66 16.66 2.32 17 3 C16.04287109 3.09087891 16.04287109 3.09087891 15.06640625 3.18359375 C13.82697266 3.30927734 13.82697266 3.30927734 12.5625 3.4375 C11.32693359 3.55931641 11.32693359 3.55931641 10.06640625 3.68359375 C8.01337975 3.78930815 8.01337975 3.78930815 7 5 C4.66702567 5.04092937 2.33294775 5.04241723 0 5 C0 3.35 0 1.7 0 0 Z " fill="#FDE57C" transform="translate(53,61)"/>
<path d="M0 0 C2.31 0 4.62 0 7 0 C7 1.32 7 2.64 7 4 C7.99 4 8.98 4 10 4 C10 4.99 10 5.98 10 7 C8.35 7 6.7 7 5 7 C4.67 6.34 4.34 5.68 4 5 C1.97536745 4.34786708 1.97536745 4.34786708 0 4 C0 2.68 0 1.36 0 0 Z " fill="#6B4B3D" transform="translate(83,34)"/>
<path d="M0 0 C-0.99 0.33 -1.98 0.66 -3 1 C-3 2.65 -3 4.3 -3 6 C-1.68 6 -0.36 6 1 6 C1 6.66 1 7.32 1 8 C-0.65 8 -2.3 8 -4 8 C-4 7.34 -4 6.68 -4 6 C-5.65 6 -7.3 6 -9 6 C-9 5.01 -9 4.02 -9 3 C-8.01 3 -7.02 3 -6 3 C-6 2.01 -6 1.02 -6 0 C-3 -1 -3 -1 0 0 Z " fill="#B7956C" transform="translate(32,102)"/>
<path d="M0 0 C3.3 0 6.6 0 10 0 C9.01 0.495 9.01 0.495 8 1 C8 2.32 8 3.64 8 5 C6.68 5 5.36 5 4 5 C4 5.66 4 6.32 4 7 C2.68 6.67 1.36 6.34 0 6 C0.99 5.34 1.98 4.68 3 4 C2.01 3.67 1.02 3.34 0 3 C0 2.01 0 1.02 0 0 Z " fill="#170B1D" transform="translate(99,99)"/>
<path d="M0 0 C4.62 0 9.24 0 14 0 C14 0.99 14 1.98 14 3 C9.38 3 4.76 3 0 3 C0 2.01 0 1.02 0 0 Z " fill="#806152" transform="translate(123,83)"/>
<path d="M0 0 C0.99 0 1.98 0 3 0 C3 0.66 3 1.32 3 2 C0.36 2.66 -2.28 3.32 -5 4 C-5 4.66 -5 5.32 -5 6 C-6.32 6 -7.64 6 -9 6 C-9 6.66 -9 7.32 -9 8 C-12.3 8 -15.6 8 -19 8 C-19 7.67 -19 7.34 -19 7 C-14.545 6.505 -14.545 6.505 -10 6 C-10 5.01 -10 4.02 -10 3 C-6.52674819 1.8422494 -3.63932552 1.93133348 0 2 C0 1.34 0 0.68 0 0 Z " fill="#281D22" transform="translate(112,36)"/>
<path d="M0 0 C0.99 0 1.98 0 3 0 C3 0.66 3 1.32 3 2 C4.32 2.33 5.64 2.66 7 3 C6.01 3 5.02 3 4 3 C4 3.66 4 4.32 4 5 C2.68 5 1.36 5 0 5 C0 4.34 0 3.68 0 3 C-1.32 3 -2.64 3 -4 3 C-4 3.66 -4 4.32 -4 5 C-6.31 5 -8.62 5 -11 5 C-11 4.34 -11 3.68 -11 3 C-5.555 2.505 -5.555 2.505 0 2 C0 1.34 0 0.68 0 0 Z " fill="#5B3D3E" transform="translate(33,108)"/>
<path d="M0 0 C1.65 0 3.3 0 5 0 C5 0.99 5 1.98 5 3 C5.66 3 6.32 3 7 3 C7 4.98 7 6.96 7 9 C5.02 9 3.04 9 1 9 C0.67 9.66 0.34 10.32 0 11 C0 9.02 0 7.04 0 5 C1.32 5 2.64 5 4 5 C4 3.68 4 2.36 4 1 C2.68 0.67 1.36 0.34 0 0 Z " fill="#413038" transform="translate(130,106)"/>
<path d="M0 0 C3.63 0 7.26 0 11 0 C11 0.66 11 1.32 11 2 C13.31 2 15.62 2 18 2 C18 2.33 18 2.66 18 3 C12.06 3 6.12 3 0 3 C0 2.01 0 1.02 0 0 Z " fill="#472E3A" transform="translate(68,95)"/>
<path d="M0 0 C4.62 0 9.24 0 14 0 C13.67 0.99 13.34 1.98 13 3 C8.71 3 4.42 3 0 3 C0 2.01 0 1.02 0 0 Z " fill="#1B0D22" transform="translate(63,117)"/>
<path d="M0 0 C0 0.99 0 1.98 0 3 C-5.625 6 -5.625 6 -9 6 C-9 5.34 -9 4.68 -9 4 C-9.66 4 -10.32 4 -11 4 C-11 4.99 -11 5.98 -11 7 C-11.66 7 -12.32 7 -13 7 C-13 5.68 -13 4.36 -13 3 C-10.69 3 -8.38 3 -6 3 C-6 2.34 -6 1.68 -6 1 C-3.92446352 0.4465236 -2.15634036 0 0 0 Z " fill="#7B564F" transform="translate(109,91)"/>
<path d="M0 0 C1.32 0 2.64 0 4 0 C4 3.63 4 7.26 4 11 C3.01 11 2.02 11 1 11 C1 11.66 1 12.32 1 13 C2.98 13 4.96 13 7 13 C7.12375 13.804375 7.2475 14.60875 7.375 15.4375 C7.58125 16.283125 7.7875 17.12875 8 18 C8.66 18.33 9.32 18.66 10 19 C9.01 19 8.02 19 7 19 C7 18.01 7 17.02 7 16 C6.01 16 5.02 16 4 16 C4 15.34 4 14.68 4 14 C2.68 14 1.36 14 0 14 C0 12.68 0 11.36 0 10 C0.99 10 1.98 10 3 10 C3 7.03 3 4.06 3 1 C2.01 0.67 1.02 0.34 0 0 Z " fill="#9A9998" transform="translate(151,66)"/>
<path d="M0 0 C3 1 6 2 9 3 C9 3.99 9 4.98 9 6 C9.99 6.33 10.98 6.66 12 7 C6.25 7.125 6.25 7.125 4 6 C4 5.34 4 4.68 4 4 C1.03 4 -1.94 4 -5 4 C-5 3.67 -5 3.34 -5 3 C-3.35 3 -1.7 3 0 3 C0 2.01 0 1.02 0 0 Z " fill="#61594C" transform="translate(139,57)"/>
<path d="M0 0 C6.6 0 13.2 0 20 0 C20 0.66 20 1.32 20 2 C20.66 2 21.32 2 22 2 C22 3.32 22 4.64 22 6 C21.01 6 20.02 6 19 6 C19 5.01 19 4.02 19 3 C18.34 3 17.68 3 17 3 C17 2.34 17 1.68 17 1 C8.585 1.495 8.585 1.495 0 2 C0 1.34 0 0.68 0 0 Z " fill="#AA8960" transform="translate(108,104)"/>
<path d="M0 0 C0.33 0.66 0.66 1.32 1 2 C-2.86723631 3.26582219 -6.73151262 3.1118765 -10.75 3.0625 C-11.44738281 3.05798828 -12.14476562 3.05347656 -12.86328125 3.04882812 C-14.57555803 3.0371002 -16.28779033 3.01916653 -18 3 C-18 2.67 -18 2.34 -18 2 C-11.92972642 -0.1583195 -6.40629424 -0.20852314 0 0 Z " fill="#060005" transform="translate(143,80)"/>
<path d="M0 0 C0.99 0 1.98 0 3 0 C3.33 1.98 3.66 3.96 4 6 C1.69 6 -0.62 6 -3 6 C-3 5.34 -3 4.68 -3 4 C-3.99 4.33 -4.98 4.66 -6 5 C-7.39439664 5.06665376 -8.79169875 5.08538199 -10.1875 5.0625 C-12.0746875 5.0315625 -12.0746875 5.0315625 -14 5 C-14 4.67 -14 4.34 -14 4 C-8.61509359 3.08342019 -3.45769811 2.88861841 2 3 C2 2.34 2 1.68 2 1 C1.34 0.67 0.68 0.34 0 0 Z " fill="#664A43" transform="translate(136,49)"/>
<path d="M0 0 C1.32 0 2.64 0 4 0 C4 0.66 4 1.32 4 2 C5.65 2 7.3 2 9 2 C9 1.34 9 0.68 9 0 C9.99 0 10.98 0 12 0 C12 1.98 12 3.96 12 6 C10.68 6 9.36 6 8 6 C8 5.01 8 4.02 8 3 C5.36 3 2.72 3 0 3 C0 2.01 0 1.02 0 0 Z " fill="#DDB677" transform="translate(67,46)"/>
<path d="M0 0 C1.32 0 2.64 0 4 0 C4 0.66 4 1.32 4 2 C4.99 2 5.98 2 7 2 C7 3.32 7 4.64 7 6 C6.01 6 5.02 6 4 6 C4 6.66 4 7.32 4 8 C3.01 8 2.02 8 1 8 C0.67 5.36 0.34 2.72 0 0 Z " fill="#AA836B" transform="translate(117,27)"/>
<path d="M0 0 C0.99 0 1.98 0 3 0 C3 1.32 3 2.64 3 4 C2.34 4 1.68 4 1 4 C1 6.64 1 9.28 1 12 C0.01 12 -0.98 12 -2 12 C-2 9.03 -2 6.06 -2 3 C-1.34 3 -0.68 3 0 3 C0 2.01 0 1.02 0 0 Z " fill="#1B1110" transform="translate(73,22)"/>
<path d="M0 0 C1.32 0 2.64 0 4 0 C4 0.99 4 1.98 4 3 C4.99 3 5.98 3 7 3 C7 5.97 7 8.94 7 12 C6.34 12 5.68 12 5 12 C5 11.34 5 10.68 5 10 C4.34 9.67 3.68 9.34 3 9 C3.66 9 4.32 9 5 9 C5 7.68 5 6.36 5 5 C4.34 5 3.68 5 3 5 C3 4.34 3 3.68 3 3 C2.01 3 1.02 3 0 3 C0 2.01 0 1.02 0 0 Z " fill="#1F1313" transform="translate(147,64)"/>
<path d="M0 0 C1.98 0 3.96 0 6 0 C6.66 1.65 7.32 3.3 8 5 C5.36 5 2.72 5 0 5 C0 3.35 0 1.7 0 0 Z " fill="#76534E" transform="translate(54,107)"/>
<path d="M0 0 C0.66 0 1.32 0 2 0 C2 0.99 2 1.98 2 3 C4.31 3 6.62 3 9 3 C9 4.32 9 5.64 9 7 C7.35 7 5.7 7 4 7 C4 6.34 4 5.68 4 5 C2.35 4.67 0.7 4.34 -1 4 C-0.67 2.68 -0.34 1.36 0 0 Z " fill="#DDB880" transform="translate(108,20)"/>
<path d="M0 0 C1.32 0 2.64 0 4 0 C4 3.3 4 6.6 4 10 C3.67 9.34 3.34 8.68 3 8 C2.01 8 1.02 8 0 8 C0 5.36 0 2.72 0 0 Z " fill="#1C1B1C" transform="translate(16,108)"/>
<path d="M0 0 C0 0.33 0 0.66 0 1 C-1.98 1 -3.96 1 -6 1 C-6 2.98 -6 4.96 -6 7 C-5.01 7.33 -4.02 7.66 -3 8 C-4.65 8 -6.3 8 -8 8 C-8.99 5.69 -9.98 3.38 -11 1 C-7.32589215 -0.17571451 -3.83070817 -0.07366746 0 0 Z " fill="#A87D5A" transform="translate(70,104)"/>
<path d="M0 0 C4.29 0.33 8.58 0.66 13 1 C13 1.99 13 2.98 13 4 C6.07 3.505 6.07 3.505 -1 3 C-0.67 2.01 -0.34 1.02 0 0 Z " fill="#D7A767" transform="translate(40,84)"/>
<path d="M0 0 C2.64 0 5.28 0 8 0 C8 0.66 8 1.32 8 2 C8.99 2.33 9.98 2.66 11 3 C10.01 3 9.02 3 8 3 C8 3.66 8 4.32 8 5 C5.36 4.34 2.72 3.68 0 3 C0 2.01 0 1.02 0 0 Z " fill="#2E2123" transform="translate(139,74)"/>
<path d="M0 0 C1.32 0 2.64 0 4 0 C4.33 0.99 4.66 1.98 5 3 C6.65 3.33 8.3 3.66 10 4 C10 4.66 10 5.32 10 6 C7.36 6 4.72 6 2 6 C2 5.01 2 4.02 2 3 C0.68 3.33 -0.64 3.66 -2 4 C-2 3.34 -2 2.68 -2 2 C-1.34 2 -0.68 2 0 2 C0 1.34 0 0.68 0 0 Z " fill="#BB9071" transform="translate(43,66)"/>
<path d="M0 0 C0.99 0 1.98 0 3 0 C3 0.99 3 1.98 3 3 C6.3 3 9.6 3 13 3 C12.67 3.66 12.34 4.32 12 5 C8.04 5 4.08 5 0 5 C0 3.35 0 1.7 0 0 Z " fill="#301D2B" transform="translate(119,52)"/>
<path d="M0 0 C1.65 0 3.3 0 5 0 C5 1.65 5 3.3 5 5 C2.36 5 -0.28 5 -3 5 C-3 4.01 -3 3.02 -3 2 C-2.01 2 -1.02 2 0 2 C0 1.34 0 0.68 0 0 Z " fill="#6C5259" transform="translate(114,53)"/>
<path d="M0 0 C0.99 0.33 1.98 0.66 3 1 C3 2.32 3 3.64 3 5 C4.98 5 6.96 5 9 5 C9 5.33 9 5.66 9 6 C7.35 6 5.7 6 4 6 C4 6.66 4 7.32 4 8 C1.69 8 -0.62 8 -3 8 C-3 7.34 -3 6.68 -3 6 C-1.68 6 -0.36 6 1 6 C0.67 4.02 0.34 2.04 0 0 Z " fill="#05010A" transform="translate(32,92)"/>
<path d="M0 0 C0.99 0 1.98 0 3 0 C3.74926071 3.66305234 4.2380014 6.42355152 3 10 C2.34 10 1.68 10 1 10 C0.67 10.66 0.34 11.32 0 12 C0 8.04 0 4.08 0 0 Z " fill="#46474E" transform="translate(158,85)"/>
<path d="M0 0 C0.99 0 1.98 0 3 0 C3 0.99 3 1.98 3 3 C5.97 3 8.94 3 12 3 C12 3.66 12 4.32 12 5 C8.04 5 4.08 5 0 5 C0 3.35 0 1.7 0 0 Z " fill="#402E2F" transform="translate(41,70)"/>
<path d="M0 0 C1.32 0 2.64 0 4 0 C3.67 1.98 3.34 3.96 3 6 C1.02 6.33 -0.96 6.66 -3 7 C-3 5.68 -3 4.36 -3 3 C-2.01 3 -1.02 3 0 3 C0 2.01 0 1.02 0 0 Z " fill="#7A554F" transform="translate(104,104)"/>
<path d="M0 0 C0 1.65 0 3.3 0 5 C-1.32 5 -2.64 5 -4 5 C-4.33 4.01 -4.66 3.02 -5 2 C-6.98 2 -8.96 2 -11 2 C-11 1.34 -11 0.68 -11 0 C-7.18243176 -1.37432457 -3.92744671 -0.67975039 0 0 Z " fill="#D2A171" transform="translate(166,103)"/>
<path d="M0 0 C2.97 0 5.94 0 9 0 C9.33 0.99 9.66 1.98 10 3 C9 4 9 4 6.125 4.1875 C3 4 3 4 0 2 C0 1.34 0 0.68 0 0 Z " fill="#583A3F" transform="translate(38,91)"/>
<path d="M0 0 C2.64 0 5.28 0 8 0 C8 0.66 8 1.32 8 2 C6.35 2 4.7 2 3 2 C3 2.66 3 3.32 3 4 C4.98 4 6.96 4 9 4 C9 4.33 9 4.66 9 5 C6.03 5 3.06 5 0 5 C0 3.35 0 1.7 0 0 Z " fill="#351F2D" transform="translate(54,112)"/>
<path d="M0 0 C0.66 0 1.32 0 2 0 C2 2.31 2 4.62 2 7 C0.68 6.67 -0.64 6.34 -2 6 C-2.33 6.99 -2.66 7.98 -3 9 C-3 8.01 -3 7.02 -3 6 C-3.66 6 -4.32 6 -5 6 C-5 5.01 -5 4.02 -5 3 C-3.35 3 -1.7 3 0 3 C0 2.01 0 1.02 0 0 Z " fill="#DBB87A" transform="translate(50,60)"/>
<path d="M0 0 C0.33 0.66 0.66 1.32 1 2 C1.99 2 2.98 2 4 2 C4 2.99 4 3.98 4 5 C2.02 5.33 0.04 5.66 -2 6 C-2 5.34 -2 4.68 -2 4 C-2.99 4.33 -3.98 4.66 -5 5 C-5 4.01 -5 3.02 -5 2 C-3.35 2 -1.7 2 0 2 C0 1.34 0 0.68 0 0 Z " fill="#EBCA95" transform="translate(82,20)"/>
<path d="M0 0 C6.93 0 13.86 0 21 0 C21 0.99 21 1.98 21 3 C20.01 3 19.02 3 18 3 C18 2.34 18 1.68 18 1 C12.06 1.33 6.12 1.66 0 2 C0 1.34 0 0.68 0 0 Z " fill="#7B654D" transform="translate(76,81)"/>
<path d="M0 0 C0 1.32 0 2.64 0 4 C-0.66 4 -1.32 4 -2 4 C-2 4.66 -2 5.32 -2 6 C-2.99 6 -3.98 6 -5 6 C-5 5.01 -5 4.02 -5 3 C-5.66 3 -6.32 3 -7 3 C-7 2.34 -7 1.68 -7 1 C-4.53721199 -0.231394 -2.7204945 -0.07159196 0 0 Z " fill="#D7AE79" transform="translate(82,64)"/>
<path d="M0 0 C2.4375 0.375 2.4375 0.375 5 1 C6.4783226 3.95664519 6.06032783 6.74229737 6 10 C5.01 9.67 4.02 9.34 3 9 C3 7.02 3 5.04 3 3 C2.01 3 1.02 3 0 3 C0 2.01 0 1.02 0 0 Z " fill="#100706" transform="translate(136,46)"/>
<path d="M0 0 C3.3 0 6.6 0 10 0 C10 0.99 10 1.98 10 3 C6.7 3 3.4 3 0 3 C0 2.01 0 1.02 0 0 Z " fill="#63463B" transform="translate(55,49)"/>
<path d="M0 0 C0.33 0.99 0.66 1.98 1 3 C0 4 0 4 -2.5625 4.0625 C-3.7690625 4.0315625 -3.7690625 4.0315625 -5 4 C-5 3.67 -5 3.34 -5 3 C-8.3 2.67 -11.6 2.34 -15 2 C-15 1.67 -15 1.34 -15 1 C-13.43784452 0.83013455 -11.8752548 0.66426036 -10.3125 0.5 C-9.44238281 0.4071875 -8.57226562 0.314375 -7.67578125 0.21875 C-5.10276661 0.00840136 -2.58015636 -0.03719144 0 0 Z " fill="#110D12" transform="translate(127,99)"/>
<path d="M0 0 C5.53846154 -0.36923077 5.53846154 -0.36923077 7.875 1.5 C8.24625 1.995 8.6175 2.49 9 3 C8.34 3 7.68 3 7 3 C7 3.66 7 4.32 7 5 C5.02 5 3.04 5 1 5 C1.33 3.68 1.66 2.36 2 1 C1.34 0.67 0.68 0.34 0 0 Z " fill="#E2B472" transform="translate(129,68)"/>
<path d="M0 0 C1.5 1.25 1.5 1.25 3 3 C3 4.32 3 5.64 3 7 C2.34 7 1.68 7 1 7 C1 6.34 1 5.68 1 5 C0.34 5 -0.32 5 -1 5 C-1 5.66 -1 6.32 -1 7 C-2.65 7 -4.3 7 -6 7 C-5.67 6.34 -5.34 5.68 -5 5 C-4.34 5 -3.68 5 -3 5 C-3 4.34 -3 3.68 -3 3 C-2.01 3 -1.02 3 0 3 C0 2.01 0 1.02 0 0 Z " fill="#9E7461" transform="translate(110,45)"/>
<path d="M0 0 C0 0.99 0 1.98 0 3 C-0.99 3 -1.98 3 -3 3 C-3 3.99 -3 4.98 -3 6 C-4.98 6 -6.96 6 -9 6 C-9.33 6.99 -9.66 7.98 -10 9 C-10 7.68 -10 6.36 -10 5 C-6.7321794 2.82145293 -3.61941735 1.50239966 0 0 Z " fill="#B3B2A5" transform="translate(65,36)"/>
<path d="M0 0 C2.64 0 5.28 0 8 0 C8 0.99 8 1.98 8 3 C7.01 3 6.02 3 5 3 C5 3.99 5 4.98 5 6 C4.01 6 3.02 6 2 6 C2 4.68 2 3.36 2 2 C1.34 1.34 0.68 0.68 0 0 Z " fill="#BC8F72" transform="translate(132,86)"/>
<path d="M0 0 C2.375 -0.125 2.375 -0.125 5 0 C7 2 7 2 7 5 C4.69 5.33 2.38 5.66 0 6 C0.99 5.67 1.98 5.34 3 5 C3 4.01 3 3.02 3 2 C2.01 2 1.02 2 0 2 C0 1.34 0 0.68 0 0 Z " fill="#543C34" transform="translate(103,86)"/>
<path d="M0 0 C2.97 0 5.94 0 9 0 C8.67 1.65 8.34 3.3 8 5 C7.67 4.34 7.34 3.68 7 3 C4.69 3 2.38 3 0 3 C0 2.01 0 1.02 0 0 Z " fill="#DCB15E" transform="translate(61,64)"/>
<path d="M0 0 C4.29 0 8.58 0 13 0 C13 0.99 13 1.98 13 3 C10.69 3 8.38 3 6 3 C6 2.34 6 1.68 6 1 C4.02 1 2.04 1 0 1 C0 0.67 0 0.34 0 0 Z " fill="#1B0D14" transform="translate(70,55)"/>
<path d="M0 0 C2.64 0 5.28 0 8 0 C8 1.32 8 2.64 8 4 C5.69 4 3.38 4 1 4 C0.67 2.68 0.34 1.36 0 0 Z " fill="#F6D58D" transform="translate(62,42)"/>
<path d="M0 0 C1.65 0 3.3 0 5 0 C5 1.32 5 2.64 5 4 C2.36 4 -0.28 4 -3 4 C-3 3.34 -3 2.68 -3 2 C-2.01 2 -1.02 2 0 2 C0 1.34 0 0.68 0 0 Z " fill="#9D7254" transform="translate(107,110)"/>
<path d="M0 0 C1.98 0 3.96 0 6 0 C6 2.31 6 4.62 6 7 C5.67 6.34 5.34 5.68 5 5 C4.34 5 3.68 5 3 5 C3 4.34 3 3.68 3 3 C2.01 3 1.02 3 0 3 C0 2.01 0 1.02 0 0 Z " fill="#6E534B" transform="translate(146,103)"/>
<path d="M0 0 C1.79244141 0.01740234 1.79244141 0.01740234 3.62109375 0.03515625 C5.41740234 0.04869141 5.41740234 0.04869141 7.25 0.0625 C8.17683594 0.07410156 9.10367188 0.08570312 10.05859375 0.09765625 C10.05859375 0.42765625 10.05859375 0.75765625 10.05859375 1.09765625 C6.09859375 1.09765625 2.13859375 1.09765625 -1.94140625 1.09765625 C-1.94140625 2.08765625 -1.94140625 3.07765625 -1.94140625 4.09765625 C-1.28140625 4.42765625 -0.62140625 4.75765625 0.05859375 5.09765625 C-1.59140625 5.09765625 -3.24140625 5.09765625 -4.94140625 5.09765625 C-3.81895287 0.12679126 -3.81895287 0.12679126 0 0 Z " fill="#C89B5E" transform="translate(111.94140625,104.90234375)"/>
<path d="M0 0 C2.31 0 4.62 0 7 0 C7 0.66 7 1.32 7 2 C5.02 2.33 3.04 2.66 1 3 C1 3.66 1 4.32 1 5 C0.01 5.33 -0.98 5.66 -2 6 C-2 5.01 -2 4.02 -2 3 C-1.34 3 -0.68 3 0 3 C0 2.01 0 1.02 0 0 Z " fill="#9E7B5E" transform="translate(154,100)"/>
<path d="M0 0 C1.32 0 2.64 0 4 0 C3.67 1.98 3.34 3.96 3 6 C2.01 6 1.02 6 0 6 C-0.33 6.66 -0.66 7.32 -1 8 C-0.67 5.36 -0.34 2.72 0 0 Z " fill="#3F292F" transform="translate(116,86)"/>
<path d="M0 0 C0.99 0 1.98 0 3 0 C3 0.66 3 1.32 3 2 C2.34 2 1.68 2 1 2 C0.34 3.65 -0.32 5.3 -1 7 C-1.66 7 -2.32 7 -3 7 C-3 7.99 -3 8.98 -3 10 C-3.66 10 -4.32 10 -5 10 C-5 8.68 -5 7.36 -5 6 C-4.34 6 -3.68 6 -3 6 C-3 5.01 -3 4.02 -3 3 C-2.01 3 -1.02 3 0 3 C0 2.01 0 1.02 0 0 Z " fill="#0F0C08" transform="translate(41,63)"/>
<path d="M0 0 C2.31 0 4.62 0 7 0 C7 0.66 7 1.32 7 2 C7.99 2 8.98 2 10 2 C9.67 2.99 9.34 3.98 9 5 C9 4.34 9 3.68 9 3 C7.35 2.67 5.7 2.34 4 2 C3.67 2.99 3.34 3.98 3 5 C3 4.34 3 3.68 3 3 C2.01 3 1.02 3 0 3 C0 2.01 0 1.02 0 0 Z " fill="#806F64" transform="translate(132,44)"/>
<path d="M0 0 C2.97 0 5.94 0 9 0 C8.67 0.99 8.34 1.98 8 3 C5.69 3.33 3.38 3.66 1 4 C0.67 2.68 0.34 1.36 0 0 Z " fill="#CCB47D" transform="translate(67,39)"/>
<path d="M0 0 C2.64 0 5.28 0 8 0 C8 0.99 8 1.98 8 3 C4.7 3 1.4 3 -2 3 C-1.34 2.67 -0.68 2.34 0 2 C0 1.34 0 0.68 0 0 Z " fill="#150C17" transform="translate(115,36)"/>
<path d="M0 0 C0 1.32 0 2.64 0 4 C-0.66 4 -1.32 4 -2 4 C-2.33 5.32 -2.66 6.64 -3 8 C-3.103125 7.360625 -3.20625 6.72125 -3.3125 6.0625 C-3.539375 5.381875 -3.76625 4.70125 -4 4 C-4.99 3.67 -5.98 3.34 -7 3 C-6.34 3 -5.68 3 -5 3 C-5 2.34 -5 1.68 -5 1 C-2 0 -2 0 0 0 Z " fill="#FCE38E" transform="translate(97,26)"/>
<path d="M0 0 C0.33 0.66 0.66 1.32 1 2 C3.31 2 5.62 2 8 2 C8.33 1.34 8.66 0.68 9 0 C9 0.99 9 1.98 9 3 C9.66 3.33 10.32 3.66 11 4 C7.37 4 3.74 4 0 4 C-0.33 3.34 -0.66 2.68 -1 2 C-0.67 1.34 -0.34 0.68 0 0 Z " fill="#2C1D32" transform="translate(21,111)"/>
<path d="M0 0 C2.31 0 4.62 0 7 0 C7 0.99 7 1.98 7 3 C4.69 3.33 2.38 3.66 0 4 C0 2.68 0 1.36 0 0 Z " fill="#E9B97D" transform="translate(93,86)"/>
<path d="M0 0 C0.99 0 1.98 0 3 0 C3 1.65 3 3.3 3 5 C3.99 5 4.98 5 6 5 C5.67 5.66 5.34 6.32 5 7 C3.35 7 1.7 7 0 7 C0 4.69 0 2.38 0 0 Z " fill="#211211" transform="translate(124,69)"/>
<path d="M0 0 C0.99 0 1.98 0 3 0 C3 1.65 3 3.3 3 5 C0.36 5 -2.28 5 -5 5 C-5 4.34 -5 3.68 -5 3 C-3.35 3 -1.7 3 0 3 C0 2.01 0 1.02 0 0 Z " fill="#744D3A" transform="translate(115,30)"/>
<path d="M0 0 C6.27 0 12.54 0 19 0 C19 0.99 19 1.98 19 3 C18.01 3 17.02 3 16 3 C16 2.34 16 1.68 16 1 C10.72 1 5.44 1 0 1 C0 0.67 0 0.34 0 0 Z " fill="#FEE8A5" transform="translate(88,21)"/>
<path d="M0 0 C1.32 0.33 2.64 0.66 4 1 C4 1.99 4 2.98 4 4 C4.33 4.99 4.66 5.98 5 7 C3.35 7 1.7 7 0 7 C0 4.69 0 2.38 0 0 Z " fill="#312632" transform="translate(95,109)"/>
<path d="M0 0 C3.3 0 6.6 0 10 0 C10 0.99 10 1.98 10 3 C2.25 3.125 2.25 3.125 0 2 C0 1.34 0 0.68 0 0 Z " fill="#E9B360" transform="translate(110,107)"/>
<path d="M0 0 C3.63 0 7.26 0 11 0 C11 0.33 11 0.66 11 1 C7.7 1.33 4.4 1.66 1 2 C1 2.99 1 3.98 1 5 C0.01 5 -0.98 5 -2 5 C-2 4.01 -2 3.02 -2 2 C-1.34 2 -0.68 2 0 2 C0 1.34 0 0.68 0 0 Z " fill="#34271D" transform="translate(25,100)"/>
<path d="M0 0 C1.32 0 2.64 0 4 0 C4 0.99 4 1.98 4 3 C1.09399739 4.25664978 -0.79604584 5 -4 5 C-4 4.01 -4 3.02 -4 2 C-2.68 2 -1.36 2 0 2 C0 1.34 0 0.68 0 0 Z " fill="#9D795B" transform="translate(72,83)"/>
<path d="M0 0 C0.66 0.99 1.32 1.98 2 3 C1.67 3.99 1.34 4.98 1 6 C0.01 6 -0.98 6 -2 6 C-2 5.34 -2 4.68 -2 4 C-3.32 3.67 -4.64 3.34 -6 3 C-3.8614515 0.8614515 -2.86724686 0.57344937 0 0 Z " fill="#3C2933" transform="translate(74,74)"/>
<path d="M0 0 C1.45823212 -0.0270043 2.91660675 -0.04639787 4.375 -0.0625 C5.18710938 -0.07410156 5.99921875 -0.08570312 6.8359375 -0.09765625 C9 0 9 0 11 1 C11 1.66 11 2.32 11 3 C7.04 2.67 3.08 2.34 -1 2 C-0.67 1.34 -0.34 0.68 0 0 Z " fill="#F7CE87" transform="translate(128,66)"/>
<path d="M0 0 C1.32 0 2.64 0 4 0 C4.33 2.31 4.66 4.62 5 7 C4.01 7 3.02 7 2 7 C1.34 4.69 0.68 2.38 0 0 Z " fill="#BC8F71" transform="translate(111,45)"/>
<path d="M0 0 C2.16874252 0.50603992 3.99967627 0.99983813 6 2 C6 2.66 6 3.32 6 4 C1.545 4.495 1.545 4.495 -3 5 C-3 4.34 -3 3.68 -3 3 C-2.01 3 -1.02 3 0 3 C0 2.01 0 1.02 0 0 Z " fill="#BFA27B" transform="translate(59,44)"/>
<path d="M0 0 C0.99 0 1.98 0 3 0 C3 2.64 3 5.28 3 8 C2.34 8 1.68 8 1 8 C1 7.01 1 6.02 1 5 C0.34 5 -0.32 5 -1 5 C-0.67 3.35 -0.34 1.7 0 0 Z " fill="#F2C387" transform="translate(92,33)"/>
<path d="M0 0 C0 0.33 0 0.66 0 1 C-1.98 1 -3.96 1 -6 1 C-6 1.66 -6 2.32 -6 3 C-8.64 3 -11.28 3 -14 3 C-13.67 2.34 -13.34 1.68 -13 1 C-8.71230214 -0.29930238 -4.43489655 -0.07516774 0 0 Z " fill="#7E5C56" transform="translate(140,93)"/>
<path d="M0 0 C0.99 0.33 1.98 0.66 3 1 C3 1.99 3 2.98 3 4 C2.34 4 1.68 4 1 4 C1 4.66 1 5.32 1 6 C-0.98 6 -2.96 6 -5 6 C-5 5.34 -5 4.68 -5 4 C-3.35 4 -1.7 4 0 4 C0 2.68 0 1.36 0 0 Z " fill="#76524A" transform="translate(98,37)"/>
<path d="M0 0 C1.32 0 2.64 0 4 0 C4 1.32 4 2.64 4 4 C2.02 4 0.04 4 -2 4 C-2.33 4.99 -2.66 5.98 -3 7 C-3 5.68 -3 4.36 -3 3 C-2.01 3 -1.02 3 0 3 C0 2.01 0 1.02 0 0 Z " fill="#745751" transform="translate(130,107)"/>
<path d="M0 0 C-1.32 0.33 -2.64 0.66 -4 1 C-4 1.99 -4 2.98 -4 4 C-5.98 4 -7.96 4 -10 4 C-9.67 3.01 -9.34 2.02 -9 1 C-5.8035914 -0.06546953 -3.34252724 -0.07427838 0 0 Z " fill="#AF845D" transform="translate(97,90)"/>
<path d="M0 0 C0.66 0 1.32 0 2 0 C3.04449911 3.13349732 2.93423645 3.98968256 2 7 C-0.475 6.01 -0.475 6.01 -3 5 C-3 4.34 -3 3.68 -3 3 C-2.01 3 -1.02 3 0 3 C0 2.01 0 1.02 0 0 Z " fill="#684537" transform="translate(140,86)"/>
<path d="M0 0 C2.31 0 4.62 0 7 0 C7 0.99 7 1.98 7 3 C4.69 3 2.38 3 0 3 C0 2.01 0 1.02 0 0 Z " fill="#B9855A" transform="translate(123,89)"/>
<path d="M0 0 C0.99 0 1.98 0 3 0 C3 0.99 3 1.98 3 3 C5.31 3 7.62 3 10 3 C10 3.33 10 3.66 10 4 C6.7 4.66 3.4 5.32 0 6 C0 5.01 0 4.02 0 3 C0.66 3 1.32 3 2 3 C2 2.34 2 1.68 2 1 C1.34 0.67 0.68 0.34 0 0 Z " fill="#160C10" transform="translate(97,78)"/>
<path d="M0 0 C3 0 3 0 4.6875 1.375 C6 3 6 3 6 5 C4.02 5 2.04 5 0 5 C0 3.35 0 1.7 0 0 Z " fill="#CC956E" transform="translate(132,47)"/>
<path d="M0 0 C0.66 0 1.32 0 2 0 C2 0.66 2 1.32 2 2 C2.99 2 3.98 2 5 2 C5 2.66 5 3.32 5 4 C1.37 4 -2.26 4 -6 4 C-2 2 -2 2 0 2 C0 1.34 0 0.68 0 0 Z " fill="#CC9E72" transform="translate(105,31)"/>
<path d="M0 0 C0.185625 0.9590625 0.185625 0.9590625 0.375 1.9375 C0.684375 2.9584375 0.684375 2.9584375 1 4 C1.66 4.33 2.32 4.66 3 5 C2.67 5.66 2.34 6.32 2 7 C1.01 7 0.02 7 -1 7 C-1 8.65 -1 10.3 -1 12 C-1.33 12 -1.66 12 -2 12 C-2 9.36 -2 6.72 -2 4 C-1.34 4 -0.68 4 0 4 C0 2.68 0 1.36 0 0 Z " fill="#A3836D" transform="translate(76,22)"/>
<path d="M0 0 C1.65 0 3.3 0 5 0 C5 0.99 5 1.98 5 3 C4.01 3 3.02 3 2 3 C2 3.66 2 4.32 2 5 C1.01 5 0.02 5 -1 5 C-0.67 3.35 -0.34 1.7 0 0 Z " fill="#3B2935" transform="translate(167,110)"/>
<path d="M0 0 C1.98 0.99 1.98 0.99 4 2 C4 2.66 4 3.32 4 4 C5.98 3.67 7.96 3.34 10 3 C10 3.66 10 4.32 10 5 C3.375 5.125 3.375 5.125 0 4 C0 2.68 0 1.36 0 0 Z " fill="#CA9259" transform="translate(64,107)"/>
<path d="M0 0 C0.99 0 1.98 0 3 0 C3 0.66 3 1.32 3 2 C3.99 2 4.98 2 6 2 C6 2.66 6 3.32 6 4 C3.03 4 0.06 4 -3 4 C-2.01 3.67 -1.02 3.34 0 3 C0 2.01 0 1.02 0 0 Z " fill="#BF956C" transform="translate(100,86)"/>
<path d="M0 0 C0.99 0 1.98 0 3 0 C3 2.31 3 4.62 3 7 C2.01 7 1.02 7 0 7 C0 4.69 0 2.38 0 0 Z " fill="#3E3035" transform="translate(155,85)"/>
<path d="M0 0 C0.99 0 1.98 0 3 0 C3 2.31 3 4.62 3 7 C2.01 7 1.02 7 0 7 C0 4.69 0 2.38 0 0 Z " fill="#22172D" transform="translate(58,83)"/>
<path d="M0 0 C1.98 0 3.96 0 6 0 C6 1.32 6 2.64 6 4 C4.35 4 2.7 4 1 4 C0.67 2.68 0.34 1.36 0 0 Z " fill="#EFC982" transform="translate(85,86)"/>
<path d="M0 0 C0 0.66 0 1.32 0 2 C-1.32 2 -2.64 2 -4 2 C-4 2.66 -4 3.32 -4 4 C-5.32 4 -6.64 4 -8 4 C-8 3.01 -8 2.02 -8 1 C-5.07175348 0.02391783 -3.04386724 -0.08226668 0 0 Z " fill="#56403B" transform="translate(150,82)"/>
<path d="M0 0 C0.33 0 0.66 0 1 0 C1 2.31 1 4.62 1 7 C-1.31 7 -3.62 7 -6 7 C-6 6.34 -6 5.68 -6 5 C-4.02 4.67 -2.04 4.34 0 4 C0 2.68 0 1.36 0 0 Z " fill="#86665A" transform="translate(122,69)"/>
<path d="M0 0 C1.98 0 3.96 0 6 0 C6 0.66 6 1.32 6 2 C6.99 2.33 7.98 2.66 9 3 C6.03 3 3.06 3 0 3 C0 2.01 0 1.02 0 0 Z " fill="#66463D" transform="translate(77,71)"/>
<path d="M0 0 C0.99 0 1.98 0 3 0 C3 0.99 3 1.98 3 3 C-1.95 3 -6.9 3 -12 3 C-12 2.67 -12 2.34 -12 2 C-8.04 2 -4.08 2 0 2 C0 1.34 0 0.68 0 0 Z " fill="#DEAD7C" transform="translate(65,69)"/>
<path d="M0 0 C0.66 0 1.32 0 2 0 C2 2.31 2 4.62 2 7 C-0.97 6.505 -0.97 6.505 -4 6 C-3.01 5.67 -2.02 5.34 -1 5 C-0.67 3.35 -0.34 1.7 0 0 Z " fill="#7D5037" transform="translate(69,67)"/>
<path d="M0 0 C1.32 0 2.64 0 4 0 C4 2.64 4 5.28 4 8 C3.01 8 2.02 8 1 8 C1.33 5.69 1.66 3.38 2 1 C1.34 0.67 0.68 0.34 0 0 Z " fill="#0E0503" transform="translate(122,28)"/>
<path d="M0 0 C0 0.99 0 1.98 0 3 C-0.99 3 -1.98 3 -3 3 C-3 3.99 -3 4.98 -3 6 C-3.99 6 -4.98 6 -6 6 C-5.67 4.35 -5.34 2.7 -5 1 C-2 0 -2 0 0 0 Z " fill="#FDE18E" transform="translate(107,27)"/>
<path d="M0 0 C1.65 0 3.3 0 5 0 C5 1.32 5 2.64 5 4 C3.35 4 1.7 4 0 4 C0 2.68 0 1.36 0 0 Z " fill="#281F2A" transform="translate(86,112)"/>
<path d="M0 0 C0.99 0 1.98 0 3 0 C3 0.66 3 1.32 3 2 C4.32 1.67 5.64 1.34 7 1 C6.67 1.99 6.34 2.98 6 4 C4.02 4 2.04 4 0 4 C0 2.68 0 1.36 0 0 Z " fill="#463A4A" transform="translate(141,106)"/>
<path d="M0 0 C2.64 0 5.28 0 8 0 C8 0.99 8 1.98 8 3 C6.02 3 4.04 3 2 3 C2 2.34 2 1.68 2 1 C1.34 0.67 0.68 0.34 0 0 Z " fill="#392C30" transform="translate(74,104)"/>
<path d="M0 0 C-0.33 1.32 -0.66 2.64 -1 4 C-1 3.34 -1 2.68 -1 2 C-1.99 2 -2.98 2 -4 2 C-4 2.99 -4 3.98 -4 5 C-4.99 5 -5.98 5 -7 5 C-7 4.01 -7 3.02 -7 2 C-4 0 -4 0 0 0 Z " fill="#E8C792" transform="translate(36,101)"/>
<path d="M0 0 C1.32 0.66 2.64 1.32 4 2 C3.34 2 2.68 2 2 2 C2 2.99 2 3.98 2 5 C0.35 5 -1.3 5 -3 5 C-3 4.01 -3 3.02 -3 2 C-2.01 2 -1.02 2 0 2 C0 1.34 0 0.68 0 0 Z " fill="#220E0E" transform="translate(140,81)"/>
<path d="M0 0 C1.65 0 3.3 0 5 0 C5 0.66 5 1.32 5 2 C5.66 2 6.32 2 7 2 C7 2.66 7 3.32 7 4 C5.35 4 3.7 4 2 4 C2 3.34 2 2.68 2 2 C1.34 2 0.68 2 0 2 C0 1.34 0 0.68 0 0 Z " fill="#C09150" transform="translate(140,67)"/>
<path d="M0 0 C1.32 0 2.64 0 4 0 C4 1.65 4 3.3 4 5 C2.68 5 1.36 5 0 5 C0 3.35 0 1.7 0 0 Z " fill="#997958" transform="translate(116,66)"/>
<path d="M0 0 C4.29 0 8.58 0 13 0 C13 0.99 13 1.98 13 3 C8.71 2.34 4.42 1.68 0 1 C0 0.67 0 0.34 0 0 Z " fill="#25170B" transform="translate(120,41)"/>
<path d="M0 0 C1.98 0 3.96 0 6 0 C6.12375 0.804375 6.2475 1.60875 6.375 2.4375 C6.684375 3.7059375 6.684375 3.7059375 7 5 C7.66 5.33 8.32 5.66 9 6 C8.01 6 7.02 6 6 6 C6 5.01 6 4.02 6 3 C5.01 3 4.02 3 3 3 C3 2.34 3 1.68 3 1 C2.01 0.67 1.02 0.34 0 0 Z " fill="#B9BCB2" transform="translate(152,79)"/>
<path d="M0 0 C2.31 0 4.62 0 7 0 C7 0.66 7 1.32 7 2 C6.34 2 5.68 2 5 2 C5 2.66 5 3.32 5 4 C5.66 4.33 6.32 4.66 7 5 C6.01 5 5.02 5 4 5 C4 4.01 4 3.02 4 2 C2.68 2 1.36 2 0 2 C0 1.34 0 0.68 0 0 Z " fill="#CA986B" transform="translate(95,66)"/>
<path d="M0 0 C0.66 0 1.32 0 2 0 C2 0.66 2 1.32 2 2 C3.32 2 4.64 2 6 2 C6 1.34 6 0.68 6 0 C6.99 0 7.98 0 9 0 C9 0.99 9 1.98 9 3 C6.03 3 3.06 3 0 3 C0 2.01 0 1.02 0 0 Z " fill="#493C30" transform="translate(77,61)"/>
<path d="M0 0 C0.33 0 0.66 0 1 0 C1 2.64 1 5.28 1 8 C-0.32 8 -1.64 8 -3 8 C-3.33 8.66 -3.66 9.32 -4 10 C-4.66 8.68 -5.32 7.36 -6 6 C-3.03 6.495 -3.03 6.495 0 7 C0 4.69 0 2.38 0 0 Z " fill="#383235" transform="translate(142,49)"/>
<path d="M0 0 C0.66 0 1.32 0 2 0 C2 0.66 2 1.32 2 2 C2.99 2 3.98 2 5 2 C5 2.99 5 3.98 5 5 C3.35 5 1.7 5 0 5 C0 3.35 0 1.7 0 0 Z " fill="#D0A471" transform="translate(110,28)"/>
<path d="M0 0 C0.66 0 1.32 0 2 0 C1.67 1.32 1.34 2.64 1 4 C1.66 4.33 2.32 4.66 3 5 C0.625 5.1875 0.625 5.1875 -2 5 C-2.66 4.01 -3.32 3.02 -4 2 C-2.68 2 -1.36 2 0 2 C0 1.34 0 0.68 0 0 Z " fill="#2D1C2F" transform="translate(37,111)"/>
<path d="M0 0 C0.33 0.99 0.66 1.98 1 3 C1.66 3 2.32 3 3 3 C3 3.99 3 4.98 3 6 C1.35 6 -0.3 6 -2 6 C-2 5.01 -2 4.02 -2 3 C-1.34 3 -0.68 3 0 3 C0 2.01 0 1.02 0 0 Z " fill="#614B41" transform="translate(163,97)"/>
<path d="M0 0 C1.65 0 3.3 0 5 0 C5 0.99 5 1.98 5 3 C2.36 3 -0.28 3 -3 3 C-2.01 2.67 -1.02 2.34 0 2 C0 1.34 0 0.68 0 0 Z " fill="#1F1712" transform="translate(158,97)"/>
<path d="M0 0 C0.99 0 1.98 0 3 0 C3 0.66 3 1.32 3 2 C4.98 2 6.96 2 9 2 C9 2.66 9 3.32 9 4 C6.03 4 3.06 4 0 4 C0 2.68 0 1.36 0 0 Z " fill="#855D45" transform="translate(64,88)"/>
<path d="M0 0 C0.99 0.66 1.98 1.32 3 2 C2.01 2 1.02 2 0 2 C0 2.66 0 3.32 0 4 C-1.98 4 -3.96 4 -6 4 C-6 3.34 -6 2.68 -6 2 C-3.1875 0.875 -3.1875 0.875 0 0 Z " fill="#CF9E66" transform="translate(73,86)"/>
<path d="M0 0 C2.64 0 5.28 0 8 0 C8 0.66 8 1.32 8 2 C5.36 2.33 2.72 2.66 0 3 C0 2.01 0 1.02 0 0 Z " fill="#E4C88C" transform="translate(85,82)"/>
<path d="M0 0 C1.65 0 3.3 0 5 0 C5 0.66 5 1.32 5 2 C5.99 2.33 6.98 2.66 8 3 C5.36 3 2.72 3 0 3 C0 2.01 0 1.02 0 0 Z " fill="#A98553" transform="translate(45,82)"/>
<path d="M0 0 C1.32 0 2.64 0 4 0 C3.67 1.65 3.34 3.3 3 5 C2.01 5 1.02 5 0 5 C0 3.35 0 1.7 0 0 Z " fill="#947455" transform="translate(127,69)"/>
<path d="M0 0 C2.31 0 4.62 0 7 0 C5.625 1.5 5.625 1.5 4 3 C3.34 3 2.68 3 2 3 C2 3.66 2 4.32 2 5 C1.34 5 0.68 5 0 5 C0 3.35 0 1.7 0 0 Z " fill="#EDC585" transform="translate(69,62)"/>
<path d="M0 0 C1.98 0 3.96 0 6 0 C6 0.66 6 1.32 6 2 C5.01 2 4.02 2 3 2 C3 2.66 3 3.32 3 4 C2.01 4 1.02 4 0 4 C0 2.68 0 1.36 0 0 Z " fill="#140A05" transform="translate(56,42)"/>
<path d="M0 0 C1.32 0.33 2.64 0.66 4 1 C4 2.32 4 3.64 4 5 C2.68 5 1.36 5 0 5 C0 3.35 0 1.7 0 0 Z " fill="#57373B" transform="translate(82,111)"/>
<path d="M0 0 C0.99 0 1.98 0 3 0 C3 0.99 3 1.98 3 3 C-0.63 3 -4.26 3 -8 3 C-8 2.67 -8 2.34 -8 2 C-5.36 2 -2.72 2 0 2 C0 1.34 0 0.68 0 0 Z " fill="#4B323B" transform="translate(134,94)"/>
<path d="M0 0 C0.33 1.32 0.66 2.64 1 4 C1.99 4 2.98 4 4 4 C4.33 4.99 4.66 5.98 5 7 C3.35 7 1.7 7 0 7 C0 4.69 0 2.38 0 0 Z " fill="#413135" transform="translate(63,88)"/>
<path d="M0 0 C-0.99 0.495 -0.99 0.495 -2 1 C-2 1.66 -2 2.32 -2 3 C-3.98 3 -5.96 3 -8 3 C-8 2.34 -8 1.68 -8 1 C-5.07175348 0.02391783 -3.04386724 -0.08226668 0 0 Z " fill="#A1795D" transform="translate(55,90)"/>
<path d="M0 0 C0.33 1.32 0.66 2.64 1 4 C1.66 4 2.32 4 3 4 C3 4.99 3 5.98 3 7 C1.68 7 0.36 7 -1 7 C-0.67 4.69 -0.34 2.38 0 0 Z " fill="#8E7969" transform="translate(34,84)"/>
<path d="M0 0 C0.99 0 1.98 0 3 0 C3 1.65 3 3.3 3 5 C2.01 5.33 1.02 5.66 0 6 C0 4.02 0 2.04 0 0 Z " fill="#54393E" transform="translate(55,85)"/>
<path d="M0 0 C2.875 -0.125 2.875 -0.125 6 0 C6.66 0.66 7.32 1.32 8 2 C4.67465243 3.10844919 2.37817425 2.84454356 -1 2 C-0.67 1.34 -0.34 0.68 0 0 Z " fill="#060003" transform="translate(101,82)"/>
<path d="M0 0 C0.99 0 1.98 0 3 0 C3.33 1.32 3.66 2.64 4 4 C2.02 4 0.04 4 -2 4 C-2 3.34 -2 2.68 -2 2 C-1.34 2 -0.68 2 0 2 C0 1.34 0 0.68 0 0 Z " fill="#604940" transform="translate(107,77)"/>
<path d="M0 0 C1.65 0 3.3 0 5 0 C5.33 0.99 5.66 1.98 6 3 C3 4 3 4 0 3 C0 2.01 0 1.02 0 0 Z " fill="#2C1E21" transform="translate(94,74)"/>
<path d="M0 0 C0.66 1.32 1.32 2.64 2 4 C-1.21451269 5.60725635 -4.43612536 5.05748185 -8 5 C-8 4.67 -8 4.34 -8 4 C-6.02 4 -4.04 4 -2 4 C-2 3.34 -2 2.68 -2 2 C-1.34 2 -0.68 2 0 2 C0 1.34 0 0.68 0 0 Z " fill="#88594C" transform="translate(119,48)"/>
<path d="M0 0 C0.33 0 0.66 0 1 0 C1 1.65 1 3.3 1 5 C0.67 5 0.34 5 0 5 C0 3.35 0 1.7 0 0 Z " fill="#FFFFEE" transform="translate(14,108)"/>
<path d="M0 0 C2 1 2 1 2 1 Z " fill="#FFFFFF" transform="translate(55,122)"/>
<path d="" fill="#FFFFFF" transform="translate(0,0)"/>
<path d="" fill="#FFFFFF" transform="translate(0,0)"/>
<path d="" fill="#FFFFFF" transform="translate(0,0)"/>
<path d="" fill="#FFFFFF" transform="translate(0,0)"/>
<path d="" fill="#FFFFFF" transform="translate(0,0)"/>
<path d="" fill="#FFFFFF" transform="translate(0,0)"/>
<path d="" fill="#FFFFFF" transform="translate(0,0)"/>
<path d="" fill="#FFFFFF" transform="translate(0,0)"/>
<path d="" fill="#FFFFFF" transform="translate(0,0)"/>
<path d="" fill="#FFFFFF" transform="translate(0,0)"/>
<path d="" fill="#FFFFFF" transform="translate(0,0)"/>
<path d="" fill="#FFFFFF" transform="translate(0,0)"/>
<path d="" fill="#FFFFFF" transform="translate(0,0)"/>
<path d="" fill="#FFFFFF" transform="translate(0,0)"/>
<path d="" fill="#000000" transform="translate(0,0)"/>
<path d="" fill="#FFFFFF" transform="translate(0,0)"/>
<path d="" fill="#FFFFFF" transform="translate(0,0)"/>
<path d="" fill="#FFFFFF" transform="translate(0,0)"/>
<path d="" fill="#FFFFFF" transform="translate(0,0)"/>
<path d="" fill="#000000" transform="translate(0,0)"/>
<path d="" fill="#FFFFFF" transform="translate(0,0)"/>
<path d="" fill="#FFFFFF" transform="translate(0,0)"/>
<path d="" fill="#FFFFFF" transform="translate(0,0)"/>
<path d="" fill="#FFFFFF" transform="translate(0,0)"/>
<path d="" fill="#FFFFFF" transform="translate(0,0)"/>
<path d="" fill="#FFFFFF" transform="translate(0,0)"/>
<path d="" fill="#FFFFFF" transform="translate(0,0)"/>
<path d="" fill="#FFFFFF" transform="translate(0,0)"/>
<path d="" fill="#FFFFFF" transform="translate(0,0)"/>
<path d="" fill="#FFFFFF" transform="translate(0,0)"/>
<path d="" fill="#FFFFFF" transform="translate(0,0)"/>
<path d="" fill="#FFFFFF" transform="translate(0,0)"/>
<path d="" fill="#FFFF00" transform="translate(0,0)"/>
<path d="" fill="#000000" transform="translate(0,0)"/>
<path d="" fill="#FFFFFF" transform="translate(0,0)"/>
<path d="" fill="#FFFFFF" transform="translate(0,0)"/>
<path d="" fill="#FFFFFF" transform="translate(0,0)"/>
<path d="" fill="#FFFFFF" transform="translate(0,0)"/>
<path d="" fill="#FFFFFF" transform="translate(0,0)"/>
<path d="" fill="#FFFFDF" transform="translate(0,0)"/>
<path d="" fill="#FFFFFF" transform="translate(0,0)"/>
<path d="" fill="#FFFFFF" transform="translate(0,0)"/>
<path d="" fill="#FFFFFF" transform="translate(0,0)"/>
<path d="" fill="#FFFFFF" transform="translate(0,0)"/>
<path d="" fill="#FFFFFF" transform="translate(0,0)"/>
<path d="" fill="#FFFFFF" transform="translate(0,0)"/>
<path d="" fill="#000000" transform="translate(0,0)"/>
<path d="" fill="#FFFFFF" transform="translate(0,0)"/>
<path d="" fill="#FFFFFF" transform="translate(0,0)"/>
<path d="" fill="#FFFFFF" transform="translate(0,0)"/>
<path d="" fill="#FFFFFF" transform="translate(0,0)"/>
</svg>
