<?xml version="1.0" encoding="UTF-8"?>
<!-- Generator: visioncortex VTracer 0.6.3 -->
<svg version="1.1" xmlns="http://www.w3.org/2000/svg" width="500" height="500">
<path d="M0 0 C1.07 -0 2.14 -0.01 3.24 -0.01 C4.42 -0.01 5.61 -0 6.83 -0 C8.69 -0.01 8.69 -0.01 10.58 -0.01 C14 -0.01 17.41 -0.01 20.83 -0.01 C24.43 -0 28.02 -0.01 31.61 -0.01 C37.67 -0.01 43.73 -0.01 49.79 -0 C56.74 0 63.68 0 70.63 -0.01 C76.62 -0.01 82.61 -0.01 88.61 -0.01 C92.17 -0.01 95.74 -0.01 99.3 -0.01 C116.25 -0.02 133.14 0.26 150.07 1.13 C150.07 4.76 150.07 8.39 150.07 12.13 C154.03 12.13 157.99 12.13 162.07 12.13 C162.4 15.76 162.73 19.39 163.07 23.13 C165.26 23.1 165.26 23.1 167.51 23.06 C169.03 23.04 170.55 23.06 172.07 23.13 C173.07 24.13 173.07 24.13 173.17 26.63 C173.13 29.46 173.1 32.29 173.07 35.13 C176.7 35.13 180.33 35.13 184.07 35.13 C184.07 38.43 184.07 41.73 184.07 45.13 C187.37 45.13 190.67 45.13 194.07 45.13 C194.07 48.76 194.07 52.39 194.07 56.13 C197.7 56.13 201.33 56.13 205.07 56.13 C205.07 59.43 205.07 62.73 205.07 66.13 C208.37 66.13 211.67 66.13 215.07 66.13 C215.07 87.58 215.07 109.03 215.07 131.13 C211.77 131.13 208.47 131.13 205.07 131.13 C205.06 132.12 205.06 133.1 205.06 134.12 C204.95 158.14 204.84 182.16 204.73 206.18 C204.67 217.79 204.62 229.41 204.57 241.02 C204.53 251.14 204.48 261.26 204.43 271.38 C204.4 276.74 204.38 282.1 204.36 287.46 C204.34 292.5 204.32 297.54 204.29 302.58 C204.28 304.44 204.27 306.3 204.26 308.15 C204.26 310.67 204.24 313.2 204.23 315.72 C204.23 316.46 204.22 317.21 204.22 317.97 C204.18 323.01 204.18 323.01 203.07 324.13 C200.1 324.13 197.13 324.13 194.07 324.13 C194.07 334.69 194.07 345.25 194.07 356.13 C190.77 356.13 187.47 356.13 184.07 356.13 C184.07 366.69 184.07 377.25 184.07 388.13 C180.44 388.13 176.81 388.13 173.07 388.13 C173.07 367.01 173.07 345.89 173.07 324.13 C169.44 324.13 165.81 324.13 162.07 324.13 C162.07 331.06 162.07 337.99 162.07 345.13 C158.44 345.13 154.81 345.13 151.07 345.13 C151.07 352.06 151.07 358.99 151.07 366.13 C147.44 366.13 143.81 366.13 140.07 366.13 C140.1 368.32 140.1 368.32 140.13 370.56 C140.15 372.09 140.14 373.61 140.07 375.13 C139.74 375.46 139.41 375.79 139.07 376.13 C135.77 376.13 132.47 376.13 129.07 376.13 C129.07 382.73 129.07 389.33 129.07 396.13 C125.77 396.13 122.47 396.13 119.07 396.13 C119.07 398.77 119.07 401.41 119.07 404.13 C106.18 405.02 93.41 405.2 80.5 405.01 C78.6 404.98 76.69 404.96 74.79 404.93 C69.85 404.87 64.91 404.8 59.97 404.73 C54.9 404.66 49.83 404.6 44.76 404.53 C34.86 404.4 24.97 404.27 15.07 404.13 C14.57 400.66 14.57 400.66 14.07 397.13 C10.77 396.8 7.47 396.47 4.07 396.13 C4.07 389.53 4.07 382.93 4.07 376.13 C1.1 376.13 -1.87 376.13 -4.93 376.13 C-6.54 372.91 -5.99 369.69 -5.93 366.13 C-9.56 366.13 -13.19 366.13 -16.93 366.13 C-16.93 359.2 -16.93 352.27 -16.93 345.13 C-20.56 344.8 -24.19 344.47 -27.93 344.13 C-27.93 337.53 -27.93 330.93 -27.93 324.13 C-30.62 324.16 -30.62 324.16 -33.37 324.19 C-35.22 324.21 -37.08 324.2 -38.93 324.13 C-40.83 322.23 -40.06 319.46 -40.07 316.94 C-40.07 316.07 -40.07 315.21 -40.06 314.31 C-40.07 313.43 -40.07 312.55 -40.07 311.64 C-40.07 309.76 -40.07 307.89 -40.06 306.02 C-40.06 303.14 -40.06 300.26 -40.07 297.38 C-40.07 295.57 -40.07 293.75 -40.06 291.94 C-40.07 291.07 -40.07 290.21 -40.07 289.31 C-40.05 283.24 -40.05 283.24 -38.93 282.13 C-37.25 281.89 -35.56 281.71 -33.87 281.56 C-32.49 281.44 -32.49 281.44 -31.08 281.31 C-30.37 281.25 -29.66 281.19 -28.93 281.13 C-28.6 278.16 -28.27 275.19 -27.93 272.13 C-34.86 272.13 -41.79 272.13 -48.93 272.13 C-48.96 268.31 -48.98 264.5 -48.99 260.69 C-49 259.6 -49.01 258.51 -49.02 257.39 C-49.02 256.36 -49.03 255.32 -49.03 254.26 C-49.03 253.3 -49.04 252.34 -49.05 251.35 C-48.93 249.13 -48.93 249.13 -47.93 248.13 C-45.29 248.13 -42.65 248.13 -39.93 248.13 C-39.93 237.24 -39.93 226.35 -39.93 215.13 C-36.3 214.8 -32.67 214.47 -28.93 214.13 C-28.6 211.16 -28.27 208.19 -27.93 205.13 C-32.88 205.13 -37.83 205.13 -42.93 205.13 C-43.74 200.3 -44.07 196.16 -44.06 191.31 C-44.06 190.63 -44.06 189.95 -44.07 189.25 C-44.06 184.25 -44.06 184.25 -42.93 183.13 C-40.4 183.05 -37.9 183.03 -35.37 183.06 C-32.92 183.09 -30.46 183.11 -27.93 183.13 C-27.93 176.2 -27.93 169.27 -27.93 162.13 C-24.3 162.13 -20.67 162.13 -16.93 162.13 C-16.93 158.5 -16.93 154.87 -16.93 151.13 C-13.3 151.13 -9.67 151.13 -5.93 151.13 C-5.93 149.48 -5.93 147.83 -5.93 146.13 C-2.16 143.8 -0.92 144.13 4.07 144.13 C4.07 135.88 4.07 127.63 4.07 119.13 C7.7 119.13 11.33 119.13 15.07 119.13 C15.07 115.5 15.07 111.87 15.07 108.13 C16.72 108.13 18.37 108.13 20.07 108.13 C20.07 84.37 20.07 60.61 20.07 36.13 C11.82 36.13 3.57 36.13 -4.93 36.13 C-5.26 35.14 -5.59 34.15 -5.93 33.13 C-6.59 33.13 -7.25 33.13 -7.93 33.13 C-7.93 32.47 -7.93 31.81 -7.93 31.13 C-8.59 31.13 -9.25 31.13 -9.93 31.13 C-11.56 29.75 -11.56 29.75 -12.93 28.13 C-12.93 27.47 -12.93 26.81 -12.93 26.13 C-13.59 26.13 -14.25 26.13 -14.93 26.13 C-14.93 25.47 -14.93 24.81 -14.93 24.13 C-15.59 24.13 -16.25 24.13 -16.93 24.13 C-16.93 20.17 -16.93 16.21 -16.93 12.13 C-13.3 12.13 -9.67 12.13 -5.93 12.13 C-5.95 10.33 -5.97 8.54 -5.99 6.69 C-6.02 4.84 -6 2.98 -5.93 1.13 C-4.27 -0.54 -2.29 0 0 0 Z M173.07 67.13 C173.07 80.66 173.07 94.19 173.07 108.13 C176.7 108.13 180.33 108.13 184.07 108.13 C184.07 115.39 184.07 122.65 184.07 130.13 C187.37 130.13 190.67 130.13 194.07 130.13 C194.07 112.97 194.07 95.81 194.07 78.13 C190.77 78.13 187.47 78.13 184.07 78.13 C184.07 74.5 184.07 70.87 184.07 67.13 C180.44 67.13 176.81 67.13 173.07 67.13 Z M119.07 109.13 C119.07 112.43 119.07 115.73 119.07 119.13 C122.37 119.13 125.67 119.13 129.07 119.13 C129.07 127.71 129.07 136.29 129.07 145.13 C136 145.13 142.93 145.13 150.07 145.13 C150.4 147.11 150.73 149.09 151.07 151.13 C158.33 151.13 165.59 151.13 173.07 151.13 C173.07 144.53 173.07 137.93 173.07 131.13 C169.11 131.13 165.15 131.13 161.07 131.13 C161.07 123.87 161.07 116.61 161.07 109.13 C147.21 109.13 133.35 109.13 119.07 109.13 Z M173.07 163.13 C173.07 166.43 173.07 169.73 173.07 173.13 C169.44 173.13 165.81 173.13 162.07 173.13 C162.07 176.43 162.07 179.73 162.07 183.13 C167.02 183.13 171.97 183.13 177.07 183.13 C177.07 190.39 177.07 197.65 177.07 205.13 C172.12 205.13 167.17 205.13 162.07 205.13 C162.07 208.43 162.07 211.73 162.07 215.13 C165.7 215.13 169.33 215.13 173.07 215.13 C173.07 226.02 173.07 236.91 173.07 248.13 C176.37 248.13 179.67 248.13 183.07 248.13 C183.07 256.05 183.07 263.97 183.07 272.13 C176.14 272.13 169.21 272.13 162.07 272.13 C162.07 275.43 162.07 278.73 162.07 282.13 C166.03 282.13 169.99 282.13 174.07 282.13 C173.74 295.33 173.41 308.53 173.07 322.13 C176.7 322.13 180.33 322.13 184.07 322.13 C185.28 307.12 185.22 292.12 185.2 277.08 C185.2 273.46 185.2 269.83 185.2 266.21 C185.21 260.14 185.2 254.07 185.2 248 C185.19 241 185.19 234.01 185.2 227.02 C185.2 220.97 185.21 214.93 185.2 208.89 C185.2 205.3 185.2 201.7 185.2 198.11 C185.21 194.11 185.2 190.11 185.2 186.11 C185.2 184.94 185.2 183.77 185.2 182.56 C185.19 176.01 184.83 169.63 184.07 163.13 C180.44 163.13 176.81 163.13 173.07 163.13 Z " fill="#2E4F1E" transform="translate(199.93202209472656,72.87301635742188)"/>
<path d="M0 0 C0.99 0 1.98 0 3 0 C3.25 0.95 3.5 1.9 3.75 2.88 C4.78 6.44 4.78 6.44 9 8 C9 15.59 9 23.18 9 31 C19.23 31 29.46 31 40 31 C40 27.7 40 24.4 40 21 C43.63 21 47.26 21 51 21 C51 17.37 51 13.74 51 10 C47.7 10 44.4 10 41 10 C41 6.7 41 3.4 41 0 C51.56 0 62.12 0 73 0 C73 2.97 73 5.94 73 9 C69.7 9 66.4 9 63 9 C63 12.63 63 16.26 63 20 C67.95 20 72.9 20 78 20 C78 27.26 78 34.52 78 42 C73.05 42 68.1 42 63 42 C63 45.3 63 48.6 63 52 C66.63 52 70.26 52 74 52 C74 62.89 74 73.78 74 85 C77.3 85 80.6 85 84 85 C84 92.92 84 100.84 84 109 C77.07 109 70.14 109 63 109 C63 112.3 63 115.6 63 119 C66.96 119 70.92 119 75 119 C75.02 122.91 75.04 126.82 75.05 130.73 C75.06 132.7 75.08 134.67 75.09 136.64 C75.11 144.49 74.77 152.18 74 160 C80.6 160 87.2 160 94 160 C94 170.56 94 181.12 94 192 C90.7 192 87.4 192 84 192 C84 202.56 84 213.12 84 224 C80.7 224 77.4 224 74 224 C74 203.21 74 182.42 74 161 C70.37 161 66.74 161 63 161 C63 167.93 63 174.86 63 182 C59.37 182 55.74 182 52 182 C52 188.93 52 195.86 52 203 C48.37 203 44.74 203 41 203 C41.03 205.2 41.03 205.2 41.06 207.44 C41.08 208.96 41.07 210.48 41 212 C40.67 212.33 40.34 212.66 40 213 C36.7 213 33.4 213 30 213 C30 219.6 30 226.2 30 233 C26.7 233 23.4 233 20 233 C20 235.64 20 238.28 20 241 C7.11 241.89 -5.66 242.08 -18.57 241.88 C-20.47 241.85 -22.38 241.83 -24.28 241.81 C-29.22 241.75 -34.16 241.68 -39.1 241.61 C-44.17 241.53 -49.24 241.47 -54.31 241.4 C-64.21 241.28 -74.1 241.14 -84 241 C-84.5 237.53 -84.5 237.53 -85 234 C-88.3 233.67 -91.6 233.34 -95 233 C-95 226.4 -95 219.8 -95 213 C-97.97 213 -100.94 213 -104 213 C-105.61 209.79 -105.06 206.56 -105 203 C-108.63 203 -112.26 203 -116 203 C-116 196.07 -116 189.14 -116 182 C-119.3 181.67 -122.6 181.34 -126 181 C-126 174.07 -126 167.14 -126 160 C-115.77 160 -105.54 160 -95 160 C-95 146.47 -95 132.94 -95 119 C-94.01 119 -93.02 119 -92 119 C-92 118.34 -92 117.68 -92 117 C-91.34 117 -90.68 117 -90 117 C-90 116.01 -90 115.02 -90 114 C-89.01 114 -88.02 114 -87 114 C-87 113.01 -87 112.02 -87 111 C-86.01 111 -85.02 111 -84 111 C-84 110.01 -84 109.02 -84 108 C-104.79 108 -125.58 108 -147 108 C-147 105.03 -147 102.06 -147 99 C-126.21 99 -105.42 99 -84 99 C-84.37 78.91 -84.37 78.91 -84.75 58.82 C-84.79 56.3 -84.84 53.77 -84.88 51.25 C-84.91 49.94 -84.93 48.64 -84.96 47.3 C-84.98 46.04 -85 44.78 -85.02 43.49 C-85.04 42.4 -85.06 41.31 -85.08 40.2 C-85 37 -85 37 -84 30 C-56.28 30 -28.56 30 0 30 C0 20.1 0 10.2 0 0 Z " fill="#0E2E05" transform="translate(299,236)"/>
<path d="M0 0 C7.26 0 14.52 0 22 0 C22 3.63 22 7.26 22 11 C25.96 11 29.92 11 34 11 C34.5 16.44 34.5 16.44 35 22 C37.2 21.97 37.2 21.97 39.44 21.94 C40.96 21.92 42.48 21.93 44 22 C45 23 45 23 45.1 25.5 C45.07 28.34 45.03 31.17 45 34 C48.63 34 52.26 34 56 34 C56 37.3 56 40.6 56 44 C59.3 44 62.6 44 66 44 C66 47.63 66 51.26 66 55 C69.63 55 73.26 55 77 55 C77 58.3 77 61.6 77 65 C80.3 65 83.6 65 87 65 C87 86.45 87 107.9 87 130 C83.7 130 80.4 130 77 130 C77.01 131.5 77.02 133.01 77.04 134.56 C77.04 136.52 77.05 138.48 77.06 140.44 C77.07 141.43 77.08 142.42 77.09 143.45 C77.09 144.39 77.09 145.34 77.1 146.31 C77.1 147.18 77.11 148.06 77.11 148.96 C77 151 77 151 76 152 C75.9 154.02 75.86 156.04 75.86 158.06 C75.85 159.38 75.84 160.7 75.83 162.06 C75.83 163.54 75.83 165.01 75.83 166.49 C75.82 168.03 75.81 169.58 75.81 171.12 C75.79 174.46 75.78 177.79 75.77 181.12 C75.75 186.4 75.73 191.67 75.71 196.94 C75.63 211.95 75.57 226.95 75.52 241.95 C75.49 250.22 75.46 258.5 75.42 266.78 C75.39 272.02 75.37 277.26 75.36 282.5 C75.35 285.77 75.33 289.03 75.31 292.3 C75.31 293.81 75.3 295.32 75.3 296.83 C75.3 304.13 75.26 310.99 73 318 C71.35 318 69.7 318 68 318 C68.33 316.35 68.66 314.7 69 313 C68.01 312.34 67.02 311.68 66 311 C65.31 309.34 64.64 307.68 64 306 C63.34 305.67 62.68 305.34 62 305 C62 301.04 62 297.08 62 293 C61.34 293 60.68 293 60 293 C59.67 295.97 59.34 298.94 59 302 C58.67 302 58.34 302 58 302 C58 258.77 58 215.54 58 171 C58.99 170.67 59.98 170.34 61 170 C61.33 169.34 61.66 168.68 62 168 C61.34 168 60.68 168 60 168 C59.67 168.66 59.34 169.32 59 170 C58.34 168.02 57.68 166.04 57 164 C59.97 164 62.94 164 66 164 C66 163.01 66 162.02 66 161 C59.07 161 52.14 161 45 161 C45 157.7 45 154.4 45 151 C48.63 151 52.26 151 56 151 C56 147.37 56 143.74 56 140 C59.3 140 62.6 140 66 140 C66 119.21 66 98.42 66 77 C62.7 77 59.4 77 56 77 C56 73.37 56 69.74 56 66 C52.04 66 48.08 66 44 66 C44 74.25 44 82.5 44 91 C40.7 91 37.4 91 34 91 C34 86.38 34 81.76 34 77 C32.68 77 31.36 77 30 77 C29.67 75.68 29.34 74.36 29 73 C28.34 73 27.68 73 27 73 C27 72.34 27 71.68 27 71 C25.35 70.67 23.7 70.34 22 70 C22 65.05 22 60.1 22 55 C15.07 55 8.14 55 1 55 C1 58.63 1 62.26 1 66 C-2.3 66 -5.6 66 -9 66 C-9 69.63 -9 73.26 -9 77 C-12.63 77 -16.26 77 -20 77 C-20 83.93 -20 90.86 -20 98 C-2.18 98 15.64 98 34 98 C34 100.97 34 103.94 34 107 C19.81 107.33 5.62 107.66 -9 108 C-9.33 111.63 -9.66 115.26 -10 119 C-6.7 119 -3.4 119 0 119 C0 125.93 0 132.86 0 140 C-0.66 140.33 -1.32 140.66 -2 141 C-1.67 141.33 -1.34 141.66 -1 142 C-0.54 144.99 -0.3 147.99 0 151 C-2.97 151 -5.94 151 -9 151 C-9 154.3 -9 157.6 -9 161 C-12.63 161 -16.26 161 -20 161 C-20 157.7 -20 154.4 -20 151 C-26.6 151 -33.2 151 -40 151 C-40.33 144.07 -40.66 137.14 -41 130 C-43.97 129.67 -46.94 129.34 -50 129 C-50 122.07 -50 115.14 -50 108 C-46.7 108 -43.4 108 -40 108 C-40 97.77 -40 87.54 -40 77 C-36.7 77 -33.4 77 -30 77 C-30 73.37 -30 69.74 -30 66 C-26.7 66 -23.4 66 -20 66 C-20 59.07 -20 52.14 -20 45 C-23.3 45 -26.6 45 -30 45 C-30 48.3 -30 51.6 -30 55 C-33.3 55 -36.6 55 -40 55 C-40 58.63 -40 62.26 -40 66 C-43.3 66 -46.6 66 -50 66 C-50 69.63 -50 73.26 -50 77 C-53.63 77 -57.26 77 -61 77 C-61 59.18 -61 41.36 -61 23 C-50.77 23 -40.54 23 -30 23 C-30 26.96 -30 30.92 -30 35 C-26.7 35 -23.4 35 -20 35 C-20 37.97 -20 40.94 -20 44 C-16.37 44 -12.74 44 -9 44 C-9 39.38 -9 34.76 -9 30 C-8.67 30 -8.34 30 -8 30 C-8 34.29 -8 38.58 -8 43 C-6.02 43 -4.04 43 -2 43 C-2.04 41.74 -2.08 40.48 -2.12 39.19 C-2.24 35.71 -2.06 35.09 0 32 C2.06 31.66 2.06 31.66 4.57 31.71 C5.47 31.72 6.36 31.73 7.29 31.74 C8.69 31.77 8.69 31.77 10.12 31.81 C11.54 31.83 11.54 31.83 12.99 31.85 C15.33 31.89 17.66 31.94 20 32 C20 29.03 20 26.06 20 23 C17.03 23 14.06 23 11 23 C11 20.69 11 18.38 11 16 C10.34 16 9.68 16 9 16 C9 14.35 9 12.7 9 11 C8.34 11 7.68 11 7 11 C6.5 10.01 6.5 10.01 6 9 C3.98 8.35 3.98 8.35 2 8 C2 6.68 2 5.36 2 4 C1.34 4 0.68 4 0 4 C0 2.68 0 1.36 0 0 Z " fill="#3C3741" transform="translate(328,74)"/>
<path d="M0 0 C3.3 0 6.6 0 10 0 C10 7.92 10 15.84 10 24 C3.07 24 -3.86 24 -11 24 C-11 27.3 -11 30.6 -11 34 C-7.04 34 -3.08 34 1 34 C1.02 37.91 1.04 41.82 1.05 45.73 C1.06 47.7 1.08 49.67 1.09 51.64 C1.11 59.49 0.77 67.18 0 75 C6.6 75 13.2 75 20 75 C20 85.56 20 96.12 20 107 C16.7 107 13.4 107 10 107 C10 117.56 10 128.12 10 139 C6.7 139 3.4 139 0 139 C0 118.21 0 97.42 0 76 C-3.63 76 -7.26 76 -11 76 C-11 82.93 -11 89.86 -11 97 C-14.63 97 -18.26 97 -22 97 C-22 103.93 -22 110.86 -22 118 C-25.63 118 -29.26 118 -33 118 C-33 120.97 -33 123.94 -33 127 C-36.96 127 -40.92 127 -45 127 C-45.33 132.61 -45.66 138.22 -46 144 C-53 147 -53 147 -55 147 C-55 149.64 -55 152.28 -55 155 C-79.75 155 -104.5 155 -130 155 C-130 150.05 -130 145.1 -130 140 C-124.38 137.75 -124.38 137.75 -120.36 137.8 C-119.09 137.81 -119.09 137.81 -117.81 137.82 C-116.51 137.85 -116.51 137.85 -115.19 137.88 C-114.3 137.88 -113.42 137.89 -112.51 137.9 C-110.34 137.93 -108.17 137.96 -106 138 C-106 134.7 -106 131.4 -106 128 C-102.37 128 -98.74 128 -95 128 C-95 124.7 -95 121.4 -95 118 C-91.7 118 -88.4 118 -85 118 C-85 114.37 -85 110.74 -85 107 C-84.34 107 -83.68 107 -83 107 C-82.34 105.35 -81.68 103.7 -81 102 C-80.01 102 -79.02 102 -78 102 C-77.5 100.51 -77.5 100.51 -77 99 C-76.34 99 -75.68 99 -75 99 C-75 98.01 -75 97.02 -75 96 C-96.12 96 -117.24 96 -139 96 C-139 95.67 -139 95.34 -139 95 C-134.05 94.5 -134.05 94.5 -129 94 C-129 92.68 -129 91.36 -129 90 C-126.3 88.65 -123.88 88.66 -120.88 88.44 C-119.78 88.35 -118.68 88.27 -117.55 88.18 C-116.71 88.12 -115.87 88.06 -115 88 C-115.5 87.01 -115.5 87.01 -116 86 C-102.47 86 -88.94 86 -75 86 C-75 68.84 -75 51.68 -75 34 C-74.34 34 -73.68 34 -73 34 C-73 33.34 -73 32.68 -73 32 C-72.34 32 -71.68 32 -71 32 C-71 31.34 -71 30.68 -71 30 C-70.34 30 -69.68 30 -69 30 C-69 29.34 -69 28.68 -69 28 C-68.34 28 -67.68 28 -67 28 C-67 27.34 -67 26.68 -67 26 C-66.34 26 -65.68 26 -65 26 C-64.67 25.34 -64.34 24.68 -64 24 C-59.36 23.09 -54.86 22.88 -50.15 22.89 C-49.5 22.89 -48.86 22.89 -48.19 22.89 C-46.09 22.89 -43.98 22.89 -41.88 22.9 C-40.41 22.9 -38.94 22.91 -37.47 22.91 C-33.62 22.91 -29.77 22.92 -25.92 22.93 C-21.99 22.94 -18.05 22.95 -14.12 22.95 C-6.41 22.96 1.29 22.98 9 23 C9 15.74 9 8.48 9 1 C6.03 1 3.06 1 0 1 C0 0.67 0 0.34 0 0 Z " fill="#062202" transform="translate(373,321)"/>
<path d="M0 0 C1.65 -0 1.65 -0 3.34 -0.01 C4.55 -0.01 5.77 -0 7.03 -0 C8.94 -0.01 8.94 -0.01 10.89 -0.01 C14.4 -0.01 17.9 -0.01 21.41 -0.01 C25.07 -0 28.73 -0.01 32.4 -0.01 C38.55 -0.01 44.7 -0.01 50.85 -0 C57.98 0 65.1 0 72.22 -0.01 C78.32 -0.01 84.42 -0.01 90.53 -0.01 C94.18 -0.01 97.83 -0.01 101.48 -0.01 C105.55 -0.01 109.62 -0.01 113.68 -0 C114.9 -0 116.12 -0.01 117.37 -0.01 C118.47 -0.01 119.58 -0 120.71 0 C121.68 0 122.64 0 123.63 0 C125.92 0.13 125.92 0.13 127.92 1.13 C127.92 2.45 127.92 3.77 127.92 5.13 C128.58 5.13 129.24 5.13 129.92 5.13 C129.92 6.45 129.92 7.77 129.92 9.13 C131.57 9.46 133.22 9.79 134.92 10.13 C134.92 10.79 134.92 11.45 134.92 12.13 C135.58 12.13 136.24 12.13 136.92 12.13 C136.92 13.78 136.92 15.43 136.92 17.13 C137.58 17.13 138.24 17.13 138.92 17.13 C138.92 19.44 138.92 21.75 138.92 24.13 C141.89 24.13 144.86 24.13 147.92 24.13 C147.92 27.1 147.92 30.07 147.92 33.13 C141.32 33.13 134.72 33.13 127.92 33.13 C127.26 36.76 126.6 40.39 125.92 44.13 C124.95 44.11 123.98 44.09 122.98 44.06 C120.05 43.77 120.05 43.77 118.92 45.13 C117.07 45.2 115.21 45.21 113.36 45.19 C112.35 45.18 111.33 45.17 110.29 45.16 C109.51 45.15 108.73 45.14 107.92 45.13 C107.92 42.16 107.92 39.19 107.92 36.13 C104.62 36.13 101.32 36.13 97.92 36.13 C97.92 32.17 97.92 28.21 97.92 24.13 C87.69 24.13 77.46 24.13 66.92 24.13 C66.92 41.95 66.92 59.77 66.92 78.13 C70.55 78.13 74.18 78.13 77.92 78.13 C77.92 74.5 77.92 70.87 77.92 67.13 C81.22 67.13 84.52 67.13 87.92 67.13 C87.92 63.5 87.92 59.87 87.92 56.13 C91.22 56.13 94.52 56.13 97.92 56.13 C97.92 52.83 97.92 49.53 97.92 46.13 C101.22 46.13 104.52 46.13 107.92 46.13 C107.92 53.06 107.92 59.99 107.92 67.13 C104.62 67.13 101.32 67.13 97.92 67.13 C97.92 70.76 97.92 74.39 97.92 78.13 C94.62 78.13 91.32 78.13 87.92 78.13 C87.92 81.43 87.92 84.73 87.92 88.13 C69.44 88.13 50.96 88.13 31.92 88.13 C31.92 70.64 31.92 53.15 31.92 35.13 C28.29 35.13 24.66 35.13 20.92 35.13 C20.92 59.55 20.92 83.97 20.92 109.13 C27.52 109.13 34.12 109.13 40.92 109.13 C40.92 110.12 40.92 111.11 40.92 112.13 C40.26 112.13 39.6 112.13 38.92 112.13 C38.92 113.12 38.92 114.11 38.92 115.13 C37.93 115.13 36.94 115.13 35.92 115.13 C35.92 115.79 35.92 116.45 35.92 117.13 C35.26 117.13 34.6 117.13 33.92 117.13 C33.92 117.79 33.92 118.45 33.92 119.13 C33.26 119.13 32.6 119.13 31.92 119.13 C31.92 120.45 31.92 121.77 31.92 123.13 C31.3 123.21 30.68 123.29 30.04 123.38 C27.76 123.93 27.76 123.93 26.73 126.06 C26.46 126.75 26.2 127.43 25.92 128.13 C25.59 128.79 25.26 129.45 24.92 130.13 C23.93 130.13 22.94 130.13 21.92 130.13 C21.92 137.06 21.92 143.99 21.92 151.13 C9.38 151.46 -3.16 151.79 -16.08 152.13 C-16.08 155.43 -16.08 158.73 -16.08 162.13 C-9.15 162.13 -2.22 162.13 4.92 162.13 C4.94 165.57 4.96 169.02 4.98 172.56 C4.99 173.65 5 174.74 5.01 175.86 C5.01 176.71 5.02 177.56 5.02 178.44 C5.02 179.31 5.03 180.18 5.03 181.09 C4.92 183.13 4.92 183.13 3.92 184.13 C2.45 184.22 0.97 184.24 -0.51 184.24 C-1.45 184.24 -2.39 184.24 -3.36 184.24 C-4.38 184.24 -5.41 184.23 -6.46 184.22 C-8.02 184.22 -8.02 184.22 -9.62 184.22 C-12.96 184.21 -16.3 184.2 -19.64 184.19 C-21.9 184.18 -24.16 184.18 -26.42 184.18 C-31.97 184.16 -37.53 184.15 -43.08 184.13 C-43.08 183.8 -43.08 183.47 -43.08 183.13 C-38.13 183.13 -33.18 183.13 -28.08 183.13 C-28.08 176.2 -28.08 169.27 -28.08 162.13 C-24.45 162.13 -20.82 162.13 -17.08 162.13 C-17.08 158.5 -17.08 154.87 -17.08 151.13 C-13.45 151.13 -9.82 151.13 -6.08 151.13 C-6.08 149.48 -6.08 147.83 -6.08 146.13 C-2.31 143.8 -1.07 144.13 3.92 144.13 C3.92 135.88 3.92 127.63 3.92 119.13 C7.55 119.13 11.18 119.13 14.92 119.13 C14.92 115.5 14.92 111.87 14.92 108.13 C16.57 108.13 18.22 108.13 19.92 108.13 C19.92 84.37 19.92 60.61 19.92 36.13 C11.67 36.13 3.42 36.13 -5.08 36.13 C-5.41 35.14 -5.74 34.15 -6.08 33.13 C-6.74 33.13 -7.4 33.13 -8.08 33.13 C-8.08 32.47 -8.08 31.81 -8.08 31.13 C-8.74 31.13 -9.4 31.13 -10.08 31.13 C-11.71 29.75 -11.71 29.75 -13.08 28.13 C-13.08 27.47 -13.08 26.81 -13.08 26.13 C-13.74 26.13 -14.4 26.13 -15.08 26.13 C-15.08 25.47 -15.08 24.81 -15.08 24.13 C-15.74 24.13 -16.4 24.13 -17.08 24.13 C-17.08 20.17 -17.08 16.21 -17.08 12.13 C-13.45 12.13 -9.82 12.13 -6.08 12.13 C-6.1 10.33 -6.12 8.54 -6.14 6.69 C-6.16 4.84 -6.15 2.98 -6.08 1.13 C-4.4 -0.56 -2.31 0 0 0 Z " fill="#5B8043" transform="translate(200.08006286621094,72.87301635742188)"/>
<path d="M0 0 C0.78 0 1.56 0.01 2.37 0.01 C3.19 0.01 4.01 0.01 4.85 0.01 C7.57 0.01 10.3 0.02 13.02 0.03 C14.9 0.03 16.78 0.03 18.66 0.03 C23.63 0.03 28.59 0.04 33.55 0.06 C38.61 0.07 43.67 0.07 48.73 0.08 C58.67 0.09 68.61 0.1 78.54 0.12 C78.54 1.11 78.54 2.1 78.54 3.12 C77.88 3.12 77.22 3.12 76.54 3.12 C76.54 3.78 76.54 4.44 76.54 5.12 C75.88 5.12 75.22 5.12 74.54 5.12 C74.54 5.78 74.54 6.44 74.54 7.12 C73.88 7.12 73.22 7.12 72.54 7.12 C72.54 7.78 72.54 8.44 72.54 9.12 C71.88 9.12 71.22 9.12 70.54 9.12 C70.54 9.78 70.54 10.44 70.54 11.12 C69.88 11.12 69.22 11.12 68.54 11.12 C68.54 28.28 68.54 45.44 68.54 63.12 C43.79 63.12 19.04 63.12 -6.46 63.12 C-6.48 52.92 -6.5 42.71 -6.52 32.19 C-6.53 28.96 -6.54 25.73 -6.55 22.41 C-6.55 19.87 -6.55 17.33 -6.55 14.78 C-6.56 14.12 -6.56 13.46 -6.56 12.77 C-6.57 10.82 -6.57 8.88 -6.57 6.93 C-6.57 5.83 -6.57 4.73 -6.58 3.6 C-6.35 -0.99 -4.02 0.01 0 0 Z " fill="#234A11" transform="translate(229.45516967773438,343.8755798339844)"/>
<path d="M0 0 C17.82 0 35.64 0 54 0 C54 3.3 54 6.6 54 10 C57.63 10 61.26 10 65 10 C65 13.3 65 16.6 65 20 C61.37 20.33 57.74 20.66 54 21 C53.67 29.25 53.34 37.5 53 46 C49.7 46 46.4 46 43 46 C43 41.38 43 36.76 43 32 C41.68 32 40.36 32 39 32 C38.5 30.02 38.5 30.02 38 28 C37.34 28 36.68 28 36 28 C36 27.34 36 26.68 36 26 C34.35 25.67 32.7 25.34 31 25 C31 20.05 31 15.1 31 10 C24.07 10 17.14 10 10 10 C10 13.63 10 17.26 10 21 C6.7 21 3.4 21 0 21 C0 24.63 0 28.26 0 32 C-3.63 32 -7.26 32 -11 32 C-11 38.93 -11 45.86 -11 53 C6.82 53 24.64 53 43 53 C43 55.97 43 58.94 43 62 C28.81 62.33 14.62 62.66 0 63 C-0.33 66.63 -0.66 70.26 -1 74 C2.3 74 5.6 74 9 74 C9 80.93 9 87.86 9 95 C8.01 95.5 8.01 95.5 7 96 C7.33 96.33 7.66 96.66 8 97 C8.46 99.99 8.7 102.99 9 106 C6.03 106 3.06 106 0 106 C0 109.3 0 112.6 0 116 C-3.63 116 -7.26 116 -11 116 C-11 112.7 -11 109.4 -11 106 C-17.6 106 -24.2 106 -31 106 C-31.5 95.6 -31.5 95.6 -32 85 C-34.97 84.67 -37.94 84.34 -41 84 C-41 77.07 -41 70.14 -41 63 C-37.7 63 -34.4 63 -31 63 C-31 52.77 -31 42.54 -31 32 C-27.7 32 -24.4 32 -21 32 C-21 28.37 -21 24.74 -21 21 C-17.7 21 -14.4 21 -11 21 C-11 17.37 -11 13.74 -11 10 C-7.37 10 -3.74 10 0 10 C0 6.7 0 3.4 0 0 Z " fill="#252026" transform="translate(319,119)"/>
<path d="M0 0 C39.6 0 79.2 0 120 0 C120 3 120 3 118.69 4.69 C117 6 117 6 114 6 C113.34 7.65 112.68 9.3 112 11 C111.34 11 110.68 11 110 11 C110 14.63 110 18.26 110 22 C106.7 22 103.4 22 100 22 C100 25.3 100 28.6 100 32 C96.37 32 92.74 32 89 32 C89 35.3 89 38.6 89 42 C87.03 42.09 87.03 42.09 85.02 42.18 C83.28 42.27 81.55 42.35 79.81 42.44 C78.95 42.48 78.08 42.52 77.19 42.56 C76.35 42.6 75.51 42.64 74.64 42.68 C73.87 42.72 73.1 42.76 72.31 42.79 C69.85 43.01 67.42 43.52 65 44 C65.5 50.93 65.5 50.93 66 58 C102.63 58.5 102.63 58.5 140 59 C140 56.36 140 53.72 140 51 C142.98 49.76 145.86 48.74 149 48 C148.99 47.19 148.98 46.38 148.96 45.55 C148.96 44.48 148.95 43.41 148.94 42.31 C148.93 41.26 148.91 40.2 148.9 39.11 C149 36 149 36 150 31 C153.63 31 157.26 31 161 31 C161 31.33 161 31.66 161 32 C157.7 32 154.4 32 151 32 C151 38.6 151 45.2 151 52 C147.7 52 144.4 52 141 52 C141 54.64 141 57.28 141 60 C128.11 60.89 115.34 61.08 102.43 60.88 C100.53 60.85 98.62 60.83 96.72 60.81 C91.78 60.75 86.84 60.68 81.9 60.61 C76.83 60.53 71.76 60.47 66.69 60.4 C56.79 60.28 46.9 60.14 37 60 C36.5 56.53 36.5 56.53 36 53 C32.7 52.67 29.4 52.34 26 52 C26 45.4 26 38.8 26 32 C23.03 32 20.06 32 17 32 C15.39 28.79 15.94 25.56 16 22 C12.37 22 8.74 22 5 22 C5 15.07 5 8.14 5 1 C3.35 1 1.7 1 0 1 C0 0.67 0 0.34 0 0 Z " fill="#204510" transform="translate(178,417)"/>
<path d="M0 0 C32.01 0 64.02 0 97 0 C97 10.56 97 21.12 97 32 C93.7 32 90.4 32 87 32 C87 29.03 87 26.06 87 23 C83.7 23 80.4 23 77 23 C77 19.04 77 15.08 77 11 C66.77 11 56.54 11 46 11 C46 28.82 46 46.64 46 65 C49.63 65 53.26 65 57 65 C57 61.37 57 57.74 57 54 C60.3 54 63.6 54 67 54 C67 50.37 67 46.74 67 43 C70.3 43 73.6 43 77 43 C77 39.7 77 36.4 77 33 C80.3 33 83.6 33 87 33 C87 39.93 87 46.86 87 54 C83.7 54 80.4 54 77 54 C77 57.63 77 61.26 77 65 C73.7 65 70.4 65 67 65 C67 68.3 67 71.6 67 75 C48.52 75 30.04 75 11 75 C11 57.51 11 40.02 11 22 C7.37 22 3.74 22 0 22 C0 14.74 0 7.48 0 0 Z " fill="#7B7C8B" transform="translate(221,86)"/>
<path d="M0 0 C27.72 0 55.44 0 84 0 C84 0.99 84 1.98 84 3 C82.68 3.33 81.36 3.66 80 4 C80 4.66 80 5.32 80 6 C79.34 6 78.68 6 78 6 C78 6.66 78 7.32 78 8 C77.34 8 76.68 8 76 8 C76 8.66 76 9.32 76 10 C75.34 10 74.68 10 74 10 C74 13.63 74 17.26 74 21 C70.7 21 67.4 21 64 21 C64 28.59 64 36.18 64 44 C62.02 44 60.04 44 58 44 C58 46.64 58 49.28 58 52 C41.5 52 25 52 8 52 C8 53.65 8 55.3 8 57 C5.36 57 2.72 57 0 57 C0 38.19 0 19.38 0 0 Z " fill="#5D833F" transform="translate(224,278)"/>
<path d="M0 0 C5.44 0.5 5.44 0.5 11 1 C11 10.9 11 20.8 11 31 C13.97 31 16.94 31 20 31 C20 27.7 20 24.4 20 21 C23.63 21 27.26 21 31 21 C30.83 19.76 30.67 18.52 30.5 17.25 C29.95 11.52 30 5.75 30 0 C40.56 0 51.12 0 62 0 C62 3.3 62 6.6 62 10 C58.37 10 54.74 10 51 10 C51 13.3 51 16.6 51 20 C47.37 20 43.74 20 40 20 C39.67 25.61 39.34 31.22 39 37 C32 40 32 40 30 40 C30 42.64 30 45.28 30 48 C5.25 48 -19.5 48 -45 48 C-45 43.05 -45 38.1 -45 33 C-39.38 30.75 -39.38 30.75 -35.36 30.8 C-34.09 30.81 -34.09 30.81 -32.81 30.82 C-31.94 30.84 -31.08 30.86 -30.19 30.88 C-29.3 30.88 -28.42 30.89 -27.51 30.9 C-25.34 30.93 -23.17 30.96 -21 31 C-21 27.7 -21 24.4 -21 21 C-17.37 21 -13.74 21 -10 21 C-10 17.7 -10 14.4 -10 11 C-6.7 11 -3.4 11 0 11 C0 7.37 0 3.74 0 0 Z " fill="#051F02" transform="translate(288,428)"/>
<path d="M0 0 C3.3 0.33 6.6 0.66 10 1 C9.92 21.59 9.82 42.19 9.71 62.78 C9.66 72.34 9.62 81.9 9.58 91.46 C9.55 99.8 9.51 108.14 9.46 116.47 C9.43 120.88 9.41 125.3 9.4 129.71 C9.38 133.86 9.36 138.02 9.33 142.18 C9.32 143.7 9.32 145.22 9.32 146.74 C9.3 154.07 9.27 160.97 7 168 C5.35 168 3.7 168 2 168 C2.33 166.35 2.66 164.7 3 163 C2.01 162.34 1.02 161.68 0 161 C-0.69 159.34 -1.36 157.68 -2 156 C-2.66 155.67 -3.32 155.34 -4 155 C-4 151.04 -4 147.08 -4 143 C-4.66 143 -5.32 143 -6 143 C-6.33 145.97 -6.66 148.94 -7 152 C-7.33 152 -7.66 152 -8 152 C-8 108.77 -8 65.54 -8 21 C-7.01 20.67 -6.02 20.34 -5 20 C-4.67 19.34 -4.34 18.68 -4 18 C-4.66 18 -5.32 18 -6 18 C-6.33 18.66 -6.66 19.32 -7 20 C-7.66 18.02 -8.32 16.04 -9 14 C-6.03 14 -3.06 14 0 14 C0 9.38 0 4.76 0 0 Z " fill="#254C12" transform="translate(394,224)"/>
<path d="M0 0 C3.3 0 6.6 0 10 0 C10 7.92 10 15.84 10 24 C3.07 24 -3.86 24 -11 24 C-11 27.3 -11 30.6 -11 34 C-7.04 34 -3.08 34 1 34 C0.67 35.32 0.34 36.64 0 38 C0 37.01 0 36.02 0 35 C-3.63 35 -7.26 35 -11 35 C-11 38.3 -11 41.6 -11 45 C-18.59 45 -26.18 45 -34 45 C-34 55.23 -34 65.46 -34 76 C-37.3 76 -40.6 76 -44 76 C-43.98 77.46 -43.96 78.93 -43.94 80.44 C-43.92 81.96 -43.93 83.48 -44 85 C-44.33 85.33 -44.66 85.66 -45 86 C-48.3 86 -51.6 86 -55 86 C-55.33 75.11 -55.66 64.22 -56 53 C-56.33 53 -56.66 53 -57 53 C-57 48.38 -57 43.76 -57 39 C-58.65 38.67 -60.3 38.34 -62 38 C-63.38 36.12 -63.38 36.12 -64 34 C-63.67 33.01 -63.34 32.02 -63 31 C-63.66 31 -64.32 31 -65 31 C-65 45.52 -65 60.04 -65 75 C-68.3 75 -71.6 75 -75 75 C-75 61.47 -75 47.94 -75 34 C-74.34 34 -73.68 34 -73 34 C-73 33.34 -73 32.68 -73 32 C-72.34 32 -71.68 32 -71 32 C-71 31.34 -71 30.68 -71 30 C-70.34 30 -69.68 30 -69 30 C-69 29.34 -69 28.68 -69 28 C-68.34 28 -67.68 28 -67 28 C-67 27.34 -67 26.68 -67 26 C-66.34 26 -65.68 26 -65 26 C-64.67 25.34 -64.34 24.68 -64 24 C-59.36 23.09 -54.86 22.88 -50.15 22.89 C-49.5 22.89 -48.86 22.89 -48.19 22.89 C-46.09 22.89 -43.98 22.89 -41.88 22.9 C-40.41 22.9 -38.94 22.91 -37.47 22.91 C-33.62 22.91 -29.77 22.92 -25.92 22.93 C-21.99 22.94 -18.05 22.95 -14.12 22.95 C-6.41 22.96 1.29 22.98 9 23 C9 15.74 9 8.48 9 1 C6.03 1 3.06 1 0 1 C0 0.67 0 0.34 0 0 Z " fill="#1F420F" transform="translate(373,321)"/>
<path d="M0 0 C0.33 0 0.66 0 1 0 C1 7.26 1 14.52 1 22 C21.79 22 42.58 22 64 22 C64 22.99 64 23.98 64 25 C63.01 25 62.02 25 61 25 C61 25.99 61 26.98 61 28 C60.01 28 59.02 28 58 28 C58 28.99 58 29.98 58 31 C57.34 31 56.68 31 56 31 C56 31.66 56 32.32 56 33 C55.01 33 54.02 33 53 33 C53 46.53 53 60.06 53 74 C42.77 74 32.54 74 22 74 C22 80.93 22 87.86 22 95 C21.67 95 21.34 95 21 95 C21 88.4 21 81.8 21 75 C18.31 75.03 18.31 75.03 15.56 75.06 C13.71 75.08 11.85 75.07 10 75 C8.1 73.1 8.87 70.34 8.86 67.81 C8.86 66.95 8.87 66.08 8.87 65.19 C8.87 64.3 8.87 63.42 8.86 62.51 C8.86 60.64 8.87 58.76 8.87 56.89 C8.87 54.01 8.87 51.14 8.86 48.26 C8.86 46.44 8.87 44.63 8.87 42.81 C8.87 41.95 8.86 41.08 8.86 40.19 C8.89 34.11 8.89 34.11 10 33 C11.68 32.77 13.37 32.59 15.06 32.44 C15.98 32.35 16.9 32.27 17.85 32.18 C18.56 32.12 19.27 32.06 20 32 C20.33 29.03 20.66 26.06 21 23 C14.07 23 7.14 23 0 23 C0 15.41 0 7.82 0 0 Z " fill="#668A49" transform="translate(151,322)"/>
<path d="M0 0 C10.56 0 21.12 0 32 0 C32 10.56 32 21.12 32 32 C28.7 32 25.4 32 22 32 C22 42.56 22 53.12 22 64 C18.7 64 15.4 64 12 64 C12 43.21 12 22.42 12 1 C8.37 1 4.74 1 1 1 C1 7.93 1 14.86 1 22 C-2.63 22 -6.26 22 -10 22 C-10 28.93 -10 35.86 -10 43 C-13.63 43 -17.26 43 -21 43 C-21 45.97 -21 48.94 -21 52 C-21.33 52 -21.66 52 -22 52 C-22 48.7 -22 45.4 -22 42 C-18.37 42 -14.74 42 -11 42 C-11 38.7 -11 35.4 -11 32 C-21.56 32 -32.12 32 -43 32 C-42.67 38.93 -42.34 45.86 -42 53 C-45.63 53 -49.26 53 -53 53 C-53 56.3 -53 59.6 -53 63 C-55.97 63 -58.94 63 -62 63 C-62 53.1 -62 43.2 -62 33 C-64.97 33 -67.94 33 -71 33 C-70 29 -70 29 -69 27 C-68.01 27 -67.02 27 -66 27 C-65.67 26.01 -65.34 25.02 -65 24 C-64.34 24 -63.68 24 -63 24 C-63 23.01 -63 22.02 -63 21 C-42.21 21 -21.42 21 0 21 C0 14.07 0 7.14 0 0 Z " fill="#183B0A" transform="translate(361,396)"/>
<path d="M0 0 C13.86 0 27.72 0 42 0 C42 0.66 42 1.32 42 2 C41.34 2 40.68 2 40 2 C40 2.66 40 3.32 40 4 C39.34 4 38.68 4 38 4 C37.67 5.32 37.34 6.64 37 8 C36.34 8 35.68 8 35 8 C35 8.66 35 9.32 35 10 C34.01 10 33.02 10 32 10 C32 23.86 32 37.72 32 52 C29.03 52 26.06 52 23 52 C23 49.36 23 46.72 23 44 C20.03 44 17.06 44 14 44 C14 46.64 14 49.28 14 52 C5.75 52 -2.5 52 -11 52 C-11 49.36 -11 46.72 -11 44 C-13.97 44 -16.94 44 -20 44 C-20 43.67 -20 43.34 -20 43 C-17.36 43 -14.72 43 -12 43 C-12 32.11 -12 21.22 -12 10 C-6.56 9.5 -6.56 9.5 -1 9 C-0.67 6.03 -0.34 3.06 0 0 Z " fill="#5D8241" transform="translate(172,278)"/>
<path d="M0 0 C8.58 0 17.16 0 26 0 C26 24.42 26 48.84 26 74 C32.6 74 39.2 74 46 74 C46 74.99 46 75.98 46 77 C45.34 77 44.68 77 44 77 C44 77.99 44 78.98 44 80 C43.01 80 42.02 80 41 80 C41 80.66 41 81.32 41 82 C40.34 82 39.68 82 39 82 C39 82.66 39 83.32 39 84 C38.34 84 37.68 84 37 84 C37 85.32 37 86.64 37 88 C36.38 88.08 35.76 88.17 35.12 88.25 C32.84 88.81 32.84 88.81 31.81 90.94 C31.54 91.62 31.28 92.3 31 93 C30.67 93.66 30.34 94.32 30 95 C29.01 95 28.02 95 27 95 C27 101.93 27 108.86 27 116 C14.46 116.33 1.92 116.66 -11 117 C-11 120.3 -11 123.6 -11 127 C-4.07 127 2.86 127 10 127 C10.02 130.44 10.04 133.89 10.06 137.44 C10.07 138.52 10.08 139.61 10.09 140.73 C10.09 141.58 10.1 142.43 10.1 143.31 C10.1 144.18 10.11 145.06 10.11 145.96 C10 148 10 148 9 149 C7.53 149.09 6.05 149.12 4.57 149.11 C3.63 149.11 2.69 149.11 1.72 149.11 C0.7 149.11 -0.33 149.1 -1.38 149.1 C-2.94 149.1 -2.94 149.1 -4.54 149.09 C-7.88 149.09 -11.22 149.08 -14.56 149.06 C-16.82 149.06 -19.08 149.05 -21.34 149.05 C-26.89 149.04 -32.45 149.02 -38 149 C-38 148.67 -38 148.34 -38 148 C-33.05 148 -28.1 148 -23 148 C-23 141.07 -23 134.14 -23 127 C-19.37 127 -15.74 127 -12 127 C-12 123.37 -12 119.74 -12 116 C-8.37 116 -4.74 116 -1 116 C-1 114.35 -1 112.7 -1 111 C2.77 108.68 4.01 109 9 109 C9 100.75 9 92.5 9 84 C12.63 84 16.26 84 20 84 C20 80.37 20 76.74 20 73 C21.65 73 23.3 73 25 73 C25 49.24 25 25.48 25 1 C16.75 1 8.5 1 0 1 C0 0.67 0 0.34 0 0 Z " fill="#87A16A" transform="translate(195,108)"/>
<path d="M0 0 C25.08 0 50.16 0 76 0 C76 0.66 76 1.32 76 2 C75.34 2 74.68 2 74 2 C74 2.66 74 3.32 74 4 C73.34 4 72.68 4 72 4 C72 4.66 72 5.32 72 6 C71.34 6 70.68 6 70 6 C70 6.66 70 7.32 70 8 C69.34 8 68.68 8 68 8 C68 8.66 68 9.32 68 10 C67.34 10 66.68 10 66 10 C66 13.63 66 17.26 66 21 C47.85 21 29.7 21 11 21 C11 30.9 11 40.8 11 51 C7.37 51 3.74 51 0 51 C0 34.17 0 17.34 0 0 Z " fill="#99AE7B" transform="translate(232,345)"/>
<path d="M0 0 C25.08 0 50.16 0 76 0 C76 0.99 76 1.98 76 3 C74.68 3.33 73.36 3.66 72 4 C72 4.66 72 5.32 72 6 C71.34 6 70.68 6 70 6 C70 6.66 70 7.32 70 8 C69.34 8 68.68 8 68 8 C68 8.66 68 9.32 68 10 C67.34 10 66.68 10 66 10 C66 13.63 66 17.26 66 21 C47.85 21 29.7 21 11 21 C11 28.26 11 35.52 11 43 C7.37 43 3.74 43 0 43 C0 28.81 0 14.62 0 0 Z " fill="#96AC79" transform="translate(232,278)"/>
<path d="M0 0 C10.56 0 21.12 0 32 0 C32 2.97 32 5.94 32 9 C28.7 9 25.4 9 22 9 C22 12.96 22 16.92 22 21 C26.62 21 31.24 21 36 21 C36 27.6 36 34.2 36 41 C28.73 41.05 21.47 41.08 14.2 41.1 C10.82 41.11 7.45 41.13 4.08 41.15 C0.2 41.18 -3.68 41.19 -7.55 41.2 C-8.77 41.21 -9.98 41.22 -11.24 41.23 C-12.36 41.23 -13.48 41.23 -14.63 41.23 C-15.62 41.23 -16.61 41.24 -17.63 41.24 C-20 41 -20 41 -22 39 C-24.43 38.54 -24.43 38.54 -27.12 38.38 C-28.04 38.3 -28.95 38.23 -29.88 38.15 C-30.58 38.1 -31.28 38.05 -32 38 C-32.04 36 -32.04 34 -32 32 C-31 31 -31 31 -28.13 30.89 C-26.88 30.89 -25.63 30.9 -24.34 30.9 C-23.34 30.9 -23.34 30.9 -22.33 30.91 C-20.2 30.91 -18.07 30.92 -15.94 30.94 C-14.5 30.94 -13.06 30.95 -11.62 30.95 C-8.08 30.96 -4.54 30.98 -1 31 C-1 27.7 -1 24.4 -1 21 C2.63 21 6.26 21 10 21 C10 17.37 10 13.74 10 10 C6.7 10 3.4 10 0 10 C0 6.7 0 3.4 0 0 Z " fill="#041E01" transform="translate(340,236)"/>
<path d="M0 0 C3.63 0 7.26 0 11 0 C11 17.49 11 34.98 11 53 C29.48 53 47.96 53 67 53 C67 59.93 67 66.86 67 74 C63.7 74 60.4 74 57 74 C57 70.7 57 67.4 57 64 C38.19 64 19.38 64 0 64 C0 42.88 0 21.76 0 0 Z " fill="#597B43" transform="translate(221,108)"/>
<path d="M0 0 C19.47 0 38.94 0 59 0 C59 3.63 59 7.26 59 11 C54.55 11.5 54.55 11.5 50 12 C49.67 14.97 49.34 17.94 49 21 C33.82 21 18.64 21 3 21 C3 24.63 3 28.26 3 32 C0.03 32 -2.94 32 -6 32 C-6.12 27.75 -6.19 23.5 -6.25 19.25 C-6.28 18.04 -6.32 16.84 -6.35 15.59 C-6.36 14.43 -6.38 13.27 -6.39 12.08 C-6.41 11.01 -6.43 9.94 -6.45 8.84 C-5.89 5.32 -4.79 4.15 -2 2 C-1.34 2 -0.68 2 0 2 C0 1.34 0 0.68 0 0 Z " fill="#95AC77" transform="translate(229,235)"/>
<path d="M0 0 C1.26 5.72 1.03 11.27 0.88 17.09 C0.86 18.02 0.84 18.96 0.82 19.93 C0.74 23.41 0.65 26.89 0.56 30.38 C0.38 38.17 0.19 45.97 0 54 C-25.08 54 -50.16 54 -76 54 C-76 52.35 -76 50.7 -76 49 C-59.5 49 -43 49 -26 49 C-26 46.36 -26 43.72 -26 41 C-24.02 41 -22.04 41 -20 41 C-20 33.41 -20 25.82 -20 18 C-16.7 18 -13.4 18 -10 18 C-10 14.37 -10 10.74 -10 7 C-9.34 7 -8.68 7 -8 7 C-8 6.34 -8 5.68 -8 5 C-7.34 5 -6.68 5 -6 5 C-6 4.34 -6 3.68 -6 3 C-5.34 3 -4.68 3 -4 3 C-4 2.34 -4 1.68 -4 1 C-2 0 -2 0 0 0 Z " fill="#1E430D" transform="translate(308,281)"/>
<path d="M0 0 C14.85 0 29.7 0 45 0 C45 6.93 45 13.86 45 21 C43.35 21 41.7 21 40 21 C40 19.02 40 17.04 40 15 C38.35 15 36.7 15 35 15 C35 19.95 35 24.9 35 30 C31.7 30 28.4 30 25 30 C25 25.38 25 20.76 25 16 C23.35 16 21.7 16 20 16 C20 17.98 20 19.96 20 22 C18.68 22 17.36 22 16 22 C16 24.64 16 27.28 16 30 C10.72 30 5.44 30 0 30 C0 20.1 0 10.2 0 0 Z " fill="#59803D" transform="translate(243,366)"/>
<path d="M0 0 C14.19 0 28.38 0 43 0 C43 3.3 43 6.6 43 10 C46.96 10 50.92 10 55 10 C54.67 11.32 54.34 12.64 54 14 C54 13.01 54 12.02 54 11 C50.37 11 46.74 11 43 11 C43 14.3 43 17.6 43 21 C35.41 21 27.82 21 20 21 C20 30.9 20 40.8 20 51 C16.37 51 12.74 51 9 51 C9 37.8 9 24.6 9 11 C8.34 11 7.68 11 7 11 C6.67 9.35 6.34 7.7 6 6 C5.34 6 4.68 6 4 6 C4 5.34 4 4.68 4 4 C3.34 4 2.68 4 2 4 C2 3.34 2 2.68 2 2 C1.34 2 0.68 2 0 2 C0 1.34 0 0.68 0 0 Z " fill="#2F581B" transform="translate(319,345)"/>
<path d="M0 0 C0.33 0 0.66 0 1 0 C1 7.26 1 14.52 1 22 C21.79 22 42.58 22 64 22 C64 22.99 64 23.98 64 25 C63.01 25 62.02 25 61 25 C61 25.99 61 26.98 61 28 C60.01 28 59.02 28 58 28 C58 28.99 58 29.98 58 31 C57.34 31 56.68 31 56 31 C56 31.66 56 32.32 56 33 C55.01 33 54.02 33 53 33 C53 36.63 53 40.26 53 44 C39.47 44.33 25.94 44.66 12 45 C11.99 53.68 11.99 53.68 12.5 62.31 C12.53 63 12.56 63.69 12.59 64.4 C12.73 66.73 12.73 66.73 14 70 C16.64 71.32 19.28 72.64 22 74 C22 80.93 22 87.86 22 95 C21.67 95 21.34 95 21 95 C21 88.4 21 81.8 21 75 C18.31 75.03 18.31 75.03 15.56 75.06 C13.71 75.08 11.85 75.07 10 75 C8.1 73.1 8.87 70.34 8.86 67.81 C8.86 66.95 8.87 66.08 8.87 65.19 C8.87 64.3 8.87 63.42 8.86 62.51 C8.86 60.64 8.87 58.76 8.87 56.89 C8.87 54.01 8.87 51.14 8.86 48.26 C8.86 46.44 8.87 44.63 8.87 42.81 C8.87 41.95 8.86 41.08 8.86 40.19 C8.89 34.11 8.89 34.11 10 33 C11.68 32.77 13.37 32.59 15.06 32.44 C15.98 32.35 16.9 32.27 17.85 32.18 C18.56 32.12 19.27 32.06 20 32 C20.33 29.03 20.66 26.06 21 23 C14.07 23 7.14 23 0 23 C0 15.41 0 7.82 0 0 Z " fill="#8CA373" transform="translate(151,322)"/>
<path d="M0 0 C21.78 0 43.56 0 66 0 C66 3 66 3 64.69 4.69 C63 6 63 6 60 6 C59.34 7.65 58.68 9.3 58 11 C50.41 11 42.82 11 35 11 C35 14.63 35 18.26 35 22 C23.45 22 11.9 22 0 22 C0 14.74 0 7.48 0 0 Z " fill="#7C9860" transform="translate(232,417)"/>
<path d="M0 0 C4.81 -0.02 9.61 -0.04 14.42 -0.05 C16.05 -0.06 17.69 -0.07 19.32 -0.08 C21.67 -0.09 24.02 -0.09 26.37 -0.1 C27.1 -0.1 27.83 -0.11 28.59 -0.11 C33.77 -0.11 33.77 -0.11 36 1 C38.32 1.09 40.65 1.11 42.98 1.1 C43.66 1.1 44.35 1.09 45.05 1.09 C47.24 1.09 49.43 1.08 51.62 1.06 C53.11 1.06 54.59 1.05 56.08 1.05 C59.72 1.04 63.36 1.02 67 1 C66.67 1.66 66.34 2.32 66 3 C45.21 3 24.42 3 3 3 C3 3.99 3 4.98 3 6 C3.87 5.99 4.75 5.98 5.65 5.96 C15.8 5.89 25.87 6.35 36 7 C36 6.34 36 5.68 36 5 C43.42 4.91 50.66 4.83 58 6 C54.95 9.05 51.99 8.97 47.77 9.11 C46.58 9.11 45.39 9.1 44.17 9.1 C43 9.1 41.84 9.09 40.64 9.09 C38.43 9.08 38.43 9.08 36.19 9.06 C31.51 9.04 26.82 9.02 22 9 C22 27.15 22 45.3 22 64 C18.37 64 14.74 64 11 64 C11 49.81 11 35.62 11 21 C7.37 21 3.74 21 0 21 C0 14.07 0 7.14 0 0 Z " fill="#7E7D8C" transform="translate(221,87)"/>
<path d="M0 0 C0.33 0 0.66 0 1 0 C1 11.88 1 23.76 1 36 C0.01 36 -0.98 36 -2 36 C-2.33 37.32 -2.66 38.64 -3 40 C-3.66 40 -4.32 40 -5 40 C-5 40.66 -5 41.32 -5 42 C-5.66 42 -6.32 42 -7 42 C-6.99 42.78 -6.98 43.56 -6.96 44.37 C-6.96 45.38 -6.95 46.39 -6.94 47.44 C-6.93 48.45 -6.91 49.46 -6.9 50.5 C-7 53 -7 53 -8 54 C-11 54.14 -13.99 54.04 -17 54 C-17 56.97 -17 59.94 -17 63 C-27.56 63 -38.12 63 -49 63 C-49 60.03 -49 57.06 -49 54 C-33.66 53.5 -33.66 53.5 -18 53 C-17.67 46.07 -17.34 39.14 -17 32 C-23.93 32 -30.86 32 -38 32 C-38 28.7 -38 25.4 -38 22 C-29.57 21.09 -21.29 20.88 -12.81 20.94 C-10.96 20.94 -10.96 20.94 -9.06 20.95 C-6.04 20.96 -3.02 20.98 0 21 C0 14.07 0 7.14 0 0 Z " fill="#416828" transform="translate(222,203)"/>
<path d="M0 0 C17.82 0 35.64 0 54 0 C54 2.97 54 5.94 54 9 C39.81 9.33 25.62 9.66 11 10 C10.67 13.63 10.34 17.26 10 21 C13.3 21 16.6 21 20 21 C20 27.93 20 34.86 20 42 C17.03 42 14.06 42 11 42 C11 38.37 11 34.74 11 31 C7.7 31 4.4 31 1 31 C1 27.37 1 23.74 1 20 C-2.3 20 -5.6 20 -9 20 C-9 16.7 -9 13.4 -9 10 C-6.03 10 -3.06 10 0 10 C0 6.7 0 3.4 0 0 Z " fill="#0D190C" transform="translate(308,172)"/>
<path d="M0 0 C6.6 0 13.2 0 20 0 C20 10.56 20 21.12 20 32 C16.7 32 13.4 32 10 32 C10 42.56 10 53.12 10 64 C6.7 64 3.4 64 0 64 C0 42.88 0 21.76 0 0 Z " fill="#092106" transform="translate(373,396)"/>
<path d="M0 0 C12.21 0 24.42 0 37 0 C38.15 16.1 38.15 16.1 38.06 23.88 C38.06 24.67 38.05 25.47 38.05 26.29 C38.04 28.19 38.02 30.1 38 32 C34.37 32 30.74 32 27 32 C27 38.27 27 44.54 27 51 C30.3 51 33.6 51 37 51 C37 52.98 37 54.96 37 57 C36.5 55.02 36.5 55.02 36 53 C32.7 52.67 29.4 52.34 26 52 C26 45.4 26 38.8 26 32 C23.03 32 20.06 32 17 32 C15.39 28.79 15.94 25.56 16 22 C12.37 22 8.74 22 5 22 C5 15.07 5 8.14 5 1 C3.35 1 1.7 1 0 1 C0 0.67 0 0.34 0 0 Z " fill="#385B27" transform="translate(178,417)"/>
<path d="M0 0 C0.99 0.33 1.98 0.66 3 1 C2.72 1.8 2.72 1.8 2.44 2.62 C1.85 5.01 1.85 5.01 2.47 7.44 C3.21 12.41 3.12 17.29 3.1 22.3 C3.1 23.38 3.09 24.46 3.09 25.57 C3.09 29.01 3.08 32.44 3.06 35.88 C3.06 38.21 3.05 40.54 3.05 42.88 C3.04 48.58 3.02 54.29 3 60 C-10.86 60 -24.72 60 -39 60 C-39 56.37 -39 52.74 -39 49 C-28.77 49 -18.54 49 -8 49 C-8 35.47 -8 21.94 -8 8 C-7.01 8 -6.02 8 -5 8 C-5 7.34 -5 6.68 -5 6 C-4.34 6 -3.68 6 -3 6 C-3 5.01 -3 4.02 -3 3 C-2.01 3 -1.02 3 0 3 C0 2.01 0 1.02 0 0 Z " fill="#244C11" transform="translate(212,347)"/>
<path d="M0 0 C7.92 0 15.84 0 24 0 C24 10.56 24 21.12 24 32 C21.36 32 18.72 32 16 32 C16 35.63 16 39.26 16 43 C10.72 43 5.44 43 0 43 C0 28.81 0 14.62 0 0 Z " fill="#6E9050" transform="translate(243,182)"/>
<path d="M0 0 C13.86 0 27.72 0 42 0 C42 0.66 42 1.32 42 2 C41.34 2 40.68 2 40 2 C40 2.66 40 3.32 40 4 C39.34 4 38.68 4 38 4 C37.67 5.32 37.34 6.64 37 8 C36.34 8 35.68 8 35 8 C35 8.66 35 9.32 35 10 C34.01 10 33.02 10 32 10 C32 13.63 32 17.26 32 21 C17.81 21 3.62 21 -11 21 C-11 28.26 -11 35.52 -11 43 C-11.33 43 -11.66 43 -12 43 C-12 32.11 -12 21.22 -12 10 C-6.56 9.5 -6.56 9.5 -1 9 C-0.67 6.03 -0.34 3.06 0 0 Z " fill="#A0B484" transform="translate(172,278)"/>
<path d="M0 0 C3.3 0 6.6 0 10 0 C10 3.63 10 7.26 10 11 C13.3 11 16.6 11 20 11 C20 14.3 20 17.6 20 21 C23.63 21 27.26 21 31 21 C31 24.63 31 28.26 31 32 C17.14 32 3.28 32 -11 32 C-11 25.07 -11 18.14 -11 11 C-7.37 11 -3.74 11 0 11 C0 7.37 0 3.74 0 0 Z " fill="#46444F" transform="translate(319,140)"/>
<path d="M0 0 C14.19 0 28.38 0 43 0 C43 3.3 43 6.6 43 10 C46.63 10 50.26 10 54 10 C54 20.89 54 31.78 54 43 C53.67 43 53.34 43 53 43 C53 32.44 53 21.88 53 11 C52.34 11 51.68 11 51 11 C51 15.95 51 20.9 51 26 C50.34 25.34 49.68 24.68 49 24 C48.67 24.66 48.34 25.32 48 26 C46.35 26 44.7 26 43 26 C42.67 24.35 42.34 22.7 42 21 C43.32 21 44.64 21 46 21 C46.33 18.03 46.66 15.06 47 12 C45.68 11.67 44.36 11.34 43 11 C43 13.97 43 16.94 43 20 C26.67 20.5 26.67 20.5 10 21 C10 17.37 10 13.74 10 10 C9.01 10 8.02 10 7 10 C7 9.34 7 8.68 7 8 C6.34 8 5.68 8 5 8 C4.9 7.36 4.79 6.72 4.69 6.06 C4.35 5.04 4.35 5.04 4 4 C3.01 3.67 2.02 3.34 1 3 C0.67 2.01 0.34 1.02 0 0 Z " fill="#355F20" transform="translate(319,278)"/>
<path d="M0 0 C0.33 0 0.66 0 1 0 C1.02 22.15 1.04 44.3 1.05 66.44 C1.06 76.73 1.06 87.01 1.08 97.29 C1.09 106.25 1.09 115.21 1.09 124.17 C1.1 128.92 1.1 133.66 1.11 138.41 C1.11 142.87 1.11 147.34 1.11 151.8 C1.11 153.44 1.12 155.08 1.12 156.73 C1.12 158.96 1.12 161.19 1.12 163.43 C1.12 164.68 1.12 165.93 1.12 167.22 C1 170 1 170 0 171 C-2.97 171 -5.94 171 -9 171 C-9 181.56 -9 192.12 -9 203 C-12.3 203 -15.6 203 -19 203 C-19 213.56 -19 224.12 -19 235 C-22.63 235 -26.26 235 -30 235 C-30 234.67 -30 234.34 -30 234 C-26.7 234 -23.4 234 -20 234 C-20 223.44 -20 212.88 -20 202 C-16.7 202 -13.4 202 -10 202 C-10 191.44 -10 180.88 -10 170 C-16.6 170 -23.2 170 -30 170 C-30 169.67 -30 169.34 -30 169 C-26.37 169 -22.74 169 -19 169 C-18.67 119.83 -18.34 70.66 -18 20 C-17.67 20 -17.34 20 -17 20 C-16.67 54.98 -16.34 89.96 -16 126 C-15.67 126 -15.34 126 -15 126 C-15 130.95 -15 135.9 -15 141 C-14.34 141 -13.68 141 -13 141 C-13 144.96 -13 148.92 -13 153 C-12.01 153.33 -11.02 153.66 -10 154 C-9.32 155.66 -8.65 157.33 -8 159 C-6.51 159.99 -6.51 159.99 -5 161 C-5.66 162.65 -6.32 164.3 -7 166 C-5.35 166 -3.7 166 -2 166 C-0.75 158.22 -0.83 150.44 -0.79 142.59 C-0.79 141.03 -0.78 139.47 -0.76 137.91 C-0.74 133.7 -0.72 129.49 -0.7 125.28 C-0.67 120.88 -0.65 116.47 -0.62 112.06 C-0.57 103.73 -0.53 95.39 -0.48 87.05 C-0.43 77.56 -0.38 68.06 -0.32 58.57 C-0.21 39.05 -0.1 19.52 0 0 Z " fill="#68815C" transform="translate(403,226)"/>
<path d="M0 0 C0.78 0 1.56 0.01 2.37 0.01 C3.19 0.01 4.01 0.01 4.85 0.01 C7.57 0.01 10.3 0.02 13.02 0.03 C14.9 0.03 16.78 0.03 18.66 0.03 C23.63 0.03 28.59 0.04 33.55 0.06 C38.61 0.07 43.67 0.07 48.73 0.08 C58.67 0.09 68.61 0.1 78.54 0.12 C78.54 0.45 78.54 0.78 78.54 1.12 C53.46 1.12 28.38 1.12 2.54 1.12 C2.54 21.58 2.54 42.04 2.54 63.12 C-0.43 63.12 -3.4 63.12 -6.46 63.12 C-6.48 55.06 -6.5 46.99 -6.51 38.92 C-6.51 35.18 -6.52 31.43 -6.53 27.69 C-6.54 24.08 -6.55 20.47 -6.55 16.85 C-6.55 15.47 -6.56 14.09 -6.56 12.71 C-6.57 10.78 -6.57 8.86 -6.57 6.93 C-6.57 5.83 -6.57 4.73 -6.58 3.6 C-6.35 -0.99 -4.02 0.01 0 0 Z " fill="#698B4D" transform="translate(229.45516967773438,343.8755798339844)"/>
<path d="M0 0 C7.26 0 14.52 0 22 0 C24.34 5.86 24.34 5.86 24 10 C23.67 10.33 23.34 10.66 23 11 C22.84 12.85 22.75 14.71 22.68 16.57 C22.64 17.69 22.6 18.82 22.56 19.97 C22.52 21.16 22.48 22.34 22.44 23.56 C22.39 24.75 22.35 25.94 22.31 27.16 C22.2 30.11 22.1 33.05 22 36 C18.7 36 15.4 36 12 36 C12 31.38 12 26.76 12 22 C10.68 22 9.36 22 8 22 C7.67 20.68 7.34 19.36 7 18 C6.34 18 5.68 18 5 18 C5 17.34 5 16.68 5 16 C3.35 15.67 1.7 15.34 0 15 C0 10.05 0 5.1 0 0 Z " fill="#0F2E05" transform="translate(350,129)"/>
<path d="M0 0 C3.63 0 7.26 0 11 0 C11 17.49 11 34.98 11 53 C7.37 53 3.74 53 0 53 C0 35.51 0 18.02 0 0 Z " fill="#5B5E6E" transform="translate(221,108)"/>
<path d="M0 0 C18.81 0 37.62 0 57 0 C57 3.3 57 6.6 57 10 C38.19 10 19.38 10 0 10 C0 6.7 0 3.4 0 0 Z " fill="#163A08" transform="translate(221,172)"/>
<path d="M0 0 C2.97 0 5.94 0 9 0 C9 20.79 9 41.58 9 63 C6.03 63 3.06 63 0 63 C0 42.21 0 21.42 0 0 Z " fill="#1B121B" transform="translate(405,140)"/>
<path d="M0 0 C5.28 0 10.56 0 16 0 C16 7.59 16 15.18 16 23 C7.42 23 -1.16 23 -10 23 C-10 22.34 -10 21.68 -10 21 C-10.66 21 -11.32 21 -12 21 C-12 20.34 -12 19.68 -12 19 C-12.66 19 -13.32 19 -14 19 C-14.29 18.03 -14.58 17.06 -14.88 16.06 C-15.64 12.89 -15.64 12.89 -18 12 C-14.37 12 -10.74 12 -7 12 C-6.67 10.68 -6.34 9.36 -6 8 C-5.34 8 -4.68 8 -4 8 C-4 7.01 -4 6.02 -4 5 C-3.01 5 -2.02 5 -1 5 C-0.67 3.35 -0.34 1.7 0 0 Z " fill="#1C171C" transform="translate(204,85)"/>
<path d="M0 0 C0.02 7.94 0.04 15.87 0.05 23.81 C0.06 27.49 0.06 31.18 0.08 34.86 C0.09 38.42 0.09 41.97 0.09 45.52 C0.1 46.88 0.1 48.24 0.11 49.6 C0.11 51.49 0.11 53.39 0.11 55.29 C0.12 56.37 0.12 57.45 0.12 58.56 C0 61 0 61 -1 62 C-3.97 62 -6.94 62 -10 62 C-10 44.18 -10 26.36 -10 8 C-9.01 7.67 -8.02 7.34 -7 7 C-6.34 7.33 -5.68 7.66 -5 8 C-4.9 7.24 -4.79 6.47 -4.69 5.69 C-4.08 3.31 -2.99 0 0 0 Z " fill="#4B4D5A" transform="translate(404,141)"/>
<path d="M0 0 C2.97 0 5.94 0 9 0 C9 9.9 9 19.8 9 30 C-1.23 30 -11.46 30 -22 30 C-22 27.03 -22 24.06 -22 21 C-20.35 21 -18.7 21 -17 21 C-17 16.71 -17 12.42 -17 8 C-15.35 8 -13.7 8 -12 8 C-12 10.31 -12 12.62 -12 15 C-10.68 15 -9.36 15 -8 15 C-8 17.31 -8 19.62 -8 22 C-4.53 21.5 -4.53 21.5 -1 21 C-0.67 14.07 -0.34 7.14 0 0 Z " fill="#547B39" transform="translate(195,366)"/>
<path d="M0 0 C1.7 0.25 3.38 0.58 5.06 0.94 C5.98 1.13 6.9 1.33 7.85 1.53 C8.91 1.76 8.91 1.76 10 2 C10.33 2.99 10.66 3.98 11 5 C11.66 5 12.32 5 13 5 C13 6.65 13 8.3 13 10 C13.66 10 14.32 10 15 10 C15 12.31 15 14.62 15 17 C17.97 17 20.94 17 24 17 C24 19.97 24 22.94 24 26 C17.4 26 10.8 26 4 26 C3.34 29.63 2.68 33.26 2 37 C0.35 37 -1.3 37 -3 37 C-3.06 32.79 -3.09 28.58 -3.12 24.38 C-3.14 23.19 -3.16 22 -3.18 20.77 C-3.18 19.62 -3.19 18.46 -3.2 17.27 C-3.21 16.22 -3.22 15.16 -3.23 14.07 C-2.98 10.76 -2.08 8.12 -1 5 C-1 3.68 -1 2.36 -1 1 C-0.67 0.67 -0.34 0.34 0 0 Z " fill="#527B36" transform="translate(324,80)"/>
<path d="M0 0 C3.3 0 6.6 0 10 0 C10 6.93 10 13.86 10 21 C13.3 21 16.6 21 20 21 C20 24.63 20 28.26 20 32 C23.3 32 26.6 32 30 32 C30.1 39.71 30.1 39.71 30 42 C29 43 29 43 27.14 43.11 C26.35 43.11 25.56 43.1 24.75 43.1 C23.98 43.1 23.21 43.09 22.42 43.09 C21.43 43.08 20.45 43.07 19.44 43.06 C16.32 43.04 13.21 43.02 10 43 C9.67 36.07 9.34 29.14 9 22 C6.03 21.67 3.06 21.34 0 21 C0 14.07 0 7.14 0 0 Z " fill="#1F1824" transform="translate(278,182)"/>
<path d="M0 0 C7.92 0 15.84 0 24 0 C24 7.26 24 14.52 24 22 C16.08 22 8.16 22 0 22 C0 14.74 0 7.48 0 0 Z " fill="#565867" transform="translate(243,97)"/>
<path d="M0 0 C3.63 0 7.26 0 11 0 C11 0.33 11 0.66 11 1 C7.7 1 4.4 1 1 1 C1 7.6 1 14.2 1 21 C-2.3 21 -5.6 21 -9 21 C-9 23.64 -9 26.28 -9 29 C-21.89 29.89 -34.66 30.08 -47.57 29.88 C-49.47 29.85 -51.38 29.83 -53.28 29.81 C-58.22 29.75 -63.16 29.68 -68.1 29.61 C-73.17 29.53 -78.24 29.47 -83.31 29.4 C-93.21 29.28 -103.1 29.14 -113 29 C-113 26.03 -113 23.06 -113 20 C-113.99 19.67 -114.98 19.34 -116 19 C-114 16 -114 16 -111 15 C-111.33 14.34 -111.66 13.68 -112 13 C-110.02 13 -108.04 13 -106 13 C-106 15.97 -106 18.94 -106 22 C-101.71 22 -97.42 22 -93 22 C-93 19.03 -93 16.06 -93 13 C-91.68 12.67 -90.36 12.34 -89 12 C-87.27 10.52 -87.27 10.52 -86 9 C-86 9.99 -86 10.98 -86 12 C-85.01 12.33 -84.02 12.66 -83 13 C-83.66 13 -84.32 13 -85 13 C-84.5 19.93 -84.5 19.93 -84 27 C-47.37 27.5 -47.37 27.5 -10 28 C-10 25.36 -10 22.72 -10 20 C-7.02 18.76 -4.14 17.74 -1 17 C-1.01 16.19 -1.02 15.38 -1.04 14.55 C-1.04 13.48 -1.05 12.41 -1.06 11.31 C-1.07 10.26 -1.09 9.2 -1.1 8.11 C-1 5 -1 5 0 0 Z " fill="#0E2D06" transform="translate(328,448)"/>
<path d="M0 0 C7.26 0 14.52 0 22 0 C22 3.96 22 7.92 22 12 C25.63 12 29.26 12 33 12 C33 15.63 33 19.26 33 23 C25.74 23 18.48 23 11 23 C11 20.69 11 18.38 11 16 C10.34 16 9.68 16 9 16 C9 14.35 9 12.7 9 11 C8.34 11 7.68 11 7 11 C6.67 10.34 6.34 9.68 6 9 C3.98 8.35 3.98 8.35 2 8 C2 6.68 2 5.36 2 4 C1.34 4 0.68 4 0 4 C0 2.68 0 1.36 0 0 Z " fill="#102F07" transform="translate(328,74)"/>
<path d="M0 0 C8.58 0 17.16 0 26 0 C26 24.42 26 48.84 26 74 C32.6 74 39.2 74 46 74 C46 74.99 46 75.98 46 77 C45.34 77 44.68 77 44 77 C44 77.99 44 78.98 44 80 C43.01 80 42.02 80 41 80 C41 80.66 41 81.32 41 82 C40.34 82 39.68 82 39 82 C39 82.66 39 83.32 39 84 C38.34 84 37.68 84 37 84 C37 85.32 37 86.64 37 88 C36.36 88.1 35.72 88.21 35.06 88.31 C34.38 88.54 33.7 88.77 33 89 C32.5 90.49 32.5 90.49 32 92 C29.69 92 27.38 92 25 92 C25.47 91.61 25.95 91.22 26.44 90.81 C28.45 88.48 28.79 87.07 29 84 C28.14 80.76 28.14 80.76 27 78 C26.01 78 25.02 78 24 78 C24.12 79.64 24.12 79.64 24.25 81.31 C24 85 24 85 22 86.94 C21.34 87.29 20.68 87.64 20 88 C20 87.01 20 86.02 20 85 C19.01 85 18.02 85 17 85 C17 85.66 17 86.32 17 87 C17.66 87.33 18.32 87.66 19 88 C18.01 88 17.02 88 16 88 C16 88.66 16 89.32 16 90 C13 89 13 89 12 88 C12.01 88.63 12.01 89.26 12.02 89.91 C12.04 92.75 12.05 95.6 12.06 98.44 C12.07 99.43 12.08 100.42 12.09 101.45 C12.09 102.39 12.09 103.34 12.1 104.31 C12.1 105.18 12.11 106.06 12.11 106.96 C12 109 12 109 11 110 C8.33 110.14 5.68 110.04 3 110 C3 109.67 3 109.34 3 109 C4.98 109 6.96 109 9 109 C9 100.75 9 92.5 9 84 C12.63 84 16.26 84 20 84 C20 80.37 20 76.74 20 73 C21.65 73 23.3 73 25 73 C25 49.24 25 25.48 25 1 C16.75 1 8.5 1 0 1 C0 0.67 0 0.34 0 0 Z " fill="#8DA379" transform="translate(195,108)"/>
<path d="M0 0 C14.19 0 28.38 0 43 0 C43 3.3 43 6.6 43 10 C46.96 10 50.92 10 55 10 C54.67 11.32 54.34 12.64 54 14 C54 13.01 54 12.02 54 11 C52.72 11.01 51.44 11.01 50.12 11.02 C45.36 11.03 40.6 11.05 35.85 11.05 C33.79 11.06 31.73 11.07 29.67 11.08 C26.71 11.09 23.76 11.09 20.8 11.1 C19.88 11.1 18.96 11.11 18.01 11.11 C17.15 11.11 16.29 11.11 15.4 11.11 C14.65 11.12 13.89 11.12 13.11 11.12 C10.96 11 9.07 10.59 7 10 C6.67 8.68 6.34 7.36 6 6 C5.34 6 4.68 6 4 6 C4 5.34 4 4.68 4 4 C3.34 4 2.68 4 2 4 C2 3.34 2 2.68 2 2 C1.34 2 0.68 2 0 2 C0 1.34 0 0.68 0 0 Z " fill="#5C7D41" transform="translate(319,345)"/>
<path d="M0 0 C0.33 0 0.66 0 1 0 C1 10.56 1 21.12 1 32 C-11.87 32 -24.74 32 -38 32 C-38 28.7 -38 25.4 -38 22 C-29.57 21.09 -21.29 20.88 -12.81 20.94 C-10.96 20.94 -10.96 20.94 -9.06 20.95 C-6.04 20.96 -3.02 20.98 0 21 C0 14.07 0 7.14 0 0 Z " fill="#30551B" transform="translate(222,203)"/>
<path d="M0 0 C3.3 0 6.6 0 10 0 C10 6.93 10 13.86 10 21 C6.7 21 3.4 21 0 21 C0 24.63 0 28.26 0 32 C-3.3 32 -6.6 32 -10 32 C-10 24.74 -10 17.48 -10 10 C-6.7 10 -3.4 10 0 10 C0 6.7 0 3.4 0 0 Z " fill="#545363" transform="translate(298,119)"/>
<path d="M0 0 C3.3 0 6.6 0 10 0 C10 9.9 10 19.8 10 30 C3.4 30 -3.2 30 -10 30 C-10 25.05 -10 20.1 -10 15 C-8.35 15 -6.7 15 -5 15 C-5 16.98 -5 18.96 -5 21 C-3.35 21 -1.7 21 0 21 C0 14.07 0 7.14 0 0 Z " fill="#3A6223" transform="translate(288,366)"/>
<path d="M0 0 C14.19 0 28.38 0 43 0 C43 3.3 43 6.6 43 10 C31.12 10 19.24 10 7 10 C7 9.34 7 8.68 7 8 C6.34 8 5.68 8 5 8 C4.9 7.36 4.79 6.72 4.69 6.06 C4.35 5.04 4.35 5.04 4 4 C3.01 3.67 2.02 3.34 1 3 C0.67 2.01 0.34 1.02 0 0 Z " fill="#5A7D3F" transform="translate(319,278)"/>
<path d="M0 0 C11.88 0 23.76 0 36 0 C35 3 35 3 33.3 4.18 C30.49 5.18 28.22 5.2 25.25 5.12 C24.27 5.11 23.28 5.09 22.27 5.07 C21.14 5.04 21.14 5.04 20 5 C20 5.66 20 6.32 20 7 C20.66 7.33 21.32 7.66 22 8 C21.67 8.66 21.34 9.32 21 10 C14.4 10 7.8 10 1 10 C1.33 12.97 1.66 15.94 2 19 C0.35 19.33 -1.3 19.66 -3 20 C-2.67 18.02 -2.34 16.04 -2 14 C-2.99 14 -3.98 14 -5 14 C-5 13.34 -5 12.68 -5 12 C-5.99 12.33 -6.98 12.66 -8 13 C-8.33 15.31 -8.66 17.62 -9 20 C-9.66 20 -10.32 20 -11 20 C-11 30.23 -11 40.46 -11 51 C-11.33 51 -11.66 51 -12 51 C-12.02 45.32 -12.04 39.64 -12.05 33.97 C-12.06 32.03 -12.07 30.1 -12.08 28.17 C-12.09 25.39 -12.09 22.62 -12.1 19.85 C-12.1 18.98 -12.11 18.11 -12.11 17.21 C-12.11 15.14 -12.06 13.07 -12 11 C-10.34 9.34 -8.22 9.64 -5.94 9.44 C-5.02 9.35 -4.1 9.27 -3.15 9.18 C-2.44 9.12 -1.73 9.06 -1 9 C-0.67 6.03 -0.34 3.06 0 0 Z " fill="#A7B98F" transform="translate(172,345)"/>
<path d="M0 0 C1.98 0.99 1.98 0.99 4 2 C4.03 4.46 4.05 6.92 4.06 9.38 C4.07 10.07 4.08 10.77 4.09 11.49 C4.11 16.77 4.11 16.77 3 19 C21.48 19.33 39.96 19.66 59 20 C58.67 34.19 58.34 48.38 58 63 C57.34 63 56.68 63 56 63 C56 57.72 56 52.44 56 47 C53.74 47.84 53.74 47.84 53.12 50.44 C52 53 52 53 48 55 C48 47.08 48 39.16 48 31 C48.99 31 49.98 31 51 31 C51 30.34 51 29.68 51 29 C51.66 29 52.32 29 53 29 C53.33 27.68 53.66 26.36 54 25 C54.66 25 55.32 25 56 25 C56 24.34 56 23.68 56 23 C56.66 23 57.32 23 58 23 C58 22.34 58 21.68 58 21 C39.19 21 20.38 21 1 21 C0.2 16.22 -0.12 11.91 -0.06 7.12 C-0.06 6.44 -0.05 5.75 -0.05 5.04 C-0.04 3.36 -0.02 1.68 0 0 Z " fill="#254C12" transform="translate(156,257)"/>
<path d="M0 0 C3.96 0 7.92 0 12 0 C12 0.33 12 0.66 12 1 C8.37 1 4.74 1 1 1 C1 7.93 1 14.86 1 22 C-2.63 22 -6.26 22 -10 22 C-10 28.93 -10 35.86 -10 43 C-13.63 43 -17.26 43 -21 43 C-21 45.97 -21 48.94 -21 52 C-21.33 52 -21.66 52 -22 52 C-22 48.7 -22 45.4 -22 42 C-18.37 42 -14.74 42 -11 42 C-11.66 36.39 -12.32 30.78 -13 25 C-16.33 23.89 -19.53 23.46 -23 23 C-23 23.66 -23 24.32 -23 25 C-23.66 25 -24.32 25 -25 25 C-25 24.34 -25 23.68 -25 23 C-27.64 23 -30.28 23 -33 23 C-33 23.66 -33 24.32 -33 25 C-32.34 25 -31.68 25 -31 25 C-31 25.66 -31 26.32 -31 27 C-27.04 26.5 -27.04 26.5 -23 26 C-23 27.32 -23 28.64 -23 30 C-23.69 29.99 -24.37 29.98 -25.08 29.97 C-28.18 29.93 -31.28 29.9 -34.38 29.88 C-35.46 29.86 -36.54 29.84 -37.65 29.82 C-39.2 29.81 -39.2 29.81 -40.77 29.8 C-41.73 29.79 -42.68 29.78 -43.66 29.77 C-46.19 29.77 -46.19 29.77 -48 32 C-48.99 31.67 -49.98 31.34 -51 31 C-51.33 34.96 -51.66 38.92 -52 43 C-52.33 43 -52.66 43 -53 43 C-53 35.74 -53 28.48 -53 21 C-35.51 21 -18.02 21 0 21 C0 14.07 0 7.14 0 0 Z " fill="#4C6C3D" transform="translate(361,396)"/>
<path d="M0 0 C3.3 0 6.6 0 10 0 C10 7.26 10 14.52 10 22 C-11.78 22 -33.56 22 -56 22 C-56 21.67 -56 21.34 -56 21 C-40.82 21 -25.64 21 -10 21 C-10 18.03 -10 15.06 -10 12 C-9 11 -9 11 -6.93 10.9 C-3.47 10.95 -3.47 10.95 0 11 C0 7.37 0 3.74 0 0 Z " fill="#3D6326" transform="translate(288,235)"/>
<path d="M0 0 C0.99 0 0.99 0 2.01 0 C4.13 0.01 6.25 0.02 8.37 0.04 C9.8 0.04 11.24 0.04 12.68 0.05 C16.2 0.06 19.72 0.08 23.24 0.1 C23.24 3.73 23.24 7.36 23.24 11.1 C9.05 11.1 -5.14 11.1 -19.76 11.1 C-19.76 10.77 -19.76 10.44 -19.76 10.1 C-16.46 10.1 -13.16 10.1 -9.76 10.1 C-9.63 8.63 -9.51 7.17 -9.38 5.66 C-9.17 3.16 -9.17 3.16 -8.76 1.1 C-5.84 -0.36 -3.26 -0.01 0 0 Z " fill="#8FA772" transform="translate(180.7578125,287.90234375)"/>
<path d="M0 0 C3.3 0 6.6 0 10 0 C10 10.23 10 20.46 10 31 C4.72 31 -0.56 31 -6 31 C-6 28.36 -6 25.72 -6 23 C-4.02 23 -2.04 23 0 23 C0 15.41 0 7.82 0 0 Z " fill="#376121" transform="translate(288,299)"/>
<path d="M0 0 C3.63 0 7.26 0 11 0 C11 10.56 11 21.12 11 32 C7.37 32 3.74 32 0 32 C0 21.44 0 10.88 0 0 Z " fill="#A8ADB2" transform="translate(232,119)"/>
<path d="M0 0 C0.33 0 0.66 0 1 0 C1 6.93 1 13.86 1 21 C4.3 21 7.6 21 11 21 C11 30.9 11 40.8 11 51 C7.37 51 3.74 51 0 51 C0 34.17 0 17.34 0 0 Z " fill="#8DA66E" transform="translate(232,345)"/>
<path d="M0 0 C11.88 0 23.76 0 36 0 C35.67 3.3 35.34 6.6 35 10 C23.45 10 11.9 10 0 10 C0 6.7 0 3.4 0 0 Z " fill="#739355" transform="translate(243,246)"/>
<path d="M0 0 C11.55 0 23.1 0 35 0 C35 3.3 35 6.6 35 10 C23.45 10 11.9 10 0 10 C0 6.7 0 3.4 0 0 Z " fill="#658C4A" transform="translate(232,429)"/>
<path d="M0 0 C3.3 0 6.6 0 10 0 C11 8.27 11.13 16.43 11.1 24.76 C11.1 26.16 11.09 27.55 11.09 28.95 C11.09 32.6 11.08 36.24 11.07 39.89 C11.06 43.63 11.05 47.36 11.05 51.09 C11.04 58.4 11.02 65.7 11 73 C10.34 72.67 9.68 72.34 9 72 C9 52.53 9 33.06 9 13 C8.67 15.97 8.34 18.94 8 22 C7.67 22 7.34 22 7 22 C6.5 19.53 6.5 19.53 6 17 C5.67 17.66 5.34 18.32 5 19 C0.25 21.76 -4.68 21.14 -10 21 C-10 17.37 -10 13.74 -10 10 C-6.7 10 -3.4 10 0 10 C0 6.7 0 3.4 0 0 Z " fill="#444451" transform="translate(394,130)"/>
<path d="M0 0 C11.22 0 22.44 0 34 0 C34 3.3 34 6.6 34 10 C22.78 10 11.56 10 0 10 C0 6.7 0 3.4 0 0 Z " fill="#97AD79" transform="translate(233,418)"/>
<path d="M0 0 C3.63 0 7.26 0 11 0 C11 3.3 11 6.6 11 10 C16.94 9.67 22.88 9.34 29 9 C29 8.34 29 7.68 29 7 C33.45 6.5 33.45 6.5 38 6 C34.7 5.67 31.4 5.34 28 5 C28.33 4.34 28.66 3.68 29 3 C37.91 3 46.82 3 56 3 C56.5 6.96 56.5 6.96 57 11 C38.19 11 19.38 11 0 11 C0 7.37 0 3.74 0 0 Z " fill="#547D37" transform="translate(221,161)"/>
<path d="M0 0 C11.88 0 23.76 0 36 0 C36 0.99 36 1.98 36 3 C35.34 3 34.68 3 34 3 C34 3.66 34 4.32 34 5 C33.34 5 32.68 5 32 5 C32 5.66 32 6.32 32 7 C31.34 7 30.68 7 30 7 C30 7.99 30 8.98 30 10 C27.5 11.25 25.79 11.11 22.99 11.1 C22.01 11.09 21.02 11.09 20 11.09 C18.97 11.08 17.94 11.07 16.88 11.06 C15.31 11.06 15.31 11.06 13.72 11.05 C11.15 11.04 8.57 11.02 6 11 C6 14.3 6 17.6 6 21 C9.63 21 13.26 21 17 21 C17 23.97 17 26.94 17 30 C16.67 30 16.34 30 16 30 C16 27.36 16 24.72 16 22 C12.37 22 8.74 22 5 22 C5 15.07 5 8.14 5 1 C3.35 1 1.7 1 0 1 C0 0.67 0 0.34 0 0 Z " fill="#8FA975" transform="translate(178,417)"/>
<path d="M0 0 C10.56 0 21.12 0 32 0 C32 2.97 32 5.94 32 9 C28.7 9 25.4 9 22 9 C22 12.96 22 16.92 22 21 C21.67 21 21.34 21 21 21 C20.5 16.05 20.5 16.05 20 11 C17.83 11.03 17.83 11.03 15.62 11.06 C10.35 11.07 5.23 10.6 0 10 C0 6.7 0 3.4 0 0 Z " fill="#1B1519" transform="translate(340,236)"/>
<path d="M0 0 C3.3 0 6.6 0 10 0 C10.68 6.72 11.11 13.25 11 20 C13.97 20.33 16.94 20.66 20 21 C20 24.63 20 28.26 20 32 C16.7 32 13.4 32 10 32 C10 28.37 10 24.74 10 21 C6.7 21 3.4 21 0 21 C0 14.07 0 7.14 0 0 Z " fill="#4C4B5A" transform="translate(288,182)"/>
<path d="M0 0 C19.47 0 38.94 0 59 0 C59 0.33 59 0.66 59 1 C40.52 1 22.04 1 3 1 C3 11.23 3 21.46 3 32 C0.03 32 -2.94 32 -6 32 C-6.12 27.75 -6.19 23.5 -6.25 19.25 C-6.28 18.04 -6.32 16.84 -6.35 15.59 C-6.36 14.43 -6.38 13.27 -6.39 12.08 C-6.41 11.01 -6.43 9.94 -6.45 8.84 C-5.89 5.32 -4.79 4.15 -2 2 C-1.34 2 -0.68 2 0 2 C0 1.34 0 0.68 0 0 Z " fill="#6C8B51" transform="translate(229,235)"/>
<path d="M0 0 C0.33 0 0.66 0 1 0 C1 3.63 1 7.26 1 11 C4.3 11 7.6 11 11 11 C11 14.3 11 17.6 11 21 C0.77 21 -9.46 21 -20 21 C-20 17.7 -20 14.4 -20 11 C-13.4 11 -6.8 11 0 11 C0 7.37 0 3.74 0 0 Z " fill="#355B1F" transform="translate(339,235)"/>
<path d="M0 0 C4.95 0 9.9 0 15 0 C15 7.26 15 14.52 15 22 C-21.96 22.93 -58.85 23.01 -95.81 22.56 C-96.86 22.55 -97.91 22.54 -98.99 22.52 C-111.99 22.36 -125 22.18 -138 22 C-138 40.81 -138 59.62 -138 79 C-138.33 79 -138.66 79 -139 79 C-139 59.86 -139 40.72 -139 21 C-111.61 20.67 -84.22 20.34 -56 20 C-55.67 18.02 -55.34 16.04 -55 14 C-56.13 13.88 -57.27 13.75 -58.44 13.62 C-59.61 13.42 -60.79 13.21 -62 13 C-62.5 12.01 -62.5 12.01 -63 11 C-59.7 11 -56.4 11 -53 11 C-53.33 13.31 -53.66 15.62 -54 18 C-50.37 18 -46.74 18 -43 18 C-42.5 18.99 -42.5 18.99 -42 20 C-23.52 20.33 -5.04 20.66 14 21 C14 14.4 14 7.8 14 1 C9.38 1 4.76 1 0 1 C0 0.67 0 0.34 0 0 Z " fill="#37512B" transform="translate(362,256)"/>
<path d="M0 0 C1.1 -0 2.2 -0.01 3.34 -0.01 C4.55 -0.01 5.77 -0.01 7.03 -0.01 C8.94 -0.02 8.94 -0.02 10.89 -0.02 C14.4 -0.03 17.9 -0.03 21.41 -0.03 C24.33 -0.03 27.25 -0.04 30.18 -0.04 C37.07 -0.05 43.96 -0.05 50.85 -0.05 C57.98 -0.05 65.1 -0.06 72.22 -0.08 C78.32 -0.09 84.42 -0.1 90.53 -0.1 C94.18 -0.09 97.83 -0.1 101.48 -0.11 C105.55 -0.12 109.61 -0.12 113.68 -0.11 C115.51 -0.12 115.51 -0.12 117.37 -0.13 C118.47 -0.12 119.58 -0.12 120.71 -0.11 C122.16 -0.11 122.16 -0.11 123.63 -0.12 C125.92 0.13 125.92 0.13 127.92 2.13 C85.02 2.13 42.12 2.13 -2.08 2.13 C-2.08 6.09 -2.08 10.05 -2.08 14.13 C-6.37 14.13 -10.66 14.13 -15.08 14.13 C-15.41 17.1 -15.74 20.07 -16.08 23.13 C-15.42 23.13 -14.76 23.13 -14.08 23.13 C-14.08 23.79 -14.08 24.45 -14.08 25.13 C-13.42 25.13 -12.76 25.13 -12.08 25.13 C-11.75 26.12 -11.42 27.11 -11.08 28.13 C-11.74 28.13 -12.4 28.13 -13.08 28.13 C-13.08 27.47 -13.08 26.81 -13.08 26.13 C-13.74 26.13 -14.4 26.13 -15.08 26.13 C-15.08 25.47 -15.08 24.81 -15.08 24.13 C-15.74 24.13 -16.4 24.13 -17.08 24.13 C-17.08 20.17 -17.08 16.21 -17.08 12.13 C-13.45 12.13 -9.82 12.13 -6.08 12.13 C-6.1 10.34 -6.12 8.54 -6.14 6.7 C-6.16 4.84 -6.15 2.99 -6.08 1.13 C-4.4 -0.55 -2.31 0 0 0 Z " fill="#94AA82" transform="translate(200.08006286621094,72.86628723144531)"/>
<path d="M0 0 C0.33 0 0.66 0 1 0 C1 3.3 1 6.6 1 10 C4.3 10 7.6 10 11 10 C11 13.63 11 17.26 11 21 C14.63 21 18.26 21 22 21 C22 24.3 22 27.6 22 31 C25.3 31 28.6 31 32 31 C32 52.45 32 73.9 32 96 C28.7 96 25.4 96 22 96 C22 102.93 22 109.86 22 117 C21.67 117 21.34 117 21 117 C21 109.74 21 102.48 21 95 C24.3 95 27.6 95 31 95 C31 74.21 31 53.42 31 32 C27.7 32 24.4 32 21 32 C21 28.7 21 25.4 21 22 C17.7 22 14.4 22 11 22 C11 25.3 11 28.6 11 32 C4.07 32 -2.86 32 -10 32 C-10 31.67 -10 31.34 -10 31 C-6.37 31 -2.74 31 1 31 C1 27.7 1 24.4 1 21 C3.97 21 6.94 21 10 21 C10 17.7 10 14.4 10 11 C7.03 11 4.06 11 1 11 C0.67 11.99 0.34 12.98 0 14 C-1.32 13.67 -2.64 13.34 -4 13 C-4 12.34 -4 11.68 -4 11 C-2.68 11 -1.36 11 0 11 C0 7.37 0 3.74 0 0 Z " fill="#706D75" transform="translate(383,108)"/>
<path d="M0 0 C2.64 0 5.28 0 8 0 C8 0.66 8 1.32 8 2 C8.66 2 9.32 2 10 2 C10 1.34 10 0.68 10 0 C11.46 -0.05 12.92 -0.09 14.38 -0.12 C15.19 -0.15 16 -0.17 16.84 -0.2 C19 0 19 0 21 2 C21 4.31 21 6.62 21 9 C10.77 9 0.54 9 -10 9 C-10 12.63 -10 16.26 -10 20 C-12.97 20 -15.94 20 -19 20 C-19 14.39 -19 8.78 -19 3 C-18.67 3 -18.34 3 -18 3 C-17.67 4.65 -17.34 6.3 -17 8 C-14.88 8.23 -14.88 8.23 -13.38 6.5 C-12.69 5.76 -12.69 5.76 -12 5 C-11.67 5.66 -11.34 6.32 -11 7 C-4.07 7 2.86 7 10 7 C10 5.68 10 4.36 10 3 C9.01 3.5 9.01 3.5 8 4 C6 4.04 4 4.04 2 4 C2 3.34 2 2.68 2 2 C1.34 2 0.68 2 0 2 C0 1.34 0 0.68 0 0 Z " fill="#32591D" transform="translate(328,419)"/>
<path d="M0 0 C6.93 0 13.86 0 21 0 C21.02 3.44 21.04 6.89 21.06 10.44 C21.07 11.52 21.08 12.61 21.09 13.73 C21.09 14.58 21.1 15.43 21.1 16.31 C21.1 17.18 21.11 18.06 21.11 18.96 C21 21 21 21 20 22 C18.53 22.09 17.05 22.12 15.57 22.11 C14.63 22.11 13.69 22.11 12.72 22.11 C11.7 22.11 10.67 22.1 9.62 22.1 C8.58 22.1 7.54 22.09 6.46 22.09 C3.12 22.09 -0.22 22.08 -3.56 22.06 C-5.82 22.06 -8.08 22.05 -10.34 22.05 C-15.89 22.04 -21.45 22.02 -27 22 C-27 21.67 -27 21.34 -27 21 C-17.43 21 -7.86 21 2 21 C2 17.7 2 14.4 2 11 C7.94 11 13.88 11 20 11 C20 7.7 20 4.4 20 1 C13.4 1 6.8 1 0 1 C0 0.67 0 0.34 0 0 Z " fill="#739159" transform="translate(184,235)"/>
<path d="M0 0 C9.9 0 19.8 0 30 0 C30 3.3 30 6.6 30 10 C26.56 10.08 23.13 10.14 19.69 10.19 C18.22 10.23 18.22 10.23 16.73 10.26 C15.32 10.28 15.32 10.28 13.89 10.29 C13.02 10.31 12.16 10.32 11.27 10.34 C8.52 9.93 7.64 9.2 6 7 C6 6.34 6 5.68 6 5 C5.38 4.92 4.76 4.84 4.12 4.75 C2 4 2 4 0 0 Z " fill="#577D3E" transform="translate(309,236)"/>
<path d="M0 0 C3.63 0 7.26 0 11 0 C11 7.26 11 14.52 11 22 C7.37 22 3.74 22 0 22 C0 14.74 0 7.48 0 0 Z " fill="#8CA26D" transform="translate(232,299)"/>
<path d="M0 0 C3.63 0 7.26 0 11 0 C11 7.26 11 14.52 11 22 C7.37 22 3.74 22 0 22 C0 14.74 0 7.48 0 0 Z " fill="#567C3E" transform="translate(373,181)"/>
<path d="M0 0 C0.78 0 1.56 0.01 2.37 0.01 C3.19 0.01 4.01 0.01 4.85 0.01 C7.57 0.01 10.3 0.02 13.02 0.03 C14.9 0.03 16.78 0.03 18.66 0.03 C23.63 0.03 28.59 0.04 33.55 0.06 C38.61 0.07 43.67 0.07 48.73 0.08 C58.67 0.09 68.61 0.1 78.54 0.12 C78.54 0.45 78.54 0.78 78.54 1.12 C39.44 1.62 39.44 1.62 -0.46 2.12 C-0.13 4.1 0.2 6.08 0.54 8.12 C0.61 10.08 0.63 12.04 0.61 14 C0.6 14.97 0.59 15.93 0.58 16.93 C0.56 18.02 0.56 18.02 0.54 19.12 C-1.93 18.13 -1.93 18.13 -4.46 17.12 C-4.79 32.3 -5.12 47.48 -5.46 63.12 C-5.79 63.12 -6.12 63.12 -6.46 63.12 C-6.48 55.06 -6.5 46.99 -6.51 38.92 C-6.51 35.18 -6.52 31.43 -6.53 27.69 C-6.54 24.08 -6.55 20.47 -6.55 16.85 C-6.55 15.47 -6.56 14.09 -6.56 12.71 C-6.57 10.78 -6.57 8.86 -6.57 6.93 C-6.57 5.83 -6.57 4.73 -6.58 3.6 C-6.35 -0.99 -4.02 0.01 0 0 Z " fill="#4C6C36" transform="translate(229.45516967773438,343.8755798339844)"/>
<path d="M0 0 C0.33 0 0.66 0 1 0 C1.33 34.98 1.66 69.96 2 106 C2.33 106 2.66 106 3 106 C3 110.95 3 115.9 3 121 C3.66 121 4.32 121 5 121 C5.03 122.46 5.05 123.92 5.06 125.38 C5.07 126.19 5.09 127 5.1 127.84 C5 130 5 130 4 132 C3.34 132 2.68 132 2 132 C2 132.66 2 133.32 2 134 C1.34 134 0.68 134 0 134 C0 139.28 0 144.56 0 150 C-3.96 150 -7.92 150 -12 150 C-12 149.67 -12 149.34 -12 149 C-8.37 149 -4.74 149 -1 149 C-0.67 99.83 -0.34 50.66 0 0 Z " fill="#8E9E86" transform="translate(385,246)"/>
<path d="M0 0 C3.3 0 6.6 0 10 0 C10 7.26 10 14.52 10 22 C6.7 21.67 3.4 21.34 0 21 C0 14.07 0 7.14 0 0 Z " fill="#322D34" transform="translate(278,182)"/>
<path d="M0 0 C3.3 0 6.6 0 10 0 C10 6.93 10 13.86 10 21 C6.7 21 3.4 21 0 21 C0 14.07 0 7.14 0 0 Z " fill="#7E7C8C" transform="translate(298,119)"/>
<path d="M0 0 C6.6 0 13.2 0 20 0 C20 3.63 20 7.26 20 11 C13.25 11.11 6.72 10.68 0 10 C0 6.7 0 3.4 0 0 Z " fill="#5D8342" transform="translate(184,428)"/>
<path d="M0 0 C3.3 0 6.6 0 10 0 C10 6.6 10 13.2 10 20 C6.7 20 3.4 20 0 20 C0 13.4 0 6.8 0 0 Z " fill="#515460" transform="translate(278,162)"/>
<path d="M0 0 C2 -0.04 4 -0.04 6 0 C7 1 7 1 7.12 3.81 C7 7 7 7 6 11 C-0.93 11 -7.86 11 -15 11 C-14.67 8.69 -14.34 6.38 -14 4 C-10.03 1.14 -6.82 0.66 -2 1 C-1.67 1.99 -1.34 2.98 -1 4 C-0.34 4 0.32 4 1 4 C0.67 2.68 0.34 1.36 0 0 Z " fill="#352A36" transform="translate(365,97)"/>
<path d="M0 0 C3.63 0 7.26 0 11 0 C11 0.33 11 0.66 11 1 C7.7 1 4.4 1 1 1 C1 7.6 1 14.2 1 21 C-2.3 21 -5.6 21 -9 21 C-9 23.64 -9 26.28 -9 29 C-21.89 29.89 -34.66 30.08 -47.57 29.88 C-49.47 29.85 -51.38 29.83 -53.28 29.81 C-58.22 29.75 -63.16 29.68 -68.1 29.61 C-73.17 29.53 -78.24 29.47 -83.31 29.4 C-93.21 29.28 -103.1 29.14 -113 29 C-113 28.67 -113 28.34 -113 28 C-79.01 28 -45.02 28 -10 28 C-10 25.36 -10 22.72 -10 20 C-7.02 18.76 -4.14 17.74 -1 17 C-1.01 16.19 -1.02 15.38 -1.04 14.55 C-1.04 13.48 -1.05 12.41 -1.06 11.31 C-1.07 10.26 -1.09 9.2 -1.1 8.11 C-1 5 -1 5 0 0 Z " fill="#5F6A5F" transform="translate(328,448)"/>
<path d="M0 0 C2.97 0 5.94 0 9 0 C9.33 1.32 9.66 2.64 10 4 C9.01 4.33 8.02 4.66 7 5 C5.05 7.92 4.55 9.63 4 13 C5.32 13 6.64 13 8 13 C8 12.01 8 11.02 8 10 C8.66 10 9.32 10 10 10 C9.97 11.99 9.93 13.97 9.9 15.96 C9.92 18.2 9.92 18.2 11 21 C7.37 21 3.74 21 0 21 C0 14.07 0 7.14 0 0 Z " fill="#284D16" transform="translate(362,182)"/>
<path d="M0 0 C3.63 0 7.26 0 11 0 C11 3.3 11 6.6 11 10 C26.18 10 41.36 10 57 10 C57 10.33 57 10.66 57 11 C38.19 11 19.38 11 0 11 C0 7.37 0 3.74 0 0 Z " fill="#395E26" transform="translate(221,161)"/>
<path d="M0 0 C0.33 0 0.66 0 1 0 C1 2.64 1 5.28 1 8 C2.07 7.96 3.14 7.92 4.25 7.88 C8 8 8 8 12 10 C12 12.97 12 15.94 12 19 C14.31 19 16.62 19 19 19 C19 19.33 19 19.66 19 20 C12.73 20 6.46 20 0 20 C0 13.4 0 6.8 0 0 Z " fill="#162A0E" transform="translate(288,205)"/>
<path d="M0 0 C1.65 0 3.3 0 5 0 C5 4.62 5 9.24 5 14 C8.3 14 11.6 14 15 14 C15 14.33 15 14.66 15 15 C-0.18 15 -15.36 15 -31 15 C-31 14.67 -31 14.34 -31 14 C-22.09 14 -13.18 14 -4 14 C-4 11.36 -4 8.72 -4 6 C-2.68 6 -1.36 6 0 6 C0 4.02 0 2.04 0 0 Z " fill="#3E6625" transform="translate(263,382)"/>
<path d="M0 0 C1.98 0.99 1.98 0.99 4 2 C4.03 4.46 4.05 6.92 4.06 9.38 C4.07 10.07 4.08 10.77 4.09 11.49 C4.11 16.77 4.11 16.77 3 19 C21.48 19.33 39.96 19.66 59 20 C59 21.32 59 22.64 59 24 C58.01 23.67 57.02 23.34 56 23 C56.66 23 57.32 23 58 23 C58 22.34 58 21.68 58 21 C39.19 21 20.38 21 1 21 C0.2 16.22 -0.12 11.91 -0.06 7.12 C-0.06 6.44 -0.05 5.75 -0.05 5.04 C-0.04 3.36 -0.02 1.68 0 0 Z " fill="#506744" transform="translate(156,257)"/>
<path d="M0 0 C3.63 0 7.26 0 11 0 C11 10.89 11 21.78 11 33 C10.67 33 10.34 33 10 33 C10 22.44 10 11.88 10 1 C9.34 1 8.68 1 8 1 C8 5.95 8 10.9 8 16 C7.34 15.34 6.68 14.68 6 14 C5.67 14.66 5.34 15.32 5 16 C3.35 16 1.7 16 0 16 C-0.33 14.35 -0.66 12.7 -1 11 C0.32 11 1.64 11 3 11 C3.33 8.03 3.66 5.06 4 2 C2.68 1.34 1.36 0.68 0 0 Z " fill="#2C412A" transform="translate(362,288)"/>
<path d="M0 0 C1.98 0 3.96 0 6 0 C6.33 0.99 6.66 1.98 7 3 C13.98 3.86 13.98 3.86 21 4 C21.33 5.32 21.66 6.64 22 8 C20.38 8.03 18.75 8.05 17.12 8.06 C16.22 8.07 15.32 8.09 14.38 8.1 C12 8 12 8 10 7 C10 7.99 10 8.98 10 10 C8.68 10.33 7.36 10.66 6 11 C6 14.3 6 17.6 6 21 C9.63 21 13.26 21 17 21 C17 23.97 17 26.94 17 30 C16.67 30 16.34 30 16 30 C16 27.36 16 24.72 16 22 C12.37 22 8.74 22 5 22 C5 15.07 5 8.14 5 1 C3.35 1 1.7 1 0 1 C0 0.67 0 0.34 0 0 Z " fill="#A8B990" transform="translate(178,417)"/>
<path d="M0 0 C3.63 0 7.26 0 11 0 C11 7.26 11 14.52 11 22 C7.37 22 3.74 22 0 22 C0.33 21.34 0.66 20.68 1 20 C1 19.34 1 18.68 1 18 C1 16.33 1 14.67 1 13 C1.99 13 2.98 13 4 13 C4.33 12.34 4.66 11.68 5 11 C6.32 11 7.64 11 9 11 C9.33 7.7 9.66 4.4 10 1 C6.7 1 3.4 1 0 1 C0 0.67 0 0.34 0 0 Z " fill="#6A8D54" transform="translate(373,181)"/>
<path d="M0 0 C3.63 0 7.26 0 11 0 C10.01 0.33 9.02 0.66 8 1 C8 1.66 8 2.32 8 3 C8.66 3.33 9.32 3.66 10 4 C9.01 4 8.02 4 7 4 C7 4.66 7 5.32 7 6 C4 5 4 5 3 4 C3.01 4.63 3.01 5.26 3.02 5.91 C3.04 8.75 3.05 11.6 3.06 14.44 C3.07 15.43 3.08 16.42 3.09 17.45 C3.09 18.39 3.09 19.34 3.1 20.31 C3.1 21.18 3.11 22.06 3.11 22.96 C3 25 3 25 2 26 C-0.67 26.14 -3.32 26.04 -6 26 C-6 25.67 -6 25.34 -6 25 C-4.02 25 -2.04 25 0 25 C0 16.75 0 8.5 0 0 Z " fill="#A2B58B" transform="translate(204,192)"/>
<path d="M0 0 C3.63 0 7.26 0 11 0 C11 3.3 11 6.6 11 10 C7.37 10 3.74 10 0 10 C0 6.7 0 3.4 0 0 Z " fill="#1C1A1D" transform="translate(308,225)"/>
<path d="M0 0 C0 1.98 0 3.96 0 6 C-6.6 6 -13.2 6 -20 6 C-20.33 4.35 -20.66 2.7 -21 1 C-18.63 0.83 -16.25 0.66 -13.88 0.5 C-13.21 0.45 -12.54 0.4 -11.86 0.36 C-7.9 0.08 -3.97 -0.05 0 0 Z " fill="#0B2306" transform="translate(350,218)"/>
<path d="M0 0 C3.3 0 6.6 0 10 0 C10 3.63 10 7.26 10 11 C6.7 11 3.4 11 0 11 C0 7.37 0 3.74 0 0 Z " fill="#4C4E5C" transform="translate(384,203)"/>
<path d="M0 0 C3.3 0 6.6 0 10 0 C10 3.63 10 7.26 10 11 C6.7 11 3.4 11 0 11 C0 7.37 0 3.74 0 0 Z " fill="#221924" transform="translate(384,140)"/>
<path d="M0 0 C0.33 0 0.66 0 1 0 C1.03 3.92 1.05 7.83 1.06 11.75 C1.07 12.84 1.08 13.93 1.09 15.06 C1.11 22.43 0.7 29.66 0 37 C-3.63 37 -7.26 37 -11 37 C-11.33 35.68 -11.66 34.36 -12 33 C-9.36 33.33 -6.72 33.66 -4 34 C-3.93 30.66 -3.93 28.2 -5 25 C-4.34 25 -3.68 25 -3 25 C-3.06 23.86 -3.06 23.86 -3.12 22.69 C-3 20 -3 20 -1 17 C-0.64 15.07 -0.64 15.07 -0.59 12.99 C-0.53 11.85 -0.53 11.85 -0.47 10.69 C-0.42 9.51 -0.42 9.51 -0.38 8.31 C-0.32 7.12 -0.32 7.12 -0.26 5.9 C-0.16 3.93 -0.08 1.97 0 0 Z " fill="#1A2919" transform="translate(373,359)"/>
<path d="M0 0 C3.47 0.05 3.47 0.05 6.93 0.1 C6.93 3.73 6.93 7.36 6.93 11.1 C0 11.2 0 11.2 -2.07 11.1 C-3.07 10.1 -3.07 10.1 -3.2 8.07 C-3.2 7.25 -3.19 6.44 -3.19 5.6 C-3.19 4.78 -3.2 3.97 -3.2 3.13 C-3.02 0.35 -2.78 0.13 0 0 Z " fill="#4A4756" transform="translate(311.06640625,213.90234375)"/>
<path d="M0 0 C3.96 0 7.92 0 12 0 C12 2.97 12 5.94 12 9 C8.04 9 4.08 9 0 9 C0 6.03 0 3.06 0 0 Z " fill="#244412" transform="translate(350,172)"/>
<path d="M0 0 C0 3.63 0 7.26 0 11 C-3.3 11 -6.6 11 -10 11 C-10 7.7 -10 4.4 -10 1 C-8.54 0.84 -7.07 0.67 -5.56 0.5 C-4.33 0.36 -4.33 0.36 -3.07 0.22 C-1 0 -1 0 0 0 Z " fill="#1B151A" transform="translate(394,224)"/>
<path d="M0 0 C3.3 0 6.6 0 10 0 C10 3.3 10 6.6 10 10 C6.7 10 3.4 10 0 10 C0 6.7 0 3.4 0 0 Z " fill="#362E3B" transform="translate(298,140)"/>
<path d="M0 0 C3.3 0 6.6 0 10 0 C10 3.3 10 6.6 10 10 C6.7 10 3.4 10 0 10 C0 6.7 0 3.4 0 0 Z " fill="#2F2630" transform="translate(394,130)"/>
<path d="M0 0 C3.3 0 6.6 0 10 0 C10 2.97 10 5.94 10 9 C6.7 9 3.4 9 0 9 C0 6.03 0 3.06 0 0 Z " fill="#133707" transform="translate(195,439)"/>
<path d="M0 0 C2.97 0 5.94 0 9 0 C9 3.3 9 6.6 9 10 C6.03 10 3.06 10 0 10 C0 6.7 0 3.4 0 0 Z " fill="#1C131B" transform="translate(319,129)"/>
<path d="M0 0 C2.97 0 5.94 0 9 0 C9 3.3 9 6.6 9 10 C6.03 10 3.06 10 0 10 C0 6.7 0 3.4 0 0 Z " fill="#312531" transform="translate(384,119)"/>
<path d="M0 0 C2.97 0 5.94 0 9 0 C9 3.3 9 6.6 9 10 C2.25 10.12 2.25 10.12 0 9 C0 6.03 0 3.06 0 0 Z " fill="#2F2830" transform="translate(299,193)"/>
<path d="M0 0 C0.33 0 0.66 0 1 0 C1 4.95 1 9.9 1 15 C1.66 15 2.32 15 3 15 C3.03 16.46 3.05 17.92 3.06 19.38 C3.07 20.19 3.09 21 3.1 21.84 C3 24 3 24 2 26 C1.34 26 0.68 26 0 26 C0 26.66 0 27.32 0 28 C-0.66 28 -1.32 28 -2 28 C-2 33.28 -2 38.56 -2 44 C-5.96 44 -9.92 44 -14 44 C-14 43.67 -14 43.34 -14 43 C-10.37 43 -6.74 43 -3 43 C-3 37.39 -3 31.78 -3 26 C-2.34 26 -1.68 26 -1 26 C-0.67 17.42 -0.34 8.84 0 0 Z " fill="#678256" transform="translate(387,352)"/>
<path d="M0 0 C0.33 0.99 0.66 1.98 1 3 C8.26 3 15.52 3 23 3 C22.01 3.33 21.02 3.66 20 4 C20.19 5.13 20.37 6.27 20.56 7.44 C20.71 8.61 20.85 9.79 21 11 C20 12 20 12 17.93 12.1 C17.11 12.09 16.29 12.07 15.44 12.06 C14.61 12.05 13.78 12.04 12.93 12.04 C12.3 12.02 11.66 12.01 11 12 C11.12 10.19 11.12 10.19 12 8 C13.98 7.01 15.96 6.02 18 5 C12.06 4.67 6.12 4.34 0 4 C0 2.68 0 1.36 0 0 Z " fill="#747684" transform="translate(350,221)"/>
<path d="M0 0 C2.97 0 5.94 0 9 0 C9 2.64 9 5.28 9 8 C6.03 8 3.06 8 0 8 C0 5.36 0 2.72 0 0 Z " fill="#37601F" transform="translate(186,322)"/>
<path d="M0 0 C3.63 0 7.26 0 11 0 C11 0.33 11 0.66 11 1 C7.7 1 4.4 1 1 1 C1 7.6 1 14.2 1 21 C-2.63 21 -6.26 21 -10 21 C-8 19 -8 19 -5 17 C-3.68 17 -2.36 17 -1 17 C-1.01 16.19 -1.02 15.38 -1.04 14.55 C-1.04 13.48 -1.05 12.41 -1.06 11.31 C-1.07 10.26 -1.09 9.2 -1.1 8.11 C-1 5 -1 5 0 0 Z " fill="#4E594D" transform="translate(328,448)"/>
<path d="M0 0 C0.33 0 0.66 0 1 0 C1 1.98 1 3.96 1 6 C-2.63 6 -6.26 6 -10 6 C-9.67 10.29 -9.34 14.58 -9 19 C-10.98 19.99 -10.98 19.99 -13 21 C-12.67 19.68 -12.34 18.36 -12 17 C-14.97 17 -17.94 17 -21 17 C-21 23.6 -21 30.2 -21 37 C-21.33 37 -21.66 37 -22 37 C-22 30.07 -22 23.14 -22 16 C-18.37 16 -14.74 16 -11 16 C-11 12.37 -11 8.74 -11 5 C-7.37 5 -3.74 5 0 5 C0 3.35 0 1.7 0 0 Z " fill="#B9C7AB" transform="translate(194,219)"/>
<path d="M0 0 C1.32 0.33 2.64 0.66 4 1 C3.67 3.97 3.34 6.94 3 10 C2.34 10 1.68 10 1 10 C0.67 10.66 0.34 11.32 0 12 C0 8.04 0 4.08 0 0 Z " fill="#032000" transform="translate(362,289)"/>
<path d="M0 0 C0.66 0.99 1.32 1.98 2 3 C1.34 3 0.68 3 0 3 C-0.33 6.3 -0.66 9.6 -1 13 C-1.66 13 -2.32 13 -3 13 C-3.33 13.66 -3.66 14.32 -4 15 C-4 11.37 -4 7.74 -4 4 C-3.34 4 -2.68 4 -2 4 C-2 3.34 -2 2.68 -2 2 C-1.34 2 -0.68 2 0 2 C0 1.34 0 0.68 0 0 Z " fill="#375821" transform="translate(302,284)"/>
<path d="M0 0 C0.33 0 0.66 0 1 0 C1 3.3 1 6.6 1 10 C4.3 10 7.6 10 11 10 C11 10.33 11 10.66 11 11 C7.7 11 4.4 11 1 11 C0.67 11.99 0.34 12.98 0 14 C-1.32 13.67 -2.64 13.34 -4 13 C-4 12.34 -4 11.68 -4 11 C-2.68 11 -1.36 11 0 11 C0 7.37 0 3.74 0 0 Z " fill="#6F6A75" transform="translate(383,108)"/>
<path d="M0 0 C0.66 0.99 1.32 1.98 2 3 C1.01 3 0.02 3 -1 3 C-0.81 3.95 -0.63 4.9 -0.44 5.88 C0 9 0 9 -1 11 C-1.66 11 -2.32 11 -3 11 C-3.33 12.32 -3.66 13.64 -4 15 C-4 11.37 -4 7.74 -4 4 C-3.34 4 -2.68 4 -2 4 C-2 3.34 -2 2.68 -2 2 C-1.34 2 -0.68 2 0 2 C0 1.34 0 0.68 0 0 Z " fill="#385920" transform="translate(302,351)"/>
<path d="M0 0 C1.65 0 3.3 0 5 0 C5.66 1.32 6.32 2.64 7 4 C7.66 4 8.32 4 9 4 C8.67 4.66 8.34 5.32 8 6 C7.34 5.67 6.68 5.34 6 5 C5.67 5.99 5.34 6.98 5 8 C5 7.34 5 6.68 5 6 C4.34 6 3.68 6 3 6 C3 5.34 3 4.68 3 4 C2.34 4 1.68 4 1 4 C0.67 2.68 0.34 1.36 0 0 Z " fill="#403D40" transform="translate(189,100)"/>
<path d="M0 0 C0.99 0 1.98 0 3 0 C3 3.3 3 6.6 3 10 C1.68 9.67 0.36 9.34 -1 9 C-0.67 6.03 -0.34 3.06 0 0 Z " fill="#B2C09F" transform="translate(172,278)"/>
<path d="M0 0 C0.93 2.61 1.15 3.64 0.06 6.25 C-0.46 7.12 -0.46 7.12 -1 8 C-2.65 8 -4.3 8 -6 8 C-5.34 7.67 -4.68 7.34 -4 7 C-4 6.34 -4 5.68 -4 5 C-3.34 5 -2.68 5 -2 5 C-2 4.34 -2 3.68 -2 3 C-1.34 3 -0.68 3 0 3 C0 2.01 0 1.02 0 0 Z " fill="#406029" transform="translate(214,417)"/>
<path d="" fill="#FFFFFF" transform="translate(0,0)"/>
<path d="" fill="#FFFFFF" transform="translate(0,0)"/>
<path d="" fill="#FFFFFF" transform="translate(0,0)"/>
<path d="" fill="#FFFFFF" transform="translate(0,0)"/>
<path d="" fill="#FFFFFF" transform="translate(0,0)"/>
<path d="" fill="#FFFFFF" transform="translate(0,0)"/>
<path d="" fill="#FFFFFF" transform="translate(0,0)"/>
<path d="" fill="#FFFFFF" transform="translate(0,0)"/>
<path d="" fill="#FFFFFF" transform="translate(0,0)"/>
<path d="" fill="#FFFFFF" transform="translate(0,0)"/>
<path d="" fill="#FFFFFF" transform="translate(0,0)"/>
<path d="" fill="#FFFFFF" transform="translate(0,0)"/>
<path d="" fill="#FFFFFF" transform="translate(0,0)"/>
<path d="" fill="#FFFFFF" transform="translate(0,0)"/>
<path d="" fill="#FFFFFF" transform="translate(0,0)"/>
<path d="" fill="#FFFFFF" transform="translate(0,0)"/>
<path d="" fill="#FFFFFF" transform="translate(0,0)"/>
<path d="" fill="#FFFFFF" transform="translate(0,0)"/>
<path d="" fill="#FFFFFF" transform="translate(0,0)"/>
<path d="" fill="#FFFFFF" transform="translate(0,0)"/>
<path d="" fill="#FFFFFF" transform="translate(0,0)"/>
<path d="" fill="#FFFFFF" transform="translate(0,0)"/>
<path d="" fill="#FFFFFF" transform="translate(0,0)"/>
<path d="" fill="#FFFFFF" transform="translate(0,0)"/>
<path d="" fill="#FFFFFF" transform="translate(0,0)"/>
<path d="" fill="#FFFFFF" transform="translate(0,0)"/>
<path d="" fill="#FFFFFF" transform="translate(0,0)"/>
<path d="" fill="#FFFFFF" transform="translate(0,0)"/>
<path d="" fill="#FFFFFF" transform="translate(0,0)"/>
<path d="" fill="#FFFFFF" transform="translate(0,0)"/>
<path d="" fill="#FFFFFF" transform="translate(0,0)"/>
<path d="" fill="#FFFFFF" transform="translate(0,0)"/>
<path d="" fill="#FFFFFF" transform="translate(0,0)"/>
<path d="" fill="#FFFFFF" transform="translate(0,0)"/>
<path d="" fill="#FFFFFF" transform="translate(0,0)"/>
<path d="" fill="#FFFFFF" transform="translate(0,0)"/>
<path d="" fill="#FFFFFF" transform="translate(0,0)"/>
<path d="" fill="#FFFFFF" transform="translate(0,0)"/>
<path d="" fill="#FFFFFF" transform="translate(0,0)"/>
<path d="" fill="#FFFFFF" transform="translate(0,0)"/>
<path d="" fill="#FFFFFF" transform="translate(0,0)"/>
<path d="" fill="#FFFFFF" transform="translate(0,0)"/>
<path d="" fill="#FFFFFF" transform="translate(0,0)"/>
<path d="" fill="#FFFFFF" transform="translate(0,0)"/>
<path d="" fill="#FFFFFF" transform="translate(0,0)"/>
<path d="" fill="#FFFFFF" transform="translate(0,0)"/>
<path d="" fill="#FFFFFF" transform="translate(0,0)"/>
</svg>
