<?xml version="1.0" encoding="UTF-8"?>
<svg version="1.1" xmlns="http://www.w3.org/2000/svg" width="299" height="202">
<path d="M0 0 C0 0.66 0 1.32 0 2 C0.99 2 1.98 2 3 2 C3 3.32 3 4.64 3 6 C22.14 6 41.28 6 61 6 C61 7.32 61 8.64 61 10 C74.2 10 87.4 10 101 10 C101 8.68 101 7.36 101 6 C124.43 6 147.86 6 172 6 C172 4.02 172 2.04 172 0 C175.72908769 -0.16846533 179.45828159 -0.33445581 183.1875 -0.5 C184.24259766 -0.54769531 185.29769531 -0.59539063 186.38476562 -0.64453125 C187.91713867 -0.71220703 187.91713867 -0.71220703 189.48046875 -0.78125 C190.88655396 -0.8440918 190.88655396 -0.8440918 192.32104492 -0.90820312 C194.87937801 -0.99586678 197.44016542 -1 200 -1 C200 2.3 200 5.6 200 9 C201.65 9 203.3 9 205 9 C205 10.32 205 11.64 205 13 C205.99 13 206.98 13 208 13 C208.33 13.66 208.66 14.32 209 15 C210.98 15.33 212.96 15.66 215 16 C215 21.61 215 27.22 215 33 C213.35 33 211.7 33 210 33 C210 34.98 210 36.96 210 39 C208.68 39 207.36 39 206 39 C206 44.28 206 49.56 206 55 C205.01 55 204.02 55 203 55 C203 56.32 203 57.64 203 59 C201.68 59 200.36 59 199 59 C199 60.65 199 62.3 199 64 C194.90553672 65.14036717 190.96580914 65.13297818 186.74316406 65.11352539 C185.91352646 65.11367142 185.08388885 65.11381744 184.22911072 65.1139679 C181.4912554 65.11327212 178.75346841 65.10549539 176.015625 65.09765625 C174.11562131 65.09579088 172.21561714 65.09436754 170.31561279 65.09336853 C165.31791859 65.08955273 160.32025351 65.07973041 155.3225708 65.06866455 C150.22156162 65.05843031 145.12054774 65.05386659 140.01953125 65.04882812 C130.01300805 65.03810732 120.00650645 65.02104212 110 65 C110 66.65 110 68.3 110 70 C108.35 70 106.7 70 105 70 C105.01160156 71.21558594 105.02320313 72.43117188 105.03515625 73.68359375 C105.04453278 75.26822764 105.05363313 76.85286318 105.0625 78.4375 C105.07087891 79.23994141 105.07925781 80.04238281 105.08789062 80.86914062 C105.0965143 82.91295221 105.0522815 84.95683902 105 87 C104 88 104 88 101.4375 88.0625 C100.633125 88.041875 99.82875 88.02125 99 88 C99 89.65 99 91.3 99 93 C97.35 93 95.7 93 94 93 C93.67 94.32 93.34 95.64 93 97 C80.79 97 68.58 97 56 97 C55.67 95.68 55.34 94.36 55 93 C52.36 92.67 49.72 92.34 47 92 C47 93.98 47 95.96 47 98 C45.68 98 44.36 98 43 98 C43 101.96 43 105.92 43 110 C41.68 110 40.36 110 39 110 C39 113.3 39 116.6 39 120 C37.68 120 36.36 120 35 120 C35 124.62 35 129.24 35 134 C33.68 134 32.36 134 31 134 C31 140.27 31 146.54 31 153 C29.68 153 28.36 153 27 153 C27 155.31 27 157.62 27 160 C25.35 160 23.7 160 22 160 C22 162.31 22 164.62 22 167 C5.5 167 -11 167 -28 167 C-28 163.37 -28 159.74 -28 156 C-29.65 156 -31.3 156 -33 156 C-33.33 154.68 -33.66 153.36 -34 152 C-34.99 152 -35.98 152 -37 152 C-37 150.35 -37 148.7 -37 147 C-38.32 147 -39.64 147 -41 147 C-41 145.35 -41 143.7 -41 142 C-41.66 142 -42.32 142 -43 142 C-43 132.43 -43 122.86 -43 113 C-41.35 113 -39.7 113 -38 113 C-38 110.36 -38 107.72 -38 105 C-36.68 105 -35.36 105 -34 105 C-34 102.03 -34 99.06 -34 96 C-32.68 96 -31.36 96 -30 96 C-30 92.7 -30 89.4 -30 86 C-28.35 86 -26.7 86 -25 86 C-25 83.03 -25 80.06 -25 77 C-23.515 76.505 -23.515 76.505 -22 76 C-22 71.38 -22 66.76 -22 62 C-23.65 61.67 -25.3 61.34 -27 61 C-29 57.95238095 -29 57.95238095 -29 56 C-30.65 55.67 -32.3 55.34 -34 55 C-34.33 53.35 -34.66 51.7 -35 50 C-38.96 49.505 -38.96 49.505 -43 49 C-43.042721 47.33388095 -43.04063832 45.66617115 -43 44 C-42 43 -42 43 -39.4375 42.9375 C-38.633125 42.958125 -37.82875 42.97875 -37 43 C-37 41.68 -37 40.36 -37 39 C-35.02 39 -33.04 39 -31 39 C-31.33 34.71 -31.66 30.42 -32 26 C-33.98 25.67 -35.96 25.34 -38 25 C-38 23.35 -38 21.7 -38 20 C-39.98 20 -41.96 20 -44 20 C-44 17.69 -44 15.38 -44 13 C-38.22240116 12.87963336 -32.72040011 13.1679418 -27 14 C-27 12.02 -27 10.04 -27 8 C-25.02 8 -23.04 8 -21 8 C-21 5.36 -21 2.72 -21 0 C-15.18190679 -2.9090466 -6.2532664 -0.94388927 0 0 Z M71 65 C70.95936168 66.66617115 70.957279 68.33388095 71 70 C72.32 70 73.64 70 75 70 C75 71.65 75 73.3 75 75 C76.32 74.67 77.64 74.34 79 74 C79 76.97 79 79.94 79 83 C77.20601116 82.74500159 75.41479125 82.47046186 73.625 82.1875 C72.62726563 82.03667969 71.62953125 81.88585937 70.6015625 81.73046875 C68 81 68 81 66 78 C65.34 78 64.68 78 64 78 C64 76.68 64 75.36 64 74 C62.35 74 60.7 74 59 74 C59.03255208 71.94921875 59.06510417 69.8984375 59.09765625 67.84765625 C59.20561184 65.98267859 59.20561184 65.98267859 58 65 C56.02 65 54.04 65 52 65 C52 69.95 52 74.9 52 80 C53.32 79.67 54.64 79.34 56 79 C56 80.65 56 82.3 56 84 C57.65 84 59.3 84 61 84 C61 84.99 61 85.98 61 87 C70.57 87 80.14 87 90 87 C90.33 85.35 90.66 83.7 91 82 C92.65 81.67 94.3 81.34 96 81 C96.02684679 78.35409986 96.04676357 75.70846904 96.0625 73.0625 C96.07506836 71.93038086 96.07506836 71.93038086 96.08789062 70.77539062 C96.09652441 68.85005687 96.05224333 66.92464419 96 65 C94.31483046 63.31483046 92.21232212 63.86991981 89.90625 63.8671875 C88.87628906 63.86589844 87.84632813 63.86460938 86.78515625 63.86328125 C85.70105469 63.86714844 84.61695313 63.87101562 83.5 63.875 C81.87384766 63.86919922 81.87384766 63.86919922 80.21484375 63.86328125 C79.18488281 63.86457031 78.15492188 63.86585937 77.09375 63.8671875 C75.66579102 63.86887939 75.66579102 63.86887939 74.20898438 63.87060547 C72.02547862 63.75300544 72.02547862 63.75300544 71 65 Z " fill="#08080F" transform="translate(62,16)"/>
<path d="M0 0 C0 0.66 0 1.32 0 2 C0.99 2 1.98 2 3 2 C3 3.32 3 4.64 3 6 C22.14 6 41.28 6 61 6 C61 7.32 61 8.64 61 10 C74.2 10 87.4 10 101 10 C101 10.33 101 10.66 101 11 C87.47 11 73.94 11 60 11 C60 9.68 60 8.36 60 7 C46.8 7.33 33.6 7.66 20 8 C20.99 9.98 20.99 9.98 22 12 C22 13.32 22 14.64 22 16 C21.01 16 20.02 16 19 16 C19 17.32 19 18.64 19 20 C16.36 20 13.72 20 11 20 C10.90912109 21.82337891 10.90912109 21.82337891 10.81640625 23.68359375 C10.73201668 25.26824228 10.6473679 26.85287702 10.5625 28.4375 C10.52318359 29.23994141 10.48386719 30.04238281 10.44335938 30.86914062 C10.11328125 36.88671875 10.11328125 36.88671875 9 38 C0.42 38.33 -8.16 38.66 -17 39 C24.085 39.99 24.085 39.99 66 41 C66 41.99 66 42.98 66 44 C65.34 44 64.68 44 64 44 C64 46.97 64 49.94 64 53 C67.63 53 71.26 53 75 53 C75 49.7 75 46.4 75 43 C73.02 43.33 71.04 43.66 69 44 C69 43.01 69 42.02 69 41 C82.86 41 96.72 41 111 41 C111 52 111 52 110 56 C89.54 56 69.08 56 48 56 C48 54.02 48 52.04 48 50 C44.7 50 41.4 50 38 50 C38 48.35 38 46.7 38 45 C36.515 45.495 36.515 45.495 35 46 C35 49.3 35 52.6 35 56 C36.65 56 38.3 56 40 56 C40 57.32 40 58.64 40 60 C38.02 60 36.04 60 34 60 C34 58.68 34 57.36 34 56 C32.68 56 31.36 56 30 56 C30 57.32 30 58.64 30 60 C20.76 60 11.52 60 2 60 C2 63.63 2 67.26 2 71 C10.25 71 18.5 71 27 71 C27 72.65 27 74.3 27 76 C26.2479126 75.99476318 25.4958252 75.98952637 24.72094727 75.98413086 C21.33480658 75.96342773 17.94867916 75.95036123 14.5625 75.9375 C13.37849609 75.92912109 12.19449219 75.92074219 10.97460938 75.91210938 C9.84990234 75.90888672 8.72519531 75.90566406 7.56640625 75.90234375 C6.52427979 75.89710693 5.48215332 75.89187012 4.40844727 75.88647461 C2.04871253 75.72694444 2.04871253 75.72694444 1 77 C-0.65 77 -2.3 77 -4 77 C-4 80.3 -4 83.6 -4 87 C-4.66 87 -5.32 87 -6 87 C-6 85.35 -6 83.7 -6 82 C-6.66 82 -7.32 82 -8 82 C-8 86.62 -8 91.24 -8 96 C-9.32 96 -10.64 96 -12 96 C-12 97.98 -12 99.96 -12 102 C-13.32 102 -14.64 102 -16 102 C-16.33 106.62 -16.66 111.24 -17 116 C-21.455 116.495 -21.455 116.495 -26 117 C-26 110.4 -26 103.8 -26 97 C-24.35 97 -22.7 97 -21 97 C-21 93.7 -21 90.4 -21 87 C-19.68 87 -18.36 87 -17 87 C-16.67 84.03 -16.34 81.06 -16 78 C-15.01 78 -14.02 78 -13 78 C-13 71.73 -13 65.46 -13 59 C-15.31 59 -17.62 59 -20 59 C-20.33 60.32 -20.66 61.64 -21 63 C-26.64912281 61.52631579 -26.64912281 61.52631579 -28.375 58.9375 C-29 57 -29 57 -29 56 C-30.65 55.67 -32.3 55.34 -34 55 C-34.33 53.35 -34.66 51.7 -35 50 C-38.96 49.505 -38.96 49.505 -43 49 C-43.042721 47.33388095 -43.04063832 45.66617115 -43 44 C-42 43 -42 43 -39.4375 42.9375 C-38.633125 42.958125 -37.82875 42.97875 -37 43 C-37 41.68 -37 40.36 -37 39 C-35.02 39 -33.04 39 -31 39 C-31.33 34.71 -31.66 30.42 -32 26 C-33.98 25.67 -35.96 25.34 -38 25 C-38 23.35 -38 21.7 -38 20 C-39.98 20 -41.96 20 -44 20 C-44 17.69 -44 15.38 -44 13 C-38.22240116 12.87963336 -32.72040011 13.1679418 -27 14 C-27 12.02 -27 10.04 -27 8 C-25.02 8 -23.04 8 -21 8 C-21 5.36 -21 2.72 -21 0 C-15.18190679 -2.9090466 -6.2532664 -0.94388927 0 0 Z " fill="#283055" transform="translate(62,16)"/>
<path d="M0 0 C4.62 0 9.24 0 14 0 C14 3.3 14 6.6 14 10 C15.65 10 17.3 10 19 10 C18.67 11.32 18.34 12.64 18 14 C18 13.01 18 12.02 18 11 C17.01 11.66 16.02 12.32 15 13 C14.34 13.33 13.68 13.66 13 14 C12.96241577 15.0372522 12.96241577 15.0372522 12.92407227 16.09545898 C12.80847839 19.20967866 12.68558758 22.32356789 12.5625 25.4375 C12.52318359 26.52611328 12.48386719 27.61472656 12.44335938 28.73632812 C12.40146484 29.77080078 12.35957031 30.80527344 12.31640625 31.87109375 C12.26141968 33.30859985 12.26141968 33.30859985 12.20532227 34.77514648 C12 37 12 37 11 38 C9.00041636 38.04080783 6.99954746 38.04254356 5 38 C5 36.68 5 35.36 5 34 C4.34 34 3.68 34 3 34 C3.33 29.38 3.66 24.76 4 20 C3.01 20.66 2.02 21.32 1 22 C0.67 26.95 0.34 31.9 0 37 C-56.43 37 -112.86 37 -171 37 C-171 36.67 -171 36.34 -171 36 C-168.69 36 -166.38 36 -164 36 C-164 34.68 -164 33.36 -164 32 C-163.01 32 -162.02 32 -161 32 C-161 30.68 -161 29.36 -161 28 C-159.68 28.33 -158.36 28.66 -157 29 C-157 24.05 -157 19.1 -157 14 C-146.44 14 -135.88 14 -125 14 C-125 16.64 -125 19.28 -125 22 C-133.58 22 -142.16 22 -151 22 C-151 24.31 -151 26.62 -151 29 C-145.72 29 -140.44 29 -135 29 C-135 28.01 -135 27.02 -135 26 C-132.36 26 -129.72 26 -127 26 C-127 25.34 -127 24.68 -127 24 C-113.47 24 -99.94 24 -86 24 C-86 21.03 -86 18.06 -86 15 C-84.32664004 13.32664004 -82.28612091 13.88037105 -80.05252075 13.87557983 C-79.3454599 13.87917511 -78.63839905 13.88277039 -77.90991211 13.88647461 C-77.16849472 13.88632858 -76.42707733 13.88618256 -75.66319275 13.8860321 C-73.20121379 13.88673135 -70.73930957 13.89452426 -68.27734375 13.90234375 C-66.57483461 13.90420789 -64.87232493 13.90563181 -63.16981506 13.90663147 C-58.68006927 13.91045698 -54.19035562 13.92028753 -49.70062256 13.93133545 C-45.12268509 13.94154887 -40.54474244 13.94612894 -35.96679688 13.95117188 C-26.97785043 13.96190978 -17.98892788 13.97898659 -9 14 C-9 14.99 -9 15.98 -9 17 C-8.01 17 -7.02 17 -6 17 C-5.67 16.01 -5.34 15.02 -5 14 C-3.02 14 -1.04 14 1 14 C1 15.65 1 17.3 1 19 C1.99 19 2.98 19 4 19 C3.195625 17.205625 3.195625 17.205625 2.375 15.375 C1.12121301 12.085996 0.95209636 11.19898437 1.8125 7.625 C2.204375 6.75875 2.59625 5.8925 3 5 C3 4.34 3 3.68 3 3 C2.01 2.67 1.02 2.34 0 2 C0 1.34 0 0.68 0 0 Z " fill="#B0A9A9" transform="translate(248,15)"/>
<path d="M0 0 C0 0.66 0 1.32 0 2 C0.99 2 1.98 2 3 2 C3 3.32 3 4.64 3 6 C22.14 6 41.28 6 61 6 C61 7.32 61 8.64 61 10 C74.2 10 87.4 10 101 10 C101 10.33 101 10.66 101 11 C87.47 11 73.94 11 60 11 C60 9.68 60 8.36 60 7 C46.8 7.33 33.6 7.66 20 8 C20.99 9.98 20.99 9.98 22 12 C22 13.32 22 14.64 22 16 C21.01 16 20.02 16 19 16 C19 17.32 19 18.64 19 20 C16.36 20 13.72 20 11 20 C10.90912109 21.82337891 10.90912109 21.82337891 10.81640625 23.68359375 C10.73201668 25.26824228 10.6473679 26.85287702 10.5625 28.4375 C10.52318359 29.23994141 10.48386719 30.04238281 10.44335938 30.86914062 C10.11328125 36.88671875 10.11328125 36.88671875 9 38 C7.07521187 38.15806531 5.1450079 38.251135 3.21484375 38.31640625 C1.63497681 38.37356812 1.63497681 38.37356812 0.02319336 38.43188477 C-1.32508545 38.47498779 -2.67336426 38.51809082 -4.0625 38.5625 C-8.331875 38.706875 -12.60125 38.85125 -17 39 C4.78 39.495 4.78 39.495 27 40 C27 40.33 27 40.66 27 41 C10.5 41.33 -6 41.66 -23 42 C-23 43.32 -23 44.64 -23 46 C-19.7 46 -16.4 46 -13 46 C-13 47.65 -13 49.3 -13 51 C-12.01 51 -11.02 51 -10 51 C-10 53.64 -10 56.28 -10 59 C-8.35 59.33 -6.7 59.66 -5 60 C-5.33 62.64 -5.66 65.28 -6 68 C-7.2065625 68.4021875 -7.2065625 68.4021875 -8.4375 68.8125 C-9.7059375 69.4003125 -9.7059375 69.4003125 -11 70 C-11.495 71.485 -11.495 71.485 -12 73 C-11.360625 73.28875 -10.72125 73.5775 -10.0625 73.875 C-8 75 -8 75 -7 77 C-7.99 77 -8.98 77 -10 77 C-10 78.32 -10 79.64 -10 81 C-11.98 81 -13.96 81 -16 81 C-16 80.01 -16 79.02 -16 78 C-15.01 78 -14.02 78 -13 78 C-13 71.73 -13 65.46 -13 59 C-15.31 59 -17.62 59 -20 59 C-20.33 60.32 -20.66 61.64 -21 63 C-26.64912281 61.52631579 -26.64912281 61.52631579 -28.375 58.9375 C-29 57 -29 57 -29 56 C-30.65 55.67 -32.3 55.34 -34 55 C-34.33 53.35 -34.66 51.7 -35 50 C-38.96 49.505 -38.96 49.505 -43 49 C-43.042721 47.33388095 -43.04063832 45.66617115 -43 44 C-42 43 -42 43 -39.4375 42.9375 C-38.633125 42.958125 -37.82875 42.97875 -37 43 C-37 41.68 -37 40.36 -37 39 C-35.02 39 -33.04 39 -31 39 C-31.33 34.71 -31.66 30.42 -32 26 C-33.98 25.67 -35.96 25.34 -38 25 C-38 23.35 -38 21.7 -38 20 C-39.98 20 -41.96 20 -44 20 C-44 17.69 -44 15.38 -44 13 C-38.22240116 12.87963336 -32.72040011 13.1679418 -27 14 C-27 12.02 -27 10.04 -27 8 C-25.02 8 -23.04 8 -21 8 C-21 5.36 -21 2.72 -21 0 C-15.18190679 -2.9090466 -6.2532664 -0.94388927 0 0 Z " fill="#191B21" transform="translate(62,16)"/>
<path d="M0 0 C4.62 0 9.24 0 14 0 C14 3.3 14 6.6 14 10 C15.65 10 17.3 10 19 10 C18.67 11.32 18.34 12.64 18 14 C18 13.01 18 12.02 18 11 C17.01 11.66 16.02 12.32 15 13 C14.34 13.33 13.68 13.66 13 14 C12.96241577 15.0372522 12.96241577 15.0372522 12.92407227 16.09545898 C12.80847839 19.20967866 12.68558758 22.32356789 12.5625 25.4375 C12.52318359 26.52611328 12.48386719 27.61472656 12.44335938 28.73632812 C12.40146484 29.77080078 12.35957031 30.80527344 12.31640625 31.87109375 C12.26141968 33.30859985 12.26141968 33.30859985 12.20532227 34.77514648 C12 37 12 37 11 38 C9.00041636 38.04080783 6.99954746 38.04254356 5 38 C5 36.68 5 35.36 5 34 C4.34 34 3.68 34 3 34 C3.33 29.38 3.66 24.76 4 20 C3.01 20.66 2.02 21.32 1 22 C0.67 26.95 0.34 31.9 0 37 C-56.43 37 -112.86 37 -171 37 C-171 36.67 -171 36.34 -171 36 C-168.69 36 -166.38 36 -164 36 C-164 34.68 -164 33.36 -164 32 C-163.01 32 -162.02 32 -161 32 C-161 30.68 -161 29.36 -161 28 C-159.68 28.33 -158.36 28.66 -157 29 C-157 24.05 -157 19.1 -157 14 C-146.44 14 -135.88 14 -125 14 C-125 16.64 -125 19.28 -125 22 C-133.58 22 -142.16 22 -151 22 C-151 24.31 -151 26.62 -151 29 C-145.72 29 -140.44 29 -135 29 C-135 28.01 -135 27.02 -135 26 C-132.36 26 -129.72 26 -127 26 C-127.495 26.45375 -127.99 26.9075 -128.5 27.375 C-130.22609337 28.87635519 -130.22609337 28.87635519 -130 31 C-88.42 31.66 -46.84 32.32 -4 33 C-4 31.35 -4 29.7 -4 28 C-4.99 28 -5.98 28 -7 28 C-7.06058594 27.37351562 -7.12117187 26.74703125 -7.18359375 26.1015625 C-7.26738281 25.28429687 -7.35117188 24.46703125 -7.4375 23.625 C-7.51871094 22.81289063 -7.59992188 22.00078125 -7.68359375 21.1640625 C-7.89090114 18.95727195 -7.89090114 18.95727195 -9 17 C-8.01 17 -7.02 17 -6 17 C-5.67 16.01 -5.34 15.02 -5 14 C-3.02 14 -1.04 14 1 14 C1 15.65 1 17.3 1 19 C1.99 19 2.98 19 4 19 C3.195625 17.205625 3.195625 17.205625 2.375 15.375 C1.12121301 12.085996 0.95209636 11.19898437 1.8125 7.625 C2.204375 6.75875 2.59625 5.8925 3 5 C3 4.34 3 3.68 3 3 C2.01 2.67 1.02 2.34 0 2 C0 1.34 0 0.68 0 0 Z " fill="#717096" transform="translate(248,15)"/>
<path d="M0 0 C13.86 0 27.72 0 42 0 C42 11 42 11 41 15 C20.54 15 0.08 15 -21 15 C-21 13.02 -21 11.04 -21 9 C-24.3 9 -27.6 9 -31 9 C-31 7.35 -31 5.7 -31 4 C-31.99 4.33 -32.98 4.66 -34 5 C-34 8.3 -34 11.6 -34 15 C-32.35 15 -30.7 15 -29 15 C-29 16.32 -29 17.64 -29 19 C-30.98 19 -32.96 19 -35 19 C-35 17.68 -35 16.36 -35 15 C-36.32 15 -37.64 15 -39 15 C-38.67 12.69 -38.34 10.38 -38 8 C-48.89 7.67 -59.78 7.34 -71 7 C-71 5.02 -71 3.04 -71 1 C-49.22 1 -27.44 1 -5 1 C-5 4.63 -5 8.26 -5 12 C-1.37 12 2.26 12 6 12 C6 8.7 6 5.4 6 2 C4.02 2.33 2.04 2.66 0 3 C0 2.01 0 1.02 0 0 Z " fill="#292F56" transform="translate(131,57)"/>
<path d="M0 0 C4.62 0 9.24 0 14 0 C14 3.3 14 6.6 14 10 C15.65 10 17.3 10 19 10 C18.67 11.32 18.34 12.64 18 14 C18 13.01 18 12.02 18 11 C17.01 11.66 16.02 12.32 15 13 C14.34 13.33 13.68 13.66 13 14 C12.96241577 15.0372522 12.96241577 15.0372522 12.92407227 16.09545898 C12.80847839 19.20967866 12.68558758 22.32356789 12.5625 25.4375 C12.52318359 26.52611328 12.48386719 27.61472656 12.44335938 28.73632812 C12.40146484 29.77080078 12.35957031 30.80527344 12.31640625 31.87109375 C12.27974854 32.82943115 12.24309082 33.78776855 12.20532227 34.77514648 C12 37 12 37 11 38 C9.00041636 38.04080783 6.99954746 38.04254356 5 38 C5 36.68 5 35.36 5 34 C4.34 34 3.68 34 3 34 C3.33 29.38 3.66 24.76 4 20 C3.01 20.66 2.02 21.32 1 22 C0.67 26.95 0.34 31.9 0 37 C-24.75 37 -49.5 37 -75 37 C-75 35.68 -75 34.36 -75 33 C-51.57 33 -28.14 33 -4 33 C-4 31.35 -4 29.7 -4 28 C-4.99 28 -5.98 28 -7 28 C-7.06058594 27.37351562 -7.12117188 26.74703125 -7.18359375 26.1015625 C-7.30927734 24.87566406 -7.30927734 24.87566406 -7.4375 23.625 C-7.51871094 22.81289063 -7.59992188 22.00078125 -7.68359375 21.1640625 C-7.89090114 18.95727195 -7.89090114 18.95727195 -9 17 C-8.01 17 -7.02 17 -6 17 C-5.505 15.515 -5.505 15.515 -5 14 C-3.02 14 -1.04 14 1 14 C1 15.65 1 17.3 1 19 C1.99 19 2.98 19 4 19 C3.46375 17.80375 2.9275 16.6075 2.375 15.375 C1.12121301 12.085996 0.95209636 11.19898437 1.8125 7.625 C2.204375 6.75875 2.59625 5.8925 3 5 C3 4.34 3 3.68 3 3 C2.01 2.67 1.02 2.34 0 2 C0 1.34 0 0.68 0 0 Z " fill="#484A70" transform="translate(248,15)"/>
<path d="M0 0 C2.22889496 -0.05428973 4.45817471 -0.09292338 6.6875 -0.125 C8.54955078 -0.15980469 8.54955078 -0.15980469 10.44921875 -0.1953125 C13.81237857 -0.01032021 15.9985587 0.54232105 19 2 C18.34 2.99 17.68 3.98 17 5 C16.17111251 7.97314468 16.17111251 7.97314468 16 11 C16.99 12.485 16.99 12.485 18 14 C18 15.32 18 16.64 18 18 C17.01 18 16.02 18 15 18 C15 16.35 15 14.7 15 13 C13.02 13 11.04 13 9 13 C8.67 14.32 8.34 15.64 8 17 C6.515 16.505 6.515 16.505 5 16 C5 15.01 5 14.02 5 13 C-20.41 13 -45.82 13 -72 13 C-71.67 10.69 -71.34 8.38 -71 6 C-47.57 6 -24.14 6 0 6 C0 4.02 0 2.04 0 0 Z " fill="#08080D" transform="translate(234,16)"/>
<path d="M0 0 C1.29111191 0.0001133 1.29111191 0.0001133 2.60830688 0.00022888 C3.53855682 0.00539017 4.46880676 0.01055145 5.42724609 0.01586914 C6.37884613 0.01728409 7.33044617 0.01869904 8.31088257 0.02015686 C11.35751456 0.02576527 14.40407372 0.0383192 17.45068359 0.05102539 C19.51318253 0.05603931 21.57568262 0.0606024 23.63818359 0.06469727 C28.70071176 0.07573744 33.76318532 0.09300772 38.82568359 0.11352539 C38.82568359 1.10352539 38.82568359 2.09352539 38.82568359 3.11352539 C37.83568359 3.11352539 36.84568359 3.11352539 35.82568359 3.11352539 C35.82568359 4.43352539 35.82568359 5.75352539 35.82568359 7.11352539 C33.18568359 7.11352539 30.54568359 7.11352539 27.82568359 7.11352539 C27.49568359 11.07352539 27.16568359 15.03352539 26.82568359 19.11352539 C17.25568359 19.11352539 7.68568359 19.11352539 -2.17431641 19.11352539 C-2.17431641 15.15352539 -2.17431641 11.19352539 -2.17431641 7.11352539 C-2.83431641 7.11352539 -3.49431641 7.11352539 -4.17431641 7.11352539 C-4.17431641 11.07352539 -4.17431641 15.03352539 -4.17431641 19.11352539 C-4.83431641 19.11352539 -5.49431641 19.11352539 -6.17431641 19.11352539 C-6.17431641 13.17352539 -6.17431641 7.23352539 -6.17431641 1.11352539 C-3.86611133 -0.04057715 -2.56647364 -0.00750431 0 0 Z " fill="#AFAAA9" transform="translate(45.17431640625,28.886474609375)"/>
<path d="M0 0 C0.33 0 0.66 0 1 0 C1 2.64 1 5.28 1 8 C1.99 8 2.98 8 4 8 C4 6.35 4 4.7 4 3 C4.99 3 5.98 3 7 3 C7.12375 3.78375 7.2475 4.5675 7.375 5.375 C7.79117993 8.14057822 7.79117993 8.14057822 10 10 C8.02 10 6.04 10 4 10 C4 11.32 4 12.64 4 14 C35.35 14 66.7 14 99 14 C98.67 14.99 98.34 15.98 98 17 C90.03350151 18.3173767 82.04805625 18.11089426 74 18.0625 C72.54297029 18.05747576 71.0859389 18.05291449 69.62890625 18.04882812 C66.0859023 18.03789388 62.54296203 18.02068 59 18 C59 18.99 59 19.98 59 21 C60.98 20.67 62.96 20.34 65 20 C65 23.3 65 26.6 65 30 C61.37 30 57.74 30 54 30 C54 27.03 54 24.06 54 21 C54.66 21 55.32 21 56 21 C56 20.01 56 19.02 56 18 C55.05423096 18.00523682 54.10846191 18.01047363 53.1340332 18.01586914 C26.07492912 18.15122881 -0.95057744 17.70702696 -28 17 C-27.67 16.34 -27.34 15.68 -27 15 C-18.42 14.67 -9.84 14.34 -1 14 C-0.67 9.38 -0.34 4.76 0 0 Z " fill="#01020B" transform="translate(72,39)"/>
<path d="M0 0 C13.86 0 27.72 0 42 0 C42 11 42 11 41 15 C34.7704242 15.07589768 28.54096705 15.12853504 22.31103516 15.16479492 C20.19054712 15.17990645 18.07009046 15.2003964 15.94970703 15.22631836 C12.90649689 15.26259786 9.86369897 15.27970242 6.8203125 15.29296875 C5.86818878 15.30845261 4.91606506 15.32393646 3.93508911 15.33988953 C2.61394608 15.34022942 2.61394608 15.34022942 1.26611328 15.34057617 C0.48889923 15.34723801 -0.28831482 15.35389984 -1.08908081 15.36076355 C-1.71968414 15.24171158 -2.35028748 15.12265961 -3 15 C-3.66 14.01 -4.32 13.02 -5 12 C-1.37 12 2.26 12 6 12 C6 8.7 6 5.4 6 2 C4.02 2.33 2.04 2.66 0 3 C0 2.01 0 1.02 0 0 Z " fill="#1F264E" transform="translate(131,57)"/>
<path d="M0 0 C8.58 0 17.16 0 26 0 C26 1.32 26 2.64 26 4 C25.2479126 3.99476318 24.4958252 3.98952637 23.72094727 3.98413086 C20.33480658 3.96342773 16.94867916 3.95036123 13.5625 3.9375 C12.37849609 3.92912109 11.19449219 3.92074219 9.97460938 3.91210938 C8.84990234 3.90888672 7.72519531 3.90566406 6.56640625 3.90234375 C5.52427979 3.89710693 4.48215332 3.89187012 3.40844727 3.88647461 C1.04871253 3.72694444 1.04871253 3.72694444 0 5 C-1.65 5 -3.3 5 -5 5 C-5 8.3 -5 11.6 -5 15 C-5.66 15 -6.32 15 -7 15 C-7 13.35 -7 11.7 -7 10 C-7.66 10 -8.32 10 -9 10 C-9 14.62 -9 19.24 -9 24 C-10.32 24 -11.64 24 -13 24 C-13 25.98 -13 27.96 -13 30 C-14.32 30 -15.64 30 -17 30 C-17.33 34.62 -17.66 39.24 -18 44 C-22.455 44.495 -22.455 44.495 -27 45 C-27 38.4 -27 31.8 -27 25 C-25.35 25 -23.7 25 -22 25 C-22 21.7 -22 18.4 -22 15 C-20.68 15 -19.36 15 -18 15 C-18 13.02 -18 11.04 -18 9 C-15.69 9 -13.38 9 -11 9 C-11 8.01 -11 7.02 -11 6 C-9.68 6 -8.36 6 -7 6 C-7 4.68 -7 3.36 -7 2 C-4.69 2 -2.38 2 0 2 C0 1.34 0 0.68 0 0 Z " fill="#363A61" transform="translate(63,88)"/>
<path d="M0 0 C25.08 0 50.16 0 76 0 C76.495 3.465 76.495 3.465 77 7 C61.82 7 46.64 7 31 7 C31 6.01 31 5.02 31 4 C29.68 4 28.36 4 27 4 C27 4.66 27 5.32 27 6 C25.35 6 23.7 6 22 6 C22 6.99 22 7.98 22 9 C24.97 9 27.94 9 31 9 C31 9.33 31 9.66 31 10 C27.04 10 23.08 10 19 10 C19 8.35 19 6.7 19 5 C18.01 6.32 17.02 7.64 16 9 C15.67 7.68 15.34 6.36 15 5 C13.68 5 12.36 5 11 5 C10.34 6.32 9.68 7.64 9 9 C9 7.68 9 6.36 9 5 C7.68 5.33 6.36 5.66 5 6 C4.67 7.32 4.34 8.64 4 10 C2.68 10 1.36 10 0 10 C0 6.7 0 3.4 0 0 Z " fill="#EAE9E7" transform="translate(163,29)"/>
<path d="M0 0 C12.54 0 25.08 0 38 0 C38 2.31 38 4.62 38 7 C24.47 7 10.94 7 -3 7 C-3 7.66 -3 8.32 -3 9 C-5.64 9 -8.28 9 -11 9 C-11 9.99 -11 10.98 -11 12 C-16.28 12 -21.56 12 -27 12 C-27 9.69 -27 7.38 -27 5 C-18.09 5 -9.18 5 0 5 C0 3.35 0 1.7 0 0 Z " fill="#1F2144" transform="translate(124,32)"/>
<path d="M0 0 C0.33 0.66 0.66 1.32 1 2 C0.34 2 -0.32 2 -1 2 C-1 6.29 -1 10.58 -1 15 C-2.98 15 -4.96 15 -7 15 C-6.67 18.63 -6.34 22.26 -6 26 C-0.84001623 25.62590749 -0.84001623 25.62590749 3.4375 22.9375 C3.953125 22.298125 4.46875 21.65875 5 21 C5 24.3 5 27.6 5 31 C3.68 31 2.36 31 1 31 C1 35.62 1 40.24 1 45 C-0.32 45 -1.64 45 -3 45 C-3.33 45.66 -3.66 46.32 -4 47 C-4 46.01 -4 45.02 -4 44 C-2.68 44 -1.36 44 0 44 C-0.01160156 43.02417969 -0.02320312 42.04835937 -0.03515625 41.04296875 C-0.04417969 39.77066406 -0.05320312 38.49835938 -0.0625 37.1875 C-0.07410156 35.92292969 -0.08570312 34.65835938 -0.09765625 33.35546875 C0 30 0 30 1 27 C-1.31 27 -3.62 27 -6 27 C-6 28.65 -6 30.3 -6 32 C-7.485 32.495 -7.485 32.495 -9 33 C-9 34.32 -9 35.64 -9 37 C-9.99 37 -10.98 37 -12 37 C-12 38.98 -12 40.96 -12 43 C-12.66 43 -13.32 43 -14 43 C-14 45.64 -14 48.28 -14 51 C-14.99 51 -15.98 51 -17 51 C-17 51.66 -17 52.32 -17 53 C-17.99 53 -18.98 53 -20 53 C-20 49.7 -20 46.4 -20 43 C-19.34 43 -18.68 43 -18 43 C-18 39.37 -18 35.74 -18 32 C-17.01 31.67 -16.02 31.34 -15 31 C-15 30.34 -15 29.68 -15 29 C-14.34 28.67 -13.68 28.34 -13 28 C-12.67 22.39 -12.34 16.78 -12 11 C-10.68 11 -9.36 11 -8 11 C-8 9.68 -8 8.36 -8 7 C-7.34 7 -6.68 7 -6 7 C-6 5.02 -6 3.04 -6 1 C-4.02 0.67 -2.04 0.34 0 0 Z " fill="#1A1A39" transform="translate(96,105)"/>
<path d="M0 0 C1.32 0 2.64 0 4 0 C4 2.64 4 5.28 4 8 C3.01 8 2.02 8 1 8 C1 9.65 1 11.3 1 13 C4.96 13 8.92 13 13 13 C13.33 11.68 13.66 10.36 14 9 C14 10.65 14 12.3 14 14 C13.04287109 14.07347656 13.04287109 14.07347656 12.06640625 14.1484375 C10.82697266 14.26058594 10.82697266 14.26058594 9.5625 14.375 C8.73878906 14.44460937 7.91507813 14.51421875 7.06640625 14.5859375 C6.38449219 14.72257812 5.70257813 14.85921875 5 15 C4.67 15.66 4.34 16.32 4 17 C5.65 17 7.3 17 9 17 C9 17.33 9 17.66 9 18 C8.30132812 18.06058594 7.60265625 18.12117188 6.8828125 18.18359375 C5.51769531 18.30927734 5.51769531 18.30927734 4.125 18.4375 C3.22007813 18.51871094 2.31515625 18.59992188 1.3828125 18.68359375 C-1.01110861 18.86989285 -1.01110861 18.86989285 -3 20 C-3 18.35 -3 16.7 -3 15 C-11.25 15 -19.5 15 -28 15 C-28 11.37 -28 7.74 -28 4 C-18.76 4 -9.52 4 0 4 C0 2.68 0 1.36 0 0 Z " fill="#01010E" transform="translate(92,72)"/>
<path d="M0 0 C4.62 0 9.24 0 14 0 C14 3.3 14 6.6 14 10 C15.65 10 17.3 10 19 10 C18.67 11.32 18.34 12.64 18 14 C18 13.01 18 12.02 18 11 C17.01 11.66 16.02 12.32 15 13 C14.01 13.495 14.01 13.495 13 14 C12.97494385 14.69150146 12.9498877 15.38300293 12.92407227 16.09545898 C12.80847839 19.20967866 12.68558758 22.32356789 12.5625 25.4375 C12.52318359 26.52611328 12.48386719 27.61472656 12.44335938 28.73632812 C12.40146484 29.77080078 12.35957031 30.80527344 12.31640625 31.87109375 C12.26141968 33.30859985 12.26141968 33.30859985 12.20532227 34.77514648 C12 37 12 37 11 38 C9.00041636 38.04080783 6.99954746 38.04254356 5 38 C5 36.68 5 35.36 5 34 C4.34 34 3.68 34 3 34 C3.33 29.38 3.66 24.76 4 20 C2.02 20.99 2.02 20.99 0 22 C0 19.36 0 16.72 0 14 C0.33 14 0.66 14 1 14 C1 15.65 1 17.3 1 19 C1.99 19 2.98 19 4 19 C3.46375 17.80375 2.9275 16.6075 2.375 15.375 C1.12121301 12.085996 0.95209636 11.19898437 1.8125 7.625 C2.204375 6.75875 2.59625 5.8925 3 5 C3 4.34 3 3.68 3 3 C2.01 2.67 1.02 2.34 0 2 C0 1.34 0 0.68 0 0 Z " fill="#10111C" transform="translate(248,15)"/>
<path d="M0 0 C2.31 0 4.62 0 7 0 C7 6.27 7 12.54 7 19 C6.01 19 5.02 19 4 19 C3.67 21.97 3.34 24.94 3 28 C1.68 28 0.36 28 -1 28 C-1 31.3 -1 34.6 -1 38 C-2.65 38 -4.3 38 -6 38 C-4.02 37.505 -4.02 37.505 -2 37 C-2 35.02 -2 33.04 -2 31 C-3.32 31 -4.64 31 -6 31 C-6 30.01 -6 29.02 -6 28 C-6.99 28 -7.98 28 -9 28 C-8.91621094 29.20398438 -8.83242188 30.40796875 -8.74609375 31.6484375 C-8.6429359 33.22393916 -8.54008734 34.79946109 -8.4375 36.375 C-8.35338867 37.56609375 -8.35338867 37.56609375 -8.26757812 38.78125 C-7.88671875 44.7734375 -7.88671875 44.7734375 -9 47 C-11.99536737 48.13617383 -13.97878489 47.97110486 -17 47 C-17 49.31 -17 51.62 -17 54 C-17.33 54 -17.66 54 -18 54 C-18 51.36 -18 48.72 -18 46 C-16.68 46 -15.36 46 -14 46 C-14 43.03 -14 40.06 -14 37 C-12.68 37 -11.36 37 -10 37 C-10 33.7 -10 30.4 -10 27 C-8.35 27 -6.7 27 -5 27 C-5 24.03 -5 21.06 -5 18 C-4.01 17.67 -3.02 17.34 -2 17 C-2.02320313 16.02417969 -2.04640625 15.04835938 -2.0703125 14.04296875 C-2.08835937 12.77066406 -2.10640625 11.49835938 -2.125 10.1875 C-2.14820313 8.92292969 -2.17140625 7.65835938 -2.1953125 6.35546875 C-2 3 -2 3 0 0 Z " fill="#17171E" transform="translate(42,75)"/>
<path d="M0 0 C1.65 0 3.3 0 5 0 C5.73080266 1.97746603 6.39421747 3.98072489 7 6 C6.67 6.66 6.34 7.32 6 8 C6.66 8.33 7.32 8.66 8 9 C8 9.99 8 10.98 8 12 C9.32 12 10.64 12 12 12 C12 13.32 12 14.64 12 16 C16.29194146 15.86162204 20.58346929 15.71304061 24.875 15.5625 C26.70998047 15.50352539 26.70998047 15.50352539 28.58203125 15.44335938 C30.33193359 15.38051758 30.33193359 15.38051758 32.1171875 15.31640625 C33.19597168 15.27974854 34.27475586 15.24309082 35.38623047 15.20532227 C37.98069536 15.16623357 37.98069536 15.16623357 40 14 C40 14.99 40 15.98 40 17 C30.76 17 21.52 17 12 17 C12 20.63 12 24.26 12 28 C20.25 28 28.5 28 37 28 C37 28.33 37 28.66 37 29 C28.42 29 19.84 29 11 29 C11 29.66 11 30.32 11 31 C8.69 31 6.38 31 4 31 C4 32.32 4 33.64 4 35 C2.68 34.67 1.36 34.34 0 34 C0 33.01 0 32.02 0 31 C-0.66 30.67 -1.32 30.34 -2 30 C-1.67 28.68 -1.34 27.36 -1 26 C0.65 25.67 2.3 25.34 4 25 C4 22.36 4 19.72 4 17 C2.68 16.67 1.36 16.34 0 16 C0 13.36 0 10.72 0 8 C-0.99 8 -1.98 8 -3 8 C-2.67 6.68 -2.34 5.36 -2 4 C-1.67 4.33 -1.34 4.66 -1 5 C-0.67 3.35 -0.34 1.7 0 0 Z " fill="#272D53" transform="translate(52,59)"/>
<path d="M0 0 C26.73 0 53.46 0 81 0 C81 1.32 81 2.64 81 4 C54.27 4 27.54 4 0 4 C0 2.68 0 1.36 0 0 Z " fill="#100F28" transform="translate(178,68)"/>
<path d="M0 0 C2.3430812 0.00543352 4.68597679 -0.00001436 7.02905273 -0.00634766 C8.5218917 -0.00568806 10.01473055 -0.00440936 11.50756836 -0.00244141 C12.20644669 -0.00446564 12.90532501 -0.00648987 13.62538147 -0.00857544 C18.52364163 0.01536085 18.52364163 0.01536085 20.75366211 1.13037109 C20.75366211 2.45037109 20.75366211 3.77037109 20.75366211 5.13037109 C-10.92633789 5.13037109 -42.60633789 5.13037109 -75.24633789 5.13037109 C-75.24633789 4.80037109 -75.24633789 4.47037109 -75.24633789 4.13037109 C-74.53606445 4.06978516 -73.82579102 4.00919922 -73.09399414 3.94677734 C-71.7153418 3.82109375 -71.7153418 3.82109375 -70.30883789 3.69287109 C-69.39231445 3.61166016 -68.47579102 3.53044922 -67.53149414 3.44677734 C-65.28474057 3.36992133 -65.28474057 3.36992133 -64.24633789 2.13037109 C-62.05994336 2.05778163 -59.871334 2.04663327 -57.68383789 2.06787109 C-55.8875293 2.08140625 -55.8875293 2.08140625 -54.05493164 2.09521484 C-53.1280957 2.10681641 -52.20125977 2.11841797 -51.24633789 2.13037109 C-51.24633789 2.79037109 -51.24633789 3.45037109 -51.24633789 4.13037109 C-43.32633789 4.13037109 -35.40633789 4.13037109 -27.24633789 4.13037109 C-26.91633789 3.14037109 -26.58633789 2.15037109 -26.24633789 1.13037109 C-17.49100352 0.0812127 -8.80273161 -0.0243869 0 0 Z " fill="#8685A6" transform="translate(152.246337890625,46.86962890625)"/>
<path d="M0 0 C1.65 0 3.3 0 5 0 C5 2.97 5 5.94 5 9 C6.65 9 8.3 9 10 9 C9.01 9.495 9.01 9.495 8 10 C8 14.29 8 18.58 8 23 C6.02 23 4.04 23 2 23 C2 24.98 2 26.96 2 29 C3.65 29 5.3 29 7 29 C7 30.32 7 31.64 7 33 C5.02 33 3.04 33 1 33 C1 32.01 1 31.02 1 30 C-0.65 30 -2.3 30 -4 30 C-4 23.07 -4 16.14 -4 9 C-3.34 9 -2.68 9 -2 9 C-2 7.68 -2 6.36 -2 5 C-1.34 5 -0.68 5 0 5 C0 3.35 0 1.7 0 0 Z " fill="#24274E" transform="translate(31,124)"/>
<path d="M0 0 C0.33 1.32 0.66 2.64 1 4 C2.65 4 4.3 4 6 4 C6 5.98 6 7.96 6 10 C6.99 10 7.98 10 9 10 C8.67 10.66 8.34 11.32 8 12 C7.34 11.67 6.68 11.34 6 11 C6 12.32 6 13.64 6 15 C5.01 15 4.02 15 3 15 C3 16.32 3 17.64 3 19 C47.055 19.495 47.055 19.495 92 20 C92 20.33 92 20.66 92 21 C59.99 21 27.98 21 -5 21 C-5 19.68 -5 18.36 -5 17 C-3.68 16.67 -2.36 16.34 -1 16 C-1.33 15.67 -1.66 15.34 -2 15 C-2.04063832 13.33382885 -2.042721 11.66611905 -2 10 C-2.99 10 -3.98 10 -5 10 C-5 11.65 -5 13.3 -5 15 C-5.99 15 -6.98 15 -8 15 C-8.19491452 13.54263913 -8.38069358 12.08405407 -8.5625 10.625 C-8.66691406 9.81289063 -8.77132812 9.00078125 -8.87890625 8.1640625 C-9 6 -9 6 -8 4 C-5.36 4 -2.72 4 0 4 C0 2.68 0 1.36 0 0 Z " fill="#46435E" transform="translate(81,32)"/>
<path d="M0 0 C21.78 0 43.56 0 66 0 C66 0.66 66 1.32 66 2 C54.78 2.33 43.56 2.66 32 3 C32 3.99 32 4.98 32 6 C21.44 6 10.88 6 0 6 C0 4.02 0 2.04 0 0 Z " fill="#7B84A8" transform="translate(60,58)"/>
<path d="M0 0 C14.19 0 28.38 0 43 0 C43 0.99 43 1.98 43 3 C42.01 3 41.02 3 40 3 C40 3.99 40 4.98 40 6 C26.47 6 12.94 6 -1 6 C-0.67 4.02 -0.34 2.04 0 0 Z " fill="#E7E8DD" transform="translate(41,29)"/>
<path d="M0 0 C2.31 0 4.62 0 7 0 C7 1.65 7 3.3 7 5 C10.3 5 13.6 5 17 5 C17 6.98 17 8.96 17 11 C21.62 11 26.24 11 31 11 C31 11.33 31 11.66 31 12 C26.38 12 21.76 12 17 12 C17 13.65 17 15.3 17 17 C14.69 17 12.38 17 10 17 C10 17.99 10 18.98 10 20 C10.66 20 11.32 20 12 20 C12 21.32 12 22.64 12 24 C8.04 24 4.08 24 0 24 C0 22.35 0 20.7 0 19 C0.99 19 1.98 19 3 19 C3 17.68 3 16.36 3 15 C4.98 15 6.96 15 9 15 C9 13.68 9 12.36 9 11 C7.35 11 5.7 11 4 11 C4 7.7 4 4.4 4 1 C2.68 0.67 1.36 0.34 0 0 Z " fill="#1B1D3F" transform="translate(93,61)"/>
<path d="M0 0 C8.58 0 17.16 0 26 0 C26 1.32 26 2.64 26 4 C25.2479126 3.99476318 24.4958252 3.98952637 23.72094727 3.98413086 C20.33480658 3.96342773 16.94867916 3.95036123 13.5625 3.9375 C12.37849609 3.92912109 11.19449219 3.92074219 9.97460938 3.91210938 C8.84990234 3.90888672 7.72519531 3.90566406 6.56640625 3.90234375 C5.52427979 3.89710693 4.48215332 3.89187012 3.40844727 3.88647461 C1.04871253 3.72694444 1.04871253 3.72694444 0 5 C-1.65 5 -3.3 5 -5 5 C-5 8.3 -5 11.6 -5 15 C-5.66 15 -6.32 15 -7 15 C-7 13.35 -7 11.7 -7 10 C-7.66 10 -8.32 10 -9 10 C-9 11.65 -9 13.3 -9 15 C-10.32 15 -11.64 15 -13 15 C-13 16.32 -13 17.64 -13 19 C-14.65 19 -16.3 19 -18 19 C-18 15.7 -18 12.4 -18 9 C-15.69 9 -13.38 9 -11 9 C-11 8.01 -11 7.02 -11 6 C-9.68 6 -8.36 6 -7 6 C-7 4.68 -7 3.36 -7 2 C-4.69 2 -2.38 2 0 2 C0 1.34 0 0.68 0 0 Z " fill="#616C9C" transform="translate(63,88)"/>
<path d="M0 0 C2.97 0 5.94 0 9 0 C9 1.65 9 3.3 9 5 C9.99 5 10.98 5 12 5 C12 7.64 12 10.28 12 13 C13.65 13.33 15.3 13.66 17 14 C16.67 16.64 16.34 19.28 16 22 C15.195625 22.268125 14.39125 22.53625 13.5625 22.8125 C12.716875 23.204375 11.87125 23.59625 11 24 C10.67 24.99 10.34 25.98 10 27 C10.639375 27.28875 11.27875 27.5775 11.9375 27.875 C14 29 14 29 15 31 C14.01 31 13.02 31 12 31 C12 32.32 12 33.64 12 35 C10.02 35 8.04 35 6 35 C6 34.01 6 33.02 6 32 C6.99 32 7.98 32 9 32 C9 25.73 9 19.46 9 13 C6.69 13 4.38 13 2 13 C2 9.04 2 5.08 2 1 C1.34 0.67 0.68 0.34 0 0 Z " fill="#1C2144" transform="translate(40,62)"/>
<path d="M0 0 C0 1.98 0 3.96 0 6 C-13.2 6 -26.4 6 -40 6 C-40 4.35 -40 2.7 -40 1 C-34.78557719 0.8570662 -29.57114024 0.71466343 -24.35668945 0.57275391 C-22.58259692 0.52439759 -20.80850834 0.47589588 -19.03442383 0.42724609 C-16.48519906 0.35736525 -13.93596055 0.28800639 -11.38671875 0.21875 C-10.59287277 0.19687622 -9.79902679 0.17500244 -8.98112488 0.15246582 C-5.98634439 0.07150104 -2.99603534 0 0 0 Z " fill="#F5F2E4" transform="translate(162,39)"/>
<path d="M0 0 C0.66 0 1.32 0 2 0 C2 3.96 2 7.92 2 12 C11.57 12 21.14 12 31 12 C31 13.65 31 15.3 31 17 C20.11 17 9.22 17 -2 17 C-2 15.35 -2 13.7 -2 12 C-1.34 12 -0.68 12 0 12 C0 8.04 0 4.08 0 0 Z " fill="#534F6C" transform="translate(41,36)"/>
<path d="M0 0 C19.8 0 39.6 0 60 0 C59.67 0.99 59.34 1.98 59 3 C39.2 3 19.4 3 -1 3 C-0.67 2.01 -0.34 1.02 0 0 Z " fill="#0F0C24" transform="translate(187,59)"/>
<path d="M0 0 C13.86 0 27.72 0 42 0 C42 1.32 42 2.64 42 4 C38.04 3.67 34.08 3.34 30 3 C30 5.97 30 8.94 30 12 C29.01 12 28.02 12 27 12 C27 9.36 27 6.72 27 4 C20.07 4 13.14 4 6 4 C6 3.34 6 2.68 6 2 C4.02 2.33 2.04 2.66 0 3 C0 2.01 0 1.02 0 0 Z " fill="#4E5579" transform="translate(131,57)"/>
<path d="M0 0 C9.57 0 19.14 0 29 0 C29 1.98 29 3.96 29 6 C19.43 6 9.86 6 0 6 C0 4.02 0 2.04 0 0 Z " fill="#F8FAF1" transform="translate(93,30)"/>
<path d="M0 0 C2.31 0 4.62 0 7 0 C7.02887236 3.81248426 7.04675492 7.6249407 7.0625 11.4375 C7.07087891 12.52611328 7.07925781 13.61472656 7.08789062 14.73632812 C7.09111328 15.77080078 7.09433594 16.80527344 7.09765625 17.87109375 C7.10289307 18.82943115 7.10812988 19.78776855 7.11352539 20.77514648 C7 23 7 23 6 24 C4.02 24 2.04 24 0 24 C0 16.08 0 8.16 0 0 Z " fill="#818594" transform="translate(253,29)"/>
<path d="M0 0 C1.65 0 3.3 0 5 0 C5 7.59 5 15.18 5 23 C-5.89 23 -16.78 23 -28 23 C-28 22.67 -28 22.34 -28 22 C-19.09 22 -10.18 22 -1 22 C-1 21.01 -1 20.02 -1 19 C-0.34 19 0.32 19 1 19 C1 17.35 1 15.7 1 14 C0.01 14 -0.98 14 -2 14 C-2.06058594 13.37351562 -2.12117188 12.74703125 -2.18359375 12.1015625 C-2.26738281 11.28429688 -2.35117188 10.46703125 -2.4375 9.625 C-2.51871094 8.81289063 -2.59992188 8.00078125 -2.68359375 7.1640625 C-2.89090114 4.95727195 -2.89090114 4.95727195 -4 3 C-3.01 3 -2.02 3 -1 3 C-0.67 2.01 -0.34 1.02 0 0 Z " fill="#4F5279" transform="translate(243,29)"/>
<path d="M0 0 C13.53 0 27.06 0 41 0 C41 1.32 41 2.64 41 4 C27.47 4 13.94 4 0 4 C0 2.68 0 1.36 0 0 Z " fill="#1D1E3B" transform="translate(40,169)"/>
<path d="M0 0 C6.6 0 13.2 0 20 0 C20 2.64 20 5.28 20 8 C17.41703983 8.19522373 14.83395921 8.38144403 12.25 8.5625 C11.52039063 8.61857422 10.79078125 8.67464844 10.0390625 8.73242188 C6.45046349 8.97709908 3.44972775 8.99666259 0 8 C0 5.36 0 2.72 0 0 Z " fill="#202A54" transform="translate(138,61)"/>
<path d="M0 0 C0 1.32 0 2.64 0 4 C-1.32 4 -2.64 4 -4 4 C-4.33 5.32 -4.66 6.64 -5 8 C-4.01 8 -3.02 8 -2 8 C-2 8.66 -2 9.32 -2 10 C-2.99 10 -3.98 10 -5 10 C-5 11.98 -5 13.96 -5 16 C-5.66 16 -6.32 16 -7 16 C-7 18.64 -7 21.28 -7 24 C-7.99 24 -8.98 24 -10 24 C-10 24.66 -10 25.32 -10 26 C-10.99 26 -11.98 26 -13 26 C-13 22.7 -13 19.4 -13 16 C-12.34 16 -11.68 16 -11 16 C-11 12.37 -11 8.74 -11 5 C-10.01 4.67 -9.02 4.34 -8 4 C-8 3.34 -8 2.68 -8 2 C-4.77208445 -0.1519437 -3.71599191 -0.20086443 0 0 Z " fill="#181636" transform="translate(89,132)"/>
<path d="M0 0 C8.58 0 17.16 0 26 0 C26 0.66 26 1.32 26 2 C25.34 2 24.68 2 24 2 C24 2.66 24 3.32 24 4 C21.36 4 18.72 4 16 4 C16 4.99 16 5.98 16 7 C10.72 7 5.44 7 0 7 C0 4.69 0 2.38 0 0 Z " fill="#090710" transform="translate(97,37)"/>
<path d="M0 0 C12.54 0 25.08 0 38 0 C38 0.33 38 0.66 38 1 C25.79 1 13.58 1 1 1 C1 2.65 1 4.3 1 6 C14.2 6 27.4 6 41 6 C41 6.66 41 7.32 41 8 C26.48 8 11.96 8 -3 8 C-3.33 7.01 -3.66 6.02 -4 5 C-4.99 4.34 -5.98 3.68 -7 3 C-4.69 3 -2.38 3 0 3 C0 2.01 0 1.02 0 0 Z " fill="#C4C2C5" transform="translate(121,39)"/>
<path d="M0 0 C10.56 0 21.12 0 32 0 C31.67 0.99 31.34 1.98 31 3 C31 2.34 31 1.68 31 1 C21.43 1 11.86 1 2 1 C2 2.98 2 4.96 2 7 C2.99 7 3.98 7 5 7 C5 9.97 5 12.94 5 16 C11.27 16 17.54 16 24 16 C24.33 16.66 24.66 17.32 25 18 C15.76 18 6.52 18 -3 18 C-3 17.34 -3 16.68 -3 16 C-2.01 16 -1.02 16 0 16 C0 10.72 0 5.44 0 0 Z " fill="#AAA8AC" transform="translate(91,29)"/>
<path d="M0 0 C12.87 0.495 12.87 0.495 26 1 C26 2.65 26 4.3 26 6 C17.42 6 8.84 6 0 6 C0 5.01 0 4.02 0 3 C-1.32 3 -2.64 3 -4 3 C-4.33 4.32 -4.66 5.64 -5 7 C-5 5.35 -5 3.7 -5 2 C-3.35 2 -1.7 2 0 2 C0 1.34 0 0.68 0 0 Z " fill="#2D3153" transform="translate(63,91)"/>
<path d="M0 0 C0.66 0.33 1.32 0.66 2 1 C2 2.32 2 3.64 2 5 C2.66 5 3.32 5 4 5 C4 4.01 4 3.02 4 2 C5.65 2 7.3 2 9 2 C9 1.34 9 0.68 9 0 C10.32 0 11.64 0 13 0 C13.33 2.31 13.66 4.62 14 7 C3.44 7 -7.12 7 -18 7 C-16.68 6.67 -15.36 6.34 -14 6 C-13.67 4.35 -13.34 2.7 -13 1 C-11.68 1 -10.36 1 -9 1 C-8.67 1.66 -8.34 2.32 -8 3 C-7.67 2.34 -7.34 1.68 -7 1 C-5.68 1 -4.36 1 -3 1 C-2.67 1.66 -2.34 2.32 -2 3 C-1.34 2.01 -0.68 1.02 0 0 Z " fill="#D8D6D1" transform="translate(181,33)"/>
<path d="M0 0 C0.33 0 0.66 0 1 0 C1 1.65 1 3.3 1 5 C-7.58 5 -16.16 5 -25 5 C-25 7.31 -25 9.62 -25 12 C-19.72 12 -14.44 12 -9 12 C-9 11.01 -9 10.02 -9 9 C-6.36 9 -3.72 9 -1 9 C-1.7734375 9.61875 -1.7734375 9.61875 -2.5625 10.25 C-3.036875 10.8275 -3.51125 11.405 -4 12 C-3.67 13.32 -3.34 14.64 -3 16 C-13.56 16 -24.12 16 -35 16 C-35 14.35 -35 12.7 -35 11 C-33.02 11.99 -33.02 11.99 -31 13 C-31.99 13 -32.98 13 -34 13 C-34 13.66 -34 14.32 -34 15 C-25.09 14.67 -16.18 14.34 -7 14 C-13.27 13.67 -19.54 13.34 -26 13 C-26 10.03 -26 7.06 -26 4 C-17.42 4 -8.84 4 0 4 C0 2.68 0 1.36 0 0 Z " fill="#716F78" transform="translate(122,32)"/>
<path d="M0 0 C4.62 0 9.24 0 14 0 C14 2.64 14 5.28 14 8 C9.38 8 4.76 8 0 8 C0 5.36 0 2.72 0 0 Z " fill="#44486D" transform="translate(93,90)"/>
<path d="M0 0 C11.55 0 23.1 0 35 0 C35 0.33 35 0.66 35 1 C25.43 1.33 15.86 1.66 6 2 C6 5.3 6 8.6 6 12 C7.65 12 9.3 12 11 12 C11 13.32 11 14.64 11 16 C9.02 16 7.04 16 5 16 C5 14.68 5 13.36 5 12 C3.68 12 2.36 12 1 12 C1.33 9.69 1.66 7.38 2 5 C1.01 4.67 0.02 4.34 -1 4 C-0.34 4 0.32 4 1 4 C0.67 2.68 0.34 1.36 0 0 Z " fill="#363E66" transform="translate(91,60)"/>
<path d="M0 0 C0.99 0 1.98 0 3 0 C3 0.66 3 1.32 3 2 C4.98 1.67 6.96 1.34 9 1 C9 4.3 9 7.6 9 11 C5.37 11 1.74 11 -2 11 C-2 8.03 -2 5.06 -2 2 C-1.34 2 -0.68 2 0 2 C0 1.34 0 0.68 0 0 Z " fill="#020317" transform="translate(128,58)"/>
<path d="M0 0 C2.97 0 5.94 0 9 0 C9 1.65 9 3.3 9 5 C9.99 5 10.98 5 12 5 C12 6.32 12 7.64 12 9 C11.01 9 10.02 9 9 9 C9 10.32 9 11.64 9 13 C6.69 13 4.38 13 2 13 C2 9.04 2 5.08 2 1 C1.34 0.67 0.68 0.34 0 0 Z " fill="#101437" transform="translate(40,62)"/>
<path d="M0 0 C8.58 0 17.16 0 26 0 C26 6.6 26 13.2 26 20 C24.35 20.33 22.7 20.66 21 21 C20.67 22.32 20.34 23.64 20 25 C9.77 25 -0.46 25 -11 25 C-10.67 23.68 -10.34 22.36 -10 21 C-10 21.99 -10 22.98 -10 24 C-0.43 24 9.14 24 19 24 C19 22.35 19 20.7 19 19 C20.65 18.67 22.3 18.34 24 18 C24 12.72 24 7.44 24 2 C16.08 2 8.16 2 0 2 C0 1.34 0 0.68 0 0 Z " fill="#828188" transform="translate(133,79)"/>
<path d="M0 0 C1.32 0.33 2.64 0.66 4 1 C4 4.96 4 8.92 4 13 C3.34 12.34 2.68 11.68 2 11 C1.67 13.97 1.34 16.94 1 20 C2.32 20 3.64 20 5 20 C5 17.69 5 15.38 5 13 C6.98 13 8.96 13 11 13 C11 12.34 11 11.68 11 11 C10.34 11 9.68 11 9 11 C9 9.68 9 8.36 9 7 C9.99 7 10.98 7 12 7 C12 9.31 12 11.62 12 14 C10.02 14 8.04 14 6 14 C6 15.98 6 17.96 6 20 C7.65 20 9.3 20 11 20 C11 21.32 11 22.64 11 24 C9.02 24 7.04 24 5 24 C5 23.01 5 22.02 5 21 C3.35 21 1.7 21 0 21 C0 14.07 0 7.14 0 0 Z " fill="#1A1B37" transform="translate(27,133)"/>
<path d="M0 0 C12.21 0 24.42 0 37 0 C37 2.31 37 4.62 37 7 C28.42 7 19.84 7 11 7 C10.67 5.68 10.34 4.36 10 3 C11.98 3 13.96 3 16 3 C16 3.99 16 4.98 16 6 C17.81293089 5.85962479 19.6253443 5.71255111 21.4375 5.5625 C22.44683594 5.48128906 23.45617187 5.40007813 24.49609375 5.31640625 C26.93640779 5.26788532 26.93640779 5.26788532 28 4 C30.67058851 3.85884839 33.32432238 3.95752893 36 4 C36 3.01 36 2.02 36 1 C24.12 1 12.24 1 0 1 C0 0.67 0 0.34 0 0 Z " fill="#151736" transform="translate(125,32)"/>
<path d="M0 0 C0.33 0 0.66 0 1 0 C1 2.64 1 5.28 1 8 C7.6 8 14.2 8 21 8 C21 8.99 21 9.98 21 11 C16.76419747 11.07407906 12.52873659 11.12856696 8.29248047 11.16479492 C6.85100742 11.17989483 5.40958041 11.20037658 3.96826172 11.22631836 C1.89799657 11.2626513 -0.17166207 11.27971329 -2.2421875 11.29296875 C-3.4885498 11.3086792 -4.73491211 11.32438965 -6.01904297 11.34057617 C-7.00275879 11.22818604 -7.98647461 11.1157959 -9 11 C-9.66 10.01 -10.32 9.02 -11 8 C-7.37 8 -3.74 8 0 8 C0 5.36 0 2.72 0 0 Z " fill="#1C1F41" transform="translate(137,61)"/>
<path d="M0 0 C0.99 0 1.98 0 3 0 C3.33 0.66 3.66 1.32 4 2 C6.97 2.495 6.97 2.495 10 3 C10 8.61 10 14.22 10 20 C8.35 20 6.7 20 5 20 C6.32 19.67 7.64 19.34 9 19 C8.91306859 17.20741442 8.80489496 15.41584856 8.6875 13.625 C8.60048828 12.12839844 8.60048828 12.12839844 8.51171875 10.6015625 C8.34285156 9.74304687 8.17398437 8.88453125 8 8 C7.01 7.34 6.02 6.68 5 6 C4.34 8.31 3.68 10.62 3 13 C1.68 13 0.36 13 -1 13 C-1.02708567 11.39592672 -1.04643483 9.7917215 -1.0625 8.1875 C-1.07410156 7.29417969 -1.08570313 6.40085937 -1.09765625 5.48046875 C-1 3 -1 3 0 0 Z " fill="#404044" transform="translate(267,29)"/>
<path d="M0 0 C0.99 0 1.98 0 3 0 C3 1.98 3 3.96 3 6 C-4.92 6 -12.84 6 -21 6 C-19 3 -19 3 -16 2 C-12.75761373 1.74232692 -9.52137679 1.55753192 -6.2734375 1.39453125 C-2.84435023 1.49318309 -2.84435023 1.49318309 0 0 Z " fill="#FCFAEC" transform="translate(159,39)"/>
<path d="M0 0 C4.29 0 8.58 0 13 0 C13 1.98 13 3.96 13 6 C12.34 6 11.68 6 11 6 C11 4.35 11 2.7 11 1 C10.34 1 9.68 1 9 1 C9 2.65 9 4.3 9 6 C7.68 6 6.36 6 5 6 C5 7.32 5 8.64 5 10 C3.35 10 1.7 10 0 10 C0 6.7 0 3.4 0 0 Z " fill="#485075" transform="translate(45,97)"/>
<path d="M0 0 C0.33 0 0.66 0 1 0 C1 3.3 1 6.6 1 10 C-0.32 10 -1.64 10 -3 10 C-3 14.62 -3 19.24 -3 24 C-4.32 24 -5.64 24 -7 24 C-7.33 24.66 -7.66 25.32 -8 26 C-8 25.01 -8 24.02 -8 23 C-6.68 23 -5.36 23 -4 23 C-4.01160156 22.02417969 -4.02320312 21.04835937 -4.03515625 20.04296875 C-4.04417969 18.77066406 -4.05320312 17.49835938 -4.0625 16.1875 C-4.07410156 14.92292969 -4.08570312 13.65835938 -4.09765625 12.35546875 C-4 9 -4 9 -3 6 C-5.31 6 -7.62 6 -10 6 C-10 7.65 -10 9.3 -10 11 C-10.99 11.33 -11.98 11.66 -13 12 C-13.33 12.66 -13.66 13.32 -14 14 C-14.66 14 -15.32 14 -16 14 C-16 12.35 -16 10.7 -16 9 C-13.525 9.495 -13.525 9.495 -11 10 C-11 7.03 -11 4.06 -11 1 C-10.67 2.32 -10.34 3.64 -10 5 C-4.97869169 4.78354204 -4.97869169 4.78354204 -1.125 1.9375 C-0.75375 1.298125 -0.3825 0.65875 0 0 Z " fill="#36363A" transform="translate(100,126)"/>
<path d="M0 0 C1.32 0 2.64 0 4 0 C4 1.32 4 2.64 4 4 C5.65 4 7.3 4 9 4 C9 2.68 9 1.36 9 0 C10.32 0 11.64 0 13 0 C13 2.97 13 5.94 13 9 C11.68 9 10.36 9 9 9 C9 9.66 9 10.32 9 11 C6.5625 10.25 6.5625 10.25 4 9 C3.375 6.9375 3.375 6.9375 3 5 C2.01 4.67 1.02 4.34 0 4 C0 2.68 0 1.36 0 0 Z " fill="#262B52" transform="translate(41,103)"/>
<path d="M0 0 C1.27617187 0.00483398 1.27617187 0.00483398 2.578125 0.00976562 C3.46757812 0.01814453 4.35703125 0.02652344 5.2734375 0.03515625 C6.170625 0.03966797 7.0678125 0.04417969 7.9921875 0.04882812 C10.21100398 0.06063034 12.42968768 0.0770947 14.6484375 0.09765625 C14.6484375 1.08765625 14.6484375 2.07765625 14.6484375 3.09765625 C12.59765625 3.32552083 10.546875 3.55338542 8.49609375 3.78125 C6.63703521 3.91652239 6.63703521 3.91652239 5.6484375 5.09765625 C3.79556248 5.16992127 1.94009872 5.18146845 0.0859375 5.16015625 C-0.92597656 5.15113281 -1.93789062 5.14210938 -2.98046875 5.1328125 C-3.76292969 5.12121094 -4.54539063 5.10960937 -5.3515625 5.09765625 C-5.6815625 3.77765625 -6.0115625 2.45765625 -6.3515625 1.09765625 C-4.00303722 -0.07660639 -2.61382185 -0.01742548 0 0 Z " fill="#21234B" transform="translate(146.3515625,32.90234375)"/>
<path d="M0 0 C1.88842773 -0.37231445 1.88842773 -0.37231445 4.18359375 -0.36328125 C5.02438477 -0.36392578 5.86517578 -0.36457031 6.73144531 -0.36523438 C7.62444336 -0.34783203 8.51744141 -0.33042969 9.4375 -0.3125 C10.79053223 -0.29993164 10.79053223 -0.29993164 12.17089844 -0.28710938 C18.59226913 -0.17165863 24.76067345 0.39723722 31 2 C31 2.33 31 2.66 31 3 C20.11 3 9.22 3 -2 3 C-1.34 2.01 -0.68 1.02 0 0 Z " fill="#222346" transform="translate(44,169)"/>
<path d="M0 0 C6.93 0 13.86 0 21 0 C21 1.98 21 3.96 21 6 C20.01 6 19.02 6 18 6 C18 4.35 18 2.7 18 1 C16.35 1 14.7 1 13 1 C12.67 3.31 12.34 5.62 12 8 C11.34 7.01 10.68 6.02 10 5 C7.57478506 4.41810734 7.57478506 4.41810734 4.875 4.3125 C3.96492188 4.24675781 3.05484375 4.18101563 2.1171875 4.11328125 C1.41851562 4.07589844 0.71984375 4.03851563 0 4 C0 2.68 0 1.36 0 0 Z " fill="#3B3E68" transform="translate(39,58)"/>
<path d="M0 0 C0.33 1.32 0.66 2.64 1 4 C2.65 4 4.3 4 6 4 C6 5.98 6 7.96 6 10 C6.99 10 7.98 10 9 10 C8.67 10.66 8.34 11.32 8 12 C7.34 11.67 6.68 11.34 6 11 C6 12.32 6 13.64 6 15 C5.01 15 4.02 15 3 15 C3 16.32 3 17.64 3 19 C0.69 19 -1.62 19 -4 19 C-4.33 19.66 -4.66 20.32 -5 21 C-5 19.68 -5 18.36 -5 17 C-3.02 16.34 -1.04 15.68 1 15 C1 13.68 1 12.36 1 11 C1.99 10.67 2.98 10.34 4 10 C4.33 8.35 4.66 6.7 5 5 C4.319375 5.165 3.63875 5.33 2.9375 5.5 C-0.4164822 6.07089059 -3.60389805 6.06659023 -7 6 C-7 5.34 -7 4.68 -7 4 C-4.69 4 -2.38 4 0 4 C0 2.68 0 1.36 0 0 Z " fill="#18132A" transform="translate(81,32)"/>
<path d="M0 0 C0.7425 0.350625 1.485 0.70125 2.25 1.0625 C5.36445773 2.12424695 5.94476536 1.81865306 9 1 C11.14182067 0.75381372 13.28860202 0.54889926 15.4375 0.375 C17.10619141 0.23191406 17.10619141 0.23191406 18.80859375 0.0859375 C21.75283181 0.00665569 24.15582592 0.28762743 27 1 C27.33 1.99 27.66 2.98 28 4 C23.89584811 4.02898097 19.79172247 4.0467922 15.6875 4.0625 C14.52025391 4.07087891 13.35300781 4.07925781 12.15039062 4.08789062 C10.47299805 4.09272461 10.47299805 4.09272461 8.76171875 4.09765625 C7.2142395 4.10551147 7.2142395 4.10551147 5.63549805 4.11352539 C3 4 3 4 0 3 C0 2.01 0 1.02 0 0 Z " fill="#EEF0E3" transform="translate(94,32)"/>
<path d="M0 0 C4.95 0 9.9 0 15 0 C15 0.66 15 1.32 15 2 C13.68 2 12.36 2 11 2 C11 3.32 11 4.64 11 6 C7.37 6 3.74 6 0 6 C0 4.02 0 2.04 0 0 Z " fill="#3C3F66" transform="translate(58,128)"/>
<path d="M0 0 C1.79244141 0.01740234 1.79244141 0.01740234 3.62109375 0.03515625 C5.41740234 0.04869141 5.41740234 0.04869141 7.25 0.0625 C8.17683594 0.07410156 9.10367188 0.08570313 10.05859375 0.09765625 C10.05859375 0.75765625 10.05859375 1.41765625 10.05859375 2.09765625 C17.64859375 2.09765625 25.23859375 2.09765625 33.05859375 2.09765625 C33.05859375 2.42765625 33.05859375 2.75765625 33.05859375 3.09765625 C17.54859375 3.09765625 2.03859375 3.09765625 -13.94140625 3.09765625 C-13.94140625 2.76765625 -13.94140625 2.43765625 -13.94140625 2.09765625 C-13.23113281 2.03707031 -12.52085938 1.97648437 -11.7890625 1.9140625 C-10.41041016 1.78837891 -10.41041016 1.78837891 -9.00390625 1.66015625 C-8.08738281 1.57894531 -7.17085938 1.49773438 -6.2265625 1.4140625 C-3.23147301 0.9993578 -3.24930621 0.10787869 0 0 Z " fill="#7B7BA3" transform="translate(90.94140625,48.90234375)"/>
<path d="M0 0 C0 0.99 0 1.98 0 3 C-1.32 3 -2.64 3 -4 3 C-4.33 7.62 -4.66 12.24 -5 17 C-9 16 -9 16 -10.75 14.25 C-12.21079991 11.62056017 -12.24687966 9.9625559 -12 7 C-9.69 7 -7.38 7 -5 7 C-5.0928125 5.824375 -5.0928125 5.824375 -5.1875 4.625 C-5.125625 3.75875 -5.06375 2.8925 -5 2 C-2 0 -2 0 0 0 Z " fill="#282B4E" transform="translate(50,115)"/>
<path d="M0 0 C7.92 0 15.84 0 24 0 C24 0.99 24 1.98 24 3 C16.08 3 8.16 3 0 3 C0 2.01 0 1.02 0 0 Z " fill="#343D69" transform="translate(101,62)"/>
<path d="M0 0 C4.95 0 9.9 0 15 0 C15 1.65 15 3.3 15 5 C13.25034642 5.05429959 11.50020213 5.09292823 9.75 5.125 C8.77546875 5.14820313 7.8009375 5.17140625 6.796875 5.1953125 C3.9803502 4.99862781 2.39050964 4.44568916 0 3 C0 2.01 0 1.02 0 0 Z " fill="#A99FA5" transform="translate(229,43)"/>
<path d="M0 0 C4.62 0 9.24 0 14 0 C14 0.66 14 1.32 14 2 C12.68 2.33 11.36 2.66 10 3 C10 3.99 10 4.98 10 6 C9.6937566 7.33981486 9.36548445 8.67511887 9 10 C7.02 10 5.04 10 3 10 C3 7.66666667 3 5.33333333 3 3 C2.01 2.67 1.02 2.34 0 2 C0 1.34 0 0.68 0 0 Z " fill="#33333B" transform="translate(248,15)"/>
<path d="M0 0 C1.32 0 2.64 0 4 0 C4 2.64 4 5.28 4 8 C3.01 8 2.02 8 1 8 C0.67 9.32 0.34 10.64 0 12 C0 10.35 0 8.7 0 7 C0.99 7 1.98 7 3 7 C3 6.34 3 5.68 3 5 C-6.9 5 -16.8 5 -27 5 C-27 8.3 -27 11.6 -27 15 C-27.33 15 -27.66 15 -28 15 C-28 11.37 -28 7.74 -28 4 C-18.76 4 -9.52 4 0 4 C0 2.68 0 1.36 0 0 Z " fill="#080A22" transform="translate(92,72)"/>
<path d="M0 0 C3.63 0 7.26 0 11 0 C11 1.98 11 3.96 11 6 C7.37 6 3.74 6 0 6 C0 4.02 0 2.04 0 0 Z " fill="#0F0A1C" transform="translate(228,36)"/>
<path d="M0 0 C0.33 0 0.66 0 1 0 C1 3.63 1 7.26 1 11 C1.99 11 2.98 11 4 11 C4 13.64 4 16.28 4 19 C3.01 19 2.02 19 1 19 C1 19.66 1 20.32 1 21 C0.01 21 -0.98 21 -2 21 C-2 17.7 -2 14.4 -2 11 C-1.34 11 -0.68 11 0 11 C0 7.37 0 3.74 0 0 Z " fill="#161732" transform="translate(78,137)"/>
<path d="M0 0 C2.31 0 4.62 0 7 0 C7 2.31 7 4.62 7 7 C6.01 7 5.02 7 4 7 C4 8.65 4 10.3 4 12 C3.01 12 2.02 12 1 12 C0.01751476 7.9472484 -0.08159574 4.16138263 0 0 Z " fill="#ACABB1" transform="translate(253,29)"/>
<path d="M0 0 C0.66 0 1.32 0 2 0 C2.02694851 1.95825873 2.04637218 3.91662226 2.0625 5.875 C2.07410156 6.96554688 2.08570313 8.05609375 2.09765625 9.1796875 C2 12 2 12 1 14 C1.66 14 2.32 14 3 14 C2.67 15.32 2.34 16.64 2 18 C0.68 17.67 -0.64 17.34 -2 17 C-2.05383848 14.54137599 -2.09359038 12.0839245 -2.125 9.625 C-2.14175781 8.92632812 -2.15851563 8.22765625 -2.17578125 7.5078125 C-2.19344267 5.67102514 -2.10303261 3.83398037 -2 2 C-1.34 1.34 -0.68 0.68 0 0 Z " fill="#00051D" transform="translate(250,35)"/>
<path d="M0 0 C1.32 0 2.64 0 4 0 C4 1.65 4 3.3 4 5 C12.25 5 20.5 5 29 5 C29 5.33 29 5.66 29 6 C20.42 6 11.84 6 3 6 C3 6.66 3 7.32 3 8 C1.68 8 0.36 8 -1 8 C-1.04241723 5.66705225 -1.04092937 3.33297433 -1 1 C-0.67 0.67 -0.34 0.34 0 0 Z " fill="#1D2345" transform="translate(60,82)"/>
<path d="M0 0 C2.77109307 -0.05392397 5.54113818 -0.09363455 8.3125 -0.125 C9.09818359 -0.14175781 9.88386719 -0.15851562 10.69335938 -0.17578125 C11.45068359 -0.18222656 12.20800781 -0.18867187 12.98828125 -0.1953125 C13.68477783 -0.20578613 14.38127441 -0.21625977 15.09887695 -0.22705078 C17 0 17 0 20 2 C17.65147472 3.17426264 16.26225935 3.11508173 13.6484375 3.09765625 C12.79765625 3.09443359 11.946875 3.09121094 11.0703125 3.08789062 C10.18085938 3.07951172 9.29140625 3.07113281 8.375 3.0625 C7.4778125 3.05798828 6.580625 3.05347656 5.65625 3.04882812 C3.43743352 3.03702591 1.21874982 3.02056155 -1 3 C-0.67 2.01 -0.34 1.02 0 0 Z " fill="#7F7EA5" transform="translate(126,48)"/>
<path d="M0 0 C0 4.95 0 9.9 0 15 C-0.33 14.34 -0.66 13.68 -1 13 C-1.99 13 -2.98 13 -4 13 C-4 11.02 -4 9.04 -4 7 C-4.66 7 -5.32 7 -6 7 C-6 6.01 -6 5.02 -6 4 C-1.54285714 0 -1.54285714 0 0 0 Z " fill="#040211" transform="translate(91,29)"/>
<path d="M0 0 C5.94 0 11.88 0 18 0 C18.33 0.99 18.66 1.98 19 3 C16.39576408 3.02697137 13.79180756 3.04682489 11.1875 3.0625 C10.44951172 3.07087891 9.71152344 3.07925781 8.95117188 3.08789062 C5.70077932 3.10259828 3.10595105 3.03531702 0 2 C0 1.34 0 0.68 0 0 Z " fill="#4F4B70" transform="translate(41,49)"/>
<path d="M0 0 C0.33 0 0.66 0 1 0 C2.00804504 4.31599868 2.94730129 8.5257116 3.4375 12.9375 C3.7159375 14.4534375 3.7159375 14.4534375 4 16 C4.99 16.66 5.98 17.32 7 18 C6.34 18 5.68 18 5 18 C5 18.66 5 19.32 5 20 C3.35 20 1.7 20 0 20 C0 13.4 0 6.8 0 0 Z " fill="#33365D" transform="translate(36,113)"/>
<path d="M0 0 C1.65 0 3.3 0 5 0 C5 2.31 5 4.62 5 7 C4.34 7 3.68 7 3 7 C3 8.65 3 10.3 3 12 C2.01 12 1.02 12 0 12 C0 8.04 0 4.08 0 0 Z " fill="#5F628E" transform="translate(243,29)"/>
<path d="M0 0 C3.64581687 -0.02887512 7.29160463 -0.04675585 10.9375 -0.0625 C12.49887695 -0.07506836 12.49887695 -0.07506836 14.09179688 -0.08789062 C15.57583008 -0.09272461 15.57583008 -0.09272461 17.08984375 -0.09765625 C18.46450806 -0.10551147 18.46450806 -0.10551147 19.86694336 -0.11352539 C22 0 22 0 23 1 C23.07179964 2.51928038 23.08392007 4.04167482 23.0625 5.5625 C23.05347656 6.38878906 23.04445312 7.21507813 23.03515625 8.06640625 C23.02355469 8.70449219 23.01195312 9.34257813 23 10 C22.01 10 21.02 10 20 10 C20 7.03 20 4.06 20 1 C13.4 1 6.8 1 0 1 C0 0.67 0 0.34 0 0 Z " fill="#7C84B2" transform="translate(138,59)"/>
<path d="M0 0 C1.32 0 2.64 0 4 0 C4 2.97 4 5.94 4 9 C4.99 9 5.98 9 7 9 C7 7.35 7 5.7 7 4 C7.66 4 8.32 4 9 4 C9.04254356 5.99954746 9.04080783 8.00041636 9 10 C8 11 8 11 4.9375 11.0625 C3.968125 11.041875 2.99875 11.02125 2 11 C1.93941406 10.37351562 1.87882813 9.74703125 1.81640625 9.1015625 C1.73261719 8.28429688 1.64882812 7.46703125 1.5625 6.625 C1.48128906 5.81289063 1.40007812 5.00078125 1.31640625 4.1640625 C1.10909886 1.95727195 1.10909886 1.95727195 0 0 Z " fill="#44456A" transform="translate(239,32)"/>
<path d="M0 0 C8.58 0 17.16 0 26 0 C26 0.66 26 1.32 26 2 C25.43490723 1.98952637 24.86981445 1.97905273 24.28759766 1.96826172 C21.73344347 1.92675212 19.17936018 1.9006904 16.625 1.875 C15.29082031 1.84986328 15.29082031 1.84986328 13.9296875 1.82421875 C13.07890625 1.81777344 12.228125 1.81132813 11.3515625 1.8046875 C10.56604004 1.79421387 9.78051758 1.78374023 8.97119141 1.77294922 C6.765535 1.82009873 6.765535 1.82009873 5 4 C4.01 4.33 3.02 4.66 2 5 C2.33 3.68 2.66 2.36 3 1 C2.34 1 1.68 1 1 1 C0.67 2.32 0.34 3.64 0 5 C0 3.35 0 1.7 0 0 Z " fill="#010107" transform="translate(97,37)"/>
<path d="M0 0 C4.75 -0.125 4.75 -0.125 7 1 C7 1.66 7 2.32 7 3 C5.35 3 3.7 3 2 3 C2 4.32 2 5.64 2 7 C0.02 7 -1.96 7 -4 7 C-4 6.01 -4 5.02 -4 4 C-2.68 4 -1.36 4 0 4 C0 2.68 0 1.36 0 0 Z " fill="#717BA5" transform="translate(56,90)"/>
<path d="M0 0 C3.3 0 6.6 0 10 0 C10 0.33 10 0.66 10 1 C7.03 1 4.06 1 1 1 C1.12375 2.299375 1.2475 3.59875 1.375 4.9375 C1.44460937 5.66839844 1.51421875 6.39929688 1.5859375 7.15234375 C1.72257813 7.76207031 1.85921875 8.37179688 2 9 C2.66 9.33 3.32 9.66 4 10 C4 10.66 4 11.32 4 12 C1.69 12 -0.62 12 -3 12 C-3 11.01 -3 10.02 -3 9 C-2.01 9 -1.02 9 0 9 C0 6.03 0 3.06 0 0 Z " fill="#2E3259" transform="translate(161,60)"/>
<path d="M0 0 C1.32 0 2.64 0 4 0 C4 2.97 4 5.94 4 9 C2.68 9 1.36 9 0 9 C0 6.03 0 3.06 0 0 Z " fill="#7D7A8D" transform="translate(266,33)"/>
<path d="M0 0 C2.97 0 5.94 0 9 0 C9 1.32 9 2.64 9 4 C6.03 4 3.06 4 0 4 C0 2.68 0 1.36 0 0 Z " fill="#9599A6" transform="translate(49,21)"/>
<path d="M0 0 C1.32 0 2.64 0 4 0 C4 1.65 4 3.3 4 5 C1.03 5 -1.94 5 -5 5 C-5 4.01 -5 3.02 -5 2 C-3.35 2 -1.7 2 0 2 C0 1.34 0 0.68 0 0 Z " fill="#ABA7A5" transform="translate(190,33)"/>
<path d="M0 0 C2.97 0 5.94 0 9 0 C7.68 0.33 6.36 0.66 5 1 C5 3.64 5 6.28 5 9 C4.01 9.33 3.02 9.66 2 10 C2 7.03 2 4.06 2 1 C1.34 0.67 0.68 0.34 0 0 Z " fill="#171B40" transform="translate(40,62)"/>
<path d="M0 0 C2.31 0 4.62 0 7 0 C6.67 1.65 6.34 3.3 6 5 C4.02 5 2.04 5 0 5 C0 3.35 0 1.7 0 0 Z " fill="#474C6D" transform="translate(253,48)"/>
<path d="M0 0 C0.33 0 0.66 0 1 0 C1 3.63 1 7.26 1 11 C1.99 11 2.98 11 4 11 C4 13.64 4 16.28 4 19 C3.01 19 2.02 19 1 19 C0.67 19.66 0.34 20.32 0 21 C0 20.01 0 19.02 0 18 C0.99 18 1.98 18 3 18 C2.505 17.2575 2.01 16.515 1.5 15.75 C-1.003491 10.88405974 -0.23217124 5.31414164 0 0 Z " fill="#0E0E25" transform="translate(78,137)"/>
<path d="M0 0 C0.66 0 1.32 0 2 0 C2 3.96 2 7.92 2 12 C0.35 12 -1.3 12 -3 12 C-2.690625 11.505 -2.38125 11.01 -2.0625 10.5 C-0.58355618 7.02013219 -0.37597149 3.75971491 0 0 Z " fill="#06061E" transform="translate(34,112)"/>
<path d="M0 0 C1.32 0 2.64 0 4 0 C3.67 2.97 3.34 5.94 3 9 C2.01 9 1.02 9 0 9 C0 6.03 0 3.06 0 0 Z " fill="#7886AC" transform="translate(46,98)"/>
<path d="M0 0 C2.475 0.495 2.475 0.495 5 1 C5.33 1.99 5.66 2.98 6 4 C6.66 4.66 7.32 5.32 8 6 C5.69 6.33 3.38 6.66 1 7 C0.67 4.69 0.34 2.38 0 0 Z " fill="#010106" transform="translate(127,61)"/>
<path d="M0 0 C1.65 0 3.3 0 5 0 C5 1.65 5 3.3 5 5 C1.25 6.125 1.25 6.125 -1 5 C-0.67 3.35 -0.34 1.7 0 0 Z " fill="#241D4A" transform="translate(81,37)"/>
<path d="M0 0 C1.32 0 2.64 0 4 0 C4 0.66 4 1.32 4 2 C3.01 2.495 3.01 2.495 2 3 C2.99 3.66 3.98 4.32 5 5 C5 6.32 5 7.64 5 9 C3.68 8.67 2.36 8.34 1 8 C0.67 5.36 0.34 2.72 0 0 Z " fill="#53587A" transform="translate(37,113)"/>
<path d="M0 0 C0.66 0 1.32 0 2 0 C2 0.99 2 1.98 2 3 C3.32 3 4.64 3 6 3 C6 4.32 6 5.64 6 7 C4.02 7 2.04 7 0 7 C0 4.69 0 2.38 0 0 Z " fill="#060D2E" transform="translate(58,68)"/>
<path d="M0 0 C2 3 2 3 2 5 C2.66 5.33 3.32 5.66 4 6 C3 7 3 7 0.93359375 7.09765625 C0.10988281 7.08605469 -0.71382813 7.07445312 -1.5625 7.0625 C-2.38878906 7.05347656 -3.21507813 7.04445313 -4.06640625 7.03515625 C-4.70449219 7.02355469 -5.34257813 7.01195312 -6 7 C-6 6.34 -6 5.68 -6 5 C-5.195625 4.731875 -4.39125 4.46375 -3.5625 4.1875 C-2.716875 3.795625 -1.87125 3.40375 -1 3 C-0.67 2.01 -0.34 1.02 0 0 Z " fill="#ABA6AE" transform="translate(94,40)"/>
<path d="M0 0 C1.98 0 3.96 0 6 0 C6 1.65 6 3.3 6 5 C4.02 5 2.04 5 0 5 C0 3.35 0 1.7 0 0 Z " fill="#FAFAFD" transform="translate(253,30)"/>
<path d="M0 0 C0.33 0 0.66 0 1 0 C1 4.29 1 8.58 1 13 C-0.65 13.33 -2.3 13.66 -4 14 C-4.33 13.01 -4.66 12.02 -5 11 C-3.68 11 -2.36 11 -1 11 C-1.020625 9.9275 -1.04125 8.855 -1.0625 7.75 C-1.0142016 4.85209576 -0.86844115 2.71387859 0 0 Z " fill="#69686E" transform="translate(158,86)"/>
<path d="M0 0 C1.65 0 3.3 0 5 0 C5 1.65 5 3.3 5 5 C3.02 5 1.04 5 -1 5 C-0.67 3.35 -0.34 1.7 0 0 Z " fill="#161126" transform="translate(254,58)"/>
<path d="M0 0 C0.66 0.33 1.32 0.66 2 1 C2 2.32 2 3.64 2 5 C5.63 5.33 9.26 5.66 13 6 C13.33 5.01 13.66 4.02 14 3 C14 4.32 14 5.64 14 7 C9.38 7 4.76 7 0 7 C-0.33 5.02 -0.66 3.04 -1 1 C-0.67 0.67 -0.34 0.34 0 0 Z " fill="#BBB7B4" transform="translate(181,33)"/>
<path d="M0 0 C0.66 0 1.32 0 2 0 C2 2.64 2 5.28 2 8 C0.68 7.67 -0.64 7.34 -2 7 C-2.125 4.625 -2.125 4.625 -2 2 C-1.34 1.34 -0.68 0.68 0 0 Z " fill="#090A1A" transform="translate(91,90)"/>
<path d="M0 0 C0.66 0 1.32 0 2 0 C2 1.65 2 3.3 2 5 C3.32 5 4.64 5 6 5 C6 6.32 6 7.64 6 9 C3.13275314 8.42655063 2.1385485 8.1385485 0 6 C-0.125 2.875 -0.125 2.875 0 0 Z " fill="#141734" transform="translate(39,123)"/>
<path d="M0 0 C1.2065625 0.0309375 1.2065625 0.0309375 2.4375 0.0625 C2.1075 1.7125 1.7775 3.3625 1.4375 5.0625 C-0.8725 5.0625 -3.1825 5.0625 -5.5625 5.0625 C-3.15007962 0.07683121 -3.15007962 0.07683121 0 0 Z " fill="#151636" transform="translate(170.5625,66.9375)"/>
<path d="M0 0 C0.66 0 1.32 0 2 0 C2.33 3.63 2.66 7.26 3 11 C2.01 11.66 1.02 12.32 0 13 C0 8.71 0 4.42 0 0 Z " fill="#050920" transform="translate(39,134)"/>
<path d="M0 0 C0.66 0 1.32 0 2 0 C2 1.65 2 3.3 2 5 C2.66 5 3.32 5 4 5 C4 6.32 4 7.64 4 9 C2.68 9 1.36 9 0 9 C0 6.03 0 3.06 0 0 Z " fill="#11102B" transform="translate(54,98)"/>
<path d="M0 0 C0.33 0 0.66 0 1 0 C1 5.94 1 11.88 1 18 C-0.65 18 -2.3 18 -4 18 C-3.51917969 17.48953125 -3.03835937 16.9790625 -2.54296875 16.453125 C-0.48262506 13.17743934 -0.49039226 10.59247281 -0.3125 6.75 C-0.24675781 5.48671875 -0.18101562 4.2234375 -0.11328125 2.921875 C-0.05720703 1.47554688 -0.05720703 1.47554688 0 0 Z " fill="#2A2A2F" transform="translate(165,86)"/>
<path d="M0 0 C0.625 1.8125 0.625 1.8125 1 4 C0.01 5.485 0.01 5.485 -1 7 C-1.99 6.67 -2.98 6.34 -4 6 C-4 4.35 -4 2.7 -4 1 C-2.68 0.67 -1.36 0.34 0 0 Z " fill="#0C081D" transform="translate(270,41)"/>
<path d="M0 0 C2 4 2 4 1.125 7.75 C0.75375 8.8225 0.3825 9.895 0 11 C-0.66 11 -1.32 11 -2 11 C-2.33 11.66 -2.66 12.32 -3 13 C-3.66 13 -4.32 13 -5 13 C-5 11.35 -5 9.7 -5 8 C-2.525 8.495 -2.525 8.495 0 9 C0 6.03 0 3.06 0 0 Z " fill="#04051B" transform="translate(89,127)"/>
<path d="M0 0 C0.66 0 1.32 0 2 0 C2 1.98 2 3.96 2 6 C-0.31 5.67 -2.62 5.34 -5 5 C-4.01 4.67 -3.02 4.34 -2 4 C-0.79117904 1.99983534 -0.79117904 1.99983534 0 0 Z " fill="#2B2D54" transform="translate(171,61)"/>
<path d="M0 0 C0.66 0.33 1.32 0.66 2 1 C2 2.32 2 3.64 2 5 C-0.31 5 -2.62 5 -5 5 C-5.33 5.66 -5.66 6.32 -6 7 C-6 5.68 -6 4.36 -6 3 C-4 2 -2 1 0 0 Z " fill="#1E1F3A" transform="translate(82,46)"/>
<path d="M0 0 C0.99 0 1.98 0 3 0 C3 2.64 3 5.28 3 8 C2.01 8 1.02 8 0 8 C0 5.36 0 2.72 0 0 Z " fill="#1C1D47" transform="translate(33,124)"/>
<path d="M0 0 C1.98 0 3.96 0 6 0 C6 1.32 6 2.64 6 4 C4.02 4 2.04 4 0 4 C0 2.68 0 1.36 0 0 Z " fill="#343963" transform="translate(96,72)"/>
<path d="M0 0 C1.32 0 2.64 0 4 0 C4 1.98 4 3.96 4 6 C2.68 6 1.36 6 0 6 C0 4.02 0 2.04 0 0 Z " fill="#EAE5F3" transform="translate(244,29)"/>
<path d="M0 0 C1.98 0 3.96 0 6 0 C6 1.32 6 2.64 6 4 C4.02 4 2.04 4 0 4 C0 2.68 0 1.36 0 0 Z " fill="#909FBB" transform="translate(251,21)"/>
<path d="M0 0 C0.33 0 0.66 0 1 0 C1.33 1.98 1.66 3.96 2 6 C2.99 6.33 3.98 6.66 5 7 C4.67 8.32 4.34 9.64 4 11 C2.68 10.67 1.36 10.34 0 10 C0 6.7 0 3.4 0 0 Z " fill="#05092B" transform="translate(248,42)"/>
<path d="M0 0 C0.33 0 0.66 0 1 0 C1 1.98 1 3.96 1 6 C-2.63 6 -6.26 6 -10 6 C-10 5.67 -10 5.34 -10 5 C-9.05125 4.87625 -8.1025 4.7525 -7.125 4.625 C-3.91332809 4.28312823 -3.91332809 4.28312823 -2 2 C-1.34 2.33 -0.68 2.66 0 3 C0 2.01 0 1.02 0 0 Z " fill="#40364E" transform="translate(238,36)"/>
<path d="M0 0 C0.99 0 1.98 0 3 0 C3 2.31 3 4.62 3 7 C0.69 7.33 -1.62 7.66 -4 8 C-4 7.34 -4 6.68 -4 6 C-2.02 6 -0.04 6 2 6 C2 5.34 2 4.68 2 4 C1.34 4 0.68 4 0 4 C0 2.68 0 1.36 0 0 Z " fill="#101536" transform="translate(36,140)"/>
<path d="M0 0 C1.32 0 2.64 0 4 0 C4 1.32 4 2.64 4 4 C5.32 4.33 6.64 4.66 8 5 C5.39417629 5.93065133 4.35801776 6.14917407 1.75 5.0625 C1.1725 4.711875 0.595 4.36125 0 4 C0 2.68 0 1.36 0 0 Z " fill="#2D3356" transform="translate(41,103)"/>
<path d="M0 0 C2.64 0 5.28 0 8 0 C7.505 0.433125 7.01 0.86625 6.5 1.3125 C4.66781808 2.99740483 4.66781808 2.99740483 5 6 C2.525 5.01 2.525 5.01 0 4 C0 2.68 0 1.36 0 0 Z " fill="#9F9898" transform="translate(113,41)"/>
<path d="M0 0 C0 0.66 0 1.32 0 2 C-0.66 2 -1.32 2 -2 2 C-1.67 3.32 -1.34 4.64 -1 6 C-2.32 6 -3.64 6 -5 6 C-5.33 4.35 -5.66 2.7 -6 1 C-3.92446352 0.4465236 -2.15634036 0 0 0 Z " fill="#1C1F38" transform="translate(137,59)"/>
<path d="M0 0 C0 1.98 0 3.96 0 6 C-1.32 6 -2.64 6 -4 6 C-4 4.35 -4 2.7 -4 1 C-1 0 -1 0 0 0 Z " fill="#515490" transform="translate(248,42)"/>
<path d="M0 0 C2.31 0 4.62 0 7 0 C7 1.65 7 3.3 7 5 C5.68 4.67 4.36 4.34 3 4 C3 3.34 3 2.68 3 2 C2.01 1.34 1.02 0.68 0 0 Z " fill="#C2BAB5" transform="translate(114,42)"/>
<path d="M0 0 C2.31 0 4.62 0 7 0 C7 0.99 7 1.98 7 3 C4.69 3 2.38 3 0 3 C0 2.01 0 1.02 0 0 Z " fill="#393C5E" transform="translate(154,33)"/>
<path d="M0 0 C1.32 0 2.64 0 4 0 C4 0.99 4 1.98 4 3 C3.01 3.66 2.02 4.32 1 5 C0.34 6.32 -0.32 7.64 -1 9 C-0.67 6.03 -0.34 3.06 0 0 Z " fill="#03041A" transform="translate(59,94)"/>
<path d="M0 0 C2.475 0.99 2.475 0.99 5 2 C4.01 2.33 3.02 2.66 2 3 C2 4.65 2 6.3 2 8 C1.01 8 0.02 8 -1 8 C-0.7525 7.13375 -0.7525 7.13375 -0.5 6.25 C0.14462031 3.73335631 0.14462031 3.73335631 0 0 Z " fill="#1E1E22" transform="translate(259,72)"/>
<path d="M0 0 C1.98 0 3.96 0 6 0 C6 1.98 6 3.96 6 6 C5.01 6 4.02 6 3 6 C3 4.35 3 2.7 3 1 C2.01 0.67 1.02 0.34 0 0 Z " fill="#424A6D" transform="translate(54,58)"/>
<path d="M0 0 C1.65 0 3.3 0 5 0 C5 1.32 5 2.64 5 4 C3.35 4 1.7 4 0 4 C0 2.68 0 1.36 0 0 Z " fill="#2F3270" transform="translate(243,48)"/>
<path d="M0 0 C0.66 0 1.32 0 2 0 C2 1.65 2 3.3 2 5 C-1.3 5 -4.6 5 -8 5 C-8 4.67 -8 4.34 -8 4 C-5.69 4 -3.38 4 -1 4 C-0.67 2.68 -0.34 1.36 0 0 Z " fill="#9997B0" transform="translate(242,43)"/>
<path d="M0 0 C0.99 0.495 0.99 0.495 2 1 C1.67 1.99 1.34 2.98 1 4 C1.66 4 2.32 4 3 4 C3 5.65 3 7.3 3 9 C2.01 9 1.02 9 0 9 C0 6.03 0 3.06 0 0 Z " fill="#413B5A" transform="translate(79,38)"/>
<path d="M0 0 C1.98 0 3.96 0 6 0 C6 1.32 6 2.64 6 4 C4.35 4 2.7 4 1 4 C0.67 2.68 0.34 1.36 0 0 Z " fill="#060926" transform="translate(135,35)"/>
<path d="M0 0 C0.33 0.66 0.66 1.32 1 2 C1.99 2.33 2.98 2.66 4 3 C1.11584117 4.44207941 -1.41721528 4.09394887 -4.625 4.0625 C-5.81351563 4.05347656 -7.00203125 4.04445313 -8.2265625 4.03515625 C-9.14179687 4.02355469 -10.05703125 4.01195312 -11 4 C-11 3.67 -11 3.34 -11 3 C-10.28972656 2.95101562 -9.57945313 2.90203125 -8.84765625 2.8515625 C-7.46900391 2.73941406 -7.46900391 2.73941406 -6.0625 2.625 C-5.14597656 2.55539063 -4.22945312 2.48578125 -3.28515625 2.4140625 C-2.15400391 2.20910156 -2.15400391 2.20910156 -1 2 C-0.67 1.34 -0.34 0.68 0 0 Z " fill="#151635" transform="translate(134,35)"/>
<path d="M0 0 C0.33 0 0.66 0 1 0 C1 2.97 1 5.94 1 9 C-0.32 8.67 -1.64 8.34 -3 8 C-3.33 7.34 -3.66 6.68 -4 6 C-3.01 5.34 -2.02 4.68 -1 4 C-0.27617533 1.94074861 -0.27617533 1.94074861 0 0 Z " fill="#252442" transform="translate(53,103)"/>
<path d="M0 0 C0 1.65 0 3.3 0 5 C-1.65 5 -3.3 5 -5 5 C-5.33 5.66 -5.66 6.32 -6 7 C-5.60799596 4.15797072 -5.2043974 3.17884772 -3 1.25 C-1 0 -1 0 0 0 Z " fill="#020414" transform="translate(45,98)"/>
<path d="M0 0 C0.33 1.32 0.66 2.64 1 4 C-0.98 4 -2.96 4 -5 4 C-5 3.01 -5 2.02 -5 1 C-3.35 0.67 -1.7 0.34 0 0 Z " fill="#3D4574" transform="translate(104,92)"/>
<path d="M0 0 C2.31 0 4.62 0 7 0 C7 1.65 7 3.3 7 5 C6.01 5 5.02 5 4 5 C4 3.68 4 2.36 4 1 C2.68 0.67 1.36 0.34 0 0 Z " fill="#1C234C" transform="translate(93,61)"/>
<path d="M0 0 C0 2.31 0 4.62 0 7 C-0.99 7 -1.98 7 -3 7 C-3 5.02 -3 3.04 -3 1 C-1 0 -1 0 0 0 Z " fill="#120F23" transform="translate(91,29)"/>
<path d="M0 0 C1.98 0 3.96 0 6 0 C6 0.99 6 1.98 6 3 C4.02 3 2.04 3 0 3 C0 2.01 0 1.02 0 0 Z " fill="#9BA7CD" transform="translate(52,94)"/>
<path d="M0 0 C0.99 0 1.98 0 3 0 C3 1.98 3 3.96 3 6 C2.01 6 1.02 6 0 6 C0 4.02 0 2.04 0 0 Z " fill="#030427" transform="translate(97,66)"/>
<path d="M0 0 C0.66 0 1.32 0 2 0 C2 1.32 2 2.64 2 4 C2.99 4.33 3.98 4.66 5 5 C3.35 5.33 1.7 5.66 0 6 C0 4.02 0 2.04 0 0 Z " fill="#252743" transform="translate(124,66)"/>
<path d="M0 0 C0.99 0.33 1.98 0.66 3 1 C3 3.97 3 6.94 3 10 C2.67 10 2.34 10 2 10 C0.68373308 6.38026598 0 3.90432869 0 0 Z " fill="#0B0C26" transform="translate(39,62)"/>
<path d="M0 0 C1.32 0 2.64 0 4 0 C4 1.32 4 2.64 4 4 C2.35 4 0.7 4 -1 4 C-0.67 2.68 -0.34 1.36 0 0 Z " fill="#7C777A" transform="translate(168,34)"/>
<path d="" fill="#FFFFFF" transform="translate(0,0)"/>
<path d="" fill="#FFFFFF" transform="translate(0,0)"/>
<path d="" fill="#FFFFFF" transform="translate(0,0)"/>
<path d="" fill="#FFFFFF" transform="translate(0,0)"/>
<path d="" fill="#FFFFFF" transform="translate(0,0)"/>
<path d="" fill="#FFFFFF" transform="translate(0,0)"/>
<path d="" fill="#FFFFFF" transform="translate(0,0)"/>
<path d="" fill="#FFFFFF" transform="translate(0,0)"/>
<path d="" fill="#FFFFFF" transform="translate(0,0)"/>
<path d="" fill="#FFFFFF" transform="translate(0,0)"/>
<path d="" fill="#FFFFFF" transform="translate(0,0)"/>
<path d="" fill="#FFFFFF" transform="translate(0,0)"/>
<path d="" fill="#FFFFFF" transform="translate(0,0)"/>
<path d="" fill="#FFFFFF" transform="translate(0,0)"/>
<path d="" fill="#FFFFFF" transform="translate(0,0)"/>
<path d="" fill="#FFFFFF" transform="translate(0,0)"/>
<path d="" fill="#FFFFFF" transform="translate(0,0)"/>
<path d="" fill="#FFFFFF" transform="translate(0,0)"/>
<path d="" fill="#FFFFFF" transform="translate(0,0)"/>
<path d="" fill="#FFFFFF" transform="translate(0,0)"/>
<path d="" fill="#FFFFFF" transform="translate(0,0)"/>
<path d="" fill="#FFFFFF" transform="translate(0,0)"/>
<path d="" fill="#FFFFFF" transform="translate(0,0)"/>
<path d="" fill="#FFFFFF" transform="translate(0,0)"/>
<path d="" fill="#FFFFFF" transform="translate(0,0)"/>
<path d="" fill="#FFFFFF" transform="translate(0,0)"/>
<path d="" fill="#FFFFFF" transform="translate(0,0)"/>
<path d="" fill="#FFFFFF" transform="translate(0,0)"/>
<path d="" fill="#FFFFFF" transform="translate(0,0)"/>
<path d="" fill="#FFFFFF" transform="translate(0,0)"/>
<path d="" fill="#FFFFFF" transform="translate(0,0)"/>
<path d="" fill="#FFFFFF" transform="translate(0,0)"/>
<path d="" fill="#FFFFFF" transform="translate(0,0)"/>
<path d="" fill="#FFFFFF" transform="translate(0,0)"/>
<path d="" fill="#FFFFFF" transform="translate(0,0)"/>
<path d="" fill="#FFFFFF" transform="translate(0,0)"/>
<path d="" fill="#FFFFFF" transform="translate(0,0)"/>
<path d="" fill="#FFFFFF" transform="translate(0,0)"/>
<path d="" fill="#FFFFFF" transform="translate(0,0)"/>
<path d="" fill="#FFFFFF" transform="translate(0,0)"/>
<path d="" fill="#FFFFFF" transform="translate(0,0)"/>
<path d="" fill="#FFFFFF" transform="translate(0,0)"/>
<path d="" fill="#FFFFFF" transform="translate(0,0)"/>
<path d="" fill="#FFFFFF" transform="translate(0,0)"/>
<path d="" fill="#FFFFFF" transform="translate(0,0)"/>
<path d="" fill="#FFFFFF" transform="translate(0,0)"/>
<path d="" fill="#FFFFFF" transform="translate(0,0)"/>
</svg>
