<?xml version="1.0" encoding="UTF-8"?>
<svg version="1.1" xmlns="http://www.w3.org/2000/svg" width="179" height="199">
<path d="M0 0 C1.25554687 -0.00128906 2.51109375 -0.00257813 3.8046875 -0.00390625 C4.46178711 -0.00181152 5.11888672 0.0002832 5.79589844 0.00244141 C7.80411335 0.00779016 9.81210459 0.00249559 11.8203125 -0.00390625 C13.70363281 -0.00197266 13.70363281 -0.00197266 15.625 0 C16.78644531 0.00112793 17.94789062 0.00225586 19.14453125 0.00341797 C21.8125 0.1328125 21.8125 0.1328125 22.8125 1.1328125 C24.29888992 1.28936277 25.79199127 1.38348193 27.28515625 1.44921875 C28.63383789 1.51206055 28.63383789 1.51206055 30.00976562 1.57617188 C31.42805664 1.63514648 31.42805664 1.63514648 32.875 1.6953125 C33.82439453 1.73849609 34.77378906 1.78167969 35.75195312 1.82617188 C38.10531353 1.93260526 40.45878354 2.03462258 42.8125 2.1328125 C43.3075 3.6178125 43.3075 3.6178125 43.8125 5.1328125 C45.14046291 5.48693594 46.47466607 5.81802804 47.8125 6.1328125 C49.42402649 7.31001282 49.42402649 7.31001282 50.8125 9.1328125 C51.17326355 11.69548035 51.17326355 11.69548035 51.15307617 14.79760742 C51.15284958 15.95858444 51.15262299 17.11956146 51.15238953 18.3157196 C51.13690567 19.56891495 51.12142181 20.82211029 51.10546875 22.11328125 C51.10122391 23.39640701 51.09697906 24.67953278 51.09260559 26.00154114 C51.08116162 29.40967388 51.05169896 32.8174219 51.01849365 36.22540283 C50.98778272 39.70425207 50.97409811 43.18316359 50.95898438 46.66210938 C50.92682835 53.48583493 50.87563776 60.30930524 50.8125 67.1328125 C49.8225 67.1328125 48.8325 67.1328125 47.8125 67.1328125 C47.8125 68.4528125 47.8125 69.7728125 47.8125 71.1328125 C46.1625 71.1328125 44.5125 71.1328125 42.8125 71.1328125 C42.8125 72.7828125 42.8125 74.4328125 42.8125 76.1328125 C43.8025 76.1328125 44.7925 76.1328125 45.8125 76.1328125 C45.93625 77.2465625 46.06 78.3603125 46.1875 79.5078125 C46.4590813 83.16384927 46.4590813 83.16384927 48.8125 85.1328125 C48.9375 87.7578125 48.9375 87.7578125 48.8125 90.1328125 C49.4725 90.1328125 50.1325 90.1328125 50.8125 90.1328125 C50.8125 91.1228125 50.8125 92.1128125 50.8125 93.1328125 C51.4725 93.1328125 52.1325 93.1328125 52.8125 93.1328125 C52.8125 94.7828125 52.8125 96.4328125 52.8125 98.1328125 C53.4725 98.1328125 54.1325 98.1328125 54.8125 98.1328125 C54.8125 99.4528125 54.8125 100.7728125 54.8125 102.1328125 C55.8025 102.1328125 56.7925 102.1328125 57.8125 102.1328125 C57.93625 102.9371875 58.06 103.7415625 58.1875 104.5703125 C58.496875 105.83875 58.496875 105.83875 58.8125 107.1328125 C59.4725 107.4628125 60.1325 107.7928125 60.8125 108.1328125 C60.8125 109.7828125 60.8125 111.4328125 60.8125 113.1328125 C62.2975 113.6278125 62.2975 113.6278125 63.8125 114.1328125 C63.8125 115.1228125 63.8125 116.1128125 63.8125 117.1328125 C64.4725 117.4628125 65.1325 117.7928125 65.8125 118.1328125 C65.3175 119.6178125 65.3175 119.6178125 64.8125 121.1328125 C65.4725 121.1328125 66.1325 121.1328125 66.8125 121.1328125 C66.8125 122.4528125 66.8125 123.7728125 66.8125 125.1328125 C68.2975 125.6278125 68.2975 125.6278125 69.8125 126.1328125 C72.09684367 129.29163149 73.92096091 132.72700852 75.8125 136.1328125 C76.740625 137.8034375 76.740625 137.8034375 77.6875 139.5078125 C78.8125 142.1328125 78.8125 142.1328125 78.8125 146.1328125 C79.4725 146.1328125 80.1325 146.1328125 80.8125 146.1328125 C80.8125 147.7828125 80.8125 149.4328125 80.8125 151.1328125 C81.8025 151.1328125 82.7925 151.1328125 83.8125 151.1328125 C83.8125 152.4528125 83.8125 153.7728125 83.8125 155.1328125 C85.1325 155.1328125 86.4525 155.1328125 87.8125 155.1328125 C87.8125 156.7828125 87.8125 158.4328125 87.8125 160.1328125 C89.4625 160.4628125 91.1125 160.7928125 92.8125 161.1328125 C92.8125 163.7728125 92.8125 166.4128125 92.8125 169.1328125 C91.8225 169.1328125 90.8325 169.1328125 89.8125 169.1328125 C89.4825 170.4528125 89.1525 171.7728125 88.8125 173.1328125 C86.18743198 173.15972094 83.56263827 173.17960654 80.9375 173.1953125 C80.19113281 173.20369141 79.44476563 173.21207031 78.67578125 173.22070312 C73.0390625 173.24609375 73.0390625 173.24609375 70.8125 172.1328125 C70.8125 171.4728125 70.8125 170.8128125 70.8125 170.1328125 C69.8225 169.8028125 68.8325 169.4728125 67.8125 169.1328125 C67.8125 166.8228125 67.8125 164.5128125 67.8125 162.1328125 C69.1325 162.1328125 70.4525 162.1328125 71.8125 162.1328125 C71.8125 161.1428125 71.8125 160.1528125 71.8125 159.1328125 C71.1525 159.1328125 70.4925 159.1328125 69.8125 159.1328125 C69.3175 155.6678125 69.3175 155.6678125 68.8125 152.1328125 C68.1525 152.1328125 67.4925 152.1328125 66.8125 152.1328125 C66.8125 151.1428125 66.8125 150.1528125 66.8125 149.1328125 C66.1525 149.1328125 65.4925 149.1328125 64.8125 149.1328125 C64.8125 148.1428125 64.8125 147.1528125 64.8125 146.1328125 C64.1525 146.1328125 63.4925 146.1328125 62.8125 146.1328125 C62.503125 145.4934375 62.19375 144.8540625 61.875 144.1953125 C60.9779837 142.19670429 60.9779837 142.19670429 59.8125 141.1328125 C59.77186168 139.46664135 59.769779 137.79893155 59.8125 136.1328125 C58.8225 135.8028125 57.8325 135.4728125 56.8125 135.1328125 C56.8125 133.8128125 56.8125 132.4928125 56.8125 131.1328125 C56.1525 131.1328125 55.4925 131.1328125 54.8125 131.1328125 C54.8125 129.1528125 54.8125 127.1728125 54.8125 125.1328125 C53.8225 125.1328125 52.8325 125.1328125 51.8125 125.1328125 C51.8125 123.8128125 51.8125 122.4928125 51.8125 121.1328125 C50.3275 120.6378125 50.3275 120.6378125 48.8125 120.1328125 C48.8125 118.8128125 48.8125 117.4928125 48.8125 116.1328125 C48.1525 116.1328125 47.4925 116.1328125 46.8125 116.1328125 C46.8125 114.4828125 46.8125 112.8328125 46.8125 111.1328125 C45.8225 111.1328125 44.8325 111.1328125 43.8125 111.1328125 C43.8125 109.4828125 43.8125 107.8328125 43.8125 106.1328125 C41.1725 106.1328125 38.5325 106.1328125 35.8125 106.1328125 C35.97169922 106.6282959 36.13089844 107.1237793 36.29492188 107.63427734 C37.01541894 111.11237497 37.0287291 114.57147608 37.09375 118.109375 C37.11215942 118.87583344 37.13056885 119.64229187 37.14953613 120.43197632 C37.22804437 123.70386126 37.29609606 126.97594248 37.36474609 130.24804688 C37.41642344 132.63942778 37.47367139 135.03063009 37.53125 137.421875 C37.54482544 138.16458649 37.55840088 138.90729797 37.5723877 139.67251587 C37.60081258 143.53036447 37.60081258 143.53036447 38.8125 147.1328125 C39.01629734 148.94151388 39.17750995 150.75517842 39.3125 152.5703125 C39.54556642 155.69589968 39.81724943 158.14706079 40.8125 161.1328125 C40.53480092 163.473419 40.20710023 165.80905558 39.8125 168.1328125 C40.8025 168.1328125 41.7925 168.1328125 42.8125 168.1328125 C42.8125 169.7828125 42.8125 171.4328125 42.8125 173.1328125 C43.8025 173.1328125 44.7925 173.1328125 45.8125 173.1328125 C45.8125 176.1028125 45.8125 179.0728125 45.8125 182.1328125 C42.25906955 183.90952773 41.24543537 184.38688875 37.58984375 184.3984375 C36.80416016 184.40101563 36.01847656 184.40359375 35.20898438 184.40625 C34.39751953 184.39851562 33.58605469 184.39078125 32.75 184.3828125 C31.93466797 184.39054688 31.11933594 184.39828125 30.27929688 184.40625 C29.49490234 184.40367187 28.71050781 184.40109375 27.90234375 184.3984375 C26.83294556 184.39505371 26.83294556 184.39505371 25.74194336 184.39160156 C23.8125 184.1328125 23.8125 184.1328125 20.8125 182.1328125 C20.51953125 179.96875 20.51953125 179.96875 20.625 177.5078125 C20.66560547 176.28191406 20.66560547 176.28191406 20.70703125 175.03125 C20.74183594 174.40476563 20.77664062 173.77828125 20.8125 173.1328125 C21.4725 173.1328125 22.1325 173.1328125 22.8125 173.1328125 C22.8125 172.4728125 22.8125 171.8128125 22.8125 171.1328125 C23.4725 170.8028125 24.1325 170.4728125 24.8125 170.1328125 C24.78220703 169.50004395 24.75191406 168.86727539 24.72070312 168.21533203 C24.17902498 156.69633803 23.65631509 145.20253053 23.84960938 133.66845703 C23.91794452 129.8934769 23.91794452 129.8934769 23.31469727 126.18554688 C22.77506126 123.97978142 22.69864485 122.07253371 22.71484375 119.8046875 C22.71967773 118.60585937 22.71967773 118.60585937 22.72460938 117.3828125 C22.73717773 116.1453125 22.73717773 116.1453125 22.75 114.8828125 C22.75451172 114.04234375 22.75902344 113.201875 22.76367188 112.3359375 C22.77542039 110.26819849 22.79335478 108.20049626 22.8125 106.1328125 C21.1625 106.1328125 19.5125 106.1328125 17.8125 106.1328125 C17.8125 108.1128125 17.8125 110.0928125 17.8125 112.1328125 C16.3275 112.6278125 16.3275 112.6278125 14.8125 113.1328125 C14.8125 117.0928125 14.8125 121.0528125 14.8125 125.1328125 C14.1525 125.1328125 13.4925 125.1328125 12.8125 125.1328125 C12.83570312 126.09703125 12.85890625 127.06125 12.8828125 128.0546875 C12.90085937 129.31796875 12.91890625 130.58125 12.9375 131.8828125 C12.96070312 133.13578125 12.98390625 134.38875 13.0078125 135.6796875 C12.82008839 138.99864977 12.35726477 140.32414929 10.8125 143.1328125 C10.36185368 145.71813951 10.36185368 145.71813951 10.1875 148.3828125 C10.11273438 149.27484375 10.03796875 150.166875 9.9609375 151.0859375 C9.91195312 151.76140625 9.86296875 152.436875 9.8125 153.1328125 C9.1525 153.1328125 8.4925 153.1328125 7.8125 153.1328125 C7.8125 155.7728125 7.8125 158.4128125 7.8125 161.1328125 C8.8025 161.1328125 9.7925 161.1328125 10.8125 161.1328125 C12.67026765 164.26779542 13.01390476 166.50752682 12.8125 170.1328125 C11.8225 170.1328125 10.8325 170.1328125 9.8125 170.1328125 C9.4825 171.1228125 9.1525 172.1128125 8.8125 173.1328125 C3.2025 173.1328125 -2.4075 173.1328125 -8.1875 173.1328125 C-8.1875 172.1428125 -8.1875 171.1528125 -8.1875 170.1328125 C-9.1775 170.1328125 -10.1675 170.1328125 -11.1875 170.1328125 C-11.1875 167.8228125 -11.1875 165.5128125 -11.1875 163.1328125 C-10.5275 162.8028125 -9.8675 162.4728125 -9.1875 162.1328125 C-8.8575 161.1428125 -8.5275 160.1528125 -8.1875 159.1328125 C-7.1975 159.1328125 -6.2075 159.1328125 -5.1875 159.1328125 C-4.6925 152.6978125 -4.6925 152.6978125 -4.1875 146.1328125 C-3.1975 145.8028125 -2.2075 145.4728125 -1.1875 145.1328125 C-1.1875 141.5028125 -1.1875 137.8728125 -1.1875 134.1328125 C-0.5275 134.1328125 0.1325 134.1328125 0.8125 134.1328125 C0.8125 130.1728125 0.8125 126.2128125 0.8125 122.1328125 C1.8025 122.1328125 2.7925 122.1328125 3.8125 122.1328125 C3.8125 116.8528125 3.8125 111.5728125 3.8125 106.1328125 C3.1525 106.1328125 2.4925 106.1328125 1.8125 106.1328125 C1.8125 107.1228125 1.8125 108.1128125 1.8125 109.1328125 C0.83399805 110.15385801 -0.16730427 111.1534246 -1.1875 112.1328125 C-1.6825 113.6178125 -1.6825 113.6178125 -2.1875 115.1328125 C-2.8475 115.1328125 -3.5075 115.1328125 -4.1875 115.1328125 C-4.290625 116.0196875 -4.39375 116.9065625 -4.5 117.8203125 C-5.20465907 121.215488 -6.1429566 123.35223348 -8.1875 126.1328125 C-8.8475 126.1328125 -9.5075 126.1328125 -10.1875 126.1328125 C-10.1875 127.4528125 -10.1875 128.7728125 -10.1875 130.1328125 C-11.1775 130.1328125 -12.1675 130.1328125 -13.1875 130.1328125 C-13.1875 131.7828125 -13.1875 133.4328125 -13.1875 135.1328125 C-13.8475 135.1328125 -14.5075 135.1328125 -15.1875 135.1328125 C-15.331875 135.7515625 -15.47625 136.3703125 -15.625 137.0078125 C-16.1875 139.1328125 -16.1875 139.1328125 -17.1875 141.1328125 C-17.8475 141.1328125 -18.5075 141.1328125 -19.1875 141.1328125 C-19.1875 142.4528125 -19.1875 143.7728125 -19.1875 145.1328125 C-20.1775 145.1328125 -21.1675 145.1328125 -22.1875 145.1328125 C-21.8575 146.7828125 -21.5275 148.4328125 -21.1875 150.1328125 C-22.5075 150.1328125 -23.8275 150.1328125 -25.1875 150.1328125 C-25.1875 151.4528125 -25.1875 152.7728125 -25.1875 154.1328125 C-26.1775 155.1228125 -26.1775 155.1228125 -27.1875 156.1328125 C-27.5175 157.1228125 -27.8475 158.1128125 -28.1875 159.1328125 C-28.8475 159.1328125 -29.5075 159.1328125 -30.1875 159.1328125 C-30.1875 159.7928125 -30.1875 160.4528125 -30.1875 161.1328125 C-28.5375 161.4628125 -26.8875 161.7928125 -25.1875 162.1328125 C-24.0625 166.8828125 -24.0625 166.8828125 -25.1875 169.1328125 C-25.8475 169.1328125 -26.5075 169.1328125 -27.1875 169.1328125 C-27.5175 170.4528125 -27.8475 171.7728125 -28.1875 173.1328125 C-30.77090384 173.15984812 -33.35402308 173.17966861 -35.9375 173.1953125 C-36.66710938 173.20369141 -37.39671875 173.21207031 -38.1484375 173.22070312 C-41.67420558 173.23672934 -44.79784916 173.08573963 -48.1875 172.1328125 C-48.1875 171.1428125 -48.1875 170.1528125 -48.1875 169.1328125 C-49.1775 169.1328125 -50.1675 169.1328125 -51.1875 169.1328125 C-51.55375971 164.61560939 -51.55375971 164.61560939 -49.8125 162.3203125 C-48.1875 161.1328125 -48.1875 161.1328125 -46.1875 161.1328125 C-45.8575 159.1528125 -45.5275 157.1728125 -45.1875 155.1328125 C-44.1975 155.1328125 -43.2075 155.1328125 -42.1875 155.1328125 C-42.1875 154.1428125 -42.1875 153.1528125 -42.1875 152.1328125 C-41.1975 151.8028125 -40.2075 151.4728125 -39.1875 151.1328125 C-39.001875 149.92625 -39.001875 149.92625 -38.8125 148.6953125 C-38.60625 147.8496875 -38.4 147.0040625 -38.1875 146.1328125 C-37.5275 145.8028125 -36.8675 145.4728125 -36.1875 145.1328125 C-35.8575 144.1428125 -35.5275 143.1528125 -35.1875 142.1328125 C-34.5275 142.1328125 -33.8675 142.1328125 -33.1875 142.1328125 C-33.105 141.4728125 -33.0225 140.8128125 -32.9375 140.1328125 C-31.93990209 136.14242087 -30.11583317 132.74731607 -28.1875 129.1328125 C-27.5275 129.1328125 -26.8675 129.1328125 -26.1875 129.1328125 C-26.1875 127.8128125 -26.1875 126.4928125 -26.1875 125.1328125 C-25.1975 124.1428125 -25.1975 124.1428125 -24.1875 123.1328125 C-23.13998664 121.69352359 -22.12202395 120.23252605 -21.125 118.7578125 C-20.59777344 117.98695312 -20.07054688 117.21609375 -19.52734375 116.421875 C-18.27030457 114.27428037 -17.63680603 112.56239328 -17.1875 110.1328125 C-16.5275 110.1328125 -15.8675 110.1328125 -15.1875 110.1328125 C-15.1875 108.8128125 -15.1875 107.4928125 -15.1875 106.1328125 C-14.5275 105.8028125 -13.8675 105.4728125 -13.1875 105.1328125 C-12.713125 104.0190625 -12.23875 102.9053125 -11.75 101.7578125 C-10.1875 98.1328125 -10.1875 98.1328125 -8.68359375 96.64453125 C-6.9810781 94.92423476 -6.44377601 93.60264546 -5.6875 91.3203125 C-4.7818681 88.71304591 -3.84658697 86.47721053 -2.5625 84.0078125 C-1.12696714 81.0062438 -0.57903741 78.42172675 -0.1875 75.1328125 C0.8025 75.1328125 1.7925 75.1328125 2.8125 75.1328125 C2.8125 73.8128125 2.8125 72.4928125 2.8125 71.1328125 C2.296875 71.3596875 1.78125 71.5865625 1.25 71.8203125 C-2.47557032 72.29794972 -4.83266304 70.74571489 -8.1875 69.1328125 C-8.1875 67.8128125 -8.1875 66.4928125 -8.1875 65.1328125 C-9.5075 64.8028125 -10.8275 64.4728125 -12.1875 64.1328125 C-12.30350357 56.65707976 -12.39226984 49.18154201 -12.44656086 41.70509052 C-12.47262227 38.23316401 -12.50795387 34.76185458 -12.56469727 31.2902832 C-12.62956834 27.29632751 -12.65370862 23.30301692 -12.67578125 19.30859375 C-12.70158768 18.06572098 -12.7273941 16.82284821 -12.75398254 15.54231262 C-12.75710612 5.94115228 -12.75710612 5.94115228 -9.71948242 2.87182617 C-8.88392822 2.29795166 -8.04837402 1.72407715 -7.1875 1.1328125 C-5.35715945 -0.69752805 -2.45538008 0.00238453 0 0 Z M5.8125 100.1328125 C4.51616379 101.19926365 4.51616379 101.19926365 4.75 103.6953125 C4.770625 104.4996875 4.79125 105.3040625 4.8125 106.1328125 C5.4725 106.1328125 6.1325 106.1328125 6.8125 106.1328125 C6.8125 104.1528125 6.8125 102.1728125 6.8125 100.1328125 C6.4825 100.1328125 6.1525 100.1328125 5.8125 100.1328125 Z " fill="#06060E" transform="translate(70.1875,7.8671875)"/>
<path d="M0 0 C1.25554687 -0.00128906 2.51109375 -0.00257813 3.8046875 -0.00390625 C4.46178711 -0.00181152 5.11888672 0.0002832 5.79589844 0.00244141 C7.80411335 0.00779016 9.81210459 0.00249559 11.8203125 -0.00390625 C13.07585937 -0.00261719 14.33140625 -0.00132812 15.625 0 C16.78644531 0.00112793 17.94789062 0.00225586 19.14453125 0.00341797 C21.8125 0.1328125 21.8125 0.1328125 22.8125 1.1328125 C24.29888992 1.28936277 25.79199127 1.38348193 27.28515625 1.44921875 C28.63383789 1.51206055 28.63383789 1.51206055 30.00976562 1.57617188 C31.42805664 1.63514648 31.42805664 1.63514648 32.875 1.6953125 C33.82439453 1.73849609 34.77378906 1.78167969 35.75195312 1.82617188 C38.10531353 1.93260526 40.45878354 2.03462258 42.8125 2.1328125 C43.3075 3.6178125 43.3075 3.6178125 43.8125 5.1328125 C45.14046291 5.48693594 46.47466607 5.81802804 47.8125 6.1328125 C49.42402649 7.31001282 49.42402649 7.31001282 50.8125 9.1328125 C51.17326355 11.69548035 51.17326355 11.69548035 51.15307617 14.79760742 C51.15273628 16.53907295 51.15273628 16.53907295 51.15238953 18.3157196 C51.13690567 19.56891495 51.12142181 20.82211029 51.10546875 22.11328125 C51.10122391 23.39640701 51.09697906 24.67953278 51.09260559 26.00154114 C51.08116162 29.40967388 51.05169896 32.8174219 51.01849365 36.22540283 C50.98778272 39.70425207 50.97409811 43.18316359 50.95898438 46.66210938 C50.92682835 53.48583493 50.87563776 60.30930524 50.8125 67.1328125 C49.8225 67.1328125 48.8325 67.1328125 47.8125 67.1328125 C47.8125 68.4528125 47.8125 69.7728125 47.8125 71.1328125 C46.1625 71.1328125 44.5125 71.1328125 42.8125 71.1328125 C44.7925 70.6378125 44.7925 70.6378125 46.8125 70.1328125 C46.8125 68.8128125 46.8125 67.4928125 46.8125 66.1328125 C47.8025 66.1328125 48.7925 66.1328125 49.8125 66.1328125 C49.8125 47.6528125 49.8125 29.1728125 49.8125 10.1328125 C48.8225 10.1328125 47.8325 10.1328125 46.8125 10.1328125 C46.8125 11.4528125 46.8125 12.7728125 46.8125 14.1328125 C44.1725 14.1328125 41.5325 14.1328125 38.8125 14.1328125 C38.81773682 14.74801758 38.82297363 15.36322266 38.82836914 15.99707031 C38.84919371 18.79230726 38.86217759 21.58752786 38.875 24.3828125 C38.88337891 25.35089844 38.89175781 26.31898437 38.90039062 27.31640625 C38.90361328 28.25097656 38.90683594 29.18554688 38.91015625 30.1484375 C38.91539307 31.00727539 38.92062988 31.86611328 38.92602539 32.75097656 C38.81789986 35.01951994 38.44832423 36.95912965 37.8125 39.1328125 C36.8225 39.1328125 35.8325 39.1328125 34.8125 39.1328125 C34.8125 40.1228125 34.8125 41.1128125 34.8125 42.1328125 C32.5025 42.1328125 30.1925 42.1328125 27.8125 42.1328125 C28.3075 44.1128125 28.3075 44.1128125 28.8125 46.1328125 C29.8025 46.1328125 30.7925 46.1328125 31.8125 46.1328125 C31.8125 53.0628125 31.8125 59.9928125 31.8125 67.1328125 C26.5325 67.1328125 21.2525 67.1328125 15.8125 67.1328125 C15.8125 66.1428125 15.8125 65.1528125 15.8125 64.1328125 C4.9225 64.6278125 4.9225 64.6278125 -6.1875 65.1328125 C-6.8475 66.4528125 -7.5075 67.7728125 -8.1875 69.1328125 C-8.1875 67.8128125 -8.1875 66.4928125 -8.1875 65.1328125 C-9.5075 64.8028125 -10.8275 64.4728125 -12.1875 64.1328125 C-12.30350357 56.65707976 -12.39226984 49.18154201 -12.44656086 41.70509052 C-12.47262227 38.23316401 -12.50795387 34.76185458 -12.56469727 31.2902832 C-12.62956834 27.29632751 -12.65370862 23.30301692 -12.67578125 19.30859375 C-12.70158768 18.06572098 -12.7273941 16.82284821 -12.75398254 15.54231262 C-12.75710612 5.94115228 -12.75710612 5.94115228 -9.71948242 2.87182617 C-8.88392822 2.29795166 -8.04837402 1.72407715 -7.1875 1.1328125 C-5.35715945 -0.69752805 -2.45538008 0.00238453 0 0 Z " fill="#444952" transform="translate(70.1875,7.8671875)"/>
<path d="M0 0 C0.33 0 0.66 0 1 0 C1 1.65 1 3.3 1 5 C0.01 5 -0.98 5 -2 5 C-2 6.98 -2 8.96 -2 11 C-1.34 11 -0.68 11 0 11 C0 10.01 0 9.02 0 8 C2.64 8 5.28 8 8 8 C8.04241723 10.33294775 8.04092937 12.66702567 8 15 C7 16 7 16 5.15234375 16.09765625 C3.1015625 16.06510417 1.05078125 16.03255208 -1 16 C-1 16.66 -1 17.32 -1 18 C-0.34 18 0.32 18 1 18 C1.495 21.96 1.495 21.96 2 26 C2.66 26 3.32 26 4 26 C5.4783226 28.95664519 5.06032783 31.74229737 5 35 C4.01 35.33 3.02 35.66 2 36 C2 41.28 2 46.56 2 52 C1.01 52 0.02 52 -1 52 C-1 55.96 -1 59.92 -1 64 C-1.66 64 -2.32 64 -3 64 C-2.67 64.66 -2.34 65.32 -2 66 C-1.01 66 -0.02 66 1 66 C1 62.04 1 58.08 1 54 C2.32 54 3.64 54 5 54 C5 49.05 5 44.1 5 39 C5.66 39 6.32 39 7 39 C7 38.34 7 37.68 7 37 C8.65 37 10.3 37 12 37 C12 36.34 12 35.68 12 35 C11.34 35 10.68 35 10 35 C10 32.03 10 29.06 10 26 C11.65 26 13.3 26 15 26 C15 30.95 15 35.9 15 41 C13.515 41.495 13.515 41.495 12 42 C12 45.96 12 49.92 12 54 C11.34 54 10.68 54 10 54 C10.02320312 54.96421875 10.04640625 55.9284375 10.0703125 56.921875 C10.08835937 58.18515625 10.10640625 59.4484375 10.125 60.75 C10.14820312 62.00296875 10.17140625 63.2559375 10.1953125 64.546875 C10.00758839 67.86583727 9.54476477 69.19133679 8 72 C7.54935368 74.58532701 7.54935368 74.58532701 7.375 77.25 C7.30023438 78.14203125 7.22546875 79.0340625 7.1484375 79.953125 C7.09945312 80.62859375 7.05046875 81.3040625 7 82 C6.34 82 5.68 82 5 82 C5 84.64 5 87.28 5 90 C5.99 90 6.98 90 8 90 C9.85776765 93.13498292 10.20140476 95.37471432 10 99 C9.01 99 8.02 99 7 99 C6.505 100.485 6.505 100.485 6 102 C0.39 102 -5.22 102 -11 102 C-11 101.01 -11 100.02 -11 99 C-11.99 99 -12.98 99 -14 99 C-14 96.69 -14 94.38 -14 92 C-13.34 91.67 -12.68 91.34 -12 91 C-11.505 89.515 -11.505 89.515 -11 88 C-10.01 88 -9.02 88 -8 88 C-7.67 83.71 -7.34 79.42 -7 75 C-6.01 74.67 -5.02 74.34 -4 74 C-4 70.37 -4 66.74 -4 63 C-3.34 63 -2.68 63 -2 63 C-2 59.04 -2 55.08 -2 51 C-1.01 51 -0.02 51 1 51 C1 45.72 1 40.44 1 35 C0.34 35 -0.32 35 -1 35 C-1 35.99 -1 36.98 -1 38 C-1.97850195 39.02104551 -2.97980427 40.0206121 -4 41 C-4.33 41.99 -4.66 42.98 -5 44 C-5.66 44 -6.32 44 -7 44 C-7.103125 44.886875 -7.20625 45.77375 -7.3125 46.6875 C-8.01715907 50.0826755 -8.9554566 52.21942098 -11 55 C-11.66 55 -12.32 55 -13 55 C-13 56.32 -13 57.64 -13 59 C-13.99 59 -14.98 59 -16 59 C-16 60.65 -16 62.3 -16 64 C-16.66 64 -17.32 64 -18 64 C-18.144375 64.61875 -18.28875 65.2375 -18.4375 65.875 C-19 68 -19 68 -20 70 C-20.66 70 -21.32 70 -22 70 C-22 71.32 -22 72.64 -22 74 C-22.99 74 -23.98 74 -25 74 C-24.67 75.65 -24.34 77.3 -24 79 C-25.32 79 -26.64 79 -28 79 C-28 80.32 -28 81.64 -28 83 C-28.99 83.99 -28.99 83.99 -30 85 C-30.33 85.99 -30.66 86.98 -31 88 C-31.66 88 -32.32 88 -33 88 C-33 88.66 -33 89.32 -33 90 C-31.35 90.33 -29.7 90.66 -28 91 C-26.875 95.75 -26.875 95.75 -28 98 C-28.66 98 -29.32 98 -30 98 C-30.33 99.32 -30.66 100.64 -31 102 C-33.58340384 102.02703562 -36.16652308 102.04685611 -38.75 102.0625 C-39.47960938 102.07087891 -40.20921875 102.07925781 -40.9609375 102.08789062 C-44.48670558 102.10391684 -47.61034916 101.95292713 -51 101 C-51 100.01 -51 99.02 -51 98 C-51.99 98 -52.98 98 -54 98 C-54.36625971 93.48279689 -54.36625971 93.48279689 -52.625 91.1875 C-51 90 -51 90 -49 90 C-48.67 88.02 -48.34 86.04 -48 84 C-47.01 84 -46.02 84 -45 84 C-45 83.01 -45 82.02 -45 81 C-43.515 80.505 -43.515 80.505 -42 80 C-41.87625 79.195625 -41.7525 78.39125 -41.625 77.5625 C-41.41875 76.716875 -41.2125 75.87125 -41 75 C-40.01 74.505 -40.01 74.505 -39 74 C-38.67 73.01 -38.34 72.02 -38 71 C-37.34 71 -36.68 71 -36 71 C-35.9175 70.34 -35.835 69.68 -35.75 69 C-34.75240209 65.00960837 -32.92833317 61.61450357 -31 58 C-30.34 58 -29.68 58 -29 58 C-29 56.68 -29 55.36 -29 54 C-28.34 53.34 -27.68 52.68 -27 52 C-25.95248664 50.56071109 -24.93452395 49.09971355 -23.9375 47.625 C-23.41027344 46.85414062 -22.88304688 46.08328125 -22.33984375 45.2890625 C-21.08280457 43.14146787 -20.44930603 41.42958078 -20 39 C-19.34 39 -18.68 39 -18 39 C-18 37.68 -18 36.36 -18 35 C-17.34 34.67 -16.68 34.34 -16 34 C-15.2884375 32.329375 -15.2884375 32.329375 -14.5625 30.625 C-13 27 -13 27 -11.49609375 25.51171875 C-9.7935781 23.79142226 -9.25627601 22.46983296 -8.5 20.1875 C-7.5943681 17.58023341 -6.65908697 15.34439803 -5.375 12.875 C-3.93946714 9.8734313 -3.39153741 7.28891425 -3 4 C-2.01 4 -1.02 4 0 4 C0 2.68 0 1.36 0 0 Z M3 29 C1.70366379 30.06645115 1.70366379 30.06645115 1.9375 32.5625 C1.958125 33.366875 1.97875 34.17125 2 35 C2.66 35 3.32 35 4 35 C4 33.02 4 31.04 4 29 C3.67 29 3.34 29 3 29 Z " fill="#424958" transform="translate(73,79)"/>
<path d="M0 0 C4.62 0 9.24 0 14 0 C13.34 1.98 12.68 3.96 12 6 C13.65 6 15.3 6 17 6 C17 7.32 17 8.64 17 10 C15.68 9.67 14.36 9.34 13 9 C12.855625 9.804375 12.71125 10.60875 12.5625 11.4375 C12 14 12 14 11 15 C10.8984511 17.84336907 10.8592385 20.65673782 10.875 23.5 C10.87790039 24.72662354 10.87790039 24.72662354 10.88085938 25.97802734 C10.91963282 31.38584548 11.20653907 36.64413875 12 42 C12.33 38.04 12.66 34.08 13 30 C15.13101309 34.26202618 15.32629605 37.35801039 15.37890625 41.9765625 C15.39590073 42.74302094 15.4128952 43.50947937 15.43040466 44.29916382 C15.48341426 46.74102613 15.52378569 49.1828725 15.5625 51.625 C15.60644124 54.07418382 15.65312742 56.52323703 15.70530701 58.97225952 C15.73724178 60.49464076 15.76413893 62.01713759 15.78553772 63.53970337 C15.79381051 67.39743982 15.79381051 67.39743982 17 71 C17.20379734 72.80870138 17.36500995 74.62236592 17.5 76.4375 C17.73306642 79.56308718 18.00474943 82.01424829 19 85 C18.72230092 87.3406065 18.39460023 89.67624308 18 92 C18.99 92 19.98 92 21 92 C21 93.65 21 95.3 21 97 C21.99 97 22.98 97 24 97 C24 99.97 24 102.94 24 106 C20.44656955 107.77671523 19.43293537 108.25407625 15.77734375 108.265625 C14.99166016 108.26820313 14.20597656 108.27078125 13.39648438 108.2734375 C12.58501953 108.26570313 11.77355469 108.25796875 10.9375 108.25 C10.12216797 108.25773437 9.30683594 108.26546875 8.46679688 108.2734375 C7.68240234 108.27085937 6.89800781 108.26828125 6.08984375 108.265625 C5.37691162 108.26336914 4.66397949 108.26111328 3.92944336 108.25878906 C2 108 2 108 -1 106 C-1.29296875 103.8359375 -1.29296875 103.8359375 -1.1875 101.375 C-1.16042969 100.55773437 -1.13335937 99.74046875 -1.10546875 98.8984375 C-1.05326172 97.95871094 -1.05326172 97.95871094 -1 97 C-0.34 97 0.32 97 1 97 C1 96.34 1 95.68 1 95 C1.99 94.505 1.99 94.505 3 94 C2.96970703 93.36723145 2.93941406 92.73446289 2.90820312 92.08251953 C2.36652498 80.56352553 1.84381509 69.06971803 2.03710938 57.53564453 C2.10544452 53.7606644 2.10544452 53.7606644 1.50219727 50.05273438 C0.96256126 47.84696892 0.88614485 45.93972121 0.90234375 43.671875 C0.90556641 42.87265625 0.90878906 42.0734375 0.91210938 41.25 C0.92048828 40.425 0.92886719 39.6 0.9375 38.75 C0.94201172 37.90953125 0.94652344 37.0690625 0.95117188 36.203125 C0.96292039 34.13538599 0.98085478 32.06768376 1 30 C-0.65 30 -2.3 30 -4 30 C-4 29.67 -4 29.34 -4 29 C-2.35 29 -0.7 29 1 29 C0.98839844 28.24074219 0.97679688 27.48148438 0.96484375 26.69921875 C0.95582031 25.70535156 0.94679688 24.71148437 0.9375 23.6875 C0.92589844 22.70136719 0.91429688 21.71523437 0.90234375 20.69921875 C1 18 1 18 2 15 C1.34 15 0.68 15 0 15 C-0.33 15.66 -0.66 16.32 -1 17 C-2.5 15.625 -2.5 15.625 -4 14 C-4 13.34 -4 12.68 -4 12 C-5.65 11.67 -7.3 11.34 -9 11 C-9 9.35 -9 7.7 -9 6 C-3.555 5.505 -3.555 5.505 2 5 C1.34 4.67 0.68 4.34 0 4 C0 2.68 0 1.36 0 0 Z " fill="#1B1F37" transform="translate(92,84)"/>
<path d="M0 0 C0.99 0.33 1.98 0.66 3 1 C3 2.65 3 4.3 3 6 C3.66 6 4.32 6 5 6 C5 6.99 5 7.98 5 9 C5.66 9 6.32 9 7 9 C7 10.65 7 12.3 7 14 C7.66 14 8.32 14 9 14 C9 15.32 9 16.64 9 18 C9.99 18 10.98 18 12 18 C12.12375 18.804375 12.2475 19.60875 12.375 20.4375 C12.58125 21.283125 12.7875 22.12875 13 23 C13.66 23.33 14.32 23.66 15 24 C15 25.65 15 27.3 15 29 C15.99 29.33 16.98 29.66 18 30 C18 30.99 18 31.98 18 33 C18.66 33.33 19.32 33.66 20 34 C19.67 34.99 19.34 35.98 19 37 C19.66 37 20.32 37 21 37 C21 38.32 21 39.64 21 41 C22.485 41.495 22.485 41.495 24 42 C26.28434367 45.15881899 28.10846091 48.59419602 30 52 C30.61875 53.11375 31.2375 54.2275 31.875 55.375 C33 58 33 58 33 62 C33.66 62 34.32 62 35 62 C35 63.65 35 65.3 35 67 C35.99 67 36.98 67 38 67 C38 68.32 38 69.64 38 71 C39.32 71 40.64 71 42 71 C42 72.65 42 74.3 42 76 C43.65 76.33 45.3 76.66 47 77 C47 79.64 47 82.28 47 85 C46.01 85 45.02 85 44 85 C43.505 86.98 43.505 86.98 43 89 C40.37493198 89.02690844 37.75013827 89.04679404 35.125 89.0625 C34.37863281 89.07087891 33.63226563 89.07925781 32.86328125 89.08789062 C27.2265625 89.11328125 27.2265625 89.11328125 25 88 C25 87.34 25 86.68 25 86 C23.515 85.505 23.515 85.505 22 85 C22 82.69 22 80.38 22 78 C23.32 78 24.64 78 26 78 C26 77.01 26 76.02 26 75 C25.34 75 24.68 75 24 75 C23.67 72.69 23.34 70.38 23 68 C22.34 68 21.68 68 21 68 C21 67.01 21 66.02 21 65 C20.34 65 19.68 65 19 65 C19 64.01 19 63.02 19 62 C18.34 62 17.68 62 17 62 C16.5359375 61.0409375 16.5359375 61.0409375 16.0625 60.0625 C15.1654837 58.06389179 15.1654837 58.06389179 14 57 C13.95936168 55.33382885 13.957279 53.66611905 14 52 C13.01 51.67 12.02 51.34 11 51 C11 49.68 11 48.36 11 47 C10.34 47 9.68 47 9 47 C9 45.02 9 43.04 9 41 C8.01 41 7.02 41 6 41 C6 39.68 6 38.36 6 37 C5.01 36.67 4.02 36.34 3 36 C3 34.68 3 33.36 3 32 C2.34 32 1.68 32 1 32 C1 30.35 1 28.7 1 27 C1.33 27 1.66 27 2 27 C2.05447047 25.58376784 2.09300508 24.16691809 2.125 22.75 C2.14820312 21.96109375 2.17140625 21.1721875 2.1953125 20.359375 C1.98124886 17.77348622 1.20866706 16.26625074 0 14 C-0.125 11.25 -0.125 11.25 0 9 C0.66 9 1.32 9 2 9 C2 6.69 2 4.38 2 2 C1.34 2 0.68 2 0 2 C0 1.34 0 0.68 0 0 Z " fill="#2F323F" transform="translate(116,92)"/>
<path d="M0 0 C13.68616906 -0.1753398 27.32500976 0.45841623 41 1 C41 10.57 41 20.14 41 30 C40.34 30 39.68 30 39 30 C39 29.01 39 28.02 39 27 C28.77 27 18.54 27 8 27 C8 26.34 8 25.68 8 25 C5.69 25 3.38 25 1 25 C-0.27861615 22.44276771 -0.11336609 20.63262898 -0.09765625 17.7734375 C-0.09443359 16.7421875 -0.09121094 15.7109375 -0.08789062 14.6484375 C-0.07951172 13.56820313 -0.07113281 12.48796875 -0.0625 11.375 C-0.05798828 10.28703125 -0.05347656 9.1990625 -0.04882812 8.078125 C-0.03701776 5.38536211 -0.02054778 2.69270812 0 0 Z " fill="#171E41" transform="translate(63,17)"/>
<path d="M0 0 C0.99 0 1.98 0 3 0 C3 15.51 3 31.02 3 47 C2.67 46.34 2.34 45.68 2 45 C1.34 45 0.68 45 0 45 C-0.33 45.99 -0.66 46.98 -1 48 C-4.465 48.495 -4.465 48.495 -8 49 C-8.99 51.475 -8.99 51.475 -10 54 C-11.32 54 -12.64 54 -14 54 C-14.33 54.99 -14.66 55.98 -15 57 C-15 50.07 -15 43.14 -15 36 C-15.99 36 -16.98 36 -18 36 C-18.33 34.68 -18.66 33.36 -19 32 C-16.69 32 -14.38 32 -12 32 C-12 31.01 -12 30.02 -12 29 C-11.01 29 -10.02 29 -9 29 C-9 20.42 -9 11.84 -9 3 C-6.03 3.33 -3.06 3.66 0 4 C0 2.68 0 1.36 0 0 Z " fill="#010214" transform="translate(117,18)"/>
<path d="M0 0 C1.32 0.33 2.64 0.66 4 1 C5.13195917 16.97520783 5.3101801 32.96927537 5.53222656 48.97680664 C5.58325628 52.59785921 5.63850859 56.2188474 5.69335938 59.83984375 C5.79960383 66.89317298 5.90132184 73.9465605 6 81 C7.32 81 8.64 81 10 81 C10 81.66 10 82.32 10 83 C10.99 83 11.98 83 13 83 C13 83.99 13 84.98 13 86 C6.565 86.99 6.565 86.99 0 88 C5.94 88 11.88 88 18 88 C18 85.69 18 83.38 18 81 C17.01 81 16.02 81 15 81 C15 79.35 15 77.7 15 76 C14.01 76 13.02 76 12 76 C11.08839714 68.64206267 10.88540974 61.41017023 11 54 C11.33 54 11.66 54 12 54 C12.09087891 55.13888672 12.09087891 55.13888672 12.18359375 56.30078125 C12.30927734 57.79158203 12.30927734 57.79158203 12.4375 59.3125 C12.51871094 60.29863281 12.59992188 61.28476563 12.68359375 62.30078125 C12.91812559 65.09375599 12.91812559 65.09375599 14 68 C13.72230092 70.3406065 13.39460023 72.67624308 13 75 C13.99 75 14.98 75 16 75 C16 76.65 16 78.3 16 80 C16.99 80 17.98 80 19 80 C19 82.97 19 85.94 19 89 C15.44656955 90.77671523 14.43293537 91.25407625 10.77734375 91.265625 C9.99166016 91.26820313 9.20597656 91.27078125 8.39648438 91.2734375 C7.58501953 91.26570313 6.77355469 91.25796875 5.9375 91.25 C5.12216797 91.25773437 4.30683594 91.26546875 3.46679688 91.2734375 C2.68240234 91.27085937 1.89800781 91.26828125 1.08984375 91.265625 C0.37691162 91.26336914 -0.33602051 91.26111328 -1.07055664 91.25878906 C-3 91 -3 91 -6 89 C-6.29296875 86.8359375 -6.29296875 86.8359375 -6.1875 84.375 C-6.16042969 83.55773437 -6.13335937 82.74046875 -6.10546875 81.8984375 C-6.07066406 81.27195312 -6.03585938 80.64546875 -6 80 C-5.34 80 -4.68 80 -4 80 C-4 79.34 -4 78.68 -4 78 C-3.01 77.505 -3.01 77.505 -2 77 C-2.03029297 76.37246826 -2.06058594 75.74493652 -2.09179688 75.09838867 C-2.74116922 61.38789068 -3.14567491 47.72581394 -3 34 C-2.34 34 -1.68 34 -1 34 C-0.67 42.58 -0.34 51.16 0 60 C0 40.2 0 20.4 0 0 Z " fill="#666C74" transform="translate(97,101)"/>
<path d="M0 0 C0.33 0.66 0.66 1.32 1 2 C14.86 2.495 14.86 2.495 29 3 C29 3.66 29 4.32 29 5 C32.96 5 36.92 5 41 5 C41 6.32 41 7.64 41 9 C12.73700306 9.19877676 12.73700306 9.19877676 0 8 C0.33 16.25 0.66 24.5 1 33 C3.31 33 5.62 33 8 33 C8 33.66 8 34.32 8 35 C18.23 35 28.46 35 39 35 C39 35.99 39 36.98 39 38 C34.49746184 37.88170234 29.99514221 37.75745066 25.49291992 37.62768555 C23.96138982 37.58438167 22.42981285 37.54270333 20.89819336 37.50268555 C18.69630818 37.44487268 16.49465789 37.38121031 14.29296875 37.31640625 C13.60849167 37.29969376 12.92401459 37.28298126 12.21879578 37.26576233 C9.22879896 37.1726445 6.85937689 36.95312563 4 36 C4 36.99 4 37.98 4 39 C2.35 39 0.7 39 -1 39 C-0.67 46.92 -0.34 54.84 0 63 C-1.65 63 -3.3 63 -5 63 C-5.11600357 55.52426726 -5.20476984 48.04872951 -5.25906086 40.57227802 C-5.28512227 37.10035151 -5.32045387 33.62904208 -5.37719727 30.1574707 C-5.44206834 26.16351501 -5.46620862 22.17020442 -5.48828125 18.17578125 C-5.51408768 16.93290848 -5.5398941 15.69003571 -5.56648254 14.40950012 C-5.56960611 4.80835288 -5.56960611 4.80835288 -2.46948242 1.67651367 C-1.65455322 1.12326416 -0.83962402 0.57001465 0 0 Z " fill="#686C76" transform="translate(63,9)"/>
<path d="M0 0 C0.99 0.33 1.98 0.66 3 1 C2.34 1 1.68 1 1 1 C1 1.99 1 2.98 1 4 C1.99 4 2.98 4 4 4 C4 3.01 4 2.02 4 1 C4.66 1 5.32 1 6 1 C6 2.65 6 4.3 6 6 C5.01 6.495 5.01 6.495 4 7 C3.67 7.99 3.34 8.98 3 10 C2.34 10 1.68 10 1 10 C1 10.99 1 11.98 1 13 C0.34 13 -0.32 13 -1 13 C-1.33 14.65 -1.66 16.3 -2 18 C-2.66 18 -3.32 18 -4 18 C-4 19.32 -4 20.64 -4 22 C-4.66 22 -5.32 22 -6 22 C-6 22.66 -6 23.32 -6 24 C-6.66 24 -7.32 24 -8 24 C-8 25.32 -8 26.64 -8 28 C-8.66 28 -9.32 28 -10 28 C-9.67 26.02 -9.34 24.04 -9 22 C-9.66 22 -10.32 22 -11 22 C-11 23.65 -11 25.3 -11 27 C-12.32 27.33 -13.64 27.66 -15 28 C-15 28.99 -15 29.98 -15 31 C-14.01 31 -13.02 31 -12 31 C-12 31.99 -12 32.98 -12 34 C-13.65 33.67 -15.3 33.34 -17 33 C-17.33 34.32 -17.66 35.64 -18 37 C-15.69 37 -13.38 37 -11 37 C-10.67 37.99 -10.34 38.98 -10 40 C-9.34 40 -8.68 40 -8 40 C-8 39.01 -8 38.02 -8 37 C-7.01 37 -6.02 37 -5 37 C-4.67 36.01 -4.34 35.02 -4 34 C-4 34.66 -4 35.32 -4 36 C-2.35 36.33 -0.7 36.66 1 37 C2.125 41.75 2.125 41.75 1 44 C0.34 44 -0.32 44 -1 44 C-1.33 45.32 -1.66 46.64 -2 48 C-4.58340384 48.02703562 -7.16652308 48.04685611 -9.75 48.0625 C-10.47960938 48.07087891 -11.20921875 48.07925781 -11.9609375 48.08789062 C-15.48670558 48.10391684 -18.61034916 47.95292713 -22 47 C-22 46.01 -22 45.02 -22 44 C-22.99 44 -23.98 44 -25 44 C-25.36625971 39.48279689 -25.36625971 39.48279689 -23.625 37.1875 C-22 36 -22 36 -20 36 C-19.505 33.03 -19.505 33.03 -19 30 C-18.01 30 -17.02 30 -16 30 C-16 29.01 -16 28.02 -16 27 C-15.01 26.67 -14.02 26.34 -13 26 C-12.87625 25.195625 -12.7525 24.39125 -12.625 23.5625 C-12.41875 22.716875 -12.2125 21.87125 -12 21 C-11.34 20.67 -10.68 20.34 -10 20 C-9.67 19.01 -9.34 18.02 -9 17 C-8.34 17 -7.68 17 -7 17 C-6.9175 16.34 -6.835 15.68 -6.75 15 C-5.75240209 11.00960837 -3.92833317 7.61450357 -2 4 C-1.34 4 -0.68 4 0 4 C0 2.68 0 1.36 0 0 Z " fill="#0C0E20" transform="translate(44,133)"/>
<path d="M0 0 C13.68616906 -0.1753398 27.32500976 0.45841623 41 1 C41 10.57 41 20.14 41 30 C40.34 30 39.68 30 39 30 C39 29.01 39 28.02 39 27 C28.77 27 18.54 27 8 27 C8 26.34 8 25.68 8 25 C5.69 25 3.38 25 1 25 C-0.27861615 22.44276771 -0.11336609 20.63262898 -0.09765625 17.7734375 C-0.09443359 16.7421875 -0.09121094 15.7109375 -0.08789062 14.6484375 C-0.07951172 13.56820313 -0.07113281 12.48796875 -0.0625 11.375 C-0.05798828 10.28703125 -0.05347656 9.1990625 -0.04882812 8.078125 C-0.03701776 5.38536211 -0.02054778 2.69270812 0 0 Z M4 5 C4 11.27 4 17.54 4 24 C15.55 24 27.1 24 39 24 C39 17.73 39 11.46 39 5 C27.45 5 15.9 5 4 5 Z " fill="#040716" transform="translate(63,17)"/>
<path d="M0 0 C11.71286474 -0.10745747 23.30972892 0.28841828 35 1 C35 2.32 35 3.64 35 5 C33.02 5 31.04 5 29 5 C29 7.31 29 9.62 29 12 C29.99 12 30.98 12 32 12 C32 12.99 32 13.98 32 15 C29.69 15 27.38 15 25 15 C25.33 13.02 25.66 11.04 26 9 C25.01 9 24.02 9 23 9 C23 12.63 23 16.26 23 20 C20.69 20 18.38 20 16 20 C16 18.68 16 17.36 16 16 C9.07 15.505 9.07 15.505 2 15 C3 13 3 13 4.765625 12.37890625 C7.14150323 11.97600382 9.34179517 11.90208522 11.75 11.9375 C12.54921875 11.94652344 13.3484375 11.95554687 14.171875 11.96484375 C14.77515625 11.97644531 15.3784375 11.98804688 16 12 C16 9.36 16 6.72 16 4 C11.71 4 7.42 4 3 4 C3 4.66 3 5.32 3 6 C5.64 6 8.28 6 11 6 C11 6.99 11 7.98 11 9 C8.03 9 5.06 9 2 9 C2 12.96 2 16.92 2 21 C1.34 21 0.68 21 0 21 C0 14.07 0 7.14 0 0 Z " fill="#4D6585" transform="translate(63,49)"/>
<path d="M0 0 C0.33 0 0.66 0 1 0 C1 3.63 1 7.26 1 11 C0.34 11 -0.32 11 -1 11 C-1 14.3 -1 17.6 -1 21 C0.65 21.33 2.3 21.66 4 22 C4.33 24.31 4.66 26.62 5 29 C4.01 29 3.02 29 2 29 C1.67 29.99 1.34 30.98 1 32 C-4.61 32 -10.22 32 -16 32 C-16 31.01 -16 30.02 -16 29 C-16.99 29 -17.98 29 -19 29 C-19 26.69 -19 24.38 -19 22 C-18.34 21.67 -17.68 21.34 -17 21 C-16.34 21.33 -15.68 21.66 -15 22 C-15 21.01 -15 20.02 -15 19 C-14.01 19 -13.02 19 -12 19 C-11.67 14.71 -11.34 10.42 -11 6 C-10.34 6 -9.68 6 -9 6 C-9 8.64 -9 11.28 -9 14 C-8.01 14 -7.02 14 -6 14 C-6 11.69 -6 9.38 -6 7 C-5.34 7 -4.68 7 -4 7 C-4 7.99 -4 8.98 -4 10 C-3.01 10 -2.02 10 -1 10 C-1.20625 8.72125 -1.4125 7.4425 -1.625 6.125 C-1.9765625 3.9453125 -1.9765625 3.9453125 -2 2 C-1.34 1.34 -0.68 0.68 0 0 Z " fill="#1E212F" transform="translate(78,149)"/>
<path d="M0 0 C0.495 0.99 0.495 0.99 1 2 C1.99 2 2.98 2 4 2 C4 8.93 4 15.86 4 23 C-1.28 23 -6.56 23 -12 23 C-12 22.01 -12 21.02 -12 20 C-15.96 20 -19.92 20 -24 20 C-23.67 19.01 -23.34 18.02 -23 17 C-25.97 17 -28.94 17 -32 17 C-32 15.35 -32 13.7 -32 12 C-27.71 12.33 -23.42 12.66 -19 13 C-19 14.32 -19 15.64 -19 17 C-16.69 17 -14.38 17 -12 17 C-12 13.37 -12 9.74 -12 6 C-11.01 6 -10.02 6 -9 6 C-9.33 7.98 -9.66 9.96 -10 12 C-7.69 12 -5.38 12 -3 12 C-3 11.01 -3 10.02 -3 9 C-3.99 9 -4.98 9 -6 9 C-6 6.69 -6 4.38 -6 2 C-4.02 2 -2.04 2 0 2 C0 1.34 0 0.68 0 0 Z " fill="#364C71" transform="translate(98,52)"/>
<path d="M0 0 C0.33 0 0.66 0 1 0 C1 7.92 1 15.84 1 24 C-13.05133888 24.09638876 -26.98701658 24.09905752 -41 23 C-41 29.93 -41 36.86 -41 44 C-40.34 44 -39.68 44 -39 44 C-39.08378906 43.38511719 -39.16757813 42.77023438 -39.25390625 42.13671875 C-39.40666016 40.92435547 -39.40666016 40.92435547 -39.5625 39.6875 C-39.66691406 38.88699219 -39.77132812 38.08648437 -39.87890625 37.26171875 C-40 35 -40 35 -39 32 C-35.62182575 31.15545644 -33.32534757 30.89155081 -30 32 C-30 31.01 -30 30.02 -30 29 C-32.64 29 -35.28 29 -38 29 C-38 28.34 -38 27.68 -38 27 C-33.71 27 -29.42 27 -25 27 C-25 29.64 -25 32.28 -25 35 C-29.29 35.66 -33.58 36.32 -38 37 C-38 38.98 -38 40.96 -38 43 C-35.03 43 -32.06 43 -29 43 C-29.33 43.99 -29.66 44.98 -30 46 C-30.69867188 46.02578125 -31.39734375 46.0515625 -32.1171875 46.078125 C-33.02726562 46.13484375 -33.93734375 46.1915625 -34.875 46.25 C-35.77992187 46.29640625 -36.68484375 46.3428125 -37.6171875 46.390625 C-40.17110544 46.75611148 -40.17110544 46.75611148 -41.3203125 49.046875 C-41.54460938 49.69140625 -41.76890625 50.3359375 -42 51 C-42 49.68 -42 48.36 -42 47 C-42.99 46.67 -43.98 46.34 -45 46 C-43.515 45.505 -43.515 45.505 -42 45 C-42 37.41 -42 29.82 -42 22 C-40.35 22 -38.7 22 -37 22 C-37 21.01 -37 20.02 -37 19 C-32.69481986 19.11884529 -28.38984033 19.24312965 -24.08496094 19.37231445 C-22.62243852 19.41545337 -21.15987253 19.45714195 -19.69726562 19.49731445 C-17.5871064 19.5555307 -15.47716225 19.61907288 -13.3671875 19.68359375 C-12.09987793 19.72025146 -10.83256836 19.75690918 -9.52685547 19.79467773 C-6 20 -6 20 0 21 C0 14.07 0 7.14 0 0 Z " fill="#282D47" transform="translate(104,26)"/>
<path d="M0 0 C2.1875 0.14583333 4.375 0.29166667 6.5625 0.4375 C7.56132202 0.50408813 7.56132202 0.50408813 8.58032227 0.57202148 C10.69885254 0.71325684 10.69885254 0.71325684 12.81738281 0.85449219 C13.53764648 0.90250977 14.25791016 0.95052734 15 1 C16.4453125 1.09635417 17.890625 1.19270833 19.3359375 1.2890625 C20.703125 1.38020833 22.0703125 1.47135417 23.4375 1.5625 C25.625 1.70833333 27.8125 1.85416667 30 2 C30 2.66 30 3.32 30 4 C31.32 4 32.64 4 34 4 C34 5.98 34 7.96 34 10 C32.35 10.33 30.7 10.66 29 11 C29 11.33 29 11.66 29 12 C23.72 12 18.44 12 13 12 C13 11.34 13 10.68 13 10 C8.65815798 10.18464366 8.65815798 10.18464366 5 12 C3.35 12 1.7 12 0 12 C0 8.04 0 4.08 0 0 Z " fill="#1F2745" transform="translate(67,22)"/>
<path d="M0 0 C1.32 0.33 2.64 0.66 4 1 C5.13195917 16.97520783 5.3101801 32.96927537 5.53222656 48.97680664 C5.58325628 52.59785921 5.63850859 56.2188474 5.69335938 59.83984375 C5.79960383 66.89317298 5.90132184 73.9465605 6 81 C7.32 81 8.64 81 10 81 C10 81.66 10 82.32 10 83 C10.99 83 11.98 83 13 83 C13 83.66 13 84.32 13 85 C7.72 85 2.44 85 -3 85 C-3 84.34 -3 83.68 -3 83 C-2.34 83 -1.68 83 -1 83 C-1 82.34 -1 81.68 -1 81 C0.98 81 2.96 81 5 81 C5 78.03 5 75.06 5 72 C4.01 72 3.02 72 2 72 C2 58.47 2 44.94 2 31 C1.34 31 0.68 31 0 31 C0 20.77 0 10.54 0 0 Z " fill="#7086AF" transform="translate(97,101)"/>
<path d="M0 0 C0.66 0 1.32 0 2 0 C2 6.93 2 13.86 2 21 C2.66 21 3.32 21 4 21 C4.6466598 29.01396246 5.16677223 36.95787245 5 45 C5.99 45 6.98 45 8 45 C8 46.65 8 48.3 8 50 C8.99 50 9.98 50 11 50 C11 52.31 11 54.62 11 57 C7.42914986 58.19028338 4.1539317 58.18398398 0.4375 58.1875 C-0.24763672 58.19974609 -0.93277344 58.21199219 -1.63867188 58.22460938 C-3.42734112 58.22987533 -5.21548848 58.12200021 -7 58 C-7.66 57.34 -8.32 56.68 -9 56 C-4.05 55.67 0.9 55.34 6 55 C6 54.01 6 53.02 6 52 C5.01 52 4.02 52 3 52 C3 51.34 3 50.68 3 50 C2.01 50 1.02 50 0 50 C0.33 45.05 0.66 40.1 1 35 C0.34 35 -0.32 35 -1 35 C-1.0246519 30.17619198 -1.04283693 25.35242033 -1.05493164 20.52856445 C-1.05997174 18.88630536 -1.06680378 17.24405077 -1.07543945 15.60180664 C-1.08751926 13.24624521 -1.09323139 10.89074291 -1.09765625 8.53515625 C-1.10281754 7.79660904 -1.10797882 7.05806183 -1.11329651 6.2971344 C-1.1134925 4.53101912 -1.06194719 2.76502854 -1 1 C-0.67 0.67 -0.34 0.34 0 0 Z " fill="#101521" transform="translate(104,132)"/>
<path d="M0 0 C0.99 0 1.98 0 3 0 C5 2 5 2 6 4 C5.5625 6.125 5.5625 6.125 5 8 C4.01 8 3.02 8 2 8 C2 9.65 2 11.3 2 13 C1.01 13 0.02 13 -1 13 C-1 14.32 -1 15.64 -1 17 C-1.66 17 -2.32 17 -3 17 C-2.814375 17.61875 -2.62875 18.2375 -2.4375 18.875 C-2 21 -2 21 -3 23 C-3.99 23 -4.98 23 -6 23 C-6 23.99 -6 24.98 -6 26 C-6.99 26 -7.98 26 -9 26 C-9 26.99 -9 27.98 -9 29 C-9.99 29.33 -10.98 29.66 -12 30 C-12 28.68 -12 27.36 -12 26 C-14.31 26 -16.62 26 -19 26 C-19 24.02 -19 22.04 -19 20 C-18.34 20.66 -17.68 21.32 -17 22 C-14.93125966 22.6425235 -14.93125966 22.6425235 -13 23 C-13 22.01 -13 21.02 -13 20 C-13.99 20 -14.98 20 -16 20 C-16 19.01 -16 18.02 -16 17 C-15.01 16.67 -14.02 16.34 -13 16 C-12.67 14.35 -12.34 12.7 -12 11 C-11.34 11 -10.68 11 -10 11 C-10.33 12.98 -10.66 14.96 -11 17 C-10.34 17 -9.68 17 -9 17 C-9 15.68 -9 14.36 -9 13 C-8.34 13 -7.68 13 -7 13 C-7 12.34 -7 11.68 -7 11 C-6.34 11 -5.68 11 -5 11 C-5 9.68 -5 8.36 -5 7 C-4.34 7 -3.68 7 -3 7 C-2.67 5.35 -2.34 3.7 -2 2 C-1.34 2 -0.68 2 0 2 C0 1.34 0 0.68 0 0 Z " fill="#121D39" transform="translate(45,144)"/>
<path d="M0 0 C1.65 0 3.3 0 5 0 C5 4.95 5 9.9 5 15 C4.01 15.33 3.02 15.66 2 16 C2 19.96 2 23.92 2 28 C1.34 28 0.68 28 0 28 C0 32.62 0 37.24 0 42 C-0.495 40.515 -0.495 40.515 -1 39 C-2.98 39.495 -2.98 39.495 -5 40 C-6.29227031 34.31401066 -5.90242274 28.89196518 -5.5625 23.125 C-5.51029297 22.15046875 -5.45808594 21.1759375 -5.40429688 20.171875 C-5.27536992 17.78086598 -5.14044056 15.39035574 -5 13 C-4.34 13 -3.68 13 -3 13 C-3 12.34 -3 11.68 -3 11 C-1.35 11 0.3 11 2 11 C2 10.34 2 9.68 2 9 C1.34 9 0.68 9 0 9 C0 6.03 0 3.06 0 0 Z " fill="#32344B" transform="translate(83,105)"/>
<path d="M0 0 C0.33 1.32 0.66 2.64 1 4 C1.66 4 2.32 4 3 4 C3 5.65 3 7.3 3 9 C3.99 9 4.98 9 6 9 C6 10.32 6 11.64 6 13 C7.32 13 8.64 13 10 13 C10 14.65 10 16.3 10 18 C11.65 18.33 13.3 18.66 15 19 C15 21.64 15 24.28 15 27 C14.01 27 13.02 27 12 27 C11.67 28.32 11.34 29.64 11 31 C8.37493198 31.02690844 5.75013827 31.04679404 3.125 31.0625 C2.37863281 31.07087891 1.63226563 31.07925781 0.86328125 31.08789062 C-4.7734375 31.11328125 -4.7734375 31.11328125 -7 30 C-7 29.34 -7 28.68 -7 28 C-7.66 27.67 -8.32 27.34 -9 27 C-7.35 27 -5.7 27 -4 27 C-4 27.99 -4 28.98 -4 30 C-0.37 29.67 3.26 29.34 7 29 C7 28.34 7 27.68 7 27 C6.36191406 27.01160156 5.72382813 27.02320313 5.06640625 27.03515625 C4.24011719 27.04417969 3.41382813 27.05320313 2.5625 27.0625 C1.32693359 27.07990234 1.32693359 27.07990234 0.06640625 27.09765625 C-2 27 -2 27 -3 26 C-2.91015699 24.14227838 -2.75388139 22.28752015 -2.5625 20.4375 C-2.46066406 19.42558594 -2.35882813 18.41367188 -2.25390625 17.37109375 C-2.12822266 16.19740234 -2.12822266 16.19740234 -2 15 C-1.34 15 -0.68 15 0 15 C0 15.66 0 16.32 0 17 C1.98 17 3.96 17 6 17 C6.33 17.66 6.66 18.32 7 19 C7.66 17.35 8.32 15.7 9 14 C7.68 14 6.36 14 5 14 C5 12.68 5 11.36 5 10 C4.01 10 3.02 10 2 10 C2 8.35 2 6.7 2 5 C1.34 5 0.68 5 0 5 C0 3.35 0 1.7 0 0 Z " fill="#3F434C" transform="translate(148,150)"/>
<path d="M0 0 C0.33 0.99 0.66 1.98 1 3 C1.66 3 2.32 3 3 3 C3 2.01 3 1.02 3 0 C3.99 0 4.98 0 6 0 C6 2.31 6 4.62 6 7 C5.01 7 4.02 7 3 7 C3 8.32 3 9.64 3 11 C2.34 11 1.68 11 1 11 C1 11.99 1 12.98 1 14 C1.66 14 2.32 14 3 14 C2.34 15.65 1.68 17.3 1 19 C1.99 19 2.98 19 4 19 C4.33 18.34 4.66 17.68 5 17 C5 17.99 5 18.98 5 20 C4.34 20 3.68 20 3 20 C2.8453125 21.3303125 2.8453125 21.3303125 2.6875 22.6875 C1.98284093 26.0826755 1.0445434 28.21942098 -1 31 C-1.66 31 -2.32 31 -3 31 C-3.33 32.32 -3.66 33.64 -4 35 C-4 33.68 -4 32.36 -4 31 C-4.66 30.67 -5.32 30.34 -6 30 C-5.34 29.34 -4.68 28.68 -4 28 C-3.34 28.33 -2.68 28.66 -2 29 C-2 28.01 -2 27.02 -2 26 C-2.66 26 -3.32 26 -4 26 C-4 24.35 -4 22.7 -4 21 C-4.99 21 -5.98 21 -7 21 C-7 19.68 -7 18.36 -7 17 C-6.34 17 -5.68 17 -5 17 C-5 15.35 -5 13.7 -5 12 C-5.66 12 -6.32 12 -7 12 C-7 13.32 -7 14.64 -7 16 C-7.99 15.67 -8.98 15.34 -10 15 C-9.34 15 -8.68 15 -8 15 C-8 13.68 -8 12.36 -8 11 C-7.34 10.67 -6.68 10.34 -6 10 C-5.2884375 8.329375 -5.2884375 8.329375 -4.5625 6.625 C-3.24414993 3.56642783 -2.50922597 2.03127817 0 0 Z " fill="#2D3557" transform="translate(63,103)"/>
<path d="M0 0 C0.99 0.33 1.98 0.66 3 1 C3 2.65 3 4.3 3 6 C3.66 6 4.32 6 5 6 C5 6.99 5 7.98 5 9 C5.66 9 6.32 9 7 9 C9.48063781 20.52164009 9.48063781 20.52164009 8 26 C9.32 26.33 10.64 26.66 12 27 C12 28.65 12 30.3 12 32 C12.66 32 13.32 32 14 32 C14 33.65 14 35.3 14 37 C14.66 37 15.32 37 16 37 C18 40 18 40 18 44 C17.01 44 16.02 44 15 44 C15 42.68 15 41.36 15 40 C14.01 40 13.02 40 12 40 C12 38.35 12 36.7 12 35 C11.01 35 10.02 35 9 35 C9 33.35 9 31.7 9 30 C7.68 30 6.36 30 5 30 C4.67 31.98 4.34 33.96 4 36 C3.67 34.68 3.34 33.36 3 32 C2.34 32 1.68 32 1 32 C1 30.35 1 28.7 1 27 C1.33 27 1.66 27 2 27 C2.05447047 25.58376784 2.09300508 24.16691809 2.125 22.75 C2.14820312 21.96109375 2.17140625 21.1721875 2.1953125 20.359375 C1.98124886 17.77348622 1.20866706 16.26625074 0 14 C-0.125 11.25 -0.125 11.25 0 9 C0.66 9 1.32 9 2 9 C2 6.69 2 4.38 2 2 C1.34 2 0.68 2 0 2 C0 1.34 0 0.68 0 0 Z " fill="#3A3A50" transform="translate(116,92)"/>
<path d="M0 0 C0.99 0 1.98 0 3 0 C3 1.65 3 3.3 3 5 C3.66 5 4.32 5 5 5 C5 6.65 5 8.3 5 10 C5.99 10 6.98 10 8 10 C8 11.32 8 12.64 8 14 C9.32 14 10.64 14 12 14 C11.625 16.4375 11.625 16.4375 11 19 C10.34 19.33 9.68 19.66 9 20 C9 19.01 9 18.02 9 17 C7.02 17 5.04 17 3 17 C3 16.34 3 15.68 3 15 C2.34 15 1.68 15 1 15 C1 18.63 1 22.26 1 26 C3.97 26.33 6.94 26.66 10 27 C10.33 27.99 10.66 28.98 11 30 C7.04 30 3.08 30 -1 30 C-1 29.01 -1 28.02 -1 27 C-2.65 27 -4.3 27 -6 27 C-6 25.02 -6 23.04 -6 21 C-4.68 21 -3.36 21 -2 21 C-1.67 19.02 -1.34 17.04 -1 15 C-1.99 15.33 -2.98 15.66 -4 16 C-4 15.34 -4 14.68 -4 14 C-3.34 14 -2.68 14 -2 14 C-1.67 12.68 -1.34 11.36 -1 10 C0.32 10 1.64 10 3 10 C3 8.68 3 7.36 3 6 C2.34 6 1.68 6 1 6 C0.67 4.02 0.34 2.04 0 0 Z " fill="#020613" transform="translate(145,150)"/>
<path d="M0 0 C8.25 0 16.5 0 25 0 C25 9.57 25 19.14 25 29 C24.34 29 23.68 29 23 29 C23 28.01 23 27.02 23 26 C22.11699219 26.01160156 21.23398438 26.02320312 20.32421875 26.03515625 C12.81429809 26.09162182 5.46249871 25.852857 -2 25 C-2 24.67 -2 24.34 -2 24 C5.92 23.67 13.84 23.34 22 23 C22.33 16.73 22.66 10.46 23 4 C16.88180467 4.36773253 16.88180467 4.36773253 10.7644043 4.74829102 C9.61838745 4.81294556 9.61838745 4.81294556 8.44921875 4.87890625 C7.27879028 4.94960327 7.27879028 4.94960327 6.0847168 5.02172852 C4 5 4 5 1 4 C0.67 2.68 0.34 1.36 0 0 Z " fill="#01040E" transform="translate(79,18)"/>
<path d="M0 0 C11.71286474 -0.10745747 23.30972892 0.28841828 35 1 C35 2.32 35 3.64 35 5 C33.02 5 31.04 5 29 5 C29 4.34 29 3.68 29 3 C25.7 3.33 22.4 3.66 19 4 C19 4.66 19 5.32 19 6 C18.01 6 17.02 6 16 6 C16 5.34 16 4.68 16 4 C11.71 4 7.42 4 3 4 C3 4.66 3 5.32 3 6 C5.64 6 8.28 6 11 6 C11 6.99 11 7.98 11 9 C8.03 9 5.06 9 2 9 C2 12.96 2 16.92 2 21 C1.34 21 0.68 21 0 21 C0 14.07 0 7.14 0 0 Z " fill="#697490" transform="translate(63,49)"/>
<path d="M0 0 C0.99 0.33 1.98 0.66 3 1 C2.34 1 1.68 1 1 1 C1 1.99 1 2.98 1 4 C1.99 4 2.98 4 4 4 C4 3.01 4 2.02 4 1 C4.66 1 5.32 1 6 1 C6 2.65 6 4.3 6 6 C5.01 6.495 5.01 6.495 4 7 C3.67 7.99 3.34 8.98 3 10 C2.34 10 1.68 10 1 10 C1 10.99 1 11.98 1 13 C0.34 13 -0.32 13 -1 13 C-1.33 14.65 -1.66 16.3 -2 18 C-2.66 18 -3.32 18 -4 18 C-4 19.32 -4 20.64 -4 22 C-4.66 22 -5.32 22 -6 22 C-6 22.66 -6 23.32 -6 24 C-6.66 24 -7.32 24 -8 24 C-8 25.32 -8 26.64 -8 28 C-8.66 28 -9.32 28 -10 28 C-9.67 26.02 -9.34 24.04 -9 22 C-9.66 22 -10.32 22 -11 22 C-11 23.65 -11 25.3 -11 27 C-12.32 27.33 -13.64 27.66 -15 28 C-15 28.99 -15 29.98 -15 31 C-14.01 31 -13.02 31 -12 31 C-12 31.99 -12 32.98 -12 34 C-13.65 33.67 -15.3 33.34 -17 33 C-17 32.34 -17 31.68 -17 31 C-17.66 30.67 -18.32 30.34 -19 30 C-18.01 30 -17.02 30 -16 30 C-16 29.01 -16 28.02 -16 27 C-15.01 26.67 -14.02 26.34 -13 26 C-12.814375 24.7934375 -12.814375 24.7934375 -12.625 23.5625 C-12.41875 22.716875 -12.2125 21.87125 -12 21 C-11.34 20.67 -10.68 20.34 -10 20 C-9.67 19.01 -9.34 18.02 -9 17 C-8.34 17 -7.68 17 -7 17 C-6.9175 16.34 -6.835 15.68 -6.75 15 C-5.75240209 11.00960837 -3.92833317 7.61450357 -2 4 C-1.34 4 -0.68 4 0 4 C0 2.68 0 1.36 0 0 Z " fill="#596276" transform="translate(44,133)"/>
<path d="M0 0 C2.0625 0.4375 2.0625 0.4375 4 1 C4 2.65 4 4.3 4 6 C4.99 6 5.98 6 7 6 C7 7.65 7 9.3 7 11 C7.99 11 8.98 11 10 11 C10 12.32 10 13.64 10 15 C10.99 15 11.98 15 13 15 C13 16.98 13 18.96 13 21 C13.66 21 14.32 21 15 21 C14.33333333 23 13.66666667 25 13 27 C12.01 27 11.02 27 10 27 C10 25.35 10 23.7 10 22 C8.68 22 7.36 22 6 22 C6 20.68 6 19.36 6 18 C5.34 18 4.68 18 4 18 C4 16.02 4 14.04 4 12 C3.01 12 2.02 12 1 12 C1 10.68 1 9.36 1 8 C0.34 8 -0.32 8 -1 8 C-1.04241723 5.66705225 -1.04092937 3.33297433 -1 1 C-0.67 0.67 -0.34 0.34 0 0 Z " fill="#2F3236" transform="translate(121,121)"/>
<path d="M0 0 C0.33 0 0.66 0 1 0 C1 3.63 1 7.26 1 11 C0.34 11 -0.32 11 -1 11 C-1 14.3 -1 17.6 -1 21 C0.32 21.33 1.64 21.66 3 22 C2.34 22.99 1.68 23.98 1 25 C-0.32 25 -1.64 25 -3 25 C-3 24.34 -3 23.68 -3 23 C-4.98 23 -6.96 23 -9 23 C-8.67 22.01 -8.34 21.02 -8 20 C-6.68 20.33 -5.36 20.66 -4 21 C-4 19.02 -4 17.04 -4 15 C-4.99 15.33 -5.98 15.66 -7 16 C-7.66 15.67 -8.32 15.34 -9 15 C-9 16.65 -9 18.3 -9 20 C-10.98 20 -12.96 20 -15 20 C-14.01 19.67 -13.02 19.34 -12 19 C-11.67 14.71 -11.34 10.42 -11 6 C-10.34 6 -9.68 6 -9 6 C-9 8.64 -9 11.28 -9 14 C-8.01 14 -7.02 14 -6 14 C-6 11.69 -6 9.38 -6 7 C-5.34 7 -4.68 7 -4 7 C-4 7.99 -4 8.98 -4 10 C-3.01 10 -2.02 10 -1 10 C-1.20625 8.72125 -1.4125 7.4425 -1.625 6.125 C-1.9765625 3.9453125 -1.9765625 3.9453125 -2 2 C-1.34 1.34 -0.68 0.68 0 0 Z " fill="#010409" transform="translate(78,149)"/>
<path d="M0 0 C2.16154208 4.32308416 2.26009056 7.37211133 2.1953125 12.046875 C2.1924826 12.81807678 2.18965271 13.58927856 2.18673706 14.3838501 C2.17557013 16.83939332 2.15047229 19.2945676 2.125 21.75 C2.11496568 23.41796347 2.10584061 25.08593268 2.09765625 26.75390625 C2.07564225 30.83607897 2.04113667 34.917977 2 39 C1.67 39 1.34 39 1 39 C1 32.07 1 25.14 1 18 C0.34 18.33 -0.32 18.66 -1 19 C-0.99476318 19.6391333 -0.98952637 20.2782666 -0.98413086 20.93676758 C-0.9630573 23.89533463 -0.9502448 26.85388579 -0.9375 29.8125 C-0.92912109 30.81732422 -0.92074219 31.82214844 -0.91210938 32.85742188 C-0.89033681 39.62868824 -1.2630169 46.26910926 -2 53 C-1.34 53 -0.68 53 0 53 C0.05386629 55.12472576 0.09273071 57.24983652 0.125 59.375 C0.14820312 60.55835938 0.17140625 61.74171875 0.1953125 62.9609375 C0 66 0 66 -2 68 C-2.83505124 60.30570493 -3.13616351 52.72448314 -3.09765625 44.98828125 C-3.0962413 43.89404343 -3.09482635 42.7998056 -3.09336853 41.67240906 C-3.08782531 38.21907678 -3.07528379 34.76581228 -3.0625 31.3125 C-3.05747765 28.95377699 -3.05291604 26.59505294 -3.04882812 24.23632812 C-3.03787456 18.49086277 -3.02119413 12.74543623 -3 7 C-2.67 7 -2.34 7 -2 7 C-1.67 8.98 -1.34 10.96 -1 13 C-0.67 8.71 -0.34 4.42 0 0 Z " fill="#6B7386" transform="translate(105,114)"/>
<path d="M0 0 C4.95 0 9.9 0 15 0 C15 0.66 15 1.32 15 2 C16.32 2 17.64 2 19 2 C19 3.65 19 5.3 19 7 C17.68 7 16.36 7 15 7 C15 5.68 15 4.36 15 3 C11.88214887 3.64644661 11.88214887 3.64644661 11 6 C4.65057468 7.00784529 -1.58227972 7.12058347 -8 7 C-8 6.34 -8 5.68 -8 5 C-7.34 5 -6.68 5 -6 5 C-6 3.68 -6 2.36 -6 1 C-3.03 1.495 -3.03 1.495 0 2 C0 1.34 0 0.68 0 0 Z " fill="#4F535A" transform="translate(82,24)"/>
<path d="M0 0 C3.41703059 2.2780204 3.79651189 3.38372165 5.1875 7.125 C5.53167969 8.03507813 5.87585938 8.94515625 6.23046875 9.8828125 C6.48441406 10.58148438 6.73835937 11.28015625 7 12 C6.01 12 5.02 12 4 12 C4.33 13.98 4.66 15.96 5 18 C5.66 18 6.32 18 7 18 C7 19.32 7 20.64 7 22 C6.360625 22.103125 5.72125 22.20625 5.0625 22.3125 C4.381875 22.539375 3.70125 22.76625 3 23 C2.67 23.99 2.34 24.98 2 26 C2.33 26.33 2.66 26.66 3 27 C2.71325582 29.00720923 2.38133299 31.0085944 2 33 C0.68 33 -0.64 33 -2 33 C-2 34.98 -2 36.96 -2 39 C-2.33 39 -2.66 39 -3 39 C-3 36.69 -3 34.38 -3 32 C-1.68 32 -0.36 32 1 32 C1 31.01 1 30.02 1 29 C0.34 29 -0.32 29 -1 29 C-1.12375 27.865625 -1.2475 26.73125 -1.375 25.5625 C-1.58125 24.386875 -1.7875 23.21125 -2 22 C-2.66 21.67 -3.32 21.34 -4 21 C-3.01 21 -2.02 21 -1 21 C-1 19.68 -1 18.36 -1 17 C-0.34 17 0.32 17 1 17 C1 16.37351563 1 15.74703125 1 15.1015625 C1 12.06770833 1 9.03385417 1 6 C0.67966043 3.99787771 0.34740923 1.99760305 0 0 Z " fill="#3E4049" transform="translate(141,138)"/>
<path d="M0 0 C0.66 0.33 1.32 0.66 2 1 C2.99 1.33 3.98 1.66 5 2 C4.34 7.61 3.68 13.22 3 19 C2.34 19 1.68 19 1 19 C1 21.64 1 24.28 1 27 C1.99 27.33 2.98 27.66 4 28 C2.68 28 1.36 28 0 28 C0 24.7 0 21.4 0 18 C0.66 18 1.32 18 2 18 C1.67 14.7 1.34 11.4 1 8 C0.17189174 11.31243305 -0.09278428 13.65976579 0 17 C-0.99 17 -1.98 17 -3 17 C-3 16.01 -3 15.02 -3 14 C-3.66 14 -4.32 14 -5 14 C-5 16.31 -5 18.62 -5 21 C-5.99 21 -6.98 21 -8 21 C-8 18.36 -8 15.72 -8 13 C-7.01 13 -6.02 13 -5 13 C-5 10.03 -5 7.06 -5 4 C-3.35 4 -1.7 4 0 4 C0 2.68 0 1.36 0 0 Z " fill="#484C5A" transform="translate(77,142)"/>
<path d="M0 0 C6.27 0 12.54 0 19 0 C19 2.31 19 4.62 19 7 C15.85069107 8.04976964 13.61185544 8.10131595 10.3125 8.0625 C9.31863281 8.05347656 8.32476562 8.04445313 7.30078125 8.03515625 C6.16189453 8.01775391 6.16189453 8.01775391 5 8 C5 7.34 5 6.68 5 6 C3.35 5.67 1.7 5.34 0 5 C0 3.35 0 1.7 0 0 Z " fill="#15152C" transform="translate(83,90)"/>
<path d="M0 0 C0.33 0 0.66 0 1 0 C1 1.65 1 3.3 1 5 C0.01 5 -0.98 5 -2 5 C-2 6.98 -2 8.96 -2 11 C-1.34 11 -0.68 11 0 11 C0 10.01 0 9.02 0 8 C2.64 8 5.28 8 8 8 C8.04241723 10.33294775 8.04092937 12.66702567 8 15 C7 16 7 16 5.15234375 16.09765625 C3.1015625 16.06510417 1.05078125 16.03255208 -1 16 C-1 16.66 -1 17.32 -1 18 C-0.34 18 0.32 18 1 18 C1 18.99 1 19.98 1 21 C0.34 21 -0.32 21 -1 21 C-1 21.99 -1 22.98 -1 24 C-1.66 24 -2.32 24 -3 24 C-4.35439668 21.29120665 -4.06501451 18.99066732 -4 16 C-4.66 15.67 -5.32 15.34 -6 15 C-5.690625 14.29875 -5.38125 13.5975 -5.0625 12.875 C-3.96697322 9.91063343 -3.43577008 7.12301892 -3 4 C-2.01 4 -1.02 4 0 4 C0 2.68 0 1.36 0 0 Z " fill="#3B3F61" transform="translate(73,79)"/>
<path d="M0 0 C4.455 0.99 4.455 0.99 9 2 C9 6 9 6 8 8 C7.01 8 6.02 8 5 8 C5.0721875 8.68707031 5.144375 9.37414063 5.21875 10.08203125 C5.3115625 10.98308594 5.404375 11.88414063 5.5 12.8125 C5.5928125 13.70582031 5.685625 14.59914063 5.78125 15.51953125 C6.10914891 19.23767072 5.7852612 22.36816697 5 26 C2.525 25.01 2.525 25.01 0 24 C0 16.08 0 8.16 0 0 Z " fill="#00020C" transform="translate(108,21)"/>
<path d="M0 0 C0.33 0.66 0.66 1.32 1 2 C14.86 2.495 14.86 2.495 29 3 C29 3.66 29 4.32 29 5 C32.96 5 36.92 5 41 5 C41 6.32 41 7.64 41 9 C39.35 9 37.7 9 36 9 C36 8.34 36 7.68 36 7 C25.11 6.67 14.22 6.34 3 6 C3 5.34 3 4.68 3 4 C1.02 4 -0.96 4 -3 4 C-3 3.34 -3 2.68 -3 2 C-2.01 1.34 -1.02 0.68 0 0 Z " fill="#CCD6E3" transform="translate(63,9)"/>
<path d="M0 0 C0.66 0 1.32 0 2 0 C2 8.91 2 17.82 2 27 C4.31 27 6.62 27 9 27 C9 27.66 9 28.32 9 29 C19.23 29 29.46 29 40 29 C40 29.99 40 30.98 40 32 C35.5890404 31.88083665 31.17826283 31.75653809 26.76757812 31.62768555 C25.27022126 31.58464137 23.77282487 31.54294799 22.27539062 31.50268555 C20.11055644 31.44423502 17.94591566 31.38076547 15.78125 31.31640625 C14.48251953 31.27974854 13.18378906 31.24309082 11.84570312 31.20532227 C7.88239211 30.99372091 3.93830694 30.49228837 0 30 C0 20.1 0 10.2 0 0 Z " fill="#8C8EB7" transform="translate(62,15)"/>
<path d="M0 0 C0.99 0 1.98 0 3 0 C4.17415915 15.66244434 4.10483203 31.30100064 4 47 C3.01 47.495 3.01 47.495 2 48 C2 39.09 2 30.18 2 21 C1.34 21 0.68 21 0 21 C0 14.07 0 7.14 0 0 Z " fill="#000307" transform="translate(94,114)"/>
<path d="M0 0 C0.33 0 0.66 0 1 0 C1.04984062 5.22866463 1.08592606 10.45718765 1.10986328 15.68603516 C1.11985378 17.46079928 1.13345081 19.23554723 1.15087891 21.01025391 C1.32450751 39.15955016 1.32450751 39.15955016 -1 48 C-3.48305053 45.51694947 -3.29065373 44.65563505 -3.4140625 41.22265625 C-3.45281494 40.24232422 -3.49156738 39.26199219 -3.53149414 38.25195312 C-3.56235107 37.19943359 -3.59320801 36.14691406 -3.625 35.0625 C-3.68192017 33.45858398 -3.68192017 33.45858398 -3.73999023 31.82226562 C-4.05470306 22.21389047 -4.10201568 12.61214369 -4 3 C-3.34 3 -2.68 3 -2 3 C-1.67 11.58 -1.34 20.16 -1 29 C-0.67 19.43 -0.34 9.86 0 0 Z " fill="#4F5456" transform="translate(98,132)"/>
<path d="M0 0 C0.33 0.66 0.66 1.32 1 2 C3.52733235 2.65555119 3.52733235 2.65555119 6 3 C7.125 7.75 7.125 7.75 6 10 C5.34 10 4.68 10 4 10 C3.67 11.32 3.34 12.64 3 14 C0.37472811 14.05382106 -2.24944713 14.09358313 -4.875 14.125 C-5.62136719 14.14175781 -6.36773437 14.15851563 -7.13671875 14.17578125 C-9.09194461 14.1933959 -11.04742021 14.10320189 -13 14 C-13.66 13.34 -14.32 12.68 -15 12 C-10.05 11.67 -5.1 11.34 0 11 C-0.66868314 7.88667752 -0.66868314 7.88667752 -3.0625 6.8125 C-3.701875 6.544375 -4.34125 6.27625 -5 6 C-4.34 6 -3.68 6 -3 6 C-3 5.01 -3 4.02 -3 3 C-2.01 3 -1.02 3 0 3 C0 2.01 0 1.02 0 0 Z " fill="#0C1021" transform="translate(39,167)"/>
<path d="M0 0 C0.66 0 1.32 0 2 0 C3.86469345 46.20295983 3.86469345 46.20295983 0 52 C0 34.84 0 17.68 0 0 Z " fill="#020411" transform="translate(59,15)"/>
<path d="M0 0 C0.66 0 1.32 0 2 0 C1.814375 1.2375 1.62875 2.475 1.4375 3.75 C1.05288777 6.76279577 0.9125406 9.10010827 2 12 C2.99 12 3.98 12 5 12 C5 10.35 5 8.7 5 7 C5.99 7 6.98 7 8 7 C8 8.65 8 10.3 8 12 C7.34 12 6.68 12 6 12 C6 12.99 6 13.98 6 15 C5.01 15 4.02 15 3 15 C3 15.99 3 16.98 3 18 C2.01 18.33 1.02 18.66 0 19 C0 17.68 0 16.36 0 15 C-2.31 15 -4.62 15 -7 15 C-7 13.02 -7 11.04 -7 9 C-6.34 9.66 -5.68 10.32 -5 11 C-2.93125966 11.6425235 -2.93125966 11.6425235 -1 12 C-1 11.01 -1 10.02 -1 9 C-1.99 9 -2.98 9 -4 9 C-4 8.01 -4 7.02 -4 6 C-3.01 5.67 -2.02 5.34 -1 5 C-0.67 3.35 -0.34 1.7 0 0 Z " fill="#010416" transform="translate(33,155)"/>
<path d="M0 0 C0.33 0 0.66 0 1 0 C1.33 1.65 1.66 3.3 2 5 C2.99 5.33 3.98 5.66 5 6 C5 7.65 5 9.3 5 11 C5.99 11 6.98 11 8 11 C8 13.31 8 15.62 8 18 C4.42914986 19.19028338 1.1539317 19.18398398 -2.5625 19.1875 C-3.24763672 19.19974609 -3.93277344 19.21199219 -4.63867188 19.22460938 C-6.42734112 19.22987533 -8.21548848 19.12200021 -10 19 C-10.66 18.34 -11.32 17.68 -12 17 C-7.05 16.67 -2.1 16.34 3 16 C3 15.01 3 14.02 3 13 C2.01 13 1.02 13 0 13 C0 12.34 0 11.68 0 11 C0.99 11 1.98 11 3 11 C3 10.34 3 9.68 3 9 C2.34 9 1.68 9 1 9 C-0.4783226 6.04335481 -0.06032783 3.25770263 0 0 Z " fill="#03050E" transform="translate(107,171)"/>
<path d="M0 0 C2 3 2 3 2 6 C2.66 6.33 3.32 6.66 4 7 C3.67 7.33 3.34 7.66 3 8 C2.76807135 9.51469448 2.58784762 11.03754562 2.4375 12.5625 C2.35371094 13.38878906 2.26992187 14.21507812 2.18359375 15.06640625 C2.12300781 15.70449219 2.06242188 16.34257812 2 17 C1.34 17 0.68 17 0 17 C0 18.32 0 19.64 0 21 C-0.99 21 -1.98 21 -3 21 C-3.33 19.02 -3.66 17.04 -4 15 C-4.66 15 -5.32 15 -6 15 C-5.25 12.0625 -5.25 12.0625 -4 9 C-1.875 8.125 -1.875 8.125 0 8 C0 7.34 0 6.68 0 6 C-0.66 6 -1.32 6 -2 6 C-2 4.35 -2 2.7 -2 1 C-1.34 0.67 -0.68 0.34 0 0 Z " fill="#121648" transform="translate(140,138)"/>
<path d="M0 0 C1.98 0 3.96 0 6 0 C6 0.66 6 1.32 6 2 C6.99 2 7.98 2 9 2 C9 2.66 9 3.32 9 4 C7.02 4 5.04 4 3 4 C3 13.57 3 23.14 3 33 C2.34 33 1.68 33 1 33 C-0.19388403 10.40510967 -0.19388403 10.40510967 0 0 Z " fill="#616D83" transform="translate(104,14)"/>
<path d="M0 0 C0.99 0 1.98 0 3 0 C3 0.66 3 1.32 3 2 C5.31 2 7.62 2 10 2 C10 2.66 10 3.32 10 4 C11.97536745 3.65213292 11.97536745 3.65213292 14 3 C14.33 2.34 14.66 1.68 15 1 C15.66 1 16.32 1 17 1 C17.33 3.31 17.66 5.62 18 8 C17.01 8 16.02 8 15 8 C14.67 8.66 14.34 9.32 14 10 C13.67 9.01 13.34 8.02 13 7 C11.77023438 7.03480469 11.77023438 7.03480469 10.515625 7.0703125 C8.89914063 7.09738281 8.89914063 7.09738281 7.25 7.125 C5.64898437 7.15980469 5.64898437 7.15980469 4.015625 7.1953125 C1.07529894 7.00487687 -0.52361878 6.52670104 -3 5 C-3 4.34 -3 3.68 -3 3 C-2.01 3 -1.02 3 0 3 C0 2.01 0 1.02 0 0 Z " fill="#41475A" transform="translate(65,170)"/>
<path d="M0 0 C0.99 0.33 1.98 0.66 3 1 C3 1.66 3 2.32 3 3 C4.65 2.67 6.3 2.34 8 2 C7.67 6.62 7.34 11.24 7 16 C5.02 16.33 3.04 16.66 1 17 C0.875 10.375 0.875 10.375 2 7 C1.34 7 0.68 7 0 7 C0 4.69 0 2.38 0 0 Z " fill="#000104" transform="translate(86,97)"/>
<path d="M0 0 C4.52081966 -0.02917237 9.04161488 -0.0468568 13.5625 -0.0625 C14.83931641 -0.07087891 16.11613281 -0.07925781 17.43164062 -0.08789062 C19.29272461 -0.09272461 19.29272461 -0.09272461 21.19140625 -0.09765625 C22.89598999 -0.10551147 22.89598999 -0.10551147 24.63500977 -0.11352539 C28.15208567 0.00513095 31.52771145 0.44219489 35 1 C35 1.66 35 2.32 35 3 C11.41761516 3.20638953 11.41761516 3.20638953 0 2 C0 1.34 0 0.68 0 0 Z " fill="#2D3762" transform="translate(64,15)"/>
<path d="M0 0 C1.32 0 2.64 0 4 0 C4.33 3.96 4.66 7.92 5 12 C7.97 12.33 10.94 12.66 14 13 C14.33 13.99 14.66 14.98 15 16 C11.04 16 7.08 16 3 16 C3 15.01 3 14.02 3 13 C1.35 13 -0.3 13 -2 13 C-2 11.02 -2 9.04 -2 7 C-0.68 7 0.64 7 2 7 C2.33 5.02 2.66 3.04 3 1 C2.01 1.33 1.02 1.66 0 2 C0 1.34 0 0.68 0 0 Z " fill="#010209" transform="translate(141,164)"/>
<path d="M0 0 C4.29 0 8.58 0 13 0 C13 2.64 13 5.28 13 8 C8.71 8 4.42 8 0 8 C0 7.01 0 6.02 0 5 C3.05263664 4.01879536 4.94736336 4.01879536 8 5 C8 4.01 8 3.02 8 2 C5.36 2 2.72 2 0 2 C0 1.34 0 0.68 0 0 Z " fill="#080F21" transform="translate(66,53)"/>
<path d="M0 0 C8.91 0 17.82 0 27 0 C27 1.32 27 2.64 27 4 C25.02 4 23.04 4 21 4 C21 3.34 21 2.68 21 2 C17.7 2.33 14.4 2.66 11 3 C11 3.66 11 4.32 11 5 C10.01 5 9.02 5 8 5 C8 4.01 8 3.02 8 2 C5.36 2 2.72 2 0 2 C0 1.34 0 0.68 0 0 Z " fill="#90A7B1" transform="translate(71,50)"/>
<path d="M0 0 C0.99 0 1.98 0 3 0 C3 1.32 3 2.64 3 4 C4.32 4.33 5.64 4.66 7 5 C5.35 5.33 3.7 5.66 2 6 C2 6.33 2 6.66 2 7 C-3.28 7 -8.56 7 -14 7 C-14 6.34 -14 5.68 -14 5 C-15.98 5 -17.96 5 -20 5 C-20 4.67 -20 4.34 -20 4 C-13.62694402 3.25492456 -7.41688675 2.89650183 -1 3 C-0.67 2.01 -0.34 1.02 0 0 Z " fill="#293B57" transform="translate(94,27)"/>
<path d="M0 0 C0.66 0 1.32 0 2 0 C2 1.65 2 3.3 2 5 C1.34 5 0.68 5 0 5 C0 6.32 0 7.64 0 9 C0.99 9 1.98 9 3 9 C3 10.65 3 12.3 3 14 C3.66 14 4.32 14 5 14 C5 14.99 5 15.98 5 17 C4.01 17.33 3.02 17.66 2 18 C2.33 19.32 2.66 20.64 3 22 C1.35 22 -0.3 22 -2 22 C-2 20.02 -2 18.04 -2 16 C-1.34 16 -0.68 16 0 16 C0 14.02 0 12.04 0 10 C-0.99 9.67 -1.98 9.34 -3 9 C-3 7.35 -3 5.7 -3 4 C-2.01 4 -1.02 4 0 4 C0 2.68 0 1.36 0 0 Z " fill="#070E2A" transform="translate(56,115)"/>
<path d="M0 0 C4.62 0 9.24 0 14 0 C13.34 1.98 12.68 3.96 12 6 C13.65 6 15.3 6 17 6 C16.67 7.32 16.34 8.64 16 10 C16 9.01 16 8.02 16 7 C14.6078125 7.061875 14.6078125 7.061875 13.1875 7.125 C10 7 10 7 7 5 C4.67612053 4.60612212 2.34206251 4.26513915 0 4 C0 2.68 0 1.36 0 0 Z " fill="#05041A" transform="translate(92,84)"/>
<path d="M0 0 C0.66 0 1.32 0 2 0 C2 3.3 2 6.6 2 10 C-2 12 -2 12 -5 12 C-5.66 12.99 -6.32 13.98 -7 15 C-7 12.03 -7 9.06 -7 6 C-6.01 6.33 -5.02 6.66 -4 7 C-4 5.68 -4 4.36 -4 3 C-2.68 3 -1.36 3 0 3 C0 2.01 0 1.02 0 0 Z " fill="#060925" transform="translate(114,55)"/>
<path d="M0 0 C1.98 0 3.96 0 6 0 C6 2.64 6 5.28 6 8 C5.01 8 4.02 8 3 8 C2.67 9.32 2.34 10.64 2 12 C-0.62506802 12.02690844 -3.24986173 12.04679404 -5.875 12.0625 C-6.62136719 12.07087891 -7.36773437 12.07925781 -8.13671875 12.08789062 C-13.7734375 12.11328125 -13.7734375 12.11328125 -16 11 C-16 10.34 -16 9.68 -16 9 C-16.66 8.67 -17.32 8.34 -18 8 C-16.35 8 -14.7 8 -13 8 C-13 8.99 -13 9.98 -13 11 C-7.555 10.505 -7.555 10.505 -2 10 C-2 9.34 -2 8.68 -2 8 C-4.97 8 -7.94 8 -11 8 C-11 7.67 -11 7.34 -11 7 C-5.72 7 -0.44 7 5 7 C5 5.02 5 3.04 5 1 C3.35 1 1.7 1 0 1 C0 0.67 0 0.34 0 0 Z " fill="#3C3F4A" transform="translate(157,169)"/>
<path d="M0 0 C0.99 0 1.98 0 3 0 C3 2.64 3 5.28 3 8 C3.66 8 4.32 8 5 8 C5 9.65 5 11.3 5 13 C4.01 13 3.02 13 2 13 C2 12.01 2 11.02 2 10 C1.34 10 0.68 10 0 10 C0 12.31 0 14.62 0 17 C-0.99 17 -1.98 17 -3 17 C-3 14.36 -3 11.72 -3 9 C-2.01 9 -1.02 9 0 9 C0 6.03 0 3.06 0 0 Z " fill="#355169" transform="translate(72,146)"/>
<path d="M0 0 C0.66 0.33 1.32 0.66 2 1 C2 2.32 2 3.64 2 5 C2.66 5.33 3.32 5.66 4 6 C4 7.98 4 9.96 4 12 C3.34 12 2.68 12 2 12 C1.67 12.99 1.34 13.98 1 15 C-0.65 14.67 -2.3 14.34 -4 14 C-4.57154648 9.14185495 -2.71330785 6.90038004 0 3 C0 2.01 0 1.02 0 0 Z " fill="#363B50" transform="translate(52,119)"/>
<path d="M0 0 C3.3 0 6.6 0 10 0 C10 1.98 10 3.96 10 6 C6.52674819 7.1577506 3.63932552 7.06866652 0 7 C0 4.69 0 2.38 0 0 Z " fill="#787B95" transform="translate(92,91)"/>
<path d="M0 0 C0.66 0 1.32 0 2 0 C2 1.32 2 2.64 2 4 C2.99 4 3.98 4 5 4 C5 5.98 5 7.96 5 10 C5.66 10 6.32 10 7 10 C6.33333333 12 5.66666667 14 5 16 C4.01 16 3.02 16 2 16 C2 14.35 2 12.7 2 11 C1.01 11 0.02 11 -1 11 C-0.67 7.37 -0.34 3.74 0 0 Z " fill="#01020C" transform="translate(129,132)"/>
<path d="M0 0 C0.33 0.99 0.66 1.98 1 3 C1.99 3 2.98 3 4 3 C4 5.97 4 8.94 4 12 C2.02 12 0.04 12 -2 12 C-2 12.66 -2 13.32 -2 14 C-2.99 14 -3.98 14 -5 14 C-5.33 14.99 -5.66 15.98 -6 17 C-6 15.35 -6 13.7 -6 12 C-5.34 12 -4.68 12 -4 12 C-4 11.34 -4 10.68 -4 10 C-3.01 10 -2.02 10 -1 10 C-1.020625 8.906875 -1.04125 7.81375 -1.0625 6.6875 C-1 3 -1 3 0 0 Z " fill="#010310" transform="translate(98,170)"/>
<path d="M0 0 C0.66 0 1.32 0 2 0 C2 7.26 2 14.52 2 22 C1.01 22 0.02 22 -1 22 C-1.02887814 18.52085059 -1.04675687 15.04173169 -1.0625 11.5625 C-1.07087891 10.56927734 -1.07925781 9.57605469 -1.08789062 8.55273438 C-1.09111328 7.60849609 -1.09433594 6.66425781 -1.09765625 5.69140625 C-1.10289307 4.81685791 -1.10812988 3.94230957 -1.11352539 3.04125977 C-1 1 -1 1 0 0 Z " fill="#000310" transform="translate(104,132)"/>
<path d="M0 0 C3.41703059 2.2780204 3.79651189 3.38372165 5.1875 7.125 C5.53167969 8.03507813 5.87585938 8.94515625 6.23046875 9.8828125 C6.48441406 10.58148438 6.73835937 11.28015625 7 12 C5.35 12 3.7 12 2 12 C2.33 14.64 2.66 17.28 3 20 C2.34 20 1.68 20 1 20 C1 20.66 1 21.32 1 22 C0.34 22 -0.32 22 -1 22 C-1.33 23.32 -1.66 24.64 -2 26 C-2 24.68 -2 23.36 -2 22 C-2.66 21.67 -3.32 21.34 -4 21 C-3.01 21 -2.02 21 -1 21 C-1 19.68 -1 18.36 -1 17 C-0.34 17 0.32 17 1 17 C1 16.37351563 1 15.74703125 1 15.1015625 C1 12.06770833 1 9.03385417 1 6 C0.67966043 3.99787771 0.34740923 1.99760305 0 0 Z " fill="#49505E" transform="translate(141,138)"/>
<path d="M0 0 C1.32 0 2.64 0 4 0 C4 1.65 4 3.3 4 5 C4.66 5 5.32 5 6 5 C6 6.65 6 8.3 6 10 C6.66 10 7.32 10 8 10 C10 13 10 13 10 17 C9.01 17 8.02 17 7 17 C7 15.68 7 14.36 7 13 C6.01 13 5.02 13 4 13 C4 11.35 4 9.7 4 8 C3.01 8 2.02 8 1 8 C0.67 5.36 0.34 2.72 0 0 Z " fill="#2B265E" transform="translate(124,119)"/>
<path d="M0 0 C0.33 0 0.66 0 1 0 C1 7.92 1 15.84 1 24 C-7.58 24 -16.16 24 -25 24 C-25 23.67 -25 23.34 -25 23 C-23.71222656 22.93941406 -22.42445312 22.87882812 -21.09765625 22.81640625 C-19.41925841 22.73201753 -17.74087364 22.6473687 -16.0625 22.5625 C-15.21236328 22.52318359 -14.36222656 22.48386719 -13.48632812 22.44335938 C-12.67744141 22.40146484 -11.86855469 22.35957031 -11.03515625 22.31640625 C-9.91185913 22.26141968 -9.91185913 22.26141968 -8.76586914 22.20532227 C-6.97538674 22.18228937 -6.97538674 22.18228937 -6 21 C-4.02 21 -2.04 21 0 21 C0 14.07 0 7.14 0 0 Z " fill="#212C45" transform="translate(104,26)"/>
<path d="M0 0 C9.57 0 19.14 0 29 0 C29 0.99 29 1.98 29 3 C19.43 2.67 9.86 2.34 0 2 C0 1.34 0 0.68 0 0 Z " fill="#BDC3CE" transform="translate(73,44)"/>
<path d="M0 0 C6.6 0 13.2 0 20 0 C20 0.99 20 1.98 20 3 C13.07 3 6.14 3 -1 3 C-0.67 2.01 -0.34 1.02 0 0 Z " fill="#000509" transform="translate(93,11)"/>
<path d="M0 0 C0.33 0 0.66 0 1 0 C1 1.65 1 3.3 1 5 C0.01 5 -0.98 5 -2 5 C-1.814375 6.03125 -1.62875 7.0625 -1.4375 8.125 C-1.02692918 11.76148442 -1.221691 14.45437009 -2 18 C-1.01 18 -0.02 18 1 18 C1 18.99 1 19.98 1 21 C0.34 21 -0.32 21 -1 21 C-1 21.99 -1 22.98 -1 24 C-1.66 24 -2.32 24 -3 24 C-4.35439668 21.29120665 -4.06501451 18.99066732 -4 16 C-4.66 15.67 -5.32 15.34 -6 15 C-5.690625 14.29875 -5.38125 13.5975 -5.0625 12.875 C-3.96697322 9.91063343 -3.43577008 7.12301892 -3 4 C-2.01 4 -1.02 4 0 4 C0 2.68 0 1.36 0 0 Z " fill="#556074" transform="translate(73,79)"/>
<path d="M0 0 C0.33 0 0.66 0 1 0 C1 1.65 1 3.3 1 5 C0.34 5 -0.32 5 -1 5 C-1.144375 5.61875 -1.28875 6.2375 -1.4375 6.875 C-2 9 -2 9 -3 11 C-3.66 11 -4.32 11 -5 11 C-5 12.32 -5 13.64 -5 15 C-5.99 15 -6.98 15 -8 15 C-7.67 16.65 -7.34 18.3 -7 20 C-8.32 20 -9.64 20 -11 20 C-11 21.32 -11 22.64 -11 24 C-11.99 24.33 -12.98 24.66 -14 25 C-14 24.34 -14 23.68 -14 23 C-13.34 23 -12.68 23 -12 23 C-12 21.68 -12 20.36 -12 19 C-11.01 19 -10.02 19 -9 19 C-9 17.35 -9 15.7 -9 14 C-8.01 14 -7.02 14 -6 14 C-6 12.35 -6 10.7 -6 9 C-6.66 8.67 -7.32 8.34 -8 8 C-7.67 7.01 -7.34 6.02 -7 5 C-6.01 4.67 -5.02 4.34 -4 4 C-4 4.99 -4 5.98 -4 7 C-3.34 7 -2.68 7 -2 7 C-2 6.01 -2 5.02 -2 4 C-1.34 4 -0.68 4 0 4 C0 2.68 0 1.36 0 0 Z " fill="#6F7473" transform="translate(56,138)"/>
<path d="M0 0 C0.33 0 0.66 0 1 0 C1 3.3 1 6.6 1 10 C0.34 10 -0.32 10 -1 10 C-1 13.96 -1 17.92 -1 22 C-2.32 22.33 -3.64 22.66 -5 23 C-4.43033057 10.86014806 -4.43033057 10.86014806 -1 5 C-0.30092586 2.26427415 -0.30092586 2.26427415 0 0 Z " fill="#000211" transform="translate(83,122)"/>
<path d="M0 0 C0.33 0 0.66 0 1 0 C1 3.3 1 6.6 1 10 C-4.28 10 -9.56 10 -15 10 C-15 9.01 -15 8.02 -15 7 C-10.38 7 -5.76 7 -1 7 C-0.67 4.69 -0.34 2.38 0 0 Z " fill="#2A3865" transform="translate(101,65)"/>
<path d="M0 0 C1.98 0 3.96 0 6 0 C6 0.66 6 1.32 6 2 C5.01 2.495 5.01 2.495 4 3 C3.53045739 6.04581269 3.53045739 6.04581269 3.375 9.5625 C3.30023438 10.76003906 3.22546875 11.95757812 3.1484375 13.19140625 C3.09945312 14.11824219 3.05046875 15.04507813 3 16 C2.01 16 1.02 16 0 16 C0 10.72 0 5.44 0 0 Z " fill="#0C0E35" transform="translate(104,54)"/>
<path d="M0 0 C0.33 0.66 0.66 1.32 1 2 C1.639375 2.12375 2.27875 2.2475 2.9375 2.375 C5 3 5 3 6.25 5.0625 C6.4975 5.701875 6.745 6.34125 7 7 C6.01 7 5.02 7 4 7 C4 8.32 4 9.64 4 11 C2.68 11 1.36 11 0 11 C0 9.02 0 7.04 0 5 C-0.99 5 -1.98 5 -3 5 C-3 4.34 -3 3.68 -3 3 C-2.01 3 -1.02 3 0 3 C0 2.01 0 1.02 0 0 Z " fill="#343947" transform="translate(113,11)"/>
<path d="M0 0 C9.24 0 18.48 0 28 0 C28 0.33 28 0.66 28 1 C24.7 1.33 21.4 1.66 18 2 C18 2.33 18 2.66 18 3 C12.06 3 6.12 3 0 3 C0 2.01 0 1.02 0 0 Z " fill="#252731" transform="translate(64,8)"/>
<path d="M0 0 C0.33 1.32 0.66 2.64 1 4 C1.99 4 2.98 4 4 4 C4.12375 4.804375 4.2475 5.60875 4.375 6.4375 C4.684375 7.7059375 4.684375 7.7059375 5 9 C5.66 9.33 6.32 9.66 7 10 C7 11.65 7 13.3 7 15 C7.66 15.33 8.32 15.66 9 16 C8.01 16 7.02 16 6 16 C6 14.35 6 12.7 6 11 C5.34 11.66 4.68 12.32 4 13 C0.875 13.125 0.875 13.125 -2 13 C-1.34 12.67 -0.68 12.34 0 12 C0 8.04 0 4.08 0 0 Z " fill="#3F414F" transform="translate(124,106)"/>
<path d="M0 0 C0.99 0 1.98 0 3 0 C3.33 2.64 3.66 5.28 4 8 C4.66 8 5.32 8 6 8 C6 8.99 6 9.98 6 11 C5.01 11 4.02 11 3 11 C3 10.01 3 9.02 3 8 C2.01 8 1.02 8 0 8 C0 8.99 0 9.98 0 11 C-0.66 11 -1.32 11 -2 11 C-2.28571429 3.57142857 -2.28571429 3.57142857 0 0 Z " fill="#283244" transform="translate(66,95)"/>
<path d="M0 0 C4.62 0 9.24 0 14 0 C14 0.33 14 0.66 14 1 C8.06 1.495 8.06 1.495 2 2 C1.67 8.93 1.34 15.86 1 23 C0.67 23 0.34 23 0 23 C0 15.41 0 7.82 0 0 Z " fill="#1E2142" transform="translate(63,17)"/>
<path d="M0 0 C0.99 0.33 1.98 0.66 3 1 C2.67 2.65 2.34 4.3 2 6 C-0.45862401 6.05383848 -2.9160755 6.09359038 -5.375 6.125 C-6.42300781 6.15013672 -6.42300781 6.15013672 -7.4921875 6.17578125 C-9.32897486 6.19344267 -11.16601963 6.10303261 -13 6 C-13.66 5.34 -14.32 4.68 -15 4 C-10.05 3.67 -5.1 3.34 0 3 C0 2.01 0 1.02 0 0 Z " fill="#03081C" transform="translate(110,184)"/>
<path d="M0 0 C1.32 0 2.64 0 4 0 C4 0.99 4 1.98 4 3 C4.66 3 5.32 3 6 3 C6.625 5.375 6.625 5.375 7 8 C6.34 8.66 5.68 9.32 5 10 C4.67 8.35 4.34 6.7 4 5 C3.67 5 3.34 5 3 5 C2.67 6.65 2.34 8.3 2 10 C1.01 10 0.02 10 -1 10 C-1 9.01 -1 8.02 -1 7 C-1.66 6.67 -2.32 6.34 -3 6 C-2.67 5.34 -2.34 4.68 -2 4 C-1.34 4 -0.68 4 0 4 C0 2.68 0 1.36 0 0 Z " fill="#1C2138" transform="translate(36,157)"/>
<path d="M0 0 C0 4 0 4 -1.375 5.75 C-3 7 -3 7 -5 7 C-5 7.66 -5 8.32 -5 9 C-5.99 9 -6.98 9 -8 9 C-7.34 7.35 -6.68 5.7 -6 4 C-6.66 4 -7.32 4 -8 4 C-8 3.01 -8 2.02 -8 1 C-4.93251126 -0.86240388 -3.40254489 -1.2151946 0 0 Z " fill="#060820" transform="translate(72,113)"/>
<path d="M0 0 C3.63 0 7.26 0 11 0 C11 0.66 11 1.32 11 2 C11.99 2 12.98 2 14 2 C14 2.66 14 3.32 14 4 C8.72 4 3.44 4 -2 4 C-2 3.34 -2 2.68 -2 2 C-1.34 2 -0.68 2 0 2 C0 1.34 0 0.68 0 0 Z " fill="#77899F" transform="translate(96,182)"/>
<path d="M0 0 C0.66 0 1.32 0 2 0 C1.67 4.29 1.34 8.58 1 13 C1.66 13 2.32 13 3 13 C3.05386629 15.12472576 3.09273071 17.24983652 3.125 19.375 C3.14820312 20.55835938 3.17140625 21.74171875 3.1953125 22.9609375 C3 26 3 26 1 28 C-0.12998844 18.65741704 -0.09908936 9.39146903 0 0 Z " fill="#263961" transform="translate(102,154)"/>
<path d="M0 0 C0.66 0.33 1.32 0.66 2 1 C2 2.65 2 4.3 2 6 C1.34 6 0.68 6 0 6 C0 6.99 0 7.98 0 9 C-0.99 9 -1.98 9 -3 9 C-3 9.99 -3 10.98 -3 12 C-3.99 12.33 -4.98 12.66 -6 13 C-6.33 11.02 -6.66 9.04 -7 7 C-6.01 6.34 -5.02 5.68 -4 5 C-3.01 5.33 -2.02 5.66 -1 6 C-1.020625 5.195625 -1.04125 4.39125 -1.0625 3.5625 C-1 1 -1 1 0 0 Z " fill="#030610" transform="translate(39,161)"/>
<path d="M0 0 C1.65 0.33 3.3 0.66 5 1 C5 1.66 5 2.32 5 3 C3.68 3 2.36 3 1 3 C1 12.9 1 22.8 1 33 C1.66 33.33 2.32 33.66 3 34 C2.01 34 1.02 34 0 34 C-0.16749457 29.47954554 -0.32806608 24.95891882 -0.48217773 20.43798828 C-0.53560391 18.89950922 -0.59093379 17.36109506 -0.64819336 15.82275391 C-0.73008748 13.61374914 -0.80517099 11.40460276 -0.87890625 9.1953125 C-0.90594131 8.50567413 -0.93297638 7.81603577 -0.96083069 7.10549927 C-1.11387171 2.22774341 -1.11387171 2.22774341 0 0 Z " fill="#131737" transform="translate(61,12)"/>
<path d="M0 0 C0.33 0.99 0.66 1.98 1 3 C1.66 3 2.32 3 3 3 C3 2.01 3 1.02 3 0 C3.99 0 4.98 0 6 0 C6 2.31 6 4.62 6 7 C4.35 7.33 2.7 7.66 1 8 C0.67 6.68 0.34 5.36 0 4 C-0.66 4 -1.32 4 -2 4 C-2 4.99 -2 5.98 -2 7 C-2.66 6.67 -3.32 6.34 -4 6 C-3.0022242 3.00667261 -2.2477975 2.05233685 0 0 Z " fill="#4A6083" transform="translate(63,103)"/>
<path d="M0 0 C0.99 0 1.98 0 3 0 C3 0.66 3 1.32 3 2 C7.29 2.33 11.58 2.66 16 3 C16 3.33 16 3.66 16 4 C14.95199219 4.09087891 14.95199219 4.09087891 13.8828125 4.18359375 C12.97273438 4.26738281 12.06265625 4.35117187 11.125 4.4375 C10.22007813 4.51871094 9.31515625 4.59992187 8.3828125 4.68359375 C5.98889139 4.86989285 5.98889139 4.86989285 4 6 C2.00039988 6.039992 -0.00047242 6.04346799 -2 6 C-2 5.34 -2 4.68 -2 4 C-1.34 4 -0.68 4 0 4 C0 2.68 0 1.36 0 0 Z " fill="#616A68" transform="translate(76,25)"/>
<path d="M0 0 C0.66 0 1.32 0 2 0 C2 0.66 2 1.32 2 2 C3.98 2 5.96 2 8 2 C8 2.99 8 3.98 8 5 C6 7 6 7 2.875 7.125 C1.451875 7.063125 1.451875 7.063125 0 7 C-0.33 8.32 -0.66 9.64 -1 11 C-0.67 7.37 -0.34 3.74 0 0 Z " fill="#121847" transform="translate(146,165)"/>
<path d="M0 0 C2.0625 0.4375 2.0625 0.4375 4 1 C4 2.65 4 4.3 4 6 C4.99 6 5.98 6 7 6 C6.67 6.99 6.34 7.98 6 9 C6 8.34 6 7.68 6 7 C5.01 7 4.02 7 3 7 C3.33 8.32 3.66 9.64 4 11 C3.34 11 2.68 11 2 11 C2 9.68 2 8.36 2 7 C1.01 7 0.02 7 -1 7 C-1.04254356 5.00045254 -1.04080783 2.99958364 -1 1 C-0.67 0.67 -0.34 0.34 0 0 Z " fill="#01010C" transform="translate(121,121)"/>
<path d="M0 0 C0.99 0 1.98 0 3 0 C5 2 5 2 6 4 C5.5625 6.125 5.5625 6.125 5 8 C4.01 8 3.02 8 2 8 C2 9.65 2 11.3 2 13 C1.01 12.67 0.02 12.34 -1 12 C-0.67 10.35 -0.34 8.7 0 7 C0.66 7 1.32 7 2 7 C2 6.01 2 5.02 2 4 C1.34 4 0.68 4 0 4 C0 2.68 0 1.36 0 0 Z " fill="#010714" transform="translate(45,144)"/>
<path d="M0 0 C3.96 0 7.92 0 12 0 C12 0.66 12 1.32 12 2 C8.55824478 4.14699969 6.2279708 4.09856795 2.25 3.625 C1.26515625 3.51414062 0.2803125 3.40328125 -0.734375 3.2890625 C-1.48203125 3.19367187 -2.2296875 3.09828125 -3 3 C-2.67 2.34 -2.34 1.68 -2 1 C-1.34 1.33 -0.68 1.66 0 2 C0 1.34 0 0.68 0 0 Z " fill="#795258" transform="translate(82,24)"/>
<path d="M0 0 C0.66 0 1.32 0 2 0 C2.04241723 2.33294775 2.04092937 4.66702567 2 7 C1.67 7.33 1.34 7.66 1 8 C0.63239269 10.32817964 0.29758419 12.6618385 0 15 C-0.66 15 -1.32 15 -2 15 C-2 10.71 -2 6.42 -2 2 C-1.34 2 -0.68 2 0 2 C0 1.34 0 0.68 0 0 Z " fill="#324476" transform="translate(80,116)"/>
<path d="M0 0 C1.32 0 2.64 0 4 0 C4 3.3 4 6.6 4 10 C2.68 10 1.36 10 0 10 C0 6.7 0 3.4 0 0 Z " fill="#323448" transform="translate(113,29)"/>
<path d="M0 0 C0.66 0 1.32 0 2 0 C2 1.32 2 2.64 2 4 C-0.62527189 4.05382106 -3.24944713 4.09358313 -5.875 4.125 C-6.62136719 4.14175781 -7.36773437 4.15851563 -8.13671875 4.17578125 C-10.09194461 4.1933959 -12.04742021 4.10320189 -14 4 C-14.66 3.34 -15.32 2.68 -16 2 C-14.92878906 1.93941406 -13.85757812 1.87882813 -12.75390625 1.81640625 C-11.35675609 1.73201463 -9.95962143 1.64736594 -8.5625 1.5625 C-7.50192383 1.50352539 -7.50192383 1.50352539 -6.41992188 1.44335938 C-2.91309581 1.52375562 -2.91309581 1.52375562 0 0 Z " fill="#5C625E" transform="translate(40,177)"/>
<path d="M0 0 C1.98 0 3.96 0 6 0 C6 1.98 6 3.96 6 6 C3.69 6 1.38 6 -1 6 C-0.67 4.02 -0.34 2.04 0 0 Z " fill="#2F3A76" transform="translate(26,170)"/>
<path d="M0 0 C6.11090483 -0.09945415 11.97403427 -0.0712828 18 1 C18 1.66 18 2.32 18 3 C13.38 3 8.76 3 4 3 C4 2.34 4 1.68 4 1 C2.68 0.67 1.36 0.34 0 0 Z " fill="#616C85" transform="translate(81,15)"/>
<path d="M0 0 C1.485 0.99 1.485 0.99 3 2 C3 2.66 3 3.32 3 4 C3.66 4 4.32 4 5 4 C5 2.68 5 1.36 5 0 C5.66 0 6.32 0 7 0 C7 1.65 7 3.3 7 5 C6.34 5 5.68 5 5 5 C5 6.32 5 7.64 5 9 C4.01 9 3.02 9 2 9 C1.67 7.02 1.34 5.04 1 3 C0.34 3 -0.32 3 -1 3 C-0.67 2.01 -0.34 1.02 0 0 Z " fill="#050814" transform="translate(135,150)"/>
<path d="M0 0 C0.99 0 1.98 0 3 0 C3.33 0.66 3.66 1.32 4 2 C4.99 2 5.98 2 7 2 C6.67 3.65 6.34 5.3 6 7 C5.34 7 4.68 7 4 7 C4 6.34 4 5.68 4 5 C3.34 5 2.68 5 2 5 C2 6.98 2 8.96 2 11 C1.67 11 1.34 11 1 11 C1 8.69 1 6.38 1 4 C0.34 4 -0.32 4 -1 4 C-0.67 2.68 -0.34 1.36 0 0 Z " fill="#090B29" transform="translate(144,160)"/>
<path d="M0 0 C0.33 0.99 0.66 1.98 1 3 C1.66 3 2.32 3 3 3 C3 4.32 3 5.64 3 7 C3.66 7 4.32 7 5 7 C5.33 8.98 5.66 10.96 6 13 C5.01 13.33 4.02 13.66 3 14 C3 13.01 3 12.02 3 11 C2.34 11 1.68 11 1 11 C0.67 7.37 0.34 3.74 0 0 Z " fill="#040518" transform="translate(119,99)"/>
<path d="M0 0 C0.33 0.66 0.66 1.32 1 2 C4.96 2 8.92 2 13 2 C13 3.32 13 4.64 13 6 C11.35 6 9.7 6 8 6 C8 5.34 8 4.68 8 4 C5.69 4 3.38 4 1 4 C0.67 2.68 0.34 1.36 0 0 Z " fill="#9EA7B4" transform="translate(91,12)"/>
<path d="M0 0 C0.99 0 1.98 0 3 0 C3 1.65 3 3.3 3 5 C3.99 5 4.98 5 6 5 C6.33 3.68 6.66 2.36 7 1 C8.1875 3.25 8.1875 3.25 9 6 C7.625 8.3125 7.625 8.3125 6 10 C6.66 10 7.32 10 8 10 C7.67 11.32 7.34 12.64 7 14 C7 13.01 7 12.02 7 11 C6.34 11 5.68 11 5 11 C4.690625 10.360625 4.38125 9.72125 4.0625 9.0625 C3.1654837 7.06389179 3.1654837 7.06389179 2 6 C1.95936168 4.33382885 1.957279 2.66611905 2 1 C1.34 0.67 0.68 0.34 0 0 Z " fill="#5F6061" transform="translate(128,143)"/>
<path d="M0 0 C0 0.99 0 1.98 0 3 C-0.99 3.33 -1.98 3.66 -3 4 C-2.67 5.32 -2.34 6.64 -2 8 C-3.65 8 -5.3 8 -7 8 C-7.1875 5.125 -7.1875 5.125 -7 2 C-4 0 -4 0 0 0 Z " fill="#040619" transform="translate(61,129)"/>
<path d="M0 0 C3.96 0 7.92 0 12 0 C12 0.99 12 1.98 12 3 C8.04 3 4.08 3 0 3 C0 2.01 0 1.02 0 0 Z " fill="#272356" transform="translate(92,84)"/>
<path d="M0 0 C0.79921875 0.00902344 1.5984375 0.01804688 2.421875 0.02734375 C3.02515625 0.03894531 3.6284375 0.05054688 4.25 0.0625 C4.25 1.0525 4.25 2.0425 4.25 3.0625 C-0.37 3.0625 -4.99 3.0625 -9.75 3.0625 C-8.75 1.0625 -8.75 1.0625 -6.984375 0.44140625 C-4.60849677 0.03850382 -2.40820483 -0.03541478 0 0 Z " fill="#798BA0" transform="translate(74.75,60.9375)"/>
<path d="M0 0 C0.66 0 1.32 0 2 0 C2 3.3 2 6.6 2 10 C1.01 10 0.02 10 -1 10 C-1 8.68 -1 7.36 -1 6 C-1.99 6 -2.98 6 -4 6 C-4 5.01 -4 4.02 -4 3 C-2.68 3 -1.36 3 0 3 C0 2.01 0 1.02 0 0 Z " fill="#505A70" transform="translate(114,55)"/>
<path d="M0 0 C0.66 0 1.32 0 2 0 C2 1.65 2 3.3 2 5 C1.34 5 0.68 5 0 5 C0 5.99 0 6.98 0 8 C-0.66 8 -1.32 8 -2 8 C-2 9.32 -2 10.64 -2 12 C-2.99 12 -3.98 12 -5 12 C-5 10.68 -5 9.36 -5 8 C-4.34 8 -3.68 8 -3 8 C-3 6.68 -3 5.36 -3 4 C-2.01 4 -1.02 4 0 4 C0 2.68 0 1.36 0 0 Z " fill="#8198BC" transform="translate(61,112)"/>
<path d="M0 0 C3.3 0.33 6.6 0.66 10 1 C10 1.99 10 2.98 10 4 C6.7 4 3.4 4 0 4 C0 2.68 0 1.36 0 0 Z " fill="#314669" transform="translate(69,64)"/>
<path d="M0 0 C4.29 0 8.58 0 13 0 C12.34 1.98 11.68 3.96 11 6 C10.34 5.67 9.68 5.34 9 5 C9 4.01 9 3.02 9 2 C6.03 2 3.06 2 0 2 C0 1.34 0 0.68 0 0 Z " fill="#01070F" transform="translate(66,53)"/>
<path d="M0 0 C1.65 0 3.3 0 5 0 C5 1.98 5 3.96 5 6 C3.68 6 2.36 6 1 6 C0.34 6.66 -0.32 7.32 -1 8 C-1 7.34 -1 6.68 -1 6 C-1.99 5.67 -2.98 5.34 -4 5 C-2.68 5 -1.36 5 0 5 C0 3.35 0 1.7 0 0 Z " fill="#1A2B43" transform="translate(69,164)"/>
<path d="M0 0 C0.66 0 1.32 0 2 0 C2 0.99 2 1.98 2 3 C2.66 3 3.32 3 4 3 C3.67 6.63 3.34 10.26 3 14 C2.67 14 2.34 14 2 14 C2 12.02 2 10.04 2 8 C1.01 8.33 0.02 8.66 -1 9 C-1.66 8.34 -2.32 7.68 -3 7 C-2.01 7 -1.02 7 0 7 C0 4.69 0 2.38 0 0 Z " fill="#030A21" transform="translate(72,156)"/>
<path d="M0 0 C0.99 0 1.98 0 3 0 C3 1.65 3 3.3 3 5 C3.99 5 4.98 5 6 5 C6.33 7.64 6.66 10.28 7 13 C6.67 12.34 6.34 11.68 6 11 C5.34 11 4.68 11 4 11 C4 9.68 4 8.36 4 7 C3.01 7 2.02 7 1 7 C0.67 4.69 0.34 2.38 0 0 Z " fill="#01020E" transform="translate(127,117)"/>
<path d="M0 0 C4.875 1.875 4.875 1.875 6 3 C6.04080783 4.99958364 6.04254356 7.00045254 6 9 C4.68 9 3.36 9 2 9 C2 6.69 2 4.38 2 2 C1.34 2 0.68 2 0 2 C0 1.34 0 0.68 0 0 Z " fill="#5F7298" transform="translate(96,55)"/>
<path d="M0 0 C7.42857143 1 7.42857143 1 11 2 C10.01 3.485 10.01 3.485 9 5 C7.68 5 6.36 5 5 5 C5 4.34 5 3.68 5 3 C3.02 3 1.04 3 -1 3 C-0.67 2.01 -0.34 1.02 0 0 Z " fill="#030911" transform="translate(70,169)"/>
<path d="M0 0 C1.32 0 2.64 0 4 0 C4 0.99 4 1.98 4 3 C9.28 3 14.56 3 20 3 C20 3.33 20 3.66 20 4 C13.73 4 7.46 4 1 4 C0.67 2.68 0.34 1.36 0 0 Z " fill="#0E1537" transform="translate(82,72)"/>
<path d="M0 0 C4.62 0 9.24 0 14 0 C13.34 0.66 12.68 1.32 12 2 C11.01 2 10.02 2 9 2 C8.67 2.99 8.34 3.98 8 5 C7.34 5 6.68 5 6 5 C5.34 4.01 4.68 3.02 4 2 C2.68 1.34 1.36 0.68 0 0 Z " fill="#080E2D" transform="translate(65,72)"/>
<path d="M0 0 C0.33 0.66 0.66 1.32 1 2 C1.99 2 2.98 2 4 2 C3.67 3.32 3.34 4.64 3 6 C1.35 5.01 -0.3 4.02 -2 3 C-2.33 3.99 -2.66 4.98 -3 6 C-3.66 5.67 -4.32 5.34 -5 5 C-5.33 5.66 -5.66 6.32 -6 7 C-6 5.35 -6 3.7 -6 2 C-4.02 2 -2.04 2 0 2 C0 1.34 0 0.68 0 0 Z " fill="#3F5279" transform="translate(98,52)"/>
<path d="M0 0 C2.97 0 5.94 0 9 0 C9 0.66 9 1.32 9 2 C8.01 2 7.02 2 6 2 C6 2.66 6 3.32 6 4 C4.02 4 2.04 4 0 4 C0 2.68 0 1.36 0 0 Z " fill="#2D3C6D" transform="translate(146,172)"/>
<path d="M0 0 C0.99 0.33 1.98 0.66 3 1 C2.34 1 1.68 1 1 1 C1 1.99 1 2.98 1 4 C1.99 4 2.98 4 4 4 C4 3.01 4 2.02 4 1 C4.66 1 5.32 1 6 1 C6 2.65 6 4.3 6 6 C4.35 6.66 2.7 7.32 1 8 C1 7.01 1 6.02 1 5 C0.01 4.67 -0.98 4.34 -2 4 C-1.34 4 -0.68 4 0 4 C0 2.68 0 1.36 0 0 Z " fill="#8995AD" transform="translate(44,133)"/>
<path d="M0 0 C0.99 0 1.98 0 3 0 C2.67 3.96 2.34 7.92 2 12 C1.34 12 0.68 12 0 12 C0 8.04 0 4.08 0 0 Z " fill="#3C4C7C" transform="translate(75,133)"/>
<path d="M0 0 C0.33 0 0.66 0 1 0 C1 4.62 1 9.24 1 14 C0.01 14 -0.98 14 -2 14 C-1.85970581 11.8537974 -1.71261836 9.70803782 -1.5625 7.5625 C-1.48128906 6.36753906 -1.40007812 5.17257813 -1.31640625 3.94140625 C-1 1 -1 1 0 0 Z " fill="#050A13" transform="translate(96,121)"/>
<path d="M0 0 C1.98 0 3.96 0 6 0 C5.67 0.99 5.34 1.98 5 3 C4.34 2.67 3.68 2.34 3 2 C2.67 3.65 2.34 5.3 2 7 C0.35 7 -1.3 7 -3 7 C-2.01 6.67 -1.02 6.34 0 6 C0 4.02 0 2.04 0 0 Z " fill="#211F46" transform="translate(102,91)"/>
<path d="M0 0 C0.33 0 0.66 0 1 0 C1 7.92 1 15.84 1 24 C0.01 24 -0.98 24 -2 24 C-2 23.01 -2 22.02 -2 21 C-1.34 21 -0.68 21 0 21 C0 14.07 0 7.14 0 0 Z " fill="#44525E" transform="translate(104,26)"/>
<path d="M0 0 C0.99 0.33 1.98 0.66 3 1 C2.67 2.32 2.34 3.64 2 5 C2.66 5 3.32 5 4 5 C4 6.32 4 7.64 4 9 C2.68 8.67 1.36 8.34 0 8 C0 7.01 0 6.02 0 5 C-0.66 5 -1.32 5 -2 5 C-2 4.34 -2 3.68 -2 3 C-1.34 3 -0.68 3 0 3 C0 2.01 0 1.02 0 0 Z " fill="#01061C" transform="translate(40,152)"/>
<path d="M0 0 C0.99 0.33 1.98 0.66 3 1 C3 2.32 3 3.64 3 5 C6.3 5.33 9.6 5.66 13 6 C13 6.33 13 6.66 13 7 C8.71 7 4.42 7 0 7 C0 4.69 0 2.38 0 0 Z " fill="#161B38" transform="translate(67,34)"/>
<path d="M0 0 C0.66 0.33 1.32 0.66 2 1 C2 4.41099168 1.50854594 7.63088314 1 11 C0.67 10.01 0.34 9.02 0 8 C-0.99 8 -1.98 8 -3 8 C-3.36923077 3.44615385 -3.36923077 3.44615385 -1.5 1.1875 C-1.005 0.795625 -0.51 0.40375 0 0 Z " fill="#515354" transform="translate(22,169)"/>
<path d="M0 0 C0.66 0 1.32 0 2 0 C2.33 1.98 2.66 3.96 3 6 C3.66 6 4.32 6 5 6 C5 7.32 5 8.64 5 10 C4.01 10 3.02 10 2 10 C2 9.01 2 8.02 2 7 C1.34 7 0.68 7 0 7 C0 4.69 0 2.38 0 0 Z " fill="#1A2647" transform="translate(143,150)"/>
<path d="M0 0 C0.66 0 1.32 0 2 0 C2 1.32 2 2.64 2 4 C2.66 4 3.32 4 4 4 C4 5.32 4 6.64 4 8 C4.66 8 5.32 8 6 8 C6 8.66 6 9.32 6 10 C4.68 10 3.36 10 2 10 C2 8.68 2 7.36 2 6 C1.34 6 0.68 6 0 6 C0 4.02 0 2.04 0 0 Z " fill="#1D225C" transform="translate(134,136)"/>
<path d="M0 0 C0.33 0 0.66 0 1 0 C1 5.94 1 11.88 1 18 C0.01 18.33 -0.98 18.66 -2 19 C-2.042721 17.33388095 -2.04063832 15.66617115 -2 14 C-1.67 13.67 -1.34 13.34 -1 13 C-0.76518307 10.81707226 -0.58636677 8.62796826 -0.4375 6.4375 C-0.35371094 5.23996094 -0.26992187 4.04242188 -0.18359375 2.80859375 C-0.12300781 1.88175781 -0.06242187 0.95492187 0 0 Z " fill="#2E2F3D" transform="translate(105,114)"/>
<path d="M0 0 C2.31 0 4.62 0 7 0 C7 1.32 7 2.64 7 4 C4.69 4 2.38 4 0 4 C0 2.68 0 1.36 0 0 Z " fill="#59789C" transform="translate(79,65)"/>
<path d="M0 0 C2.64 0 5.28 0 8 0 C8 1.32 8 2.64 8 4 C6.02 4 4.04 4 2 4 C2 3.34 2 2.68 2 2 C1.34 2 0.68 2 0 2 C0 1.34 0 0.68 0 0 Z " fill="#7A89A6" transform="translate(90,50)"/>
<path d="M0 0 C1.65 0 3.3 0 5 0 C5 0.99 5 1.98 5 3 C9.95 3 14.9 3 20 3 C20 3.33 20 3.66 20 4 C17.37493198 4.02690844 14.75013827 4.04679404 12.125 4.0625 C11.37863281 4.07087891 10.63226563 4.07925781 9.86328125 4.08789062 C4.2265625 4.11328125 4.2265625 4.11328125 2 3 C2 2.34 2 1.68 2 1 C1.34 0.67 0.68 0.34 0 0 Z " fill="#A0A6A2" transform="translate(139,177)"/>
<path d="M0 0 C0.99 0 1.98 0 3 0 C3 2.97 3 5.94 3 9 C2.01 9 1.02 9 0 9 C0 6.03 0 3.06 0 0 Z " fill="#152349" transform="translate(99,173)"/>
<path d="M0 0 C2 3 2 3 2 6 C2.66 6.33 3.32 6.66 4 7 C2.68 7.33 1.36 7.66 0 8 C0 7.34 0 6.68 0 6 C-0.66 6 -1.32 6 -2 6 C-2 4.35 -2 2.7 -2 1 C-1.34 0.67 -0.68 0.34 0 0 Z " fill="#040721" transform="translate(140,138)"/>
<path d="M0 0 C0.99 0 1.98 0 3 0 C3 1.98 3 3.96 3 6 C2.34 6 1.68 6 1 6 C0.67 6.99 0.34 7.98 0 9 C-0.66 9 -1.32 9 -2 9 C-2 8.01 -2 7.02 -2 6 C-1.34 6 -0.68 6 0 6 C0 4.02 0 2.04 0 0 Z " fill="#7581A9" transform="translate(53,125)"/>
<path d="M0 0 C0.66 0 1.32 0 2 0 C2 0.66 2 1.32 2 2 C3.32 2 4.64 2 6 2 C6 3.65 6 5.3 6 7 C4.68 7 3.36 7 2 7 C2 5.68 2 4.36 2 3 C1.34 3 0.68 3 0 3 C0 2.01 0 1.02 0 0 Z " fill="#455679" transform="translate(95,24)"/>
<path d="M0 0 C0.33 0 0.66 0 1 0 C1 4.29 1 8.58 1 13 C2.32 13 3.64 13 5 13 C5 13.66 5 14.32 5 15 C3.02 15 1.04 15 -1 15 C-0.67 10.05 -0.34 5.1 0 0 Z " fill="#08112C" transform="translate(105,167)"/>
<path d="M0 0 C0.66 0 1.32 0 2 0 C1.34 3.63 0.68 7.26 0 11 C-0.33 10.34 -0.66 9.68 -1 9 C-1.99 9 -2.98 9 -4 9 C-4 8.01 -4 7.02 -4 6 C-3.01 5.67 -2.02 5.34 -1 5 C-0.67 3.35 -0.34 1.7 0 0 Z " fill="#0B1229" transform="translate(33,155)"/>
<path d="M0 0 C1.65 0.33 3.3 0.66 5 1 C5 1.99 5 2.98 5 4 C4.34 4 3.68 4 3 4 C3 4.99 3 5.98 3 7 C2.34 7 1.68 7 1 7 C0.34 6.34 -0.32 5.68 -1 5 C-0.625 2.375 -0.625 2.375 0 0 Z " fill="#040813" transform="translate(51,138)"/>
<path d="M0 0 C0.66 0.99 1.32 1.98 2 3 C4.05003955 4.19232613 4.05003955 4.19232613 6 5 C3.69 5.66 1.38 6.32 -1 7 C-1.33 5.02 -1.66 3.04 -2 1 C-1.34 0.67 -0.68 0.34 0 0 Z " fill="#172032" transform="translate(53,133)"/>
<path d="M0 0 C0.99 0.33 1.98 0.66 3 1 C3 1.99 3 2.98 3 4 C3.66 4 4.32 4 5 4 C5 4.66 5 5.32 5 6 C4.34 6 3.68 6 3 6 C2.67 6.66 2.34 7.32 2 8 C2 7.34 2 6.68 2 6 C1.34 6 0.68 6 0 6 C0 4.02 0 2.04 0 0 Z " fill="#13162A" transform="translate(80,110)"/>
<path d="M0 0 C0.66 0 1.32 0 2 0 C2 0.66 2 1.32 2 2 C4.31 2 6.62 2 9 2 C9 2.66 9 3.32 9 4 C6.03 4 3.06 4 0 4 C0 2.68 0 1.36 0 0 Z " fill="#91ABA2" transform="translate(66,170)"/>
<path d="M0 0 C0.66 0 1.32 0 2 0 C2 0.99 2 1.98 2 3 C2.66 3 3.32 3 4 3 C4 4.65 4 6.3 4 8 C3.01 8 2.02 8 1 8 C0.67 5.36 0.34 2.72 0 0 Z " fill="#302C5B" transform="translate(120,110)"/>
<path d="M0 0 C0.33 1.32 0.66 2.64 1 4 C1.66 4 2.32 4 3 4 C3 5.32 3 6.64 3 8 C2.34 8 1.68 8 1 8 C0.67 6.68 0.34 5.36 0 4 C-0.66 4 -1.32 4 -2 4 C-2 4.99 -2 5.98 -2 7 C-2.66 6.67 -3.32 6.34 -4 6 C-3.0022242 3.00667261 -2.2477975 2.05233685 0 0 Z " fill="#808B98" transform="translate(63,103)"/>
<path d="M0 0 C0.33 0.66 0.66 1.32 1 2 C3.52733235 2.65555119 3.52733235 2.65555119 6 3 C6.33 4.65 6.66 6.3 7 8 C5.68 8 4.36 8 3 8 C3 6.68 3 5.36 3 4 C2.01 3.67 1.02 3.34 0 3 C0 2.01 0 1.02 0 0 Z " fill="#9CA095" transform="translate(39,167)"/>
<path d="M0 0 C0.66 0 1.32 0 2 0 C2 1.32 2 2.64 2 4 C2.99 4 3.98 4 5 4 C5 6.31 5 8.62 5 11 C4.731875 10.360625 4.46375 9.72125 4.1875 9.0625 C3.11332248 6.66868314 3.11332248 6.66868314 0 6 C0 4.02 0 2.04 0 0 Z " fill="#0A0D2A" transform="translate(129,132)"/>
<path d="M0 0 C0.99 0.33 1.98 0.66 3 1 C2.34 2.32 1.68 3.64 1 5 C0.34 5 -0.32 5 -1 5 C-1.33 6.32 -1.66 7.64 -2 9 C-2 7.68 -2 6.36 -2 5 C-2.66 4.67 -3.32 4.34 -4 4 C-3.34 3.34 -2.68 2.68 -2 2 C-1.34 2.33 -0.68 2.66 0 3 C0 2.01 0 1.02 0 0 Z " fill="#737572" transform="translate(61,129)"/>
<path d="M0 0 C0.33 1.32 0.66 2.64 1 4 C1.66 4 2.32 4 3 4 C3 4.66 3 5.32 3 6 C1.35 5.67 -0.3 5.34 -2 5 C-2 6.32 -2 7.64 -2 9 C-2.99 8.67 -3.98 8.34 -5 8 C-4.34 8 -3.68 8 -3 8 C-3 6.68 -3 5.36 -3 4 C-2.34 3.67 -1.68 3.34 -1 3 C-0.67 2.01 -0.34 1.02 0 0 Z " fill="#58636B" transform="translate(58,110)"/>
<path d="M0 0 C1.32 0 2.64 0 4 0 C4 2.31 4 4.62 4 7 C3.34 7 2.68 7 2 7 C2 5.68 2 4.36 2 3 C1.34 3 0.68 3 0 3 C0 2.01 0 1.02 0 0 Z " fill="#3A3A5F" transform="translate(88,91)"/>
<path d="M0 0 C0.33 0.99 0.66 1.98 1 3 C3.01508358 3.73323796 3.01508358 3.73323796 5 4 C3.02 4.99 3.02 4.99 1 6 C1 7.98 1 9.96 1 12 C-1.83022097 8.00439392 -0.76210446 4.57262677 0 0 Z " fill="#4B5783" transform="translate(65,58)"/>
<path d="M0 0 C0.33 0.99 0.66 1.98 1 3 C-1.31 3 -3.62 3 -6 3 C-6 2.01 -6 1.02 -6 0 C-3 -1 -3 -1 0 0 Z " fill="#020715" transform="translate(72,58)"/>
<path d="M0 0 C0.99 0 1.98 0 3 0 C3 1.65 3 3.3 3 5 C1.35 5.33 -0.3 5.66 -2 6 C-2 5.34 -2 4.68 -2 4 C-1.34 4 -0.68 4 0 4 C0 2.68 0 1.36 0 0 Z " fill="#6A8988" transform="translate(76,25)"/>
<path d="M0 0 C0.33 0.66 0.66 1.32 1 2 C1.99 2.33 2.98 2.66 4 3 C4 3.66 4 4.32 4 5 C1.69 5 -0.62 5 -3 5 C-3 4.34 -3 3.68 -3 3 C-2.01 3 -1.02 3 0 3 C0 2.01 0 1.02 0 0 Z " fill="#0B1143" transform="translate(155,171)"/>
<path d="M0 0 C0.99 0 1.98 0 3 0 C3 1.65 3 3.3 3 5 C1.68 5 0.36 5 -1 5 C-0.67 3.35 -0.34 1.7 0 0 Z " fill="#050211" transform="translate(71,108)"/>
<path d="M0 0 C1.98 0.66 3.96 1.32 6 2 C6 2.99 6 3.98 6 5 C3.69 4.34 1.38 3.68 -1 3 C-0.67 2.01 -0.34 1.02 0 0 Z " fill="#010318" transform="translate(64,72)"/>
<path d="M0 0 C0 0.99 0 1.98 0 3 C-2.31 3 -4.62 3 -7 3 C-7 2.34 -7 1.68 -7 1 C-4.53721199 -0.231394 -2.7204945 -0.07159196 0 0 Z " fill="#7B92AC" transform="translate(95,61)"/>
<path d="M0 0 C0 0.66 0 1.32 0 2 C-2.64 2 -5.28 2 -8 2 C-8.33 1.34 -8.66 0.68 -9 0 C-5.52176885 -1.15941038 -3.54104422 -0.70820884 0 0 Z " fill="#3C4561" transform="translate(85,16)"/>
<path d="M0 0 C1.98 0.495 1.98 0.495 4 1 C4 1.66 4 2.32 4 3 C3.34 3 2.68 3 2 3 C1.67 3.99 1.34 4.98 1 6 C1 5.01 1 4.02 1 3 C0.34 3 -0.32 3 -1 3 C-0.67 2.01 -0.34 1.02 0 0 Z M-5 4 C-2 5 -2 5 -2 5 Z " fill="#2B2D2C" transform="translate(41,174)"/>
<path d="M0 0 C0.33 1.32 0.66 2.64 1 4 C2.65 4 4.3 4 6 4 C6.33 4.66 6.66 5.32 7 6 C4.69 6 2.38 6 0 6 C-1.24546405 3.50907189 -0.7767578 2.58919267 0 0 Z " fill="#282C5F" transform="translate(32,170)"/>
<path d="M0 0 C1.98 0 3.96 0 6 0 C6 0.99 6 1.98 6 3 C4.02 3 2.04 3 0 3 C0 2.01 0 1.02 0 0 Z " fill="#6077AB" transform="translate(26,170)"/>
<path d="M0 0 C1.65 0 3.3 0 5 0 C4.625 2.4375 4.625 2.4375 4 5 C3.01 5.495 3.01 5.495 2 6 C2 4.68 2 3.36 2 2 C1.34 2 0.68 2 0 2 C0 1.34 0 0.68 0 0 Z " fill="#010103" transform="translate(152,164)"/>
<path d="M0 0 C0.66 0 1.32 0 2 0 C2 2.31 2 4.62 2 7 C1.34 6.34 0.68 5.68 0 5 C-0.99 5.495 -0.99 5.495 -2 6 C-2 4.68 -2 3.36 -2 2 C-1.34 2 -0.68 2 0 2 C0 1.34 0 0.68 0 0 Z " fill="#3F4A6F" transform="translate(80,116)"/>
<path d="M0 0 C0.66 0 1.32 0 2 0 C2.33 1.32 2.66 2.64 3 4 C2.01 4 1.02 4 0 4 C0 4.99 0 5.98 0 7 C-0.66 7 -1.32 7 -2 7 C-2 5.68 -2 4.36 -2 3 C-1.34 3 -0.68 3 0 3 C0 2.01 0 1.02 0 0 Z " fill="#060B1B" transform="translate(61,107)"/>
<path d="M0 0 C3.96 0 7.92 0 12 0 C12 0.33 12 0.66 12 1 C9.03 1 6.06 1 3 1 C3 1.66 3 2.32 3 3 C2.01 3 1.02 3 0 3 C0 2.01 0 1.02 0 0 Z " fill="#15113C" transform="translate(92,84)"/>
<path d="M0 0 C0.66 0 1.32 0 2 0 C2 0.66 2 1.32 2 2 C2.66 2 3.32 2 4 2 C4 2.66 4 3.32 4 4 C0.37 3.67 -3.26 3.34 -7 3 C-7 2.67 -7 2.34 -7 2 C-4.69 2 -2.38 2 0 2 C0 1.34 0 0.68 0 0 Z " fill="#575A70" transform="translate(69,42)"/>
<path d="M0 0 C0.99 0 1.98 0 3 0 C3 0.66 3 1.32 3 2 C3.99 2 4.98 2 6 2 C6 2.66 6 3.32 6 4 C4.02 4 2.04 4 0 4 C0 2.68 0 1.36 0 0 Z " fill="#A1AFC7" transform="translate(107,14)"/>
<path d="M0 0 C0.99 0.33 1.98 0.66 3 1 C3 2.65 3 4.3 3 6 C2.01 6 1.02 6 0 6 C0 4.02 0 2.04 0 0 Z " fill="#090B1C" transform="translate(61,123)"/>
<path d="M0 0 C0.66 0 1.32 0 2 0 C2 1.32 2 2.64 2 4 C0 5.75 0 5.75 -2 7 C-2.125 4.625 -2.125 4.625 -2 2 C-1.34 1.34 -0.68 0.68 0 0 Z " fill="#282932" transform="translate(70,113)"/>
<path d="" fill="#FFFFFF" transform="translate(0,0)"/>
<path d="" fill="#FFFFFF" transform="translate(0,0)"/>
<path d="" fill="#FFFFFF" transform="translate(0,0)"/>
<path d="" fill="#FFFFFF" transform="translate(0,0)"/>
<path d="" fill="#FFFFFF" transform="translate(0,0)"/>
<path d="" fill="#FFFFFF" transform="translate(0,0)"/>
<path d="" fill="#FFFFFF" transform="translate(0,0)"/>
<path d="" fill="#FFFFFF" transform="translate(0,0)"/>
<path d="" fill="#FFFFFF" transform="translate(0,0)"/>
<path d="" fill="#FFFFFF" transform="translate(0,0)"/>
<path d="" fill="#000000" transform="translate(0,0)"/>
<path d="" fill="#808080" transform="translate(0,0)"/>
<path d="" fill="#FFFFFF" transform="translate(0,0)"/>
<path d="" fill="#FFFFFF" transform="translate(0,0)"/>
<path d="" fill="#FFFFFF" transform="translate(0,0)"/>
<path d="" fill="#FFFFFF" transform="translate(0,0)"/>
<path d="" fill="#FFFFFF" transform="translate(0,0)"/>
<path d="" fill="#FFFFFF" transform="translate(0,0)"/>
<path d="" fill="#FFFFFF" transform="translate(0,0)"/>
<path d="" fill="#FFFFFF" transform="translate(0,0)"/>
<path d="" fill="#FFFFFF" transform="translate(0,0)"/>
<path d="" fill="#FFFFFF" transform="translate(0,0)"/>
<path d="" fill="#FFFFFF" transform="translate(0,0)"/>
<path d="" fill="#FFFFFF" transform="translate(0,0)"/>
<path d="" fill="#FFFFFF" transform="translate(0,0)"/>
<path d="" fill="#000000" transform="translate(0,0)"/>
<path d="" fill="#FFFFFF" transform="translate(0,0)"/>
<path d="" fill="#000000" transform="translate(0,0)"/>
<path d="" fill="#FFFFFF" transform="translate(0,0)"/>
<path d="" fill="#000000" transform="translate(0,0)"/>
<path d="" fill="#FFFFFF" transform="translate(0,0)"/>
<path d="" fill="#FFFFFF" transform="translate(0,0)"/>
<path d="" fill="#FFFFFF" transform="translate(0,0)"/>
<path d="" fill="#FFFFFF" transform="translate(0,0)"/>
<path d="" fill="#FFFFFF" transform="translate(0,0)"/>
<path d="" fill="#FFFFFF" transform="translate(0,0)"/>
<path d="" fill="#FFFFFF" transform="translate(0,0)"/>
<path d="" fill="#FFFFFF" transform="translate(0,0)"/>
<path d="" fill="#FFFFFF" transform="translate(0,0)"/>
<path d="" fill="#FFFFFF" transform="translate(0,0)"/>
<path d="" fill="#FFFFFF" transform="translate(0,0)"/>
<path d="" fill="#FFFFFF" transform="translate(0,0)"/>
<path d="" fill="#FFFFFF" transform="translate(0,0)"/>
<path d="" fill="#FFFFFF" transform="translate(0,0)"/>
<path d="" fill="#FFFFFF" transform="translate(0,0)"/>
</svg>
